<?xml version="1.0" encoding="UTF-8"?>
<svg xmlns="http://www.w3.org/2000/svg" xmlns:xlink="http://www.w3.org/1999/xlink" width="155px" height="59px" viewBox="0 0 155 59" version="1.1">
<g id="surface1">
<path style=" stroke:none;fill-rule:nonzero;fill:rgb(100%,100%,100%);fill-opacity:1;" d="M 0.386719 0 L 154.613281 0 L 154.613281 58.578125 L 0.386719 58.578125 Z M 0.386719 0 "/>
<path style="fill:none;stroke-width:1;stroke-linecap:butt;stroke-linejoin:miter;stroke:rgb(0%,0%,0%);stroke-opacity:1;stroke-miterlimit:4;" d="M 10.499043 0.000000000000003553 L 10.499043 35 " transform="matrix(1.468809,0,0,1.475,0.3875,-0.00000000000000524)"/>
<path style="fill:none;stroke-width:1;stroke-linecap:butt;stroke-linejoin:miter;stroke:rgb(0%,0%,0%);stroke-opacity:1;stroke-miterlimit:4;" d="M 12.501622 0.000000000000003553 L 12.501622 35 " transform="matrix(1.468809,0,0,1.475,0.3875,-0.00000000000000524)"/>
<path style="fill:none;stroke-width:1;stroke-linecap:butt;stroke-linejoin:miter;stroke:rgb(0%,0%,0%);stroke-opacity:1;stroke-miterlimit:4;" d="M 14.498881 0.000000000000003553 L 14.498881 30 " transform="matrix(1.468809,0,0,1.475,0.3875,-0.00000000000000524)"/>
<path style="fill:none;stroke-width:2;stroke-linecap:butt;stroke-linejoin:miter;stroke:rgb(0%,0%,0%);stroke-opacity:1;stroke-miterlimit:4;" d="M 18.998699 0.000000000000003553 L 18.998699 30 " transform="matrix(1.468809,0,0,1.475,0.3875,-0.00000000000000524)"/>
<path style="fill:none;stroke-width:1;stroke-linecap:butt;stroke-linejoin:miter;stroke:rgb(0%,0%,0%);stroke-opacity:1;stroke-miterlimit:4;" d="M 21.498598 0.000000000000003553 L 21.498598 30 " transform="matrix(1.468809,0,0,1.475,0.3875,-0.00000000000000524)"/>
<path style="fill:none;stroke-width:1;stroke-linecap:butt;stroke-linejoin:miter;stroke:rgb(0%,0%,0%);stroke-opacity:1;stroke-miterlimit:4;" d="M 26.498396 0.000000000000003553 L 26.498396 30 " transform="matrix(1.468809,0,0,1.475,0.3875,-0.00000000000000524)"/>
<path style="fill:none;stroke-width:1;stroke-linecap:butt;stroke-linejoin:miter;stroke:rgb(0%,0%,0%);stroke-opacity:1;stroke-miterlimit:4;" d="M 30.500893 0.000000000000003553 L 30.500893 30 " transform="matrix(1.468809,0,0,1.475,0.3875,-0.00000000000000524)"/>
<path style="fill:none;stroke-width:1;stroke-linecap:butt;stroke-linejoin:miter;stroke:rgb(0%,0%,0%);stroke-opacity:1;stroke-miterlimit:4;" d="M 33.500772 0.000000000000003553 L 33.500772 30 " transform="matrix(1.468809,0,0,1.475,0.3875,-0.00000000000000524)"/>
<path style="fill:none;stroke-width:3;stroke-linecap:butt;stroke-linejoin:miter;stroke:rgb(0%,0%,0%);stroke-opacity:1;stroke-miterlimit:4;" d="M 37.50061 0.000000000000003553 L 37.50061 30 " transform="matrix(1.468809,0,0,1.475,0.3875,-0.00000000000000524)"/>
<path style="fill:none;stroke-width:1;stroke-linecap:butt;stroke-linejoin:miter;stroke:rgb(0%,0%,0%);stroke-opacity:1;stroke-miterlimit:4;" d="M 40.500488 0.000000000000003553 L 40.500488 30 " transform="matrix(1.468809,0,0,1.475,0.3875,-0.00000000000000524)"/>
<path style="fill:none;stroke-width:2;stroke-linecap:butt;stroke-linejoin:miter;stroke:rgb(0%,0%,0%);stroke-opacity:1;stroke-miterlimit:4;" d="M 45.000306 0.000000000000003553 L 45.000306 30 " transform="matrix(1.468809,0,0,1.475,0.3875,-0.00000000000000524)"/>
<path style="fill:none;stroke-width:1;stroke-linecap:butt;stroke-linejoin:miter;stroke:rgb(0%,0%,0%);stroke-opacity:1;stroke-miterlimit:4;" d="M 47.500205 0.000000000000003553 L 47.500205 30 " transform="matrix(1.468809,0,0,1.475,0.3875,-0.00000000000000524)"/>
<path style="fill:none;stroke-width:1;stroke-linecap:butt;stroke-linejoin:miter;stroke:rgb(0%,0%,0%);stroke-opacity:1;stroke-miterlimit:4;" d="M 51.500043 0.000000000000003553 L 51.500043 30 " transform="matrix(1.468809,0,0,1.475,0.3875,-0.00000000000000524)"/>
<path style="fill:none;stroke-width:2;stroke-linecap:butt;stroke-linejoin:miter;stroke:rgb(0%,0%,0%);stroke-opacity:1;stroke-miterlimit:4;" d="M 53.999942 0.000000000000003553 L 53.999942 30 " transform="matrix(1.468809,0,0,1.475,0.3875,-0.00000000000000524)"/>
<path style="fill:none;stroke-width:1;stroke-linecap:butt;stroke-linejoin:miter;stroke:rgb(0%,0%,0%);stroke-opacity:1;stroke-miterlimit:4;" d="M 56.499841 0.000000000000003553 L 56.499841 35 " transform="matrix(1.468809,0,0,1.475,0.3875,-0.00000000000000524)"/>
<path style="fill:none;stroke-width:1;stroke-linecap:butt;stroke-linejoin:miter;stroke:rgb(0%,0%,0%);stroke-opacity:1;stroke-miterlimit:4;" d="M 58.49976 0.000000000000003553 L 58.49976 35 " transform="matrix(1.468809,0,0,1.475,0.3875,-0.00000000000000524)"/>
<path style="fill:none;stroke-width:3;stroke-linecap:butt;stroke-linejoin:miter;stroke:rgb(0%,0%,0%);stroke-opacity:1;stroke-miterlimit:4;" d="M 61.499638 0.000000000000003553 L 61.499638 30 " transform="matrix(1.468809,0,0,1.475,0.3875,-0.00000000000000524)"/>
<path style="fill:none;stroke-width:1;stroke-linecap:butt;stroke-linejoin:miter;stroke:rgb(0%,0%,0%);stroke-opacity:1;stroke-miterlimit:4;" d="M 65.499476 0.000000000000003553 L 65.499476 30 " transform="matrix(1.468809,0,0,1.475,0.3875,-0.00000000000000524)"/>
<path style="fill:none;stroke-width:3;stroke-linecap:butt;stroke-linejoin:miter;stroke:rgb(0%,0%,0%);stroke-opacity:1;stroke-miterlimit:4;" d="M 68.499355 0.000000000000003553 L 68.499355 30 " transform="matrix(1.468809,0,0,1.475,0.3875,-0.00000000000000524)"/>
<path style="fill:none;stroke-width:1;stroke-linecap:butt;stroke-linejoin:miter;stroke:rgb(0%,0%,0%);stroke-opacity:1;stroke-miterlimit:4;" d="M 71.499234 0.000000000000003553 L 71.499234 30 " transform="matrix(1.468809,0,0,1.475,0.3875,-0.00000000000000524)"/>
<path style="fill:none;stroke-width:2;stroke-linecap:butt;stroke-linejoin:miter;stroke:rgb(0%,0%,0%);stroke-opacity:1;stroke-miterlimit:4;" d="M 75.001751 0.000000000000003553 L 75.001751 30 " transform="matrix(1.468809,0,0,1.475,0.3875,-0.00000000000000524)"/>
<path style="fill:none;stroke-width:2;stroke-linecap:butt;stroke-linejoin:miter;stroke:rgb(0%,0%,0%);stroke-opacity:1;stroke-miterlimit:4;" d="M 78.99893 0.000000000000003553 L 78.99893 30 " transform="matrix(1.468809,0,0,1.475,0.3875,-0.00000000000000524)"/>
<path style="fill:none;stroke-width:3;stroke-linecap:butt;stroke-linejoin:miter;stroke:rgb(0%,0%,0%);stroke-opacity:1;stroke-miterlimit:4;" d="M 82.498788 0.000000000000003553 L 82.498788 30 " transform="matrix(1.468809,0,0,1.475,0.3875,-0.00000000000000524)"/>
<path style="fill:none;stroke-width:1;stroke-linecap:butt;stroke-linejoin:miter;stroke:rgb(0%,0%,0%);stroke-opacity:1;stroke-miterlimit:4;" d="M 85.501326 0.000000000000003553 L 85.501326 30 " transform="matrix(1.468809,0,0,1.475,0.3875,-0.00000000000000524)"/>
<path style="fill:none;stroke-width:1;stroke-linecap:butt;stroke-linejoin:miter;stroke:rgb(0%,0%,0%);stroke-opacity:1;stroke-miterlimit:4;" d="M 88.501205 0.000000000000003553 L 88.501205 30 " transform="matrix(1.468809,0,0,1.475,0.3875,-0.00000000000000524)"/>
<path style="fill:none;stroke-width:1;stroke-linecap:butt;stroke-linejoin:miter;stroke:rgb(0%,0%,0%);stroke-opacity:1;stroke-miterlimit:4;" d="M 90.501124 0.000000000000003553 L 90.501124 30 " transform="matrix(1.468809,0,0,1.475,0.3875,-0.00000000000000524)"/>
<path style="fill:none;stroke-width:1;stroke-linecap:butt;stroke-linejoin:miter;stroke:rgb(0%,0%,0%);stroke-opacity:1;stroke-miterlimit:4;" d="M 95.500922 0.000000000000003553 L 95.500922 30 " transform="matrix(1.468809,0,0,1.475,0.3875,-0.00000000000000524)"/>
<path style="fill:none;stroke-width:1;stroke-linecap:butt;stroke-linejoin:miter;stroke:rgb(0%,0%,0%);stroke-opacity:1;stroke-miterlimit:4;" d="M 100.500719 0.000000000000003553 L 100.500719 30 " transform="matrix(1.468809,0,0,1.475,0.3875,-0.00000000000000524)"/>
<path style="fill:none;stroke-width:1;stroke-linecap:butt;stroke-linejoin:miter;stroke:rgb(0%,0%,0%);stroke-opacity:1;stroke-miterlimit:4;" d="M 102.500638 0.000000000000003553 L 102.500638 35 " transform="matrix(1.468809,0,0,1.475,0.3875,-0.00000000000000524)"/>
<path style="fill:none;stroke-width:1;stroke-linecap:butt;stroke-linejoin:miter;stroke:rgb(0%,0%,0%);stroke-opacity:1;stroke-miterlimit:4;" d="M 104.497898 0.000000000000003553 L 104.497898 35 " transform="matrix(1.468809,0,0,1.475,0.3875,-0.00000000000000524)"/>
<path style=" stroke:none;fill-rule:nonzero;fill:rgb(0%,0%,0%);fill-opacity:1;" d="M 10.90625 52.570312 C 10.90625 53.0625 10.824219 53.523438 10.664062 53.941406 C 10.5 54.363281 10.28125 54.714844 10.007812 54.996094 C 9.71875 55.296875 9.394531 55.523438 9.039062 55.675781 C 8.683594 55.828125 8.289062 55.90625 7.851562 55.90625 C 7.417969 55.90625 7.019531 55.832031 6.667969 55.6875 C 6.308594 55.535156 6 55.3125 5.734375 55.019531 C 5.402344 54.675781 5.140625 54.207031 4.945312 53.625 C 4.757812 53.035156 4.667969 52.316406 4.667969 51.464844 C 4.667969 50.625 4.753906 49.871094 4.921875 49.199219 C 5.097656 48.519531 5.363281 47.929688 5.722656 47.425781 C 6.066406 46.933594 6.515625 46.554688 7.066406 46.285156 C 7.621094 46.011719 8.265625 45.875 8.992188 45.875 C 9.199219 45.875 9.398438 45.886719 9.585938 45.910156 C 9.769531 45.929688 9.9375 45.957031 10.082031 46.007812 L 10.082031 47.246094 L 10.019531 47.246094 C 9.898438 47.179688 9.730469 47.125 9.511719 47.074219 C 9.292969 47.019531 9.058594 46.988281 8.808594 46.988281 C 8.011719 46.988281 7.363281 47.261719 6.871094 47.800781 C 6.378906 48.34375 6.089844 49.148438 6 50.214844 C 6.296875 50 6.609375 49.835938 6.933594 49.71875 C 7.253906 49.597656 7.609375 49.539062 8 49.539062 C 8.367188 49.539062 8.695312 49.578125 8.980469 49.660156 C 9.261719 49.730469 9.554688 49.882812 9.863281 50.105469 C 10.21875 50.375 10.480469 50.714844 10.648438 51.125 C 10.820312 51.539062 10.90625 52.019531 10.90625 52.570312 Z M 9.597656 52.617188 C 9.597656 52.222656 9.542969 51.890625 9.4375 51.625 C 9.34375 51.355469 9.175781 51.125 8.941406 50.933594 C 8.773438 50.796875 8.578125 50.707031 8.363281 50.664062 C 8.148438 50.625 7.929688 50.605469 7.707031 50.605469 C 7.40625 50.605469 7.117188 50.648438 6.835938 50.738281 C 6.550781 50.828125 6.273438 50.957031 6 51.125 C 5.992188 51.222656 5.980469 51.316406 5.976562 51.40625 C 5.96875 51.496094 5.964844 51.609375 5.964844 51.746094 C 5.964844 52.410156 6.027344 52.945312 6.15625 53.359375 C 6.292969 53.769531 6.460938 54.082031 6.652344 54.292969 C 6.839844 54.496094 7.03125 54.636719 7.222656 54.714844 C 7.417969 54.796875 7.628906 54.839844 7.863281 54.839844 C 8.378906 54.839844 8.796875 54.65625 9.113281 54.292969 C 9.433594 53.921875 9.597656 53.363281 9.597656 52.617188 Z M 9.597656 52.617188 "/>
<path style=" stroke:none;fill-rule:nonzero;fill:rgb(0%,0%,0%);fill-opacity:1;" d="M 35.203125 52.375 L 34.0625 52.375 L 34.0625 55.699219 L 32.816406 55.699219 L 32.816406 52.375 L 28.566406 52.375 L 28.566406 51.015625 L 32.863281 46.054688 L 34.0625 46.054688 L 34.0625 51.34375 L 35.203125 51.34375 Z M 32.816406 51.34375 L 32.816406 47.570312 L 29.582031 51.34375 Z M 32.816406 51.34375 "/>
<path style=" stroke:none;fill-rule:nonzero;fill:rgb(0%,0%,0%);fill-opacity:1;" d="M 38.820312 46.964844 C 38.59375 46.964844 38.363281 46.996094 38.132812 47.050781 C 37.894531 47.109375 37.664062 47.183594 37.441406 47.28125 C 37.238281 47.363281 37.058594 47.449219 36.910156 47.546875 C 36.753906 47.644531 36.617188 47.734375 36.496094 47.816406 L 36.425781 47.816406 L 36.425781 46.445312 C 36.695312 46.292969 37.070312 46.152344 37.550781 46.03125 C 38.035156 45.910156 38.496094 45.851562 38.929688 45.851562 C 39.367188 45.851562 39.746094 45.894531 40.070312 45.984375 C 40.390625 46.074219 40.6875 46.210938 40.953125 46.394531 C 41.234375 46.609375 41.449219 46.855469 41.59375 47.148438 C 41.738281 47.4375 41.8125 47.785156 41.8125 48.179688 C 41.8125 48.710938 41.632812 49.183594 41.28125 49.585938 C 40.933594 49.984375 40.515625 50.234375 40.03125 50.335938 L 40.03125 50.433594 C 40.234375 50.476562 40.449219 50.542969 40.675781 50.640625 C 40.90625 50.730469 41.125 50.867188 41.328125 51.054688 C 41.523438 51.242188 41.679688 51.476562 41.800781 51.769531 C 41.929688 52.058594 41.996094 52.417969 41.996094 52.835938 C 41.996094 53.273438 41.914062 53.671875 41.765625 54.039062 C 41.617188 54.402344 41.414062 54.726562 41.148438 55.007812 C 40.863281 55.300781 40.523438 55.523438 40.128906 55.675781 C 39.734375 55.828125 39.285156 55.90625 38.785156 55.90625 C 38.300781 55.90625 37.820312 55.84375 37.34375 55.722656 C 36.875 55.609375 36.480469 55.46875 36.15625 55.300781 L 36.15625 53.941406 L 36.242188 53.941406 C 36.515625 54.132812 36.878906 54.324219 37.332031 54.511719 C 37.792969 54.6875 38.246094 54.777344 38.699219 54.777344 C 38.96875 54.777344 39.226562 54.738281 39.488281 54.65625 C 39.753906 54.566406 39.976562 54.429688 40.152344 54.242188 C 40.328125 54.050781 40.460938 53.839844 40.554688 53.613281 C 40.640625 53.386719 40.6875 53.097656 40.6875 52.738281 C 40.6875 52.394531 40.632812 52.109375 40.527344 51.890625 C 40.433594 51.664062 40.292969 51.488281 40.117188 51.355469 C 39.929688 51.230469 39.710938 51.136719 39.464844 51.089844 C 39.222656 51.035156 38.953125 51.003906 38.664062 51.003906 L 38.121094 51.003906 L 38.121094 49.9375 L 38.542969 49.9375 C 39.125 49.9375 39.597656 49.800781 39.960938 49.523438 C 40.324219 49.242188 40.503906 48.839844 40.503906 48.3125 C 40.503906 48.070312 40.457031 47.863281 40.359375 47.695312 C 40.269531 47.515625 40.152344 47.375 40.007812 47.269531 C 39.839844 47.15625 39.652344 47.082031 39.453125 47.039062 C 39.257812 46.988281 39.046875 46.964844 38.820312 46.964844 Z M 38.820312 46.964844 "/>
<path style=" stroke:none;fill-rule:nonzero;fill:rgb(0%,0%,0%);fill-opacity:1;" d="M 47.976562 48.300781 C 47.976562 47.871094 47.832031 47.511719 47.539062 47.21875 C 47.253906 46.929688 46.863281 46.785156 46.351562 46.785156 C 45.875 46.785156 45.488281 46.914062 45.191406 47.171875 C 44.890625 47.433594 44.742188 47.785156 44.742188 48.226562 C 44.742188 48.542969 44.816406 48.816406 44.972656 49.039062 C 45.125 49.257812 45.355469 49.453125 45.664062 49.621094 C 45.800781 49.703125 46 49.808594 46.269531 49.9375 C 46.539062 50.066406 46.792969 50.167969 47.019531 50.242188 C 47.386719 49.949219 47.640625 49.65625 47.769531 49.355469 C 47.90625 49.050781 47.976562 48.695312 47.976562 48.300781 Z M 48.15625 53.128906 C 48.15625 52.734375 48.078125 52.421875 47.925781 52.195312 C 47.773438 51.960938 47.472656 51.71875 47.03125 51.476562 C 46.886719 51.398438 46.691406 51.308594 46.449219 51.210938 C 46.207031 51.113281 45.933594 51 45.625 50.871094 C 45.269531 51.109375 44.996094 51.398438 44.804688 51.746094 C 44.617188 52.09375 44.523438 52.492188 44.523438 52.933594 C 44.523438 53.523438 44.695312 54.011719 45.046875 54.390625 C 45.398438 54.769531 45.839844 54.960938 46.363281 54.960938 C 46.902344 54.960938 47.335938 54.796875 47.660156 54.472656 C 47.992188 54.144531 48.15625 53.695312 48.15625 53.128906 Z M 46.351562 55.917969 C 45.875 55.917969 45.4375 55.84375 45.046875 55.699219 C 44.65625 55.5625 44.324219 55.359375 44.050781 55.09375 C 43.777344 54.835938 43.566406 54.527344 43.421875 54.171875 C 43.285156 53.816406 43.214844 53.4375 43.214844 53.03125 C 43.214844 52.515625 43.351562 52.035156 43.628906 51.597656 C 43.910156 51.15625 44.320312 50.804688 44.851562 50.542969 L 44.851562 50.507812 C 44.375 50.234375 44.023438 49.933594 43.796875 49.609375 C 43.570312 49.28125 43.457031 48.867188 43.457031 48.371094 C 43.457031 47.644531 43.726562 47.039062 44.269531 46.554688 C 44.816406 46.066406 45.511719 45.824219 46.351562 45.824219 C 47.226562 45.824219 47.921875 46.054688 48.449219 46.515625 C 48.980469 46.976562 49.246094 47.570312 49.246094 48.289062 C 49.246094 48.71875 49.121094 49.144531 48.871094 49.574219 C 48.621094 49.996094 48.257812 50.324219 47.78125 50.554688 L 47.78125 50.605469 C 48.339844 50.867188 48.761719 51.183594 49.054688 51.5625 C 49.34375 51.9375 49.488281 52.417969 49.488281 53.007812 C 49.488281 53.832031 49.191406 54.523438 48.59375 55.082031 C 47.992188 55.636719 47.25 55.917969 46.351562 55.917969 Z M 46.351562 55.917969 "/>
<path style=" stroke:none;fill-rule:nonzero;fill:rgb(0%,0%,0%);fill-opacity:1;" d="M 56.851562 52.375 L 55.710938 52.375 L 55.710938 55.699219 L 54.464844 55.699219 L 54.464844 52.375 L 50.214844 52.375 L 50.214844 51.015625 L 54.515625 46.054688 L 55.710938 46.054688 L 55.710938 51.34375 L 56.851562 51.34375 Z M 54.464844 51.34375 L 54.464844 47.570312 L 51.230469 51.34375 Z M 54.464844 51.34375 "/>
<path style=" stroke:none;fill-rule:nonzero;fill:rgb(0%,0%,0%);fill-opacity:1;" d="M 63.863281 50.871094 C 63.863281 52.601562 63.609375 53.875 63.109375 54.691406 C 62.609375 55.503906 61.832031 55.90625 60.785156 55.90625 C 59.726562 55.90625 58.949219 55.492188 58.449219 54.667969 C 57.957031 53.84375 57.710938 52.582031 57.710938 50.882812 C 57.710938 49.144531 57.957031 47.875 58.460938 47.074219 C 58.960938 46.269531 59.734375 45.863281 60.785156 45.863281 C 61.84375 45.863281 62.617188 46.28125 63.109375 47.109375 C 63.609375 47.945312 63.863281 49.199219 63.863281 50.871094 Z M 62.203125 53.820312 C 62.328125 53.496094 62.421875 53.089844 62.46875 52.605469 C 62.523438 52.113281 62.554688 51.535156 62.554688 50.871094 C 62.554688 50.210938 62.523438 49.632812 62.46875 49.148438 C 62.421875 48.664062 62.328125 48.261719 62.203125 47.9375 C 62.074219 47.605469 61.894531 47.355469 61.667969 47.183594 C 61.441406 47.015625 61.148438 46.929688 60.785156 46.929688 C 60.429688 46.929688 60.136719 47.015625 59.902344 47.183594 C 59.675781 47.355469 59.492188 47.609375 59.355469 47.949219 C 59.226562 48.273438 59.140625 48.683594 59.089844 49.183594 C 59.042969 49.6875 59.019531 50.253906 59.019531 50.882812 C 59.019531 51.558594 59.035156 52.121094 59.078125 52.582031 C 59.125 53.035156 59.21875 53.441406 59.355469 53.792969 C 59.476562 54.128906 59.652344 54.382812 59.878906 54.558594 C 60.109375 54.738281 60.414062 54.824219 60.785156 54.824219 C 61.140625 54.824219 61.429688 54.742188 61.65625 54.570312 C 61.890625 54.402344 62.074219 54.152344 62.203125 53.820312 Z M 62.203125 53.820312 "/>
<path style=" stroke:none;fill-rule:nonzero;fill:rgb(0%,0%,0%);fill-opacity:1;" d="M 69.769531 50.023438 C 69.769531 49.359375 69.710938 48.820312 69.589844 48.410156 C 69.46875 47.996094 69.300781 47.679688 69.09375 47.464844 C 68.898438 47.253906 68.703125 47.109375 68.511719 47.039062 C 68.316406 46.960938 68.101562 46.917969 67.867188 46.917969 C 67.34375 46.917969 66.925781 47.109375 66.609375 47.488281 C 66.292969 47.871094 66.136719 48.417969 66.136719 49.136719 C 66.136719 49.542969 66.1875 49.875 66.292969 50.144531 C 66.398438 50.40625 66.5625 50.628906 66.792969 50.824219 C 66.960938 50.953125 67.144531 51.042969 67.347656 51.089844 C 67.558594 51.136719 67.777344 51.164062 68.015625 51.164062 C 68.285156 51.164062 68.582031 51.113281 68.898438 51.015625 C 69.21875 50.921875 69.496094 50.792969 69.734375 50.628906 C 69.738281 50.566406 69.75 50.480469 69.757812 50.375 C 69.765625 50.269531 69.769531 50.152344 69.769531 50.023438 Z M 64.828125 49.183594 C 64.828125 48.695312 64.910156 48.238281 65.070312 47.828125 C 65.230469 47.414062 65.449219 47.058594 65.726562 46.757812 C 65.992188 46.476562 66.320312 46.257812 66.707031 46.105469 C 67.09375 45.945312 67.484375 45.863281 67.882812 45.863281 C 68.324219 45.863281 68.722656 45.933594 69.078125 46.082031 C 69.441406 46.226562 69.753906 46.441406 70.011719 46.722656 C 70.34375 47.082031 70.601562 47.542969 70.789062 48.117188 C 70.972656 48.695312 71.066406 49.414062 71.066406 50.289062 C 71.066406 51.089844 70.976562 51.851562 70.800781 52.570312 C 70.621094 53.28125 70.355469 53.875 70 54.339844 C 69.628906 54.84375 69.183594 55.226562 68.667969 55.492188 C 68.152344 55.75 67.511719 55.882812 66.753906 55.882812 C 66.578125 55.882812 66.390625 55.871094 66.199219 55.855469 C 66.003906 55.839844 65.824219 55.800781 65.664062 55.746094 L 65.664062 54.511719 L 65.726562 54.511719 C 65.828125 54.578125 65.996094 54.636719 66.222656 54.691406 C 66.457031 54.75 66.6875 54.777344 66.925781 54.777344 C 67.773438 54.777344 68.433594 54.5 68.910156 53.941406 C 69.394531 53.382812 69.667969 52.585938 69.734375 51.550781 C 69.386719 51.777344 69.054688 51.949219 68.742188 52.058594 C 68.433594 52.167969 68.097656 52.21875 67.734375 52.21875 C 67.371094 52.21875 67.046875 52.179688 66.753906 52.109375 C 66.464844 52.03125 66.167969 51.875 65.871094 51.648438 C 65.523438 51.390625 65.257812 51.058594 65.082031 50.652344 C 64.914062 50.25 64.828125 49.761719 64.828125 49.183594 Z M 64.828125 49.183594 "/>
<path style=" stroke:none;fill-rule:nonzero;fill:rgb(0%,0%,0%);fill-opacity:1;" d="M 104.765625 50.871094 C 104.765625 52.601562 104.511719 53.875 104.011719 54.691406 C 103.511719 55.503906 102.734375 55.90625 101.6875 55.90625 C 100.628906 55.90625 99.851562 55.492188 99.351562 54.667969 C 98.859375 53.84375 98.613281 52.582031 98.613281 50.882812 C 98.613281 49.144531 98.859375 47.875 99.363281 47.074219 C 99.863281 46.269531 100.636719 45.863281 101.6875 45.863281 C 102.746094 45.863281 103.519531 46.28125 104.011719 47.109375 C 104.511719 47.945312 104.765625 49.199219 104.765625 50.871094 Z M 103.105469 53.820312 C 103.234375 53.496094 103.324219 53.089844 103.371094 52.605469 C 103.425781 52.113281 103.457031 51.535156 103.457031 50.871094 C 103.457031 50.210938 103.425781 49.632812 103.371094 49.148438 C 103.324219 48.664062 103.234375 48.261719 103.105469 47.9375 C 102.976562 47.605469 102.796875 47.355469 102.574219 47.183594 C 102.34375 47.015625 102.050781 46.929688 101.6875 46.929688 C 101.332031 46.929688 101.039062 47.015625 100.804688 47.183594 C 100.578125 47.355469 100.394531 47.609375 100.257812 47.949219 C 100.128906 48.273438 100.042969 48.683594 99.992188 49.183594 C 99.945312 49.6875 99.921875 50.253906 99.921875 50.882812 C 99.921875 51.558594 99.9375 52.121094 99.980469 52.582031 C 100.03125 53.035156 100.121094 53.441406 100.257812 53.792969 C 100.378906 54.128906 100.554688 54.382812 100.78125 54.558594 C 101.011719 54.738281 101.316406 54.824219 101.6875 54.824219 C 102.042969 54.824219 102.332031 54.742188 102.558594 54.570312 C 102.792969 54.402344 102.976562 54.152344 103.105469 53.820312 Z M 103.105469 53.820312 "/>
<path style=" stroke:none;fill-rule:nonzero;fill:rgb(0%,0%,0%);fill-opacity:1;" d="M 110.671875 50.023438 C 110.671875 49.359375 110.613281 48.820312 110.492188 48.410156 C 110.371094 47.996094 110.203125 47.679688 109.996094 47.464844 C 109.800781 47.253906 109.605469 47.109375 109.414062 47.039062 C 109.21875 46.960938 109.003906 46.917969 108.773438 46.917969 C 108.246094 46.917969 107.828125 47.109375 107.511719 47.488281 C 107.199219 47.871094 107.039062 48.417969 107.039062 49.136719 C 107.039062 49.542969 107.089844 49.875 107.199219 50.144531 C 107.300781 50.40625 107.46875 50.628906 107.695312 50.824219 C 107.863281 50.953125 108.046875 51.042969 108.25 51.089844 C 108.460938 51.136719 108.679688 51.164062 108.917969 51.164062 C 109.1875 51.164062 109.484375 51.113281 109.800781 51.015625 C 110.121094 50.921875 110.398438 50.792969 110.636719 50.628906 C 110.640625 50.566406 110.652344 50.480469 110.660156 50.375 C 110.667969 50.269531 110.671875 50.152344 110.671875 50.023438 Z M 105.730469 49.183594 C 105.730469 48.695312 105.8125 48.238281 105.972656 47.828125 C 106.136719 47.414062 106.351562 47.058594 106.628906 46.757812 C 106.894531 46.476562 107.222656 46.257812 107.609375 46.105469 C 107.996094 45.945312 108.386719 45.863281 108.785156 45.863281 C 109.226562 45.863281 109.625 45.933594 109.984375 46.082031 C 110.347656 46.226562 110.65625 46.441406 110.914062 46.722656 C 111.246094 47.082031 111.503906 47.542969 111.691406 48.117188 C 111.875 48.695312 111.96875 49.414062 111.96875 50.289062 C 111.96875 51.089844 111.878906 51.851562 111.703125 52.570312 C 111.523438 53.28125 111.257812 53.875 110.902344 54.339844 C 110.53125 54.84375 110.085938 55.226562 109.570312 55.492188 C 109.054688 55.75 108.414062 55.882812 107.65625 55.882812 C 107.480469 55.882812 107.292969 55.871094 107.101562 55.855469 C 106.90625 55.839844 106.726562 55.800781 106.566406 55.746094 L 106.566406 54.511719 L 106.628906 54.511719 C 106.730469 54.578125 106.898438 54.636719 107.125 54.691406 C 107.359375 54.75 107.589844 54.777344 107.828125 54.777344 C 108.675781 54.777344 109.335938 54.5 109.8125 53.941406 C 110.296875 53.382812 110.570312 52.585938 110.636719 51.550781 C 110.289062 51.777344 109.957031 51.949219 109.644531 52.058594 C 109.335938 52.167969 109 52.21875 108.636719 52.21875 C 108.273438 52.21875 107.949219 52.179688 107.65625 52.109375 C 107.367188 52.03125 107.070312 51.875 106.773438 51.648438 C 106.425781 51.390625 106.160156 51.058594 105.988281 50.652344 C 105.816406 50.25 105.730469 49.761719 105.730469 49.183594 Z M 105.730469 49.183594 "/>
<path style=" stroke:none;fill-rule:nonzero;fill:rgb(0%,0%,0%);fill-opacity:1;" d="M 118.664062 55.699219 L 113.976562 55.699219 L 113.976562 54.714844 L 115.710938 54.714844 L 115.710938 48.25 L 113.976562 48.25 L 113.976562 47.367188 C 114.632812 47.367188 115.109375 47.273438 115.417969 47.085938 C 115.734375 46.902344 115.910156 46.546875 115.953125 46.019531 L 116.957031 46.019531 L 116.957031 54.714844 L 118.664062 54.714844 Z M 118.664062 55.699219 "/>
<path style=" stroke:none;fill-rule:nonzero;fill:rgb(0%,0%,0%);fill-opacity:1;" d="M 125.105469 50.023438 C 125.105469 49.359375 125.046875 48.820312 124.925781 48.410156 C 124.804688 47.996094 124.636719 47.679688 124.425781 47.464844 C 124.234375 47.253906 124.039062 47.109375 123.847656 47.039062 C 123.652344 46.960938 123.4375 46.917969 123.203125 46.917969 C 122.675781 46.917969 122.261719 47.109375 121.945312 47.488281 C 121.628906 47.871094 121.472656 48.417969 121.472656 49.136719 C 121.472656 49.542969 121.523438 49.875 121.628906 50.144531 C 121.734375 50.40625 121.898438 50.628906 122.125 50.824219 C 122.296875 50.953125 122.480469 51.042969 122.683594 51.089844 C 122.894531 51.136719 123.113281 51.164062 123.351562 51.164062 C 123.621094 51.164062 123.917969 51.113281 124.234375 51.015625 C 124.554688 50.921875 124.832031 50.792969 125.070312 50.628906 C 125.074219 50.566406 125.085938 50.480469 125.09375 50.375 C 125.097656 50.269531 125.105469 50.152344 125.105469 50.023438 Z M 120.164062 49.183594 C 120.164062 48.695312 120.242188 48.238281 120.40625 47.828125 C 120.566406 47.414062 120.785156 47.058594 121.0625 46.757812 C 121.328125 46.476562 121.65625 46.257812 122.042969 46.105469 C 122.429688 45.945312 122.820312 45.863281 123.214844 45.863281 C 123.660156 45.863281 124.058594 45.933594 124.414062 46.082031 C 124.777344 46.226562 125.085938 46.441406 125.347656 46.722656 C 125.679688 47.082031 125.933594 47.542969 126.121094 48.117188 C 126.308594 48.695312 126.402344 49.414062 126.402344 50.289062 C 126.402344 51.089844 126.308594 51.851562 126.136719 52.570312 C 125.957031 53.28125 125.691406 53.875 125.335938 54.339844 C 124.964844 54.84375 124.519531 55.226562 124.003906 55.492188 C 123.484375 55.75 122.847656 55.882812 122.089844 55.882812 C 121.910156 55.882812 121.726562 55.871094 121.535156 55.855469 C 121.339844 55.839844 121.160156 55.800781 121 55.746094 L 121 54.511719 L 121.0625 54.511719 C 121.164062 54.578125 121.332031 54.636719 121.558594 54.691406 C 121.789062 54.75 122.023438 54.777344 122.261719 54.777344 C 123.109375 54.777344 123.765625 54.5 124.246094 53.941406 C 124.730469 53.382812 125.003906 52.585938 125.070312 51.550781 C 124.722656 51.777344 124.390625 51.949219 124.078125 52.058594 C 123.765625 52.167969 123.433594 52.21875 123.070312 52.21875 C 122.707031 52.21875 122.382812 52.179688 122.089844 52.109375 C 121.800781 52.03125 121.503906 51.875 121.207031 51.648438 C 120.859375 51.390625 120.59375 51.058594 120.417969 50.652344 C 120.25 50.25 120.164062 49.761719 120.164062 49.183594 Z M 120.164062 49.183594 "/>
<path style=" stroke:none;fill-rule:nonzero;fill:rgb(0%,0%,0%);fill-opacity:1;" d="M 133.726562 52.570312 C 133.726562 53.0625 133.644531 53.523438 133.484375 53.941406 C 133.320312 54.363281 133.101562 54.714844 132.832031 54.996094 C 132.539062 55.296875 132.214844 55.523438 131.863281 55.675781 C 131.503906 55.828125 131.109375 55.90625 130.675781 55.90625 C 130.238281 55.90625 129.84375 55.832031 129.488281 55.6875 C 129.132812 55.535156 128.824219 55.3125 128.554688 55.019531 C 128.222656 54.675781 127.960938 54.207031 127.769531 53.625 C 127.582031 53.035156 127.492188 52.316406 127.492188 51.464844 C 127.492188 50.625 127.574219 49.871094 127.746094 49.199219 C 127.921875 48.519531 128.1875 47.929688 128.542969 47.425781 C 128.890625 46.933594 129.335938 46.554688 129.886719 46.285156 C 130.445312 46.011719 131.085938 45.875 131.8125 45.875 C 132.023438 45.875 132.21875 45.886719 132.40625 45.910156 C 132.589844 45.929688 132.757812 45.957031 132.902344 46.007812 L 132.902344 47.246094 L 132.84375 47.246094 C 132.722656 47.179688 132.550781 47.125 132.335938 47.074219 C 132.117188 47.019531 131.878906 46.988281 131.632812 46.988281 C 130.832031 46.988281 130.183594 47.261719 129.695312 47.800781 C 129.199219 48.34375 128.910156 49.148438 128.824219 50.214844 C 129.117188 50 129.429688 49.835938 129.753906 49.71875 C 130.074219 49.597656 130.433594 49.539062 130.820312 49.539062 C 131.191406 49.539062 131.515625 49.578125 131.800781 49.660156 C 132.082031 49.730469 132.375 49.882812 132.683594 50.105469 C 133.039062 50.375 133.304688 50.714844 133.472656 51.125 C 133.640625 51.539062 133.726562 52.019531 133.726562 52.570312 Z M 132.417969 52.617188 C 132.417969 52.222656 132.363281 51.890625 132.261719 51.625 C 132.164062 51.355469 132 51.125 131.765625 50.933594 C 131.59375 50.796875 131.402344 50.707031 131.183594 50.664062 C 130.972656 50.625 130.753906 50.605469 130.53125 50.605469 C 130.230469 50.605469 129.941406 50.648438 129.65625 50.738281 C 129.375 50.828125 129.09375 50.957031 128.824219 51.125 C 128.8125 51.222656 128.804688 51.316406 128.796875 51.40625 C 128.789062 51.496094 128.785156 51.609375 128.785156 51.746094 C 128.785156 52.410156 128.851562 52.945312 128.980469 53.359375 C 129.117188 53.769531 129.28125 54.082031 129.476562 54.292969 C 129.660156 54.496094 129.851562 54.636719 130.046875 54.714844 C 130.238281 54.796875 130.449219 54.839844 130.6875 54.839844 C 131.203125 54.839844 131.621094 54.65625 131.933594 54.292969 C 132.253906 53.921875 132.417969 53.363281 132.417969 52.617188 Z M 132.417969 52.617188 "/>
<path style=" stroke:none;fill-rule:nonzero;fill:rgb(0%,0%,0%);fill-opacity:1;" d="M 137.457031 46.964844 C 137.230469 46.964844 137 46.996094 136.765625 47.050781 C 136.527344 47.109375 136.300781 47.183594 136.074219 47.28125 C 135.871094 47.363281 135.695312 47.449219 135.542969 47.546875 C 135.386719 47.644531 135.25 47.734375 135.128906 47.816406 L 135.058594 47.816406 L 135.058594 46.445312 C 135.332031 46.292969 135.707031 46.152344 136.183594 46.03125 C 136.667969 45.910156 137.128906 45.851562 137.566406 45.851562 C 138 45.851562 138.378906 45.894531 138.703125 45.984375 C 139.023438 46.074219 139.320312 46.210938 139.585938 46.394531 C 139.867188 46.609375 140.082031 46.855469 140.230469 47.148438 C 140.375 47.4375 140.445312 47.785156 140.445312 48.179688 C 140.445312 48.710938 140.269531 49.183594 139.914062 49.585938 C 139.566406 49.984375 139.152344 50.234375 138.667969 50.335938 L 138.667969 50.433594 C 138.867188 50.476562 139.082031 50.542969 139.308594 50.640625 C 139.542969 50.730469 139.757812 50.867188 139.960938 51.054688 C 140.15625 51.242188 140.3125 51.476562 140.433594 51.769531 C 140.5625 52.058594 140.628906 52.417969 140.628906 52.835938 C 140.628906 53.273438 140.550781 53.671875 140.398438 54.039062 C 140.253906 54.402344 140.046875 54.726562 139.78125 55.007812 C 139.496094 55.300781 139.15625 55.523438 138.761719 55.675781 C 138.367188 55.828125 137.917969 55.90625 137.417969 55.90625 C 136.933594 55.90625 136.453125 55.84375 135.976562 55.722656 C 135.507812 55.609375 135.113281 55.46875 134.792969 55.300781 L 134.792969 53.941406 L 134.875 53.941406 C 135.148438 54.132812 135.511719 54.324219 135.964844 54.511719 C 136.425781 54.6875 136.878906 54.777344 137.335938 54.777344 C 137.601562 54.777344 137.859375 54.738281 138.121094 54.65625 C 138.386719 54.566406 138.609375 54.429688 138.789062 54.242188 C 138.964844 54.050781 139.097656 53.839844 139.1875 53.613281 C 139.273438 53.386719 139.320312 53.097656 139.320312 52.738281 C 139.320312 52.394531 139.265625 52.109375 139.164062 51.890625 C 139.066406 51.664062 138.925781 51.488281 138.75 51.355469 C 138.5625 51.230469 138.34375 51.136719 138.097656 51.089844 C 137.855469 51.035156 137.589844 51.003906 137.296875 51.003906 L 136.753906 51.003906 L 136.753906 49.9375 L 137.175781 49.9375 C 137.757812 49.9375 138.230469 49.800781 138.59375 49.523438 C 138.957031 49.242188 139.140625 48.839844 139.140625 48.3125 C 139.140625 48.070312 139.089844 47.863281 138.992188 47.695312 C 138.902344 47.515625 138.789062 47.375 138.640625 47.269531 C 138.472656 47.15625 138.285156 47.082031 138.085938 47.039062 C 137.890625 46.988281 137.679688 46.964844 137.457031 46.964844 Z M 137.457031 46.964844 "/>
</g>
</svg>
