<?xml version="1.0" standalone="no"?>
<!DOCTYPE svg PUBLIC "-//W3C//DTD SVG 20010904//EN"
 "http://www.w3.org/TR/2001/REC-SVG-20010904/DTD/svg10.dtd">
<svg version="1.0" xmlns="http://www.w3.org/2000/svg"
 width="1407.000000pt" height="956.000000pt" viewBox="0 0 1407.000000 956.000000"
 preserveAspectRatio="xMidYMid meet">

<g transform="translate(0.000000,956.000000) scale(0.100000,-0.100000)"
fill="#000000" stroke="none">
<path d="M1200 9475 c-195 -55 -308 -245 -272 -457 44 -256 284 -392 513 -291
68 30 148 108 183 179 77 154 45 355 -74 474 -93 93 -226 129 -350 95z m205
-58 c88 -49 129 -159 129 -342 -1 -100 -4 -130 -23 -179 -56 -143 -202 -202
-326 -133 -88 50 -130 161 -129 342 0 101 4 129 23 179 29 72 92 139 147 154
53 15 130 5 179 -21z"/>
<path d="M3206 9207 c-180 -427 -190 -446 -237 -465 -21 -8 -39 -19 -39 -24 0
-4 54 -8 120 -8 115 0 152 10 93 25 -63 15 -67 42 -22 150 l32 75 149 0 149 0
24 -53 c12 -29 29 -73 36 -96 12 -41 12 -45 -10 -62 -13 -11 -32 -19 -42 -19
-10 0 -19 -4 -19 -10 0 -6 57 -10 150 -10 83 0 150 4 150 8 0 5 -18 16 -39 24
-50 20 -64 47 -231 451 -68 163 -128 297 -134 297 -6 0 -65 -127 -130 -283z
m159 -37 c31 -74 59 -141 62 -147 4 -10 -24 -13 -122 -13 -117 0 -127 1 -121
18 15 38 121 281 122 279 1 -1 28 -63 59 -137z"/>
<path d="M4201 9441 c-52 -26 -89 -51 -83 -54 5 -4 22 -3 37 3 33 13 31 13 49
-6 14 -13 16 -56 16 -319 0 -303 0 -304 -22 -319 -12 -9 -33 -16 -45 -16 -13
0 -23 -4 -23 -10 0 -6 53 -10 140 -10 87 0 140 4 140 10 0 6 -10 10 -23 10
-12 0 -33 7 -45 16 l-22 15 0 365 c0 285 -3 364 -12 363 -7 0 -55 -22 -107
-48z"/>
<path d="M4797 9480 c-75 -23 -144 -108 -179 -223 -28 -94 -22 -282 11 -370
46 -118 121 -187 203 -187 129 0 222 116 250 312 30 213 -62 433 -196 467 -51
12 -51 12 -89 1z m108 -63 c60 -60 86 -222 67 -420 -16 -175 -41 -235 -106
-257 -99 -32 -156 90 -156 331 1 212 28 324 88 361 41 26 70 22 107 -15z"/>
<path d="M5535 9476 c-79 -19 -124 -46 -196 -113 -113 -107 -167 -242 -157
-391 6 -81 32 -145 84 -202 47 -52 87 -70 156 -70 122 0 220 99 234 237 4 33
1 77 -6 101 -14 54 -79 127 -127 143 -46 15 -120 6 -173 -21 l-41 -21 7 28
c22 93 108 211 188 258 24 14 64 28 89 31 30 4 47 12 47 20 0 17 -36 17 -105
0z m-64 -352 c62 -32 104 -181 79 -283 -8 -36 -22 -59 -46 -81 -113 -99 -232
55 -214 275 5 59 5 60 50 83 52 26 90 28 131 6z"/>
<path d="M6715 9480 c-3 -5 -66 -152 -141 -327 -158 -371 -171 -397 -219 -414
-19 -7 -35 -17 -35 -21 0 -4 54 -8 120 -8 114 0 154 11 91 25 -62 13 -65 52
-12 168 l30 67 145 0 144 0 31 -75 c45 -108 48 -129 20 -149 -13 -9 -31 -16
-41 -16 -10 0 -18 -4 -18 -10 0 -6 57 -10 150 -10 151 0 181 8 115 30 -23 8
-44 25 -59 48 -13 21 -86 187 -162 370 -76 182 -142 332 -146 332 -4 0 -9 -4
-13 -10z m45 -319 c33 -78 60 -144 60 -147 0 -2 -56 -4 -125 -4 -69 0 -125 2
-125 6 0 10 123 294 126 291 2 -2 31 -67 64 -146z"/>
<path d="M7751 9441 c-52 -26 -89 -51 -83 -54 5 -4 22 -3 37 3 33 13 31 13 49
-6 14 -13 16 -56 16 -319 0 -303 0 -304 -22 -319 -12 -9 -33 -16 -45 -16 -13
0 -23 -4 -23 -10 0 -6 53 -10 140 -10 87 0 140 4 140 10 0 6 -10 10 -23 10
-12 0 -33 7 -45 16 l-22 15 0 365 c0 285 -3 364 -12 363 -7 0 -55 -22 -107
-48z"/>
<path d="M9094 9480 c-161 -32 -318 -196 -355 -371 -16 -73 -7 -194 18 -250
26 -59 88 -128 130 -146 51 -21 133 -17 184 10 96 50 155 190 129 304 -14 66
-72 135 -127 154 -46 15 -120 6 -174 -21 l-42 -22 7 29 c35 142 186 293 293
293 23 0 33 5 33 15 0 17 -29 18 -96 5z m-73 -357 c39 -23 77 -103 85 -178 16
-152 -74 -253 -177 -199 -59 30 -103 171 -91 289 7 56 9 61 47 82 48 27 96 29
136 6z"/>
<path d="M9448 9236 c-150 -214 -178 -260 -178 -290 l0 -36 160 0 160 0 0
-100 0 -100 50 0 50 0 0 100 0 100 50 0 50 0 0 40 0 40 -50 0 -50 0 0 250 0
250 -32 0 c-32 0 -41 -11 -210 -254z m139 -243 c-3 -2 -61 -2 -131 -1 l-126 3
128 180 127 180 3 -179 c1 -98 1 -181 -1 -183z"/>
<path d="M11156 9476 c-77 -29 -136 -109 -136 -185 0 -95 40 -139 228 -252
139 -83 172 -118 172 -179 0 -70 -62 -120 -150 -120 -102 0 -177 54 -207 151
-30 98 -43 77 -43 -71 0 -109 2 -130 15 -130 8 0 15 7 15 15 0 29 33 34 95 13
35 -11 91 -20 135 -21 65 -1 82 2 127 27 71 39 106 91 111 165 7 101 -39 162
-184 241 -106 58 -189 115 -208 142 -36 51 -8 132 54 158 17 7 53 11 84 8 92
-8 155 -68 179 -169 6 -27 15 -49 19 -49 5 0 8 61 8 135 0 125 -9 166 -25 115
-8 -25 -41 -26 -93 -4 -54 22 -149 27 -196 10z"/>
<path d="M30 9460 c0 -5 12 -10 26 -10 31 0 61 -15 97 -48 l27 -26 0 -299 c0
-186 -4 -306 -10 -318 -7 -11 -26 -21 -50 -25 -79 -13 -37 -24 90 -24 80 0
130 4 130 10 0 6 -13 10 -29 10 -16 0 -39 9 -52 19 -23 19 -24 23 -27 208 -2
103 1 222 5 263 l8 74 244 -297 c135 -163 251 -297 258 -297 10 0 13 70 13
355 0 342 1 356 20 375 11 11 33 20 50 20 17 0 30 5 30 10 0 6 -50 10 -130 10
-80 0 -130 -4 -130 -10 0 -5 13 -10 29 -10 16 0 39 -9 52 -19 24 -19 24 -20
27 -271 2 -139 -1 -250 -5 -247 -5 3 -110 130 -233 281 l-225 276 -107 0 c-66
0 -108 -4 -108 -10z"/>
<path d="M1730 9460 c0 -5 14 -10 30 -10 20 0 40 -9 56 -25 l25 -25 -3 -316
-3 -316 -24 -19 c-13 -10 -36 -19 -52 -19 -16 0 -29 -4 -29 -10 0 -6 62 -10
165 -10 103 0 165 4 165 10 0 6 -12 10 -26 10 -28 0 -65 16 -76 34 -4 6 -8 81
-8 166 l0 155 151 -151 c126 -127 150 -155 144 -173 -3 -11 -17 -24 -31 -27
-62 -16 -9 -24 156 -24 184 0 223 9 134 31 -63 16 -135 74 -304 243 l-145 146
125 126 c135 136 192 181 240 190 68 14 22 24 -110 24 -87 0 -140 -4 -140 -10
0 -5 11 -10 24 -10 31 0 50 -23 41 -51 -9 -28 -81 -105 -197 -211 l-88 -80 0
149 c0 170 4 181 68 190 91 12 34 23 -123 23 -103 0 -165 -4 -165 -10z"/>
<path d="M2570 9460 c0 -5 14 -10 30 -10 20 0 40 -9 56 -25 l25 -25 -3 -316
-3 -316 -24 -19 c-13 -10 -36 -19 -52 -19 -16 0 -29 -4 -29 -10 0 -6 62 -10
165 -10 103 0 165 4 165 10 0 6 -12 10 -26 10 -28 0 -65 16 -76 34 -4 6 -8
154 -8 329 0 304 1 318 20 337 12 12 33 20 55 20 19 0 35 5 35 10 0 6 -62 10
-165 10 -103 0 -165 -4 -165 -10z"/>
<path d="M5746 9418 c-14 -120 -1 -168 23 -87 7 23 24 52 38 65 23 21 35 24
109 24 l84 0 0 -324 0 -325 -26 -20 c-15 -12 -40 -21 -55 -21 -16 0 -29 -4
-29 -10 0 -6 62 -10 165 -10 103 0 165 4 165 10 0 6 -14 10 -30 10 -19 0 -40
9 -55 25 l-25 24 0 321 0 320 85 0 c78 0 87 -2 116 -28 17 -15 34 -42 38 -61
3 -19 13 -37 20 -39 11 -4 13 5 8 43 -4 26 -7 67 -7 91 l0 44 -309 0 -308 0
-7 -52z"/>
<path d="M8256 9321 l-75 -148 67 -5 c151 -11 267 -117 265 -245 -2 -134 -132
-207 -247 -139 -25 14 -53 26 -64 26 -28 0 -45 -25 -38 -55 15 -61 148 -75
251 -26 112 53 170 142 170 256 -1 83 -23 132 -84 188 -49 44 -90 66 -162 86
l-55 16 23 53 24 52 114 0 115 0 20 40 c11 21 20 42 20 45 0 3 -61 5 -135 5
l-135 0 -74 -149z"/>
<path d="M10130 9460 c0 -5 16 -10 35 -10 22 0 43 -8 55 -20 19 -19 20 -33 20
-338 0 -243 -3 -322 -13 -336 -7 -9 -32 -20 -55 -23 -23 -3 -42 -10 -42 -14 0
-12 395 -11 460 1 131 25 226 96 278 208 24 51 27 69 27 167 0 98 -3 116 -26
166 -54 114 -140 178 -269 199 -85 13 -470 13 -470 0z m476 -65 c60 -30 108
-79 138 -144 17 -38 21 -65 21 -161 0 -130 -15 -176 -78 -247 -58 -64 -117
-88 -217 -88 -47 0 -93 3 -102 7 -17 7 -18 32 -18 327 l0 321 28 6 c15 3 32 8
37 10 28 11 143 -8 191 -31z"/>
<path d="M7190 8970 l0 -40 145 0 145 0 0 40 0 40 -145 0 -145 0 0 -40z"/>
<path d="M6648 7788 c-78 -31 -91 -48 -37 -48 39 0 49 -27 49 -140 l0 -88 -37
19 c-100 51 -226 -4 -287 -125 -33 -66 -45 -166 -27 -233 15 -55 67 -121 114
-146 66 -34 167 -21 206 27 21 25 31 19 31 -19 0 -19 3 -35 8 -35 4 0 42 15
85 33 80 33 101 54 49 49 -22 -3 -33 2 -41 17 -7 13 -11 140 -11 370 0 275 -3
351 -12 350 -7 0 -48 -14 -90 -31z m-33 -308 c34 -32 45 -87 45 -231 l0 -134
-33 -22 c-99 -68 -214 23 -225 176 -8 117 45 233 111 243 32 5 77 -9 102 -32z"/>
<path d="M90 7690 c0 -53 4 -90 10 -90 6 0 10 9 10 20 0 29 26 76 52 94 16 11
46 16 106 16 l83 0 -3 -326 -3 -326 -24 -19 c-13 -10 -36 -19 -52 -19 -16 0
-29 -4 -29 -10 0 -6 60 -10 160 -10 100 0 160 4 160 10 0 6 -13 10 -28 10 -16
0 -38 9 -50 20 -22 21 -22 24 -22 345 l0 325 75 0 c47 0 87 -6 104 -15 28 -14
61 -68 61 -99 0 -9 5 -16 10 -16 6 0 10 37 10 90 l0 90 -315 0 -315 0 0 -90z"/>
<path d="M5000 7770 c0 -5 15 -10 33 -10 17 0 41 -7 52 -16 19 -14 20 -28 23
-334 l3 -320 -25 -25 c-16 -16 -36 -25 -56 -25 -16 0 -30 -4 -30 -10 0 -6 62
-10 165 -10 103 0 165 4 165 10 0 6 -11 10 -25 10 -37 0 -75 21 -81 44 -2 12
-3 82 -2 156 l3 135 28 3 c16 2 35 -2 43 -9 8 -7 70 -88 136 -181 l122 -168
103 0 c57 0 103 4 103 9 0 5 -21 14 -46 20 -61 15 -104 58 -213 211 l-89 124
61 31 c81 39 118 90 119 162 0 98 -61 170 -163 192 -64 14 -429 15 -429 1z
m373 -44 c73 -30 113 -122 87 -200 -22 -66 -109 -116 -204 -116 l-36 0 0 159
c0 158 0 160 23 164 47 9 99 6 130 -7z"/>
<path d="M3695 7664 c-20 -48 -70 -110 -106 -131 -42 -25 -37 -43 11 -43 l40
0 0 -200 c0 -222 5 -247 59 -270 51 -21 119 8 147 62 20 38 10 48 -19 20 -28
-27 -58 -28 -80 -4 -15 16 -17 46 -17 205 l0 187 60 0 c57 0 60 1 60 25 0 24
-3 25 -60 25 l-60 0 0 80 c0 87 -11 101 -35 44z"/>
<path d="M4015 7664 c-21 -50 -69 -109 -110 -134 -43 -26 -37 -40 16 -40 l39
0 0 -200 c0 -219 5 -246 55 -268 34 -16 50 -15 91 4 33 16 82 79 70 91 -3 4
-16 -3 -29 -15 -28 -27 -58 -28 -80 -4 -15 16 -17 46 -17 205 l0 187 60 0 c57
0 60 1 60 25 0 24 -3 25 -60 25 l-60 0 0 80 c0 87 -11 101 -35 44z"/>
<path d="M888 7540 c-116 -35 -174 -138 -166 -294 3 -67 9 -92 32 -130 65
-111 214 -143 308 -66 42 35 94 131 84 157 -6 14 -11 10 -29 -22 -57 -102
-178 -115 -258 -28 -37 40 -50 68 -58 129 l-8 54 179 0 c199 0 189 -4 168 72
-29 102 -145 160 -252 128z m82 -45 c33 -17 60 -61 60 -100 l0 -25 -115 0
c-109 0 -115 1 -115 20 0 54 65 120 118 120 13 0 36 -7 52 -15z"/>
<path d="M1268 7518 c-43 -17 -78 -35 -78 -40 0 -4 16 -8 35 -8 50 0 55 -21
55 -210 0 -181 -6 -208 -50 -216 -66 -14 -23 -24 100 -24 80 0 130 4 130 10 0
6 -9 10 -20 10 -12 0 -32 11 -45 25 -24 23 -25 28 -25 175 0 149 0 152 28 191
29 42 47 47 78 24 27 -20 71 -19 85 3 8 13 20 17 43 14 53 -7 56 -19 56 -218
0 -178 -1 -183 -22 -198 -12 -9 -30 -16 -40 -16 -10 0 -18 -4 -18 -10 0 -6 50
-10 130 -10 130 0 159 7 98 25 -50 15 -58 42 -58 201 0 130 2 144 23 174 34
50 51 58 86 37 39 -23 67 -22 84 4 19 26 11 56 -20 76 -39 26 -94 4 -135 -54
l-33 -45 -3 56 c-2 35 -7 56 -15 56 -7 0 -43 -14 -82 -30 -38 -17 -72 -30 -76
-30 -3 0 -11 11 -17 24 -24 54 -110 36 -161 -35 l-31 -42 0 56 c0 39 -4 57
-12 56 -7 0 -48 -14 -90 -31z"/>
<path d="M2121 7539 c-48 -15 -80 -38 -97 -70 -27 -53 -13 -99 31 -99 30 0 45
19 45 56 0 17 10 43 21 58 18 23 27 27 67 24 54 -4 77 -30 87 -99 l6 -46 -48
-18 c-74 -28 -165 -75 -191 -99 -115 -104 -19 -280 124 -226 15 6 44 24 64 40
46 36 50 37 50 7 0 -30 29 -57 62 -57 32 0 118 74 118 102 0 19 -2 19 -26 -6
-54 -53 -62 -33 -66 179 -3 195 -7 208 -61 240 -35 21 -138 29 -186 14z m154
-311 c8 -103 8 -103 -69 -138 -51 -24 -88 -11 -111 36 -19 41 -9 88 28 122 19
18 122 72 138 72 4 0 10 -41 14 -92z"/>
<path d="M2678 7540 c-117 -35 -185 -149 -176 -293 5 -82 29 -135 80 -184 80
-76 201 -74 276 5 25 28 72 117 72 140 0 23 -15 12 -35 -24 -75 -140 -242
-113 -290 48 -40 136 6 262 101 275 56 7 81 -9 95 -60 14 -55 25 -67 60 -67
38 0 62 26 54 59 -20 79 -140 130 -237 101z"/>
<path d="M3173 7533 c-26 -9 -59 -33 -86 -63 -158 -175 -58 -462 160 -462 107
0 175 44 224 147 106 221 -79 456 -298 378z m133 -42 c48 -29 84 -114 91 -214
9 -129 -23 -207 -90 -225 -69 -19 -133 26 -169 117 -28 73 -31 219 -5 268 37
70 109 93 173 54z"/>
<path d="M4345 7535 c-22 -8 -53 -28 -68 -45 -23 -26 -28 -39 -25 -73 3 -38 6
-42 33 -45 35 -4 55 18 55 63 0 51 24 75 75 75 63 0 95 -39 95 -115 0 -32 -3
-34 -80 -65 -151 -61 -204 -112 -202 -196 0 -53 15 -80 55 -104 56 -35 114
-23 194 37 l31 24 7 -31 c8 -36 41 -56 79 -46 32 8 96 68 96 91 0 17 -2 16
-23 -3 -55 -52 -67 -17 -67 198 0 164 -1 169 -24 197 -42 50 -147 68 -231 38z
m165 -308 c0 -105 -7 -118 -76 -142 -45 -15 -69 -10 -94 23 -35 44 -21 115 29
149 33 23 112 61 129 62 9 1 12 -24 12 -92z"/>
<path d="M5950 7537 c-59 -19 -123 -93 -143 -163 -35 -125 -14 -228 62 -304
37 -37 59 -50 97 -58 116 -25 218 43 255 170 12 44 -8 43 -31 -2 -30 -59 -72
-82 -142 -77 -95 6 -159 75 -174 190 l-7 47 181 0 181 0 -6 38 c-8 53 -47 117
-88 142 -42 26 -134 35 -185 17z m115 -59 c22 -22 36 -46 41 -70 l6 -38 -121
0 c-87 0 -121 3 -121 12 0 26 41 94 67 110 45 28 88 23 128 -14z"/>
<path d="M3036 6130 c-88 -27 -145 -105 -155 -214 l-6 -61 -47 -3 c-40 -3 -48
-6 -48 -23 0 -16 7 -19 51 -19 l50 0 -3 -206 c-3 -202 -3 -206 -27 -225 -13
-10 -34 -19 -47 -19 -13 0 -24 -4 -24 -10 0 -6 58 -10 155 -10 97 0 155 4 155
10 0 6 -18 10 -39 10 -31 0 -44 6 -60 26 -20 25 -21 40 -21 225 l0 199 65 0
c58 0 65 2 65 20 0 18 -7 20 -66 20 l-66 0 4 100 c4 110 15 132 71 146 25 6
34 0 75 -45 47 -51 76 -63 100 -39 34 34 -11 97 -83 117 -46 12 -59 13 -99 1z"/>
<path d="M6313 6107 c-40 -17 -73 -34 -73 -38 0 -4 17 -9 38 -11 l37 -3 3
-107 c1 -60 1 -108 -1 -108 -3 0 -21 7 -40 15 -81 34 -166 8 -234 -69 -23 -26
-50 -71 -59 -99 -22 -66 -22 -169 0 -222 18 -42 67 -99 101 -117 60 -33 145
-25 202 18 l33 25 0 -35 c0 -20 3 -36 8 -36 20 -1 172 66 172 76 0 7 -10 9
-25 6 -55 -10 -55 -11 -55 379 0 412 12 377 -107 326z m-39 -302 c40 -37 46
-65 46 -225 l0 -149 -29 -20 c-45 -33 -102 -28 -147 11 -53 47 -74 98 -74 187
0 93 15 145 56 187 26 29 38 34 76 34 34 0 52 -6 72 -25z"/>
<path d="M6917 6122 c-21 -23 -22 -66 -2 -82 8 -7 27 -12 42 -12 50 0 72 67
31 96 -29 21 -51 20 -71 -2z"/>
<path d="M8817 6106 c-77 -33 -88 -46 -36 -46 18 0 32 -7 39 -19 6 -12 10
-135 10 -330 0 -298 -1 -312 -20 -331 -11 -11 -29 -20 -40 -20 -11 0 -20 -4
-20 -10 0 -6 50 -10 130 -10 80 0 130 4 130 10 0 6 -10 10 -23 10 -13 0 -32 6
-43 14 -18 13 -19 28 -19 187 l0 172 36 29 c22 17 53 32 77 35 34 5 44 1 66
-20 l26 -26 0 -185 c0 -173 -1 -186 -19 -196 -11 -5 -29 -10 -40 -10 -12 0
-21 -4 -21 -10 0 -6 48 -10 125 -10 77 0 125 4 125 10 0 6 -8 10 -18 10 -43 0
-50 25 -54 215 -5 203 -14 241 -70 275 -58 35 -122 21 -190 -43 l-38 -35 0 87
c0 143 -12 281 -24 281 -6 -1 -46 -16 -89 -34z"/>
<path d="M9440 6120 c-27 -27 -25 -55 6 -79 56 -44 119 34 66 82 -25 22 -48
21 -72 -3z"/>
<path d="M8290 6102 c-75 -25 -96 -37 -153 -91 -164 -153 -167 -435 -6 -592
67 -66 139 -92 249 -93 77 -1 92 2 152 32 65 32 118 81 148 137 18 33 4 46
-17 15 -70 -99 -133 -135 -243 -134 -90 0 -154 27 -206 88 -53 62 -69 122 -68
261 0 98 4 130 22 175 41 105 109 162 209 176 112 14 218 -50 264 -162 13 -30
27 -54 31 -54 5 0 6 39 3 88 -12 174 -19 200 -43 147 -14 -30 -31 -31 -102 -4
-77 29 -172 34 -240 11z"/>
<path d="M70 6090 c0 -5 9 -10 20 -10 39 0 70 -23 81 -59 7 -23 9 -142 7 -329
l-3 -294 -24 -19 c-13 -10 -36 -19 -52 -19 -16 0 -29 -4 -29 -10 0 -6 52 -10
135 -10 131 0 178 12 93 23 -23 3 -48 14 -55 23 -10 14 -13 85 -12 298 0 155
2 277 5 271 64 -151 285 -610 293 -610 7 0 69 122 137 270 69 149 133 288 144
310 l18 40 1 -281 c1 -213 -2 -284 -12 -298 -7 -9 -32 -20 -55 -23 -91 -12
-34 -23 123 -23 103 0 165 4 165 10 0 6 -14 10 -30 10 -19 0 -40 9 -55 25
l-25 24 0 311 0 311 25 24 c15 16 36 25 55 25 16 0 30 5 30 10 0 7 -39 10
-110 8 l-111 -3 -131 -287 c-72 -159 -134 -288 -137 -288 -3 0 -66 131 -140
290 l-135 290 -108 0 c-65 0 -108 -4 -108 -10z"/>
<path d="M4290 5985 c-13 -40 -92 -131 -120 -140 -34 -11 -22 -25 19 -25 l40
0 3 -214 c3 -210 3 -215 27 -240 34 -36 73 -42 119 -18 35 18 81 77 69 88 -3
3 -15 -4 -26 -15 -28 -28 -67 -27 -86 3 -13 19 -15 55 -13 207 l3 184 58 3
c41 2 57 7 57 17 0 10 -16 15 -57 17 l-58 3 -3 83 c-3 88 -13 103 -32 47z"/>
<path d="M1236 5855 c-74 -26 -116 -88 -95 -142 6 -17 16 -23 38 -23 35 0 51
22 51 73 0 20 7 41 18 50 20 19 83 23 112 7 21 -11 40 -60 40 -105 0 -31 -3
-33 -88 -69 -117 -48 -166 -85 -187 -141 -15 -38 -16 -49 -4 -87 33 -102 141
-116 244 -30 l29 24 9 -31 c16 -63 82 -66 142 -6 45 46 48 75 4 43 -30 -23
-31 -23 -45 -4 -11 15 -14 59 -14 191 0 162 -1 174 -23 206 -36 54 -145 75
-231 44z m164 -308 c0 -105 -7 -118 -76 -142 -45 -15 -69 -10 -94 23 -47 59
-13 135 82 181 35 17 69 31 76 31 9 0 12 -25 12 -93z"/>
<path d="M1663 5838 c-40 -17 -73 -34 -73 -39 0 -4 17 -9 37 -11 35 -3 38 -6
45 -43 11 -62 9 -296 -3 -338 -8 -30 -16 -39 -40 -44 -65 -13 -22 -23 96 -23
77 0 125 4 125 10 0 6 -11 10 -23 10 -51 0 -57 22 -57 202 l0 166 35 30 c61
55 144 53 165 -4 6 -14 10 -101 10 -193 0 -150 -2 -170 -18 -184 -10 -10 -28
-17 -40 -17 -12 0 -22 -4 -22 -10 0 -6 48 -10 125 -10 118 0 161 10 96 23 -42
9 -51 50 -51 240 0 178 -9 215 -64 248 -57 35 -123 19 -195 -46 l-41 -37 0 51
c0 62 -4 62 -107 19z"/>
<path d="M3291 5859 c-48 -15 -80 -38 -97 -70 -27 -53 -13 -99 31 -99 31 0 45
19 45 62 0 51 28 78 79 78 62 0 85 -26 86 -95 l0 -56 -75 -32 c-152 -65 -190
-99 -198 -175 -12 -132 108 -184 228 -98 44 32 51 34 56 19 16 -51 39 -69 77
-59 37 9 97 64 97 89 0 20 0 20 -24 -3 -48 -44 -53 -29 -57 174 -4 168 -6 187
-25 213 -11 15 -32 34 -46 41 -36 17 -136 23 -177 11z m149 -318 l0 -99 -51
-25 c-42 -21 -55 -24 -80 -15 -63 22 -75 110 -21 160 28 27 118 77 140 78 9 0
12 -26 12 -99z"/>
<path d="M3809 5843 c-60 -31 -112 -92 -129 -151 -14 -53 -12 -163 4 -210 43
-121 155 -180 269 -143 56 19 124 102 141 174 10 41 -11 33 -34 -13 -50 -98
-169 -114 -243 -34 -79 85 -75 277 8 342 28 22 88 30 111 14 16 -10 34 -48 34
-70 0 -41 69 -69 98 -40 35 35 -3 108 -72 139 -60 27 -122 24 -187 -8z"/>
<path d="M5113 5838 c-40 -17 -73 -34 -73 -39 0 -4 17 -9 38 -11 l37 -3 3
-185 c1 -102 0 -195 -3 -207 -4 -16 -15 -24 -40 -29 -73 -13 -30 -24 100 -24
83 0 135 4 135 10 0 6 -9 10 -20 10 -12 0 -32 11 -45 25 -24 23 -25 28 -25
177 0 148 1 155 25 191 27 40 50 46 81 22 23 -18 66 -19 82 -3 19 19 14 55
-10 78 -36 34 -84 21 -135 -36 l-43 -46 0 51 c0 62 -4 62 -107 19z"/>
<path d="M5604 5851 c-95 -43 -144 -134 -143 -265 1 -131 63 -224 167 -251
101 -27 198 24 241 126 28 63 19 103 -9 48 -32 -61 -73 -89 -133 -89 -34 0
-63 7 -83 19 -60 36 -104 117 -104 187 l0 34 175 0 175 0 0 28 c-1 36 -31 102
-61 129 -58 53 -152 67 -225 34z m139 -62 c17 -22 27 -45 27 -66 l0 -33 -115
0 c-127 0 -128 0 -101 65 34 79 135 97 189 34z"/>
<path d="M6898 5838 c-43 -17 -78 -35 -78 -39 0 -4 17 -9 37 -11 48 -4 51 -13
52 -210 1 -178 -5 -206 -49 -214 -66 -14 -24 -24 95 -24 77 0 125 4 125 10 0
6 -9 10 -20 10 -11 0 -29 9 -40 20 -19 19 -20 33 -20 255 0 182 -3 235 -12
234 -7 0 -48 -14 -90 -31z"/>
<path d="M7188 5838 c-78 -31 -91 -48 -38 -48 19 0 33 -7 40 -19 6 -12 10 -93
10 -195 0 -163 -2 -178 -20 -196 -11 -11 -29 -20 -40 -20 -11 0 -20 -4 -20
-10 0 -6 50 -10 130 -10 80 0 130 4 130 10 0 6 -10 10 -23 10 -13 0 -32 6 -43
14 -17 13 -19 30 -22 181 -4 187 -3 189 71 227 50 25 95 20 120 -13 16 -22 20
-49 24 -156 8 -197 -5 -253 -63 -253 -13 0 -24 -4 -24 -10 0 -6 50 -10 130
-10 80 0 130 4 130 10 0 6 -11 10 -23 10 -50 0 -55 20 -59 220 -4 206 -11 234
-71 270 -58 36 -119 21 -192 -45 -21 -19 -39 -35 -41 -35 -2 0 -4 23 -4 50 0
34 -4 50 -12 49 -7 0 -48 -14 -90 -31z"/>
<path d="M9418 5838 c-80 -32 -91 -48 -33 -48 21 0 35 -6 39 -16 3 -9 6 -96 6
-195 0 -166 -1 -180 -20 -199 -11 -11 -29 -20 -40 -20 -11 0 -20 -4 -20 -10 0
-6 48 -10 125 -10 77 0 125 4 125 10 0 6 -9 10 -19 10 -48 0 -51 15 -51 271 0
276 11 256 -112 207z"/>
<path d="M9713 5838 c-40 -17 -73 -34 -73 -39 0 -5 15 -9 34 -9 22 0 36 -6 40
-16 3 -9 6 -98 6 -199 0 -195 -5 -215 -51 -215 -10 0 -19 -4 -19 -10 0 -6 48
-10 125 -10 77 0 125 4 125 10 0 6 -11 10 -23 10 -51 0 -57 22 -57 204 l0 168
27 22 c42 34 66 45 96 46 74 1 87 -37 87 -247 0 -140 -2 -155 -20 -173 -11
-11 -29 -20 -40 -20 -11 0 -20 -4 -20 -10 0 -6 48 -10 125 -10 119 0 161 10
95 24 -20 4 -34 14 -40 31 -6 15 -10 101 -10 193 0 142 -3 173 -19 209 -43 93
-151 96 -243 5 l-38 -36 0 52 c0 63 -4 63 -107 20z"/>
<path d="M10365 5856 c-54 -20 -95 -67 -95 -109 0 -38 15 -57 45 -57 31 0 45
19 45 62 0 51 28 78 79 78 62 0 85 -26 86 -95 l0 -57 -89 -36 c-65 -26 -103
-48 -138 -82 -44 -43 -48 -50 -48 -94 0 -131 113 -177 229 -92 l49 36 12 -35
c12 -38 42 -52 80 -40 34 11 90 65 90 88 0 20 0 20 -24 -3 -48 -44 -53 -29
-57 172 -4 199 -9 218 -64 254 -35 23 -149 28 -200 10z m165 -315 l0 -100 -54
-26 c-51 -25 -56 -25 -83 -11 -57 29 -68 96 -26 147 23 27 131 89 156 89 4 0
7 -45 7 -99z"/>
<path d="M2160 5846 c0 -9 12 -16 32 -18 51 -5 58 -29 58 -221 0 -176 7 -214
47 -250 55 -49 137 -37 206 29 l47 45 0 -56 c0 -30 3 -55 7 -55 4 0 45 15 90
33 85 33 112 60 49 50 -26 -4 -35 -1 -42 13 -4 11 -8 114 -9 229 l0 210 -87 3
c-74 2 -88 0 -88 -13 0 -9 9 -15 24 -15 51 0 56 -17 56 -199 0 -161 -1 -168
-22 -188 -55 -50 -125 -60 -162 -23 -20 19 -21 34 -24 230 l-3 210 -90 0 c-71
0 -89 -3 -89 -14z"/>
<path d="M4460 5840 c0 -5 13 -10 29 -10 16 0 33 -6 38 -12 6 -7 13 -97 16
-200 4 -158 8 -193 23 -219 28 -48 66 -71 112 -71 51 1 76 13 130 65 l42 41 0
-57 c0 -31 4 -57 9 -57 9 0 65 23 141 58 l35 16 -40 5 c-31 5 -41 11 -46 31
-4 14 -7 114 -8 223 l-1 197 -85 0 c-50 0 -85 -4 -85 -10 0 -5 11 -10 24 -10
51 0 56 -17 56 -200 l0 -169 -33 -25 c-50 -38 -85 -48 -122 -36 -50 16 -55 40
-55 255 l0 195 -90 0 c-53 0 -90 -4 -90 -10z"/>
<path d="M3253 4427 c-40 -17 -73 -34 -73 -38 0 -4 17 -9 38 -11 l37 -3 3
-333 2 -333 65 -31 c112 -52 209 -39 295 38 66 60 93 126 91 230 -1 80 -18
130 -59 176 -80 88 -170 90 -259 5 l-33 -31 0 182 c0 211 8 199 -107 149z
m284 -338 c55 -34 77 -89 77 -189 0 -95 -21 -151 -70 -189 -37 -29 -101 -28
-145 2 l-34 23 -3 159 -2 160 42 28 c50 32 89 34 135 6z"/>
<path d="M3863 4427 c-40 -17 -73 -34 -73 -38 0 -4 17 -9 38 -11 37 -3 37 -3
44 -58 10 -92 9 -552 -3 -593 -8 -30 -16 -39 -40 -44 -65 -13 -22 -23 96 -23
77 0 125 4 125 10 0 6 -8 10 -18 10 -10 0 -28 7 -40 16 l-22 15 0 375 c0 429
12 392 -107 341z"/>
<path d="M4973 4427 c-40 -17 -73 -34 -73 -38 0 -4 17 -9 38 -11 l37 -3 3
-107 c1 -60 1 -108 -1 -108 -3 0 -21 7 -40 15 -105 44 -224 -18 -281 -146 -34
-74 -39 -179 -12 -244 54 -129 201 -177 303 -99 l33 25 0 -35 c0 -20 3 -36 8
-36 20 -1 172 66 172 76 0 7 -10 9 -25 6 -55 -10 -55 -11 -55 379 0 412 12
377 -107 326z m-46 -287 c1 0 14 -17 28 -37 24 -36 25 -43 25 -195 l0 -157
-26 -20 c-18 -14 -41 -21 -72 -21 -39 0 -50 5 -87 43 -49 49 -65 94 -65 188 0
144 71 234 165 207 16 -4 31 -8 32 -8z"/>
<path d="M5577 4442 c-21 -23 -22 -66 -2 -82 22 -18 66 -15 82 6 42 57 -33
128 -80 76z"/>
<path d="M9062 4420 c-81 -54 -134 -117 -182 -215 -50 -103 -64 -178 -58 -308
4 -78 12 -119 32 -172 47 -123 129 -227 223 -282 46 -27 73 -24 35 3 -31 21
-91 88 -113 123 -47 77 -70 203 -70 376 0 210 45 361 134 442 24 22 49 42 57
45 7 2 11 10 9 17 -3 8 -24 -1 -67 -29z"/>
<path d="M10710 4451 c0 -5 27 -37 60 -70 73 -72 104 -136 125 -255 48 -277
-10 -559 -135 -654 -27 -20 -49 -43 -49 -49 -1 -23 96 46 155 110 212 229 201
613 -24 833 -52 50 -132 102 -132 85z"/>
<path d="M305 4095 c-81 -191 -158 -359 -171 -375 -13 -15 -35 -31 -49 -34
-14 -4 -25 -11 -25 -16 0 -6 48 -10 120 -10 117 0 158 12 85 26 -66 12 -68 38
-10 168 l25 56 149 0 149 0 32 -76 c40 -96 38 -135 -7 -148 -65 -18 -30 -26
117 -26 91 0 150 4 150 10 0 5 -12 13 -27 16 -35 8 -60 30 -81 69 -9 16 -77
176 -152 354 -75 179 -141 326 -147 328 -6 2 -76 -150 -158 -342z m192 10 l61
-145 -129 0 -128 0 36 83 c19 45 47 110 62 144 14 35 28 63 31 63 3 0 33 -65
67 -145z"/>
<path d="M6660 4410 c0 -5 13 -10 29 -10 16 0 39 -9 52 -19 l24 -19 0 -322 0
-322 -24 -19 c-13 -10 -36 -19 -52 -19 -16 0 -29 -4 -29 -10 0 -6 62 -10 165
-10 156 0 214 11 125 23 -73 10 -70 -8 -70 358 0 327 0 328 22 343 12 9 37 16
55 16 18 0 33 5 33 10 0 6 -62 10 -165 10 -103 0 -165 -4 -165 -10z"/>
<path d="M9180 4410 c0 -5 14 -10 30 -10 20 0 40 -9 56 -25 l25 -25 -3 -316
-3 -316 -24 -19 c-13 -10 -36 -19 -52 -19 -16 0 -29 -4 -29 -10 0 -6 62 -10
165 -10 103 0 165 4 165 10 0 6 -12 10 -26 10 -28 0 -65 16 -76 34 -4 6 -8
154 -8 329 0 304 1 318 20 337 12 12 33 20 55 20 19 0 35 5 35 10 0 6 -62 10
-165 10 -103 0 -165 -4 -165 -10z"/>
<path d="M9550 4411 c0 -6 15 -11 33 -11 20 0 42 -8 55 -20 22 -21 22 -24 22
-338 0 -174 -4 -322 -8 -328 -11 -18 -48 -34 -76 -34 -14 0 -26 -4 -26 -10 0
-6 62 -10 165 -10 103 0 165 4 165 10 0 6 -13 10 -29 10 -16 0 -39 9 -52 19
-23 19 -24 24 -24 168 l0 148 36 3 36 3 129 -180 129 -180 103 -1 c108 0 131
11 60 31 -24 6 -56 21 -73 34 -26 19 -225 284 -225 299 0 3 21 14 47 26 61 27
91 55 114 105 23 49 24 84 4 133 -20 47 -50 79 -100 105 -37 20 -59 22 -262
25 -157 3 -223 1 -223 -7z m387 -52 c52 -25 83 -78 83 -139 0 -98 -90 -170
-212 -170 l-38 0 0 159 c0 158 0 160 23 164 54 10 104 6 144 -14z"/>
<path d="M10330 4410 c0 -5 14 -10 30 -10 20 0 40 -9 56 -25 l25 -25 -3 -316
-3 -316 -24 -19 c-13 -10 -36 -19 -52 -19 -16 0 -29 -4 -29 -10 0 -6 62 -10
165 -10 103 0 165 4 165 10 0 6 -12 10 -26 10 -28 0 -65 16 -76 34 -4 6 -8
154 -8 329 0 304 1 318 20 337 12 12 33 20 55 20 19 0 35 5 35 10 0 6 -62 10
-165 10 -103 0 -165 -4 -165 -10z"/>
<path d="M1020 4172 c-50 -25 -80 -75 -80 -133 0 -63 34 -103 130 -153 104
-55 130 -80 130 -126 0 -30 -6 -43 -26 -59 -71 -56 -186 6 -209 111 -13 57
-25 25 -25 -67 0 -91 4 -106 25 -86 6 5 40 3 80 -3 110 -19 168 -1 219 68 15
19 21 42 20 76 -1 72 -33 107 -151 167 -82 42 -101 56 -117 87 -18 37 -18 38
1 64 54 73 171 34 201 -67 20 -66 32 -48 32 49 0 50 -2 90 -5 90 -3 0 -14 -5
-24 -12 -14 -8 -29 -8 -64 0 -63 16 -96 15 -137 -6z"/>
<path d="M1475 4176 c-67 -30 -103 -103 -83 -173 13 -46 39 -70 138 -123 93
-50 120 -78 120 -126 0 -62 -81 -95 -150 -59 -37 19 -78 73 -86 113 -12 62
-24 31 -24 -63 0 -91 5 -106 26 -85 6 6 22 6 44 -1 19 -5 63 -10 97 -11 104
-1 173 59 173 151 0 71 -26 101 -141 161 -135 72 -170 121 -118 169 61 57 162
18 194 -75 23 -68 35 -53 35 45 0 72 -3 91 -14 91 -8 0 -16 -5 -18 -12 -4 -10
-16 -10 -57 0 -66 15 -98 15 -136 -2z"/>
<path d="M1976 4176 c-47 -18 -101 -68 -129 -121 -18 -33 -21 -57 -22 -140 0
-117 17 -159 86 -218 77 -67 193 -66 263 2 42 40 81 123 71 148 -6 16 -8 16
-16 -5 -13 -33 -47 -75 -72 -89 -30 -17 -112 -16 -145 1 -58 30 -100 98 -109
177 l-6 49 178 0 178 0 -5 45 c-6 52 -37 102 -84 134 -42 29 -133 37 -188 17z
m114 -53 c29 -26 55 -94 42 -107 -3 -4 -56 -6 -119 -6 -126 0 -128 1 -96 67
34 72 119 95 173 46z"/>
<path d="M2373 4158 c-40 -17 -73 -34 -73 -39 0 -5 15 -9 34 -9 22 0 36 -6 40
-16 3 -9 6 -98 6 -199 0 -179 -1 -184 -22 -199 -12 -9 -30 -16 -40 -16 -10 0
-18 -4 -18 -10 0 -6 50 -10 130 -10 80 0 130 4 130 10 0 6 -10 10 -23 10 -13
0 -32 6 -43 14 -18 13 -19 28 -19 187 l0 172 37 30 c27 21 51 31 86 35 44 4
51 2 70 -23 21 -26 22 -38 22 -205 0 -159 -2 -179 -18 -193 -10 -10 -28 -17
-40 -17 -12 0 -22 -4 -22 -10 0 -6 50 -10 130 -10 80 0 130 4 130 10 0 6 -8
10 -18 10 -10 0 -28 7 -40 16 -21 15 -22 21 -22 190 l0 174 47 30 c59 38 105
39 138 5 25 -24 25 -27 25 -199 0 -96 -3 -181 -6 -190 -3 -8 -21 -18 -40 -22
-72 -13 -29 -24 96 -24 80 0 130 4 130 10 0 6 -8 10 -18 10 -10 0 -27 7 -39
15 -20 14 -21 24 -25 202 -4 209 -11 237 -71 273 -61 37 -126 21 -201 -49 -27
-25 -40 -32 -43 -23 -3 8 -19 29 -35 48 -55 62 -139 56 -222 -17 l-46 -41 0
51 c0 62 -4 62 -107 19z"/>
<path d="M4278 4177 c-53 -20 -93 -56 -125 -112 -26 -46 -28 -59 -28 -150 0
-117 17 -159 86 -218 77 -67 193 -66 263 2 41 40 81 123 72 148 -6 15 -12 10
-32 -28 -31 -56 -68 -79 -129 -79 -97 0 -168 75 -182 191 l-6 49 177 0 176 0
0 28 c0 45 -46 124 -86 151 -46 29 -133 37 -186 18z m118 -61 c26 -26 34 -42
34 -70 l0 -36 -115 0 c-127 0 -128 0 -101 65 18 42 69 75 115 75 24 0 42 -9
67 -34z"/>
<path d="M5558 4158 c-78 -31 -91 -48 -37 -48 43 0 49 -27 49 -210 0 -181 -6
-208 -50 -216 -66 -14 -24 -24 95 -24 77 0 125 4 125 10 0 6 -9 10 -20 10 -11
0 -29 9 -40 20 -19 19 -20 33 -20 255 0 182 -3 235 -12 234 -7 0 -48 -14 -90
-31z"/>
<path d="M5848 4158 c-78 -31 -91 -48 -38 -48 19 0 33 -7 40 -19 6 -12 10 -93
10 -193 0 -190 -7 -218 -56 -218 -13 0 -24 -4 -24 -10 0 -6 50 -10 130 -10 80
0 130 4 130 10 0 6 -10 10 -23 10 -13 0 -32 6 -43 14 -17 13 -19 30 -22 181
-4 187 -4 188 71 227 51 26 94 20 121 -15 19 -25 21 -45 25 -178 2 -82 0 -160
-3 -173 -8 -34 -33 -56 -62 -56 -13 0 -24 -4 -24 -10 0 -6 50 -10 130 -10 80
0 130 4 130 10 0 6 -8 10 -18 10 -10 0 -27 6 -38 14 -17 13 -19 31 -24 203 -6
209 -13 237 -73 273 -58 36 -118 21 -190 -45 -21 -19 -40 -35 -43 -35 -2 0 -4
23 -4 50 0 34 -4 50 -12 49 -7 0 -48 -14 -90 -31z"/>
<path d="M7093 4157 c-40 -17 -73 -34 -73 -38 0 -4 17 -9 37 -11 48 -4 51 -13
52 -210 1 -175 -6 -203 -50 -213 -65 -14 -22 -25 101 -25 80 0 130 4 130 10 0
6 -9 10 -20 10 -12 0 -32 11 -45 25 -24 23 -25 28 -25 175 0 146 1 152 26 190
30 46 40 48 93 21 34 -18 40 -18 60 -5 27 19 27 58 1 84 -38 38 -101 16 -150
-52 l-30 -41 0 56 c0 68 -2 69 -107 24z"/>
<path d="M7555 4176 c-54 -20 -95 -67 -95 -109 0 -38 15 -57 45 -57 31 0 45
19 45 62 0 51 28 78 79 78 62 0 85 -26 86 -95 l0 -57 -89 -36 c-65 -26 -103
-48 -138 -82 -44 -43 -48 -50 -48 -94 0 -131 113 -177 228 -93 l49 36 14 -31
c18 -40 39 -53 72 -44 33 8 93 60 100 86 7 26 -1 25 -29 -1 -46 -43 -51 -26
-56 173 -5 200 -11 223 -60 253 -42 24 -151 30 -203 11z m165 -315 l0 -100
-54 -26 c-51 -25 -56 -25 -83 -11 -57 29 -68 96 -26 147 23 27 131 89 156 89
4 0 7 -45 7 -99z"/>
<path d="M7988 4158 c-78 -31 -91 -48 -38 -48 19 0 33 -7 40 -19 6 -12 10 -93
10 -195 0 -163 -2 -178 -20 -196 -11 -11 -29 -20 -40 -20 -11 0 -20 -4 -20
-10 0 -6 50 -10 130 -10 80 0 130 4 130 10 0 6 -10 10 -23 10 -13 0 -32 6 -43
14 -17 13 -19 30 -22 181 -4 187 -3 189 70 226 53 27 92 25 117 -7 19 -25 21
-40 21 -205 0 -193 -4 -209 -56 -209 -13 0 -24 -4 -24 -10 0 -6 50 -10 130
-10 80 0 130 4 130 10 0 6 -11 10 -23 10 -50 0 -55 20 -59 220 -4 206 -11 234
-71 270 -58 36 -112 24 -189 -41 l-48 -40 0 50 c0 35 -4 51 -12 50 -7 0 -48
-14 -90 -31z"/>
<path d="M2106 2838 c-20 -46 -20 -92 -2 -121 15 -23 61 -307 72 -443 4 -53 3
-88 -5 -101 -29 -54 -200 -100 -310 -82 -61 9 -118 48 -127 85 -12 47 2 130
34 197 35 77 27 100 -11 29 -40 -73 -67 -167 -68 -231 -2 -135 80 -189 278
-179 116 5 196 41 230 103 l22 40 143 5 143 5 -1 120 c-1 123 -10 172 -43 215
l-19 24 -23 -47 -23 -47 21 -22 c28 -32 40 -56 48 -106 l7 -43 -124 3 -123 3
-7 84 c-7 81 -32 276 -44 334 -5 22 -2 27 14 27 15 0 21 9 26 38 9 58 8 60
-34 82 -23 12 -45 31 -50 43 -8 21 -9 20 -24 -15z"/>
<path d="M13031 2810 c-14 -66 -14 -71 4 -84 10 -8 24 -75 45 -226 16 -118 30
-225 30 -238 0 -22 -2 -23 -87 -20 l-88 3 -5 85 c-5 78 -15 109 -49 159 -7 12
-14 5 -32 -31 l-22 -46 28 -36 c19 -25 30 -53 33 -87 l5 -50 -119 3 -119 3 -2
40 c-5 75 -25 159 -48 205 -23 45 -95 120 -115 120 -6 0 -10 -24 -10 -52 0
-51 1 -54 41 -76 49 -28 85 -98 95 -185 l7 -57 -122 0 c-110 0 -123 2 -142 21
-17 17 -23 19 -30 8 -12 -19 -11 -66 1 -89 19 -35 74 -40 463 -40 l377 0 0 68
c0 37 -14 153 -30 257 -35 221 -35 225 -15 225 8 0 15 8 15 19 0 10 3 33 6 50
6 28 4 32 -30 46 -20 8 -42 24 -48 35 -19 30 -25 25 -37 -30z"/>
<path d="M1227 2795 c-9 -20 -17 -38 -17 -40 0 -8 64 -45 77 -45 12 0 43 50
43 69 0 9 -69 51 -83 51 -2 0 -11 -16 -20 -35z"/>
<path d="M3227 2773 l-29 -47 20 -35 c25 -45 29 -69 42 -258 12 -165 28 -239
61 -269 18 -16 37 -19 138 -19 89 0 124 4 150 17 31 16 35 16 65 1 41 -22 161
-21 204 1 28 15 35 15 54 2 13 -8 46 -16 73 -18 l50 -3 0 106 c-1 82 -5 116
-20 148 l-18 42 -18 -29 c-18 -27 -18 -29 6 -77 29 -56 30 -68 10 -85 -12 -10
-21 -10 -44 0 -32 13 -59 59 -68 116 -5 28 -8 32 -20 22 -10 -8 -12 -22 -8
-49 4 -21 4 -47 0 -58 -15 -47 -134 -54 -180 -11 -14 13 -32 44 -41 69 -30 80
-40 73 -46 -29 -3 -36 -8 -47 -28 -57 -27 -14 -207 -18 -227 -5 -31 20 -44 86
-53 271 -8 174 -25 301 -39 301 -3 0 -19 -21 -34 -47z"/>
<path d="M5897 2775 l-29 -45 22 -46 c18 -37 25 -78 36 -225 15 -201 24 -246
58 -286 l24 -28 194 0 193 0 -1 121 c-1 124 -11 171 -43 214 l-19 24 -23 -47
-23 -47 21 -22 c28 -32 39 -56 47 -105 l6 -43 -161 0 c-88 0 -169 4 -179 10
-31 16 -41 69 -50 255 -8 174 -25 315 -39 315 -3 0 -19 -20 -34 -45z"/>
<path d="M7772 2772 c-62 -26 -129 -60 -149 -76 -43 -35 -72 -97 -73 -153 0
-37 5 -45 45 -78 28 -23 51 -35 61 -31 22 8 120 -61 184 -131 l53 -58 -184 -3
c-101 -1 -189 0 -195 2 -7 3 -13 39 -16 93 -3 69 -9 97 -28 131 -13 23 -27 42
-30 42 -4 0 -15 -17 -24 -39 -18 -38 -18 -39 9 -79 17 -26 28 -59 32 -97 l6
-56 -284 3 c-314 4 -343 9 -394 70 -29 35 -32 74 -9 142 24 71 9 68 -26 -5
-63 -135 -28 -244 94 -286 46 -16 99 -18 581 -18 l530 0 3 47 c3 40 -2 56 -31
101 -48 75 -144 175 -233 243 -40 31 -74 63 -74 70 0 19 56 45 178 85 l102 33
0 48 c0 26 -3 48 -7 47 -5 0 -59 -22 -121 -47z"/>
<path d="M777 2765 c-9 -20 -17 -38 -17 -40 0 -8 64 -45 77 -45 12 0 43 50 43
69 0 9 -69 51 -83 51 -2 0 -11 -16 -20 -35z"/>
<path d="M8860 2767 c-11 -17 -20 -35 -20 -39 0 -8 64 -48 78 -48 7 0 20 17
31 38 l20 39 -45 21 -44 22 -20 -33z"/>
<path d="M11707 2765 c-9 -20 -17 -38 -17 -40 0 -8 64 -45 77 -45 12 0 43 50
43 69 0 9 -69 51 -83 51 -2 0 -11 -16 -20 -35z"/>
<path d="M1100 2739 c-12 -22 -20 -42 -18 -44 2 -1 21 -12 43 -23 l41 -20 21
39 c23 42 22 44 -34 73 l-32 16 -21 -41z"/>
<path d="M2391 2702 l-20 -39 44 -21 44 -21 20 33 c12 18 21 36 21 39 0 8 -65
47 -78 47 -7 0 -20 -17 -31 -38z"/>
<path d="M13835 2710 c-8 -16 -15 -34 -15 -39 0 -10 79 -56 85 -49 7 9 35 68
35 76 0 9 -63 42 -80 42 -5 0 -16 -13 -25 -30z"/>
<path d="M887 2665 c-9 -20 -17 -37 -17 -39 0 -6 70 -46 80 -46 10 0 40 52 40
69 0 9 -69 51 -83 51 -2 0 -11 -16 -20 -35z"/>
<path d="M7130 2668 c-11 -18 -20 -36 -20 -40 0 -7 72 -48 84 -48 5 0 48 72
44 75 -2 1 -22 12 -46 24 l-42 21 -20 -32z"/>
<path d="M8967 2665 c-9 -20 -17 -38 -17 -40 0 -5 76 -45 84 -45 3 0 14 17 25
38 l20 39 -45 21 c-24 12 -46 22 -47 22 -2 0 -11 -16 -20 -35z"/>
<path d="M11817 2665 c-9 -20 -17 -37 -17 -40 0 -6 67 -45 78 -45 12 0 42 51
42 69 0 9 -69 51 -83 51 -2 0 -11 -16 -20 -35z"/>
<path d="M2265 2660 c-8 -16 -15 -34 -15 -39 0 -10 79 -56 85 -49 5 6 35 67
35 72 0 6 -69 46 -80 46 -5 0 -16 -13 -25 -30z"/>
<path d="M13707 2655 c-9 -20 -17 -38 -17 -40 0 -6 81 -47 84 -43 1 2 13 20
25 40 l22 37 -40 21 c-22 11 -44 20 -49 20 -4 0 -16 -16 -25 -35z"/>
<path d="M761 2611 c-22 -43 -21 -46 35 -74 l31 -16 16 35 c23 48 22 51 -23
74 l-40 20 -19 -39z"/>
<path d="M7000 2611 l-20 -39 43 -25 42 -25 22 36 c13 20 23 39 23 43 0 3 -20
15 -45 27 l-45 22 -20 -39z"/>
<path d="M8840 2611 l-20 -39 43 -25 42 -25 23 40 c13 22 22 41 20 42 -1 2
-22 13 -45 25 l-43 21 -20 -39z"/>
<path d="M11687 2615 c-9 -20 -17 -39 -17 -43 0 -9 64 -42 80 -42 10 0 40 52
40 69 0 9 -69 51 -83 51 -2 0 -11 -16 -20 -35z"/>
<path d="M10197 2603 c-4 -3 -7 -28 -7 -54 0 -38 4 -49 19 -54 64 -20 111 -97
119 -193 l5 -64 -127 4 c-112 3 -129 5 -142 22 -17 25 -24 18 -31 -31 -4 -32
-1 -42 22 -63 25 -24 33 -25 172 -29 l146 -3 -6 118 c-7 137 -24 203 -70 269
-32 47 -88 91 -100 78z"/>
<path d="M11196 2579 c-9 -48 -7 -79 6 -79 23 0 79 -52 99 -93 12 -23 24 -69
27 -104 l5 -63 -122 0 c-109 0 -123 2 -142 21 -24 24 -24 24 -33 -23 -5 -30
-2 -41 18 -65 l24 -28 214 0 c188 0 217 2 241 18 26 17 29 17 60 0 42 -22 161
-22 205 1 28 15 35 15 54 2 13 -8 46 -16 73 -18 l50 -3 0 105 c0 83 -4 115
-19 148 l-19 43 -19 -29 c-18 -29 -18 -30 7 -73 29 -51 31 -72 10 -89 -12 -10
-21 -10 -44 0 -32 13 -59 59 -68 116 -5 28 -8 32 -20 23 -9 -8 -11 -22 -7 -45
9 -51 -2 -80 -36 -94 -42 -18 -116 -7 -145 20 -22 21 -30 36 -55 105 -15 41
-30 16 -30 -51 0 -65 -14 -77 -94 -82 l-62 -4 -12 93 c-18 139 -64 222 -148
272 -7 4 -14 -5 -18 -24z"/>
<path d="M1167 2582 c-45 -50 -69 -170 -43 -220 19 -38 48 -47 121 -38 49 5
53 4 59 -17 3 -12 6 -32 6 -44 0 -23 -2 -23 -129 -23 l-128 0 -5 63 c-3 35
-13 80 -23 101 l-18 38 -19 -31 c-20 -30 -20 -31 1 -60 48 -67 34 -121 -26
-101 -32 12 -57 53 -69 115 -10 54 -28 28 -28 -42 -1 -51 -4 -59 -26 -71 -15
-8 -46 -11 -78 -9 -64 4 -95 30 -120 99 -9 26 -21 47 -27 45 -5 -2 -10 -27
-10 -56 0 -70 -24 -91 -105 -91 l-57 0 -47 61 c-81 104 -161 116 -220 31 -23
-32 -27 -45 -18 -54 9 -9 16 -8 29 4 10 8 26 18 36 21 22 8 76 -13 100 -40 17
-20 16 -20 -55 -32 -104 -17 -152 -43 -177 -95 -12 -23 -21 -56 -21 -72 0 -41
81 -315 91 -308 17 10 9 97 -18 200 -31 118 -29 128 31 158 31 15 73 20 222
26 144 6 190 12 209 24 23 15 27 15 58 0 21 -11 56 -17 102 -17 46 0 81 6 102
17 31 16 34 15 60 -1 24 -16 52 -18 228 -18 l200 0 3 75 c4 91 -13 227 -35
284 -25 63 -60 96 -103 96 -23 0 -43 -7 -53 -18z m70 -104 c27 -25 29 -43 7
-52 -50 -19 -91 6 -80 49 8 32 41 33 73 3z"/>
<path d="M13864 2458 l-21 -43 28 -40 c17 -24 31 -60 35 -87 l7 -48 -120 0
-120 0 -7 56 c-7 63 -27 109 -51 118 -33 12 -62 5 -86 -21 -35 -39 -49 -76
-49 -132 0 -68 25 -96 95 -111 l55 -12 -29 -37 c-104 -132 -208 -175 -348
-147 -70 14 -50 -9 30 -35 101 -32 179 -32 237 3 51 29 104 98 130 167 l18 46
141 3 141 3 0 104 c0 123 -13 190 -43 229 l-22 28 -21 -44z m-261 -145 c8 -10
19 -31 23 -47 7 -29 7 -29 -31 -23 -50 8 -69 28 -61 61 8 31 44 36 69 9z"/>
<path d="M5741 2429 c-12 -39 -11 -44 16 -83 79 -113 69 -191 -41 -294 -98
-93 -185 -121 -303 -99 -56 11 -73 11 -77 2 -7 -19 128 -66 205 -72 56 -5 74
-2 111 17 66 33 135 96 168 154 28 48 30 57 30 164 0 79 -5 124 -15 149 -17
41 -62 103 -74 103 -4 0 -13 -19 -20 -41z"/>
<path d="M8411 2427 c-12 -41 -11 -45 23 -95 70 -104 55 -185 -51 -282 -100
-91 -182 -119 -296 -99 -43 7 -72 8 -78 2 -15 -15 127 -64 202 -70 60 -5 72
-3 120 23 78 42 153 120 175 181 l18 51 70 7 c39 3 81 13 94 21 19 13 26 13
55 -2 21 -11 56 -17 102 -17 46 0 81 6 102 17 29 14 36 15 55 2 13 -7 47 -17
77 -20 l54 -7 -5 118 c-3 87 -9 127 -22 152 l-18 33 -19 -31 c-19 -31 -19 -31
6 -67 42 -62 26 -115 -29 -94 -32 12 -63 60 -71 113 -10 56 -27 32 -29 -39 -1
-51 -4 -60 -26 -72 -15 -8 -46 -11 -78 -9 -64 4 -95 30 -120 99 -9 26 -21 47
-27 45 -5 -2 -10 -27 -10 -56 0 -71 -24 -91 -106 -91 l-59 0 0 33 c0 52 -20
109 -53 154 -18 23 -35 43 -38 43 -4 0 -12 -19 -18 -43z"/>
<path d="M9871 2439 c-16 -46 -15 -52 23 -108 70 -103 55 -185 -51 -281 -102
-93 -183 -119 -301 -97 -43 8 -75 10 -78 5 -9 -14 -5 -16 87 -48 112 -40 177
-40 244 -1 79 46 132 97 160 156 26 51 27 61 24 173 -4 118 -4 119 -42 175
-20 32 -41 57 -46 57 -5 0 -14 -14 -20 -31z"/>
<path d="M10750 2428 c-7 -24 -14 -50 -15 -58 -1 -8 -12 -39 -24 -68 -21 -53
-27 -117 -13 -138 24 -37 113 -45 178 -15 56 26 82 85 75 178 -2 29 -50 75
-118 112 -31 17 -60 31 -63 31 -4 0 -13 -19 -20 -42z m92 -105 c69 -38 78 -57
36 -83 -45 -28 -102 -27 -122 2 -9 12 -16 27 -16 33 0 13 38 75 46 75 3 0 29
-12 56 -27z"/>
<path d="M4870 2405 c-20 -50 -22 -60 -10 -79 49 -77 64 -169 36 -224 -44 -85
-301 -138 -403 -84 -76 41 -86 146 -28 278 15 33 20 56 14 60 -13 8 -13 9 -43
-64 -81 -193 -73 -307 25 -362 66 -37 203 -41 301 -9 88 28 150 83 168 151 7
23 14 48 15 54 2 6 33 14 69 17 37 4 79 14 95 23 25 15 30 15 52 1 13 -8 48
-18 78 -22 l53 -7 -3 119 c-3 100 -7 123 -25 152 l-22 34 -16 -31 c-15 -29
-15 -33 9 -74 28 -49 31 -71 11 -87 -20 -17 -74 6 -91 39 -8 15 -17 46 -21 69
-5 34 -9 39 -20 30 -10 -8 -12 -22 -8 -45 14 -74 -18 -104 -111 -104 l-43 0
-11 75 c-6 42 -19 92 -29 112 l-19 35 -23 -57z"/>
<path d="M2960 2376 c-14 -8 -36 -33 -48 -55 -20 -35 -21 -42 -8 -47 8 -3 28
4 44 16 27 20 31 20 63 7 19 -8 43 -24 53 -36 19 -21 19 -21 -3 -21 -12 0 -54
-7 -93 -16 -92 -21 -134 -58 -147 -129 -9 -49 1 -97 72 -325 l11 -35 9 46 c7
38 4 64 -17 142 -14 52 -26 111 -26 131 0 35 3 39 48 59 36 16 72 22 155 25
l107 4 0 58 c0 56 -1 59 -57 119 -49 53 -64 63 -98 67 -24 3 -50 -1 -65 -10z"/>
<path d="M12821 2041 c-22 -43 -21 -46 35 -74 l31 -16 22 40 c13 22 21 42 20
43 -2 2 -23 13 -46 25 l-43 21 -19 -39z"/>
<path d="M6277 2021 c-24 -41 -22 -44 27 -68 l43 -21 17 34 c22 46 21 48 -19
67 -47 22 -48 22 -68 -12z"/>
<path d="M12690 1989 c-12 -22 -20 -42 -18 -44 2 -1 22 -12 45 -24 l43 -21 20
41 c12 22 20 42 18 44 -2 1 -22 12 -45 24 l-43 21 -20 -41z"/>
<path d="M6146 1964 c-9 -20 -16 -38 -14 -39 2 -1 22 -12 45 -24 l43 -21 20
40 20 40 -40 20 c-21 11 -43 20 -48 20 -4 0 -16 -16 -26 -36z"/>
<path d="M6259 1868 c-11 -22 -19 -41 -17 -42 18 -13 81 -46 83 -44 1 2 11 19
23 40 l22 36 -45 25 -45 26 -21 -41z"/>
<path d="M9872 1151 c-16 -52 -15 -68 6 -89 11 -11 27 -59 40 -120 30 -141 37
-229 23 -289 -11 -45 -17 -52 -59 -72 -26 -13 -72 -26 -103 -28 l-57 -6 -4 99
c-3 77 -9 110 -26 146 -46 94 -132 82 -177 -25 -43 -103 -2 -173 115 -192 79
-13 17 -24 -148 -24 l-153 -1 -16 37 c-12 30 -72 320 -73 358 0 6 -10 -1 -20
-14 -12 -14 -20 -38 -20 -61 0 -34 -4 -40 -57 -73 -94 -60 -153 -122 -153
-162 0 -27 16 -34 95 -42 66 -6 115 10 134 44 11 21 10 23 35 -69 9 -32 27
-70 40 -85 l24 -28 698 -3 c440 -1 718 1 752 8 30 5 70 21 88 35 l34 26 42
-25 c37 -21 132 -46 175 -46 10 0 13 19 13 73 0 62 -5 82 -34 142 -19 39 -39
76 -44 83 -17 25 -83 -14 -162 -97 -76 -79 -114 -101 -181 -101 -26 0 -26 1
-31 90 -5 77 -10 96 -33 132 l-28 42 -22 -44 -22 -43 30 -43 c18 -26 31 -59
34 -88 l6 -46 -122 0 -121 0 0 45 c0 166 -135 204 -337 95 l-71 -38 5 92 c5
84 -5 172 -33 274 -5 16 -2 22 9 22 16 0 27 29 27 76 0 28 -4 32 -34 38 -19 4
-39 13 -46 21 -19 23 -26 18 -38 -24z m-652 -418 c0 -39 -27 -63 -69 -63 -56
0 -66 12 -34 42 60 55 103 64 103 21z m399 17 c19 -9 56 -88 47 -97 -3 -3 -21
-2 -41 1 -47 9 -78 40 -69 69 11 35 32 44 63 27z m1410 -107 c30 -62 35 -83
16 -83 -19 0 -115 48 -115 57 0 13 54 63 67 63 7 0 21 -17 32 -37z m-759 -6
c14 -7 26 -22 28 -33 6 -42 -20 -49 -202 -52 -125 -2 -167 0 -156 8 29 21 116
63 155 76 52 16 143 17 175 1z"/>
<path d="M6380 1100 l-20 -40 40 -20 c21 -11 43 -20 48 -20 8 0 46 70 40 75
-2 1 -22 12 -45 24 l-43 21 -20 -40z"/>
<path d="M6618 1087 l-25 -52 19 -150 c10 -82 22 -217 26 -300 l7 -150 25 45
c23 41 25 55 24 170 0 98 -38 477 -48 487 -1 1 -14 -21 -28 -50z"/>
<path d="M2493 1080 c-18 -27 -29 -51 -24 -54 29 -18 43 -86 57 -268 17 -231
33 -282 94 -298 23 -6 159 -9 347 -8 l308 3 -1 121 c-1 124 -11 171 -43 214
l-19 24 -23 -47 -23 -47 21 -22 c28 -32 39 -56 47 -105 l6 -43 -118 0 -119 0
-10 93 c-8 73 -15 101 -36 132 l-26 38 -22 -46 -23 -47 21 -22 c32 -35 43 -63
43 -107 l0 -41 -156 0 c-85 0 -164 4 -174 10 -31 17 -41 69 -50 250 -8 168
-25 306 -39 314 -3 2 -21 -18 -38 -44z"/>
<path d="M4744 1105 c-42 -59 -47 -75 -31 -93 26 -30 37 -84 47 -237 12 -185
25 -254 55 -291 l23 -29 124 0 c102 0 129 3 151 18 26 17 28 17 60 0 30 -17
82 -18 686 -21 l653 -3 -4 148 c-4 123 -9 158 -28 207 -29 76 -58 106 -103
106 -61 0 -107 -80 -107 -186 0 -45 4 -55 27 -74 24 -18 38 -21 93 -18 l65 3
3 -43 3 -43 -128 3 -128 3 -5 85 c-6 82 -22 133 -52 158 -11 8 -17 1 -31 -33
l-19 -44 28 -36 c18 -24 29 -52 32 -85 l5 -50 -122 0 -121 0 0 53 c0 97 -52
149 -147 149 -77 -1 -120 -17 -238 -94 -118 -77 -174 -100 -249 -102 -48 -1
-59 3 -85 28 -17 16 -38 49 -48 72 -22 53 -39 52 -36 -2 5 -91 -14 -104 -157
-104 -145 0 -141 -8 -160 325 -5 94 -15 190 -23 215 l-13 44 -20 -29z m1657
-326 c18 -26 19 -33 8 -40 -16 -10 -51 -12 -73 -3 -16 6 -22 54 -9 67 16 17
53 5 74 -24z m-601 -144 c33 -17 39 -45 13 -66 -16 -14 -230 -25 -313 -17
l-35 3 65 34 c36 19 81 40 100 47 48 18 135 17 170 -1z"/>
<path d="M7685 1080 c-10 -22 -16 -42 -14 -44 2 -2 22 -13 44 -24 l40 -20 23
41 c12 22 21 41 20 42 -6 5 -87 45 -91 45 -2 0 -12 -18 -22 -40z"/>
<path d="M9602 1085 l-22 -35 32 -20 c18 -11 35 -20 38 -20 3 0 15 16 27 35
l22 34 -33 20 c-18 12 -35 21 -37 21 -2 0 -14 -16 -27 -35z"/>
<path d="M6257 1054 c-10 -19 -17 -38 -17 -42 0 -8 64 -42 78 -42 8 0 45 70
40 75 -2 1 -21 12 -44 23 l-41 21 -16 -35z"/>
<path d="M9480 1053 c-21 -36 -21 -38 -3 -51 44 -33 49 -33 71 7 l22 39 -23
14 c-12 8 -27 17 -34 21 -6 4 -20 -8 -33 -30z"/>
<path d="M6086 1014 c-9 -20 -16 -38 -14 -39 2 -1 22 -12 45 -24 l43 -21 20
40 20 40 -40 20 c-21 11 -43 20 -48 20 -4 0 -16 -16 -26 -36z"/>
<path d="M7795 980 c-10 -22 -16 -42 -14 -44 2 -2 22 -13 44 -24 l40 -20 23
41 c12 22 21 41 20 42 -6 5 -87 45 -91 45 -2 0 -12 -18 -22 -40z"/>
<path d="M10517 985 c-9 -20 -17 -39 -17 -43 0 -9 64 -42 80 -42 10 0 40 52
40 69 0 9 -69 51 -83 51 -2 0 -11 -16 -20 -35z"/>
<path d="M5960 964 c-12 -19 -21 -36 -19 -38 11 -8 81 -46 84 -46 3 0 14 18
25 40 l20 40 -40 20 c-21 11 -41 20 -44 20 -2 0 -14 -16 -26 -36z"/>
<path d="M7665 930 c-10 -22 -16 -42 -14 -44 2 -2 23 -13 46 -25 l43 -21 20
41 c12 22 20 42 18 44 -5 4 -87 45 -91 45 -2 0 -12 -18 -22 -40z"/>
<path d="M4510 866 c0 -50 2 -54 30 -66 61 -25 110 -120 110 -212 l0 -38 -120
0 c-108 0 -122 2 -137 20 -24 28 -31 25 -39 -16 -15 -83 26 -104 209 -104 100
0 119 2 124 16 3 9 1 72 -5 141 -11 122 -33 196 -74 243 -21 25 -79 70 -89 70
-5 0 -9 -24 -9 -54z"/>
<path d="M4125 806 c-69 -30 -166 -175 -168 -252 -2 -58 26 -74 129 -74 45 0
86 -4 89 -10 9 -15 -78 -66 -164 -95 -89 -31 -229 -44 -283 -26 -19 6 -46 23
-59 37 -21 22 -24 35 -23 97 0 59 6 84 31 139 19 41 28 70 22 74 -13 8 -10 11
-49 -70 -45 -95 -66 -207 -50 -265 29 -109 157 -146 358 -105 172 35 270 128
272 257 0 48 -21 57 -136 57 -95 0 -106 8 -80 58 18 34 76 87 106 97 32 10 85
-3 105 -25 24 -26 35 -17 35 31 0 74 -61 108 -135 75z"/>
<path d="M8117 775 c-22 -46 -22 -50 10 -91 17 -23 28 -52 31 -84 l5 -50 -122
0 -121 0 0 52 c0 58 -26 121 -64 158 l-25 22 -15 -37 c-9 -21 -16 -39 -16 -41
0 -3 16 -29 36 -59 65 -98 56 -177 -31 -267 -100 -105 -197 -139 -323 -115
-57 11 -72 11 -76 1 -7 -18 166 -74 229 -74 70 1 126 29 201 104 48 48 66 75
76 110 l12 45 141 3 140 3 -3 125 c-3 109 -7 132 -29 178 -13 28 -28 52 -32
52 -4 0 -15 -16 -24 -35z"/>
<path d="M7134 745 c-7 -19 -14 -41 -14 -48 0 -8 -11 -45 -25 -81 -49 -130
-28 -171 84 -171 102 1 146 41 157 143 7 64 -17 100 -103 151 -38 23 -73 41
-77 41 -4 0 -14 -16 -22 -35z m79 -106 c46 -24 77 -48 77 -61 0 -16 -66 -48
-100 -48 -43 0 -60 15 -60 52 0 25 25 78 37 78 2 0 23 -10 46 -21z"/>
<path d="M8559 703 c-36 -39 -49 -76 -49 -134 0 -57 27 -93 77 -104 81 -19 81
-14 12 -88 -98 -107 -188 -141 -301 -114 -48 12 -58 12 -58 1 0 -20 135 -58
211 -58 56 -1 72 3 108 27 47 31 97 97 123 160 19 47 24 195 8 262 -17 75 -84
99 -131 48z m80 -89 c27 -34 27 -64 2 -64 -56 0 -97 44 -71 75 19 23 46 18 69
-11z"/>
<path d="M2228 685 c-36 -20 -74 -83 -60 -97 9 -9 16 -7 29 4 10 8 26 18 36
21 22 8 76 -13 100 -40 17 -20 17 -20 -35 -27 -132 -17 -201 -65 -213 -148 -5
-33 2 -71 31 -168 20 -69 39 -135 42 -148 2 -12 9 -25 14 -28 17 -11 2 154
-20 234 -36 126 -6 152 186 160 l112 5 0 51 c0 54 -11 77 -64 134 -56 61 -105
75 -158 47z"/>
<path d="M2880 350 l-20 -39 22 -12 c13 -7 33 -19 45 -26 21 -14 23 -12 43 27
12 23 20 43 18 45 -2 1 -22 12 -45 24 l-43 21 -20 -40z"/>
<path d="M8090 358 c-11 -18 -20 -38 -20 -44 0 -5 20 -20 45 -32 l45 -22 21
41 c11 23 19 42 17 44 -2 1 -22 12 -46 24 l-42 21 -20 -32z"/>
<path d="M3157 331 c-24 -41 -22 -44 27 -68 l43 -21 17 34 c22 46 21 48 -19
67 -47 22 -48 22 -68 -12z"/>
<path d="M2757 304 c-23 -48 -22 -51 23 -74 l40 -20 20 41 c12 22 20 42 18 44
-2 1 -21 12 -44 23 l-41 21 -16 -35z"/>
<path d="M7960 299 c-12 -22 -20 -42 -18 -44 2 -1 22 -12 45 -24 l43 -21 20
41 c12 22 20 42 18 44 -2 1 -22 12 -45 24 l-43 21 -20 -41z"/>
<path d="M3026 274 c-9 -20 -16 -38 -14 -39 2 -1 22 -12 45 -24 l43 -21 20 40
20 40 -40 20 c-21 11 -43 20 -48 20 -4 0 -16 -16 -26 -36z"/>
<path d="M3139 178 c-11 -22 -19 -41 -17 -42 2 -1 21 -12 42 -25 42 -24 41
-24 71 31 14 26 14 27 -30 52 l-45 25 -21 -41z"/>
</g>
</svg>
