<?xml version="1.0" encoding="UTF-8"?>
<svg xmlns="http://www.w3.org/2000/svg" xmlns:xlink="http://www.w3.org/1999/xlink" width="40px" height="19px" viewBox="0 0 39 19" version="1.1">
<g id="surface1">
<path style=" stroke:none;fill-rule:evenodd;fill:rgb(99.607843%,99.607843%,99.607843%);fill-opacity:1;" d="M -0.0273438 1.683594 C 12.972656 1.683594 25.972656 1.683594 38.972656 1.683594 C 38.972656 6.875 38.972656 12.066406 38.972656 17.257812 C 25.972656 17.257812 12.972656 17.257812 -0.0273438 17.257812 C -0.0273438 12.066406 -0.0273438 6.875 -0.0273438 1.683594 Z M -0.0273438 1.683594 "/>
<path style=" stroke:none;fill-rule:evenodd;fill:rgb(1.960784%,1.960784%,1.960784%);fill-opacity:1;" d="M 8.808594 4.636719 C 8.902344 4.636719 8.996094 4.636719 9.089844 4.636719 C 9.078125 5.71875 9.089844 6.796875 9.117188 7.878906 C 9.449219 7.472656 9.851562 7.171875 10.328125 6.980469 C 11.160156 6.949219 11.597656 7.363281 11.652344 8.226562 C 11.667969 9.152344 11.6875 10.078125 11.707031 11.003906 C 11.800781 11.34375 12.015625 11.476562 12.351562 11.410156 C 12.351562 11.46875 12.351562 11.523438 12.351562 11.582031 C 11.621094 11.582031 10.890625 11.582031 10.15625 11.582031 C 10.15625 11.523438 10.15625 11.46875 10.15625 11.410156 C 10.496094 11.496094 10.730469 11.378906 10.863281 11.0625 C 10.871094 10.570312 10.882812 10.078125 10.890625 9.585938 C 10.894531 9.035156 10.867188 8.484375 10.804688 7.9375 C 10.660156 7.683594 10.445312 7.566406 10.15625 7.589844 C 9.738281 7.636719 9.394531 7.828125 9.117188 8.167969 C 9.078125 9.09375 9.078125 10.023438 9.117188 10.949219 C 9.203125 11.324219 9.4375 11.480469 9.820312 11.410156 C 9.820312 11.46875 9.820312 11.523438 9.820312 11.582031 C 9.089844 11.582031 8.355469 11.582031 7.625 11.582031 C 7.625 11.523438 7.625 11.46875 7.625 11.410156 C 7.925781 11.453125 8.140625 11.335938 8.273438 11.0625 C 8.3125 9.210938 8.3125 7.359375 8.273438 5.503906 C 8.132812 5.269531 7.9375 5.210938 7.683594 5.332031 C 7.636719 5.289062 7.601562 5.242188 7.570312 5.1875 C 7.996094 5.015625 8.40625 4.832031 8.808594 4.636719 Z M 8.808594 4.636719 "/>
<path style=" stroke:none;fill-rule:evenodd;fill:rgb(1.960784%,1.960784%,1.960784%);fill-opacity:1;" d="M 34.917969 4.636719 C 35.015625 4.636719 35.105469 4.636719 35.203125 4.636719 C 35.191406 6.761719 35.203125 8.882812 35.230469 11.003906 C 35.347656 11.34375 35.582031 11.476562 35.933594 11.410156 C 35.933594 11.46875 35.933594 11.523438 35.933594 11.582031 C 35.21875 11.582031 34.507812 11.582031 33.796875 11.582031 C 33.796875 11.523438 33.796875 11.46875 33.796875 11.410156 C 34.0625 11.460938 34.261719 11.363281 34.382812 11.121094 C 34.421875 9.25 34.421875 7.378906 34.382812 5.503906 C 34.257812 5.269531 34.070312 5.214844 33.824219 5.332031 C 33.757812 5.300781 33.710938 5.253906 33.683594 5.1875 C 34.105469 5.015625 34.519531 4.832031 34.917969 4.636719 Z M 34.917969 4.636719 "/>
<path style=" stroke:none;fill-rule:evenodd;fill:rgb(3.529412%,3.529412%,3.529412%);fill-opacity:1;" d="M 4.136719 4.8125 C 4.914062 4.738281 5.648438 4.894531 6.332031 5.273438 C 6.546875 5.230469 6.679688 5.097656 6.726562 4.867188 C 6.792969 4.816406 6.867188 4.796875 6.949219 4.8125 C 6.96875 5.5625 7.007812 6.316406 7.0625 7.070312 C 7.003906 7.070312 6.949219 7.070312 6.894531 7.070312 C 6.472656 5.464844 5.476562 4.875 3.910156 5.300781 C 3.03125 5.789062 2.574219 6.550781 2.53125 7.589844 C 2.496094 8.128906 2.496094 8.671875 2.53125 9.210938 C 2.980469 10.953125 4.0625 11.597656 5.769531 11.148438 C 6.289062 10.886719 6.699219 10.5 7.003906 9.992188 C 7.085938 9.957031 7.144531 9.988281 7.175781 10.078125 C 6.402344 11.425781 5.253906 11.953125 3.742188 11.671875 C 2.65625 11.363281 1.933594 10.660156 1.574219 9.558594 C 1.054688 7.585938 1.648438 6.089844 3.347656 5.070312 C 3.613281 4.972656 3.875 4.886719 4.136719 4.8125 Z M 4.136719 4.8125 "/>
<path style=" stroke:none;fill-rule:evenodd;fill:rgb(3.137255%,3.137255%,3.137255%);fill-opacity:1;" d="M 13.929688 7.011719 C 14.324219 7 14.71875 7.011719 15.109375 7.039062 C 15.535156 7.167969 15.804688 7.445312 15.925781 7.878906 C 15.945312 8.863281 15.964844 9.847656 15.984375 10.832031 C 16 11.035156 16.101562 11.105469 16.292969 11.035156 C 16.421875 10.914062 16.542969 10.789062 16.65625 10.660156 C 16.695312 10.753906 16.695312 10.851562 16.65625 10.949219 C 16.441406 11.351562 16.113281 11.585938 15.675781 11.640625 C 15.535156 11.648438 15.414062 11.609375 15.308594 11.523438 C 15.21875 11.34375 15.160156 11.148438 15.140625 10.949219 C 14.828125 11.238281 14.484375 11.460938 14.097656 11.613281 C 13.050781 11.714844 12.613281 11.222656 12.773438 10.136719 C 12.972656 9.777344 13.242188 9.5 13.589844 9.296875 C 14.097656 9.027344 14.625 8.804688 15.167969 8.628906 C 15.203125 8.242188 15.136719 7.878906 14.96875 7.53125 C 14.699219 7.308594 14.390625 7.238281 14.039062 7.328125 C 13.921875 7.394531 13.816406 7.480469 13.730469 7.589844 C 13.714844 7.800781 13.695312 8.015625 13.675781 8.226562 C 13.546875 8.589844 13.324219 8.667969 13 8.457031 C 12.820312 7.96875 12.941406 7.574219 13.367188 7.273438 C 13.554688 7.164062 13.742188 7.078125 13.929688 7.011719 Z M 13.929688 7.011719 "/>
<path style=" stroke:none;fill-rule:evenodd;fill:rgb(2.352941%,2.352941%,2.352941%);fill-opacity:1;" d="M 18.261719 6.953125 C 18.253906 7.28125 18.261719 7.609375 18.292969 7.9375 C 18.332031 7.90625 18.359375 7.867188 18.375 7.820312 C 18.554688 7.433594 18.835938 7.15625 19.21875 6.980469 C 19.628906 6.921875 19.890625 7.097656 20.007812 7.503906 C 19.945312 7.871094 19.738281 8.007812 19.386719 7.90625 C 19.273438 7.828125 19.164062 7.753906 19.050781 7.675781 C 18.957031 7.636719 18.863281 7.636719 18.769531 7.675781 C 18.589844 7.882812 18.429688 8.101562 18.292969 8.339844 C 18.25 9.191406 18.25 10.039062 18.292969 10.890625 C 18.402344 11.273438 18.65625 11.445312 19.050781 11.410156 C 19.050781 11.46875 19.050781 11.523438 19.050781 11.582031 C 18.296875 11.582031 17.550781 11.582031 16.796875 11.582031 C 16.796875 11.523438 16.796875 11.46875 16.796875 11.410156 C 17.074219 11.445312 17.292969 11.351562 17.445312 11.121094 C 17.484375 10.023438 17.484375 8.921875 17.445312 7.820312 C 17.265625 7.640625 17.058594 7.601562 16.828125 7.707031 C 16.78125 7.59375 16.808594 7.507812 16.910156 7.445312 C 17.355469 7.25 17.804688 7.085938 18.261719 6.953125 Z M 18.261719 6.953125 "/>
<path style=" stroke:none;fill-rule:evenodd;fill:rgb(2.352941%,2.352941%,2.352941%);fill-opacity:1;" d="M 22.089844 6.953125 C 22.792969 6.90625 23.347656 7.175781 23.75 7.761719 C 23.859375 8.378906 23.625 8.582031 23.046875 8.371094 C 22.980469 8.320312 22.929688 8.25 22.902344 8.167969 C 22.804688 7.355469 22.382812 7.113281 21.636719 7.445312 C 21.117188 7.957031 20.921875 8.585938 21.046875 9.324219 C 21.125 9.882812 21.359375 10.355469 21.75 10.746094 C 22.703125 11.164062 23.378906 10.871094 23.777344 9.875 C 23.796875 9.867188 23.816406 9.855469 23.832031 9.847656 C 23.796875 10.679688 23.402344 11.265625 22.652344 11.613281 C 21.476562 11.863281 20.714844 11.386719 20.371094 10.195312 C 20.042969 8.992188 20.351562 8.019531 21.300781 7.273438 C 21.558594 7.128906 21.820312 7.023438 22.089844 6.953125 Z M 22.089844 6.953125 "/>
<path style=" stroke:none;fill-rule:evenodd;fill:rgb(3.137255%,3.137255%,3.137255%);fill-opacity:1;" d="M 26.367188 6.953125 C 27.695312 6.925781 28.492188 7.582031 28.757812 8.921875 C 28.824219 9.613281 28.675781 10.246094 28.308594 10.832031 C 27.738281 11.570312 26.996094 11.847656 26.082031 11.671875 C 25.1875 11.300781 24.691406 10.617188 24.59375 9.617188 C 24.539062 8.257812 25.125 7.371094 26.367188 6.953125 Z M 26.367188 6.953125 "/>
<path style=" stroke:none;fill-rule:evenodd;fill:rgb(3.137255%,3.137255%,3.137255%);fill-opacity:1;" d="M 30.8125 6.953125 C 31.304688 6.917969 31.773438 7.003906 32.21875 7.214844 C 32.363281 7.339844 32.484375 7.484375 32.585938 7.648438 C 32.65625 8.703125 32.695312 9.765625 32.695312 10.832031 C 32.699219 10.96875 32.765625 11.046875 32.894531 11.0625 C 33.066406 10.96875 33.226562 10.855469 33.375 10.714844 C 33.410156 10.792969 33.410156 10.871094 33.375 10.949219 C 33.160156 11.34375 32.839844 11.574219 32.417969 11.640625 C 32.269531 11.648438 32.140625 11.613281 32.023438 11.523438 C 31.917969 11.347656 31.863281 11.15625 31.851562 10.949219 C 31.558594 11.191406 31.25 11.414062 30.921875 11.613281 C 29.859375 11.769531 29.378906 11.300781 29.488281 10.195312 C 29.660156 9.804688 29.933594 9.503906 30.304688 9.296875 C 30.8125 9.027344 31.335938 8.804688 31.878906 8.628906 C 31.90625 8.273438 31.863281 7.925781 31.738281 7.589844 C 31.421875 7.285156 31.054688 7.21875 30.644531 7.386719 C 30.574219 7.453125 30.511719 7.523438 30.445312 7.589844 C 30.425781 7.800781 30.410156 8.015625 30.390625 8.226562 C 30.207031 8.640625 29.964844 8.679688 29.65625 8.339844 C 29.570312 7.835938 29.75 7.460938 30.191406 7.214844 C 30.402344 7.117188 30.609375 7.03125 30.8125 6.953125 Z M 30.8125 6.953125 "/>
<path style=" stroke:none;fill-rule:evenodd;fill:rgb(68.627451%,68.627451%,68.627451%);fill-opacity:1;" d="M 18.261719 6.953125 C 18.296875 7.242188 18.335938 7.53125 18.375 7.820312 C 18.359375 7.867188 18.332031 7.90625 18.292969 7.9375 C 18.261719 7.609375 18.253906 7.28125 18.261719 6.953125 Z M 18.261719 6.953125 "/>
<path style=" stroke:none;fill-rule:evenodd;fill:rgb(98.823529%,98.823529%,98.823529%);fill-opacity:1;" d="M 26.253906 7.300781 C 26.816406 7.214844 27.238281 7.429688 27.519531 7.9375 C 27.867188 8.6875 27.980469 9.480469 27.855469 10.3125 C 27.632812 11.300781 27.078125 11.578125 26.199219 11.148438 C 25.886719 10.808594 25.671875 10.414062 25.546875 9.964844 C 25.472656 9.425781 25.453125 8.882812 25.492188 8.339844 C 25.59375 7.863281 25.847656 7.519531 26.253906 7.300781 Z M 26.253906 7.300781 "/>
<path style=" stroke:none;fill-rule:evenodd;fill:rgb(70.588235%,70.588235%,70.588235%);fill-opacity:1;" d="M 15.054688 8.976562 C 15.058594 8.949219 15.078125 8.925781 15.109375 8.921875 C 15.183594 9.511719 15.183594 10.089844 15.109375 10.660156 C 15.128906 10.089844 15.109375 9.527344 15.054688 8.976562 Z M 15.054688 8.976562 "/>
<path style=" stroke:none;fill-rule:evenodd;fill:rgb(98.039216%,98.039216%,98.039216%);fill-opacity:1;" d="M 15.054688 8.976562 C 15.109375 9.527344 15.128906 10.089844 15.109375 10.660156 C 14.816406 10.964844 14.460938 11.109375 14.039062 11.09375 C 13.515625 10.785156 13.394531 10.351562 13.675781 9.789062 C 14.054688 9.375 14.515625 9.105469 15.054688 8.976562 Z M 15.054688 8.976562 "/>
<path style=" stroke:none;fill-rule:evenodd;fill:rgb(97.647059%,97.647059%,97.647059%);fill-opacity:1;" d="M 31.765625 8.921875 C 31.84375 9.1875 31.878906 9.476562 31.878906 9.789062 C 31.863281 10.078125 31.84375 10.371094 31.824219 10.660156 C 31.613281 10.859375 31.371094 11.003906 31.09375 11.09375 C 30.65625 11.121094 30.382812 10.917969 30.277344 10.484375 C 30.207031 10.058594 30.347656 9.71875 30.699219 9.472656 C 31.046875 9.257812 31.402344 9.078125 31.765625 8.921875 Z M 31.765625 8.921875 "/>
</g>
</svg>
