<?xml version="1.0" encoding="UTF-8"?>
<svg xmlns="http://www.w3.org/2000/svg"
    xmlns:xlink="http://www.w3.org/1999/xlink" width="120px" height="56px" viewBox="0 0 117 56" version="1.1">
    <g id="surface1">
        <path style=" stroke:none;fill-rule:evenodd;fill:rgb(99.607843%,99.607843%,99.607843%);fill-opacity:1;" d="M 1.382812 4.960938 C 39.40625 4.960938 77.433594 4.960938 115.457031 4.960938 C 115.457031 20.261719 115.457031 35.5625 115.457031 50.863281 C 77.433594 50.863281 39.40625 50.863281 1.382812 50.863281 C 1.382812 35.5625 1.382812 20.261719 1.382812 4.960938 Z M 1.382812 4.960938 "/>
        <path style=" stroke:none;fill-rule:evenodd;fill:rgb(1.960784%,1.960784%,1.960784%);fill-opacity:1;" d="M 27.226562 13.667969 C 27.5 13.667969 27.777344 13.667969 28.050781 13.667969 C 28.015625 16.855469 28.050781 20.03125 28.128906 23.222656 C 29.101562 22.023438 30.277344 21.136719 31.671875 20.574219 C 34.105469 20.480469 35.386719 21.703125 35.546875 24.246094 C 35.589844 26.976562 35.648438 29.703125 35.707031 32.433594 C 35.980469 33.433594 36.609375 33.824219 37.589844 33.628906 C 37.589844 33.800781 37.589844 33.964844 37.589844 34.136719 C 35.453125 34.136719 33.316406 34.136719 31.167969 34.136719 C 31.167969 33.964844 31.167969 33.800781 31.167969 33.628906 C 32.164062 33.882812 32.847656 33.539062 33.238281 32.605469 C 33.261719 31.15625 33.292969 29.703125 33.316406 28.253906 C 33.328125 26.628906 33.25 25.007812 33.066406 23.394531 C 32.644531 22.644531 32.015625 22.300781 31.167969 22.371094 C 29.945312 22.507812 28.941406 23.074219 28.128906 24.074219 C 28.015625 26.800781 28.015625 29.542969 28.128906 32.269531 C 28.382812 33.375 29.066406 33.835938 30.1875 33.628906 C 30.1875 33.800781 30.1875 33.964844 30.1875 34.136719 C 28.050781 34.136719 25.902344 34.136719 23.765625 34.136719 C 23.765625 33.964844 23.765625 33.800781 23.765625 33.628906 C 24.644531 33.757812 25.273438 33.410156 25.664062 32.605469 C 25.777344 27.148438 25.777344 21.691406 25.664062 16.222656 C 25.25 15.53125 24.679688 15.359375 23.9375 15.714844 C 23.800781 15.589844 23.695312 15.449219 23.605469 15.289062 C 24.851562 14.78125 26.050781 14.242188 27.226562 13.667969 Z M 27.226562 13.667969 "/>
        <path style=" stroke:none;fill-rule:evenodd;fill:rgb(1.960784%,1.960784%,1.960784%);fill-opacity:1;" d="M 103.597656 13.667969 C 103.882812 13.667969 104.144531 13.667969 104.433594 13.667969 C 104.398438 19.929688 104.433594 26.179688 104.511719 32.433594 C 104.855469 33.433594 105.539062 33.824219 106.566406 33.628906 C 106.566406 33.800781 106.566406 33.964844 106.566406 34.136719 C 104.476562 34.136719 102.398438 34.136719 100.320312 34.136719 C 100.320312 33.964844 100.320312 33.800781 100.320312 33.628906 C 101.09375 33.78125 101.679688 33.492188 102.03125 32.777344 C 102.148438 27.261719 102.148438 21.75 102.03125 16.222656 C 101.667969 15.53125 101.117188 15.371094 100.398438 15.714844 C 100.203125 15.625 100.066406 15.484375 99.988281 15.289062 C 101.222656 14.78125 102.433594 14.242188 103.597656 13.667969 Z M 103.597656 13.667969 "/>
        <path style=" stroke:none;fill-rule:evenodd;fill:rgb(3.529412%,3.529412%,3.529412%);fill-opacity:1;" d="M 13.5625 14.183594 C 15.835938 13.964844 17.984375 14.425781 19.984375 15.542969 C 20.613281 15.417969 21 15.023438 21.136719 14.34375 C 21.332031 14.195312 21.550781 14.136719 21.789062 14.183594 C 21.847656 16.394531 21.960938 18.617188 22.121094 20.839844 C 21.949219 20.839844 21.789062 20.839844 21.628906 20.839844 C 20.394531 16.105469 17.480469 14.367188 12.898438 15.625 C 10.328125 17.0625 8.992188 19.308594 8.867188 22.371094 C 8.761719 23.957031 8.761719 25.558594 8.867188 27.148438 C 10.179688 32.28125 13.34375 34.183594 18.339844 32.859375 C 19.859375 32.085938 21.058594 30.949219 21.949219 29.449219 C 22.1875 29.347656 22.359375 29.4375 22.453125 29.703125 C 20.1875 33.675781 16.832031 35.230469 12.410156 34.402344 C 9.230469 33.492188 7.117188 31.417969 6.066406 28.171875 C 4.546875 22.359375 6.285156 17.949219 11.253906 14.945312 C 12.03125 14.65625 12.796875 14.402344 13.5625 14.183594 Z M 13.5625 14.183594 "/>
        <path style=" stroke:none;fill-rule:evenodd;fill:rgb(3.137255%,3.137255%,3.137255%);fill-opacity:1;" d="M 42.207031 20.667969 C 43.359375 20.632812 44.515625 20.667969 45.65625 20.746094 C 46.902344 21.125 47.691406 21.945312 48.046875 23.222656 C 48.101562 26.125 48.160156 29.023438 48.214844 31.925781 C 48.261719 32.523438 48.558594 32.730469 49.121094 32.523438 C 49.496094 32.167969 49.851562 31.800781 50.183594 31.417969 C 50.296875 31.695312 50.296875 31.984375 50.183594 32.269531 C 49.554688 33.457031 48.59375 34.148438 47.3125 34.308594 C 46.902344 34.332031 46.546875 34.21875 46.238281 33.964844 C 45.976562 33.433594 45.804688 32.859375 45.75 32.269531 C 44.835938 33.125 43.828125 33.78125 42.699219 34.230469 C 39.636719 34.527344 38.355469 33.078125 38.824219 29.875 C 39.40625 28.816406 40.195312 28 41.210938 27.402344 C 42.699219 26.605469 44.242188 25.949219 45.828125 25.433594 C 45.929688 24.292969 45.738281 23.222656 45.246094 22.199219 C 44.457031 21.542969 43.554688 21.332031 42.527344 21.597656 C 42.183594 21.792969 41.875 22.046875 41.625 22.371094 C 41.578125 22.992188 41.519531 23.625 41.464844 24.246094 C 41.085938 25.316406 40.4375 25.546875 39.488281 24.925781 C 38.960938 23.488281 39.316406 22.324219 40.5625 21.4375 C 41.109375 21.113281 41.660156 20.863281 42.207031 20.667969 Z M 42.207031 20.667969 "/>
        <path style=" stroke:none;fill-rule:evenodd;fill:rgb(2.352941%,2.352941%,2.352941%);fill-opacity:1;" d="M 54.878906 20.492188 C 54.855469 21.460938 54.878906 22.425781 54.96875 23.394531 C 55.082031 23.300781 55.164062 23.1875 55.210938 23.050781 C 55.734375 21.910156 56.558594 21.09375 57.675781 20.574219 C 58.878906 20.402344 59.640625 20.917969 59.984375 22.117188 C 59.800781 23.199219 59.195312 23.601562 58.167969 23.300781 C 57.835938 23.074219 57.515625 22.855469 57.1875 22.625 C 56.910156 22.507812 56.636719 22.507812 56.363281 22.625 C 55.835938 23.234375 55.371094 23.878906 54.96875 24.582031 C 54.84375 27.089844 54.84375 29.589844 54.96875 32.097656 C 55.289062 33.226562 56.03125 33.734375 57.1875 33.628906 C 57.1875 33.800781 57.1875 33.964844 57.1875 34.136719 C 54.980469 34.136719 52.796875 34.136719 50.59375 34.136719 C 50.59375 33.964844 50.59375 33.800781 50.59375 33.628906 C 51.40625 33.734375 52.042969 33.457031 52.488281 32.777344 C 52.605469 29.542969 52.605469 26.296875 52.488281 23.050781 C 51.964844 22.519531 51.359375 22.40625 50.683594 22.714844 C 50.546875 22.382812 50.628906 22.128906 50.925781 21.945312 C 52.226562 21.367188 53.542969 20.886719 54.878906 20.492188 Z M 54.878906 20.492188 "/>
        <path style=" stroke:none;fill-rule:evenodd;fill:rgb(2.352941%,2.352941%,2.352941%);fill-opacity:1;" d="M 66.074219 20.492188 C 68.132812 20.355469 69.753906 21.148438 70.929688 22.875 C 71.25 24.695312 70.566406 25.292969 68.875 24.671875 C 68.679688 24.523438 68.53125 24.316406 68.453125 24.074219 C 68.167969 21.679688 66.933594 20.964844 64.75 21.945312 C 63.230469 23.453125 62.660156 25.304688 63.023438 27.480469 C 63.253906 29.128906 63.9375 30.519531 65.082031 31.671875 C 67.867188 32.90625 69.847656 32.042969 71.011719 29.105469 C 71.070312 29.082031 71.125 29.046875 71.171875 29.023438 C 71.070312 31.476562 69.914062 33.203125 67.71875 34.230469 C 64.28125 34.964844 62.054688 33.5625 61.046875 30.050781 C 60.089844 26.503906 60.992188 23.636719 63.765625 21.4375 C 64.519531 21.011719 65.285156 20.699219 66.074219 20.492188 Z M 66.074219 20.492188 "/>
        <path style=" stroke:none;fill-rule:evenodd;fill:rgb(3.137255%,3.137255%,3.137255%);fill-opacity:1;" d="M 78.585938 20.492188 C 82.472656 20.414062 84.800781 22.347656 85.578125 26.296875 C 85.773438 28.332031 85.339844 30.199219 84.265625 31.925781 C 82.597656 34.101562 80.425781 34.917969 77.753906 34.402344 C 75.136719 33.308594 73.683594 31.292969 73.398438 28.34375 C 73.238281 24.339844 74.953125 21.726562 78.585938 20.492188 Z M 78.585938 20.492188 "/>
        <path style=" stroke:none;fill-rule:evenodd;fill:rgb(3.137255%,3.137255%,3.137255%);fill-opacity:1;" d="M 91.589844 20.492188 C 93.027344 20.390625 94.398438 20.644531 95.703125 21.265625 C 96.125 21.632812 96.480469 22.058594 96.777344 22.542969 C 96.980469 25.652344 97.097656 28.78125 97.097656 31.925781 C 97.109375 32.328125 97.300781 32.558594 97.679688 32.605469 C 98.183594 32.328125 98.648438 31.996094 99.085938 31.582031 C 99.1875 31.8125 99.1875 32.042969 99.085938 32.269531 C 98.457031 33.433594 97.519531 34.113281 96.285156 34.308594 C 95.851562 34.332031 95.472656 34.230469 95.132812 33.964844 C 94.824219 33.445312 94.664062 32.882812 94.628906 32.269531 C 93.769531 32.984375 92.867188 33.640625 91.910156 34.230469 C 88.800781 34.6875 87.394531 33.308594 87.714844 30.050781 C 88.21875 28.898438 89.019531 28.011719 90.105469 27.402344 C 91.589844 26.605469 93.121094 25.949219 94.707031 25.433594 C 94.789062 24.386719 94.664062 23.359375 94.296875 22.371094 C 93.371094 21.472656 92.296875 21.277344 91.097656 21.769531 C 90.890625 21.96875 90.710938 22.175781 90.515625 22.371094 C 90.457031 22.992188 90.414062 23.625 90.355469 24.246094 C 89.816406 25.46875 89.109375 25.582031 88.207031 24.582031 C 87.957031 23.09375 88.480469 21.988281 89.773438 21.265625 C 90.390625 20.976562 90.996094 20.722656 91.589844 20.492188 Z M 91.589844 20.492188 "/>
        <path style=" stroke:none;fill-rule:evenodd;fill:rgb(68.627451%,68.627451%,68.627451%);fill-opacity:1;" d="M 54.878906 20.492188 C 54.980469 21.34375 55.09375 22.199219 55.210938 23.050781 C 55.164062 23.1875 55.082031 23.300781 54.96875 23.394531 C 54.878906 22.425781 54.855469 21.460938 54.878906 20.492188 Z M 54.878906 20.492188 "/>
        <path style=" stroke:none;fill-rule:evenodd;fill:rgb(98.823529%,98.823529%,98.823529%);fill-opacity:1;" d="M 78.253906 21.519531 C 79.902344 21.265625 81.132812 21.898438 81.957031 23.394531 C 82.972656 25.605469 83.304688 27.941406 82.941406 30.394531 C 82.289062 33.308594 80.664062 34.125 78.09375 32.859375 C 77.179688 31.855469 76.554688 30.695312 76.1875 29.371094 C 75.96875 27.78125 75.914062 26.179688 76.027344 24.582031 C 76.324219 23.175781 77.066406 22.164062 78.253906 21.519531 Z M 78.253906 21.519531 "/>
        <path style=" stroke:none;fill-rule:evenodd;fill:rgb(70.588235%,70.588235%,70.588235%);fill-opacity:1;" d="M 45.496094 26.457031 C 45.507812 26.375 45.566406 26.308594 45.65625 26.296875 C 45.875 28.035156 45.875 29.738281 45.65625 31.417969 C 45.714844 29.738281 45.65625 28.082031 45.496094 26.457031 Z M 45.496094 26.457031 "/>
        <path style=" stroke:none;fill-rule:evenodd;fill:rgb(98.039216%,98.039216%,98.039216%);fill-opacity:1;" d="M 45.496094 26.457031 C 45.65625 28.082031 45.714844 29.738281 45.65625 31.417969 C 44.800781 32.316406 43.761719 32.742188 42.527344 32.699219 C 40.996094 31.789062 40.640625 30.511719 41.464844 28.851562 C 42.574219 27.632812 43.921875 26.835938 45.496094 26.457031 Z M 45.496094 26.457031 "/>
        <path style=" stroke:none;fill-rule:evenodd;fill:rgb(97.647059%,97.647059%,97.647059%);fill-opacity:1;" d="M 94.375 26.296875 C 94.605469 27.078125 94.707031 27.929688 94.707031 28.851562 C 94.664062 29.703125 94.605469 30.566406 94.546875 31.417969 C 93.929688 32.007812 93.222656 32.433594 92.410156 32.699219 C 91.132812 32.777344 90.332031 32.179688 90.023438 30.902344 C 89.816406 29.644531 90.230469 28.644531 91.257812 27.917969 C 92.273438 27.285156 93.3125 26.757812 94.375 26.296875 Z M 94.375 26.296875 "/>
    </g>
</svg>
