<?xml version="1.0" encoding="UTF-8"?>
<svg xmlns="http://www.w3.org/2000/svg" xmlns:xlink="http://www.w3.org/1999/xlink" width="40px" height="19px" viewBox="0 0 39 19" version="1.1">
<g id="surface1">
<path style=" stroke:none;fill-rule:evenodd;fill:rgb(99.607843%,99.607843%,99.607843%);fill-opacity:1;" d="M -0.0195312 5.347656 C 12.980469 5.347656 25.980469 5.347656 38.980469 5.347656 C 38.980469 8.101562 38.980469 10.855469 38.980469 13.609375 C 25.980469 13.609375 12.980469 13.609375 -0.0195312 13.609375 C -0.0195312 10.855469 -0.0195312 8.101562 -0.0195312 5.347656 Z M -0.0195312 5.347656 "/>
<path style=" stroke:none;fill-rule:evenodd;fill:rgb(1.176471%,1.176471%,1.176471%);fill-opacity:1;" d="M 7.789062 6.316406 C 7.855469 6.316406 7.917969 6.316406 7.984375 6.316406 C 7.980469 7.792969 7.984375 9.269531 8.003906 10.75 C 8.085938 10.984375 8.25 11.078125 8.5 11.03125 C 8.5 11.070312 8.5 11.113281 8.5 11.152344 C 8 11.152344 7.5 11.152344 7 11.152344 C 7 11.113281 7 11.070312 7 11.03125 C 7.1875 11.066406 7.324219 11 7.414062 10.828125 C 7.441406 9.527344 7.441406 8.222656 7.414062 6.921875 C 7.324219 6.757812 7.191406 6.714844 7.019531 6.800781 C 6.972656 6.78125 6.941406 6.746094 6.921875 6.699219 C 7.21875 6.582031 7.507812 6.453125 7.789062 6.316406 Z M 7.789062 6.316406 "/>
<path style=" stroke:none;fill-rule:evenodd;fill:rgb(1.960784%,1.960784%,1.960784%);fill-opacity:1;" d="M 18.121094 6.316406 C 18.199219 6.316406 18.277344 6.316406 18.355469 6.316406 C 18.351562 7.738281 18.355469 9.164062 18.375 10.585938 C 18.441406 10.789062 18.574219 10.84375 18.769531 10.75 C 18.816406 10.769531 18.847656 10.804688 18.871094 10.851562 C 18.527344 11.023438 18.175781 11.152344 17.804688 11.234375 C 17.878906 10.796875 17.789062 10.738281 17.527344 11.050781 C 16.667969 11.429688 16.070312 11.164062 15.734375 10.265625 C 15.53125 9.34375 15.800781 8.613281 16.542969 8.070312 C 16.972656 7.855469 17.378906 7.886719 17.765625 8.171875 C 17.8125 7.769531 17.816406 7.363281 17.785156 6.960938 C 17.703125 6.765625 17.566406 6.710938 17.371094 6.800781 C 17.332031 6.785156 17.304688 6.761719 17.292969 6.71875 C 17.570312 6.585938 17.847656 6.449219 18.121094 6.316406 Z M 18.121094 6.316406 "/>
<path style=" stroke:none;fill-rule:evenodd;fill:rgb(1.176471%,1.176471%,1.176471%);fill-opacity:1;" d="M 29.515625 6.316406 C 29.59375 6.316406 29.675781 6.316406 29.753906 6.316406 C 29.746094 7.820312 29.753906 9.324219 29.773438 10.828125 C 29.875 11.007812 30.027344 11.074219 30.226562 11.03125 C 30.226562 11.070312 30.226562 11.113281 30.226562 11.152344 C 29.726562 11.152344 29.226562 11.152344 28.726562 11.152344 C 28.726562 11.113281 28.726562 11.070312 28.726562 11.03125 C 28.980469 11.066406 29.132812 10.960938 29.179688 10.707031 C 29.207031 9.460938 29.207031 8.210938 29.179688 6.960938 C 29.101562 6.765625 28.964844 6.710938 28.765625 6.800781 C 28.726562 6.785156 28.703125 6.761719 28.6875 6.71875 C 28.964844 6.585938 29.242188 6.449219 29.515625 6.316406 Z M 29.515625 6.316406 "/>
<path style=" stroke:none;fill-rule:evenodd;fill:rgb(3.529412%,3.529412%,3.529412%);fill-opacity:1;" d="M 4.355469 6.4375 C 4.902344 6.390625 5.414062 6.496094 5.894531 6.761719 C 6.046875 6.730469 6.140625 6.636719 6.171875 6.476562 C 6.21875 6.441406 6.269531 6.425781 6.328125 6.4375 C 6.34375 6.960938 6.371094 7.484375 6.40625 8.007812 C 6.367188 8.007812 6.328125 8.007812 6.289062 8.007812 C 5.992188 6.894531 5.296875 6.484375 4.199219 6.78125 C 3.582031 7.117188 3.261719 7.648438 3.234375 8.371094 C 3.207031 8.75 3.207031 9.125 3.234375 9.5 C 3.550781 10.710938 4.304688 11.160156 5.5 10.851562 C 5.863281 10.664062 6.15625 10.398438 6.367188 10.042969 C 6.425781 10.019531 6.464844 10.039062 6.488281 10.105469 C 5.945312 11.039062 5.140625 11.410156 4.082031 11.214844 C 3.320312 11 2.8125 10.507812 2.5625 9.742188 C 2.199219 8.371094 2.613281 7.328125 3.804688 6.617188 C 3.992188 6.550781 4.175781 6.488281 4.355469 6.4375 Z M 4.355469 6.4375 "/>
<path style=" stroke:none;fill-rule:evenodd;fill:rgb(44.313725%,44.313725%,44.313725%);fill-opacity:1;" d="M 26.28125 6.558594 C 25.546875 6.542969 24.808594 6.558594 24.074219 6.597656 C 24.171875 6.625 24.265625 6.652344 24.351562 6.679688 C 24.246094 6.679688 24.140625 6.679688 24.035156 6.679688 C 24.035156 6.625 24.035156 6.570312 24.035156 6.519531 C 24.789062 6.503906 25.539062 6.519531 26.28125 6.558594 Z M 26.28125 6.558594 "/>
<path style=" stroke:none;fill-rule:evenodd;fill:rgb(1.176471%,1.176471%,1.176471%);fill-opacity:1;" d="M 26.28125 6.558594 C 26.800781 6.539062 27.253906 6.699219 27.644531 7.042969 C 27.953125 7.464844 27.980469 7.90625 27.722656 8.371094 C 27.554688 8.566406 27.351562 8.707031 27.109375 8.796875 C 27.964844 9.007812 28.257812 9.539062 28 10.386719 C 27.785156 10.796875 27.449219 11.03125 26.992188 11.09375 C 26.019531 11.148438 25.046875 11.167969 24.074219 11.152344 C 24.074219 11.113281 24.074219 11.070312 24.074219 11.03125 C 24.300781 11.070312 24.492188 11.003906 24.648438 10.828125 C 24.660156 10.777344 24.671875 10.722656 24.683594 10.667969 C 24.710938 9.433594 24.710938 8.195312 24.683594 6.960938 C 24.640625 6.785156 24.527344 6.691406 24.351562 6.679688 C 24.265625 6.652344 24.171875 6.625 24.074219 6.597656 C 24.808594 6.558594 25.546875 6.542969 26.28125 6.558594 Z M 26.28125 6.558594 "/>
<path style=" stroke:none;fill-rule:evenodd;fill:rgb(98.039216%,98.039216%,98.039216%);fill-opacity:1;" d="M 25.574219 6.761719 C 25.984375 6.722656 26.375 6.78125 26.753906 6.941406 C 27.320312 7.382812 27.371094 7.878906 26.914062 8.433594 C 26.769531 8.535156 26.613281 8.601562 26.441406 8.632812 C 26.082031 8.667969 25.730469 8.660156 25.375 8.613281 C 25.332031 8.023438 25.324219 7.433594 25.355469 6.839844 C 25.433594 6.816406 25.503906 6.789062 25.574219 6.761719 Z M 25.574219 6.761719 "/>
<path style=" stroke:none;fill-rule:evenodd;fill:rgb(2.745098%,2.745098%,2.745098%);fill-opacity:1;" d="M 10.113281 7.929688 C 10.949219 7.902344 11.496094 8.292969 11.75 9.097656 C 11.878906 9.835938 11.675781 10.460938 11.140625 10.972656 C 9.996094 11.527344 9.242188 11.183594 8.871094 9.945312 C 8.78125 9.261719 8.988281 8.6875 9.484375 8.230469 C 9.683594 8.09375 9.894531 7.992188 10.113281 7.929688 Z M 10.113281 7.929688 "/>
<path style=" stroke:none;fill-rule:evenodd;fill:rgb(3.137255%,3.137255%,3.137255%);fill-opacity:1;" d="M 35.195312 7.929688 C 36.078125 7.890625 36.550781 8.320312 36.613281 9.21875 C 35.917969 9.21875 35.21875 9.21875 34.523438 9.21875 C 34.476562 9.878906 34.738281 10.355469 35.3125 10.648438 C 35.917969 10.773438 36.320312 10.539062 36.515625 9.945312 C 36.5625 9.964844 36.59375 9.996094 36.613281 10.042969 C 36.425781 10.917969 35.902344 11.308594 35.035156 11.214844 C 34.328125 10.90625 34 10.355469 34.050781 9.558594 C 34.042969 8.722656 34.421875 8.179688 35.195312 7.929688 Z M 35.195312 7.929688 "/>
<path style=" stroke:none;fill-rule:evenodd;fill:rgb(52.156863%,52.156863%,52.156863%);fill-opacity:1;" d="M 22.179688 8.171875 C 22.179688 8.128906 22.179688 8.089844 22.179688 8.050781 C 21.867188 8.050781 21.550781 8.050781 21.234375 8.050781 C 21.234375 8.089844 21.234375 8.128906 21.234375 8.171875 C 21.199219 8.128906 21.183594 8.074219 21.195312 8.007812 C 21.539062 8.007812 21.878906 8.007812 22.222656 8.007812 C 22.230469 8.074219 22.21875 8.128906 22.179688 8.171875 Z M 22.179688 8.171875 "/>
<path style=" stroke:none;fill-rule:evenodd;fill:rgb(0.784314%,0.784314%,0.784314%);fill-opacity:1;" d="M 12.046875 8.050781 C 12.390625 8.050781 12.730469 8.050781 13.074219 8.050781 C 13.058594 8.796875 13.074219 9.535156 13.113281 10.265625 C 13.105469 10.601562 13.261719 10.789062 13.585938 10.828125 C 13.902344 10.792969 14.15625 10.644531 14.351562 10.386719 C 14.378906 9.730469 14.378906 9.070312 14.351562 8.414062 C 14.25 8.210938 14.085938 8.128906 13.859375 8.171875 C 13.859375 8.128906 13.859375 8.089844 13.859375 8.050781 C 14.203125 8.050781 14.542969 8.050781 14.886719 8.050781 C 14.871094 8.835938 14.886719 9.613281 14.925781 10.386719 C 14.894531 10.722656 15.03125 10.84375 15.339844 10.75 C 15.386719 10.769531 15.417969 10.804688 15.4375 10.851562 C 15.097656 11.023438 14.742188 11.152344 14.375 11.234375 C 14.378906 11.019531 14.375 10.804688 14.351562 10.585938 C 14.324219 10.609375 14.304688 10.636719 14.296875 10.667969 C 14.160156 10.789062 14.027344 10.914062 13.898438 11.050781 C 13.203125 11.445312 12.765625 11.25 12.578125 10.464844 C 12.566406 9.78125 12.554688 9.097656 12.539062 8.414062 C 12.4375 8.207031 12.273438 8.128906 12.046875 8.171875 C 12.046875 8.128906 12.046875 8.089844 12.046875 8.050781 Z M 12.046875 8.050781 "/>
<path style=" stroke:none;fill-rule:evenodd;fill:rgb(2.352941%,2.352941%,2.352941%);fill-opacity:1;" d="M 21.234375 8.171875 C 21.234375 8.128906 21.234375 8.089844 21.234375 8.050781 C 21.550781 8.050781 21.867188 8.050781 22.179688 8.050781 C 22.179688 8.089844 22.179688 8.128906 22.179688 8.171875 C 21.960938 8.210938 21.824219 8.347656 21.769531 8.574219 C 21.304688 9.746094 20.832031 10.914062 20.347656 12.078125 C 20.097656 12.492188 19.734375 12.675781 19.261719 12.625 C 19.050781 12.492188 18.992188 12.3125 19.085938 12.078125 C 19.152344 12 19.238281 11.960938 19.34375 11.957031 C 19.503906 11.984375 19.660156 12.027344 19.816406 12.078125 C 19.960938 12.070312 20.070312 12.003906 20.152344 11.878906 C 20.277344 11.597656 20.40625 11.316406 20.523438 11.03125 C 20.125 10.1875 19.722656 9.339844 19.324219 8.492188 C 19.238281 8.316406 19.097656 8.210938 18.90625 8.171875 C 18.875 8.136719 18.859375 8.097656 18.871094 8.050781 C 19.34375 8.050781 19.816406 8.050781 20.289062 8.050781 C 20.289062 8.089844 20.289062 8.128906 20.289062 8.171875 C 20 8.148438 19.886719 8.285156 19.953125 8.574219 C 20.21875 9.15625 20.496094 9.734375 20.78125 10.304688 C 21.027344 9.707031 21.265625 9.101562 21.492188 8.492188 C 21.558594 8.257812 21.472656 8.148438 21.234375 8.171875 Z M 21.234375 8.171875 "/>
<path style=" stroke:none;fill-rule:evenodd;fill:rgb(1.176471%,1.176471%,1.176471%);fill-opacity:1;" d="M 30.382812 8.050781 C 30.738281 8.050781 31.09375 8.050781 31.449219 8.050781 C 31.441406 8.816406 31.449219 9.582031 31.46875 10.347656 C 31.523438 10.738281 31.738281 10.890625 32.121094 10.808594 C 32.339844 10.726562 32.527344 10.601562 32.691406 10.425781 C 32.71875 9.742188 32.71875 9.054688 32.691406 8.371094 C 32.589844 8.195312 32.441406 8.128906 32.238281 8.171875 C 32.238281 8.128906 32.238281 8.089844 32.238281 8.050781 C 32.578125 8.050781 32.921875 8.050781 33.261719 8.050781 C 33.257812 8.894531 33.261719 9.742188 33.28125 10.585938 C 33.359375 10.789062 33.496094 10.84375 33.695312 10.75 C 33.734375 10.761719 33.761719 10.789062 33.773438 10.828125 C 33.441406 11.023438 33.085938 11.15625 32.710938 11.234375 C 32.71875 11.03125 32.710938 10.828125 32.691406 10.628906 C 32.472656 10.878906 32.214844 11.070312 31.921875 11.214844 C 31.316406 11.316406 30.980469 11.054688 30.917969 10.425781 C 30.902344 9.742188 30.890625 9.054688 30.875 8.371094 C 30.757812 8.199219 30.59375 8.132812 30.382812 8.171875 C 30.382812 8.128906 30.382812 8.089844 30.382812 8.050781 Z M 30.382812 8.050781 "/>
<path style=" stroke:none;fill-rule:evenodd;fill:rgb(98.823529%,98.823529%,98.823529%);fill-opacity:1;" d="M 10.035156 8.171875 C 10.460938 8.128906 10.773438 8.304688 10.960938 8.695312 C 11.214844 9.332031 11.242188 9.976562 11.042969 10.628906 C 10.78125 11 10.445312 11.089844 10.035156 10.890625 C 9.632812 10.449219 9.449219 9.925781 9.484375 9.320312 C 9.417969 8.796875 9.601562 8.414062 10.035156 8.171875 Z M 10.035156 8.171875 "/>
<path style=" stroke:none;fill-rule:evenodd;fill:rgb(98.823529%,98.823529%,98.823529%);fill-opacity:1;" d="M 16.859375 8.171875 C 17.355469 8.105469 17.664062 8.320312 17.785156 8.8125 C 17.8125 9.40625 17.8125 9.996094 17.785156 10.585938 C 17.261719 11.019531 16.8125 10.9375 16.445312 10.347656 C 16.261719 9.875 16.222656 9.390625 16.324219 8.894531 C 16.417969 8.582031 16.597656 8.339844 16.859375 8.171875 Z M 16.859375 8.171875 "/>
<path style=" stroke:none;fill-rule:evenodd;fill:rgb(96.862745%,96.862745%,96.862745%);fill-opacity:1;" d="M 35.117188 8.171875 C 35.648438 8.191406 35.910156 8.472656 35.902344 9.015625 C 35.445312 9.015625 34.984375 9.015625 34.523438 9.015625 C 34.539062 8.597656 34.734375 8.3125 35.117188 8.171875 Z M 35.117188 8.171875 "/>
<path style=" stroke:none;fill-rule:evenodd;fill:rgb(98.039216%,98.039216%,98.039216%);fill-opacity:1;" d="M 25.375 8.894531 C 25.757812 8.886719 26.140625 8.90625 26.519531 8.957031 C 27.265625 9.203125 27.496094 9.691406 27.210938 10.425781 C 27.0625 10.628906 26.875 10.769531 26.636719 10.851562 C 26.203125 10.933594 25.769531 10.929688 25.335938 10.828125 C 25.324219 10.183594 25.335938 9.539062 25.375 8.894531 Z M 25.375 8.894531 "/>
<path style=" stroke:none;fill-rule:evenodd;fill:rgb(30.196078%,30.196078%,30.196078%);fill-opacity:1;" d="M 13.859375 8.050781 C 14.210938 8.007812 14.5625 7.996094 14.925781 8.007812 C 14.925781 8.800781 14.925781 9.59375 14.925781 10.386719 C 14.886719 9.613281 14.871094 8.835938 14.886719 8.050781 C 14.542969 8.050781 14.203125 8.050781 13.859375 8.050781 Z M 13.859375 8.050781 "/>
<path style=" stroke:none;fill-rule:evenodd;fill:rgb(29.803922%,29.803922%,29.803922%);fill-opacity:1;" d="M 12.046875 8.050781 C 12.394531 8.007812 12.75 7.996094 13.113281 8.007812 C 13.113281 8.761719 13.113281 9.511719 13.113281 10.265625 C 13.074219 9.535156 13.058594 8.796875 13.074219 8.050781 C 12.730469 8.050781 12.390625 8.050781 12.046875 8.050781 Z M 12.046875 8.050781 "/>
<path style=" stroke:none;fill-rule:evenodd;fill:rgb(62.352941%,62.352941%,62.352941%);fill-opacity:1;" d="M 14.375 11.234375 C 14.347656 11.042969 14.320312 10.855469 14.296875 10.667969 C 14.304688 10.636719 14.324219 10.609375 14.351562 10.585938 C 14.375 10.804688 14.378906 11.019531 14.375 11.234375 Z M 14.375 11.234375 "/>
</g>
</svg>
