<?xml version="1.0" encoding="UTF-8"?>
<svg xmlns="http://www.w3.org/2000/svg"
    xmlns:xlink="http://www.w3.org/1999/xlink" width="120px" height="56px" viewBox="0 0 117 56" version="1.1">
    <g id="surface1">
        <path style=" stroke:none;fill-rule:evenodd;fill:rgb(99.607843%,99.607843%,99.607843%);fill-opacity:1;" d="M 1.40625 15.761719 C 39.429688 15.761719 77.457031 15.761719 115.480469 15.761719 C 115.480469 23.878906 115.480469 31.996094 115.480469 40.113281 C 77.457031 40.113281 39.429688 40.113281 1.40625 40.113281 C 1.40625 31.996094 1.40625 23.878906 1.40625 15.761719 Z M 1.40625 15.761719 "/>
        <path style=" stroke:none;fill-rule:evenodd;fill:rgb(1.176471%,1.176471%,1.176471%);fill-opacity:1;" d="M 24.246094 18.617188 C 24.441406 18.617188 24.621094 18.617188 24.816406 18.617188 C 24.804688 22.96875 24.816406 27.320312 24.875 31.683594 C 25.113281 32.375 25.59375 32.652344 26.324219 32.511719 C 26.324219 32.628906 26.324219 32.753906 26.324219 32.871094 C 24.863281 32.871094 23.398438 32.871094 21.9375 32.871094 C 21.9375 32.753906 21.9375 32.628906 21.9375 32.511719 C 22.484375 32.617188 22.886719 32.421875 23.148438 31.914062 C 23.230469 28.082031 23.230469 24.234375 23.148438 20.402344 C 22.886719 19.917969 22.496094 19.792969 21.996094 20.042969 C 21.859375 19.988281 21.765625 19.882812 21.707031 19.746094 C 22.578125 19.398438 23.421875 19.019531 24.246094 18.617188 Z M 24.246094 18.617188 "/>
        <path style=" stroke:none;fill-rule:evenodd;fill:rgb(1.960784%,1.960784%,1.960784%);fill-opacity:1;" d="M 54.464844 18.617188 C 54.695312 18.617188 54.921875 18.617188 55.152344 18.617188 C 55.140625 22.808594 55.152344 27.011719 55.210938 31.199219 C 55.402344 31.800781 55.792969 31.960938 56.363281 31.683594 C 56.5 31.742188 56.59375 31.84375 56.660156 31.984375 C 55.65625 32.488281 54.625 32.871094 53.542969 33.113281 C 53.757812 31.824219 53.496094 31.648438 52.730469 32.570312 C 50.214844 33.6875 48.46875 32.90625 47.484375 30.257812 C 46.890625 27.539062 47.679688 25.386719 49.851562 23.785156 C 51.109375 23.152344 52.296875 23.246094 53.425781 24.085938 C 53.5625 22.898438 53.574219 21.703125 53.484375 20.515625 C 53.242188 19.941406 52.84375 19.78125 52.273438 20.042969 C 52.160156 20 52.078125 19.929688 52.042969 19.800781 C 52.855469 19.410156 53.667969 19.007812 54.464844 18.617188 Z M 54.464844 18.617188 "/>
        <path style=" stroke:none;fill-rule:evenodd;fill:rgb(1.176471%,1.176471%,1.176471%);fill-opacity:1;" d="M 87.796875 18.617188 C 88.023438 18.617188 88.265625 18.617188 88.492188 18.617188 C 88.46875 23.050781 88.492188 27.480469 88.550781 31.914062 C 88.847656 32.445312 89.292969 32.640625 89.875 32.511719 C 89.875 32.628906 89.875 32.753906 89.875 32.871094 C 88.414062 32.871094 86.949219 32.871094 85.488281 32.871094 C 85.488281 32.753906 85.488281 32.628906 85.488281 32.511719 C 86.230469 32.617188 86.675781 32.304688 86.8125 31.558594 C 86.894531 27.886719 86.894531 24.199219 86.8125 20.515625 C 86.585938 19.941406 86.183594 19.78125 85.601562 20.042969 C 85.488281 20 85.417969 19.929688 85.375 19.800781 C 86.183594 19.410156 86.996094 19.007812 87.796875 18.617188 Z M 87.796875 18.617188 "/>
        <path style=" stroke:none;fill-rule:evenodd;fill:rgb(3.529412%,3.529412%,3.529412%);fill-opacity:1;" d="M 14.203125 18.972656 C 15.800781 18.835938 17.296875 19.144531 18.703125 19.929688 C 19.148438 19.835938 19.421875 19.5625 19.515625 19.089844 C 19.652344 18.984375 19.800781 18.9375 19.972656 18.972656 C 20.019531 20.515625 20.097656 22.058594 20.199219 23.601562 C 20.085938 23.601562 19.972656 23.601562 19.859375 23.601562 C 18.988281 20.320312 16.957031 19.113281 13.746094 19.988281 C 11.941406 20.976562 11.003906 22.542969 10.921875 24.671875 C 10.84375 25.789062 10.84375 26.894531 10.921875 28 C 11.847656 31.570312 14.054688 32.894531 17.550781 31.984375 C 18.613281 31.429688 19.46875 30.648438 20.085938 29.601562 C 20.257812 29.53125 20.371094 29.589844 20.441406 29.785156 C 18.851562 32.535156 16.5 33.628906 13.402344 33.054688 C 11.175781 32.421875 9.6875 30.96875 8.957031 28.714844 C 7.894531 24.671875 9.105469 21.597656 12.589844 19.503906 C 13.140625 19.308594 13.675781 19.125 14.203125 18.972656 Z M 14.203125 18.972656 "/>
        <path style=" stroke:none;fill-rule:evenodd;fill:rgb(44.313725%,44.313725%,44.313725%);fill-opacity:1;" d="M 78.335938 19.332031 C 76.1875 19.285156 74.027344 19.332031 71.878906 19.445312 C 72.164062 19.527344 72.4375 19.605469 72.691406 19.6875 C 72.382812 19.6875 72.074219 19.6875 71.765625 19.6875 C 71.765625 19.527344 71.765625 19.363281 71.765625 19.214844 C 73.96875 19.167969 76.164062 19.214844 78.335938 19.332031 Z M 78.335938 19.332031 "/>
        <path style=" stroke:none;fill-rule:evenodd;fill:rgb(1.176471%,1.176471%,1.176471%);fill-opacity:1;" d="M 78.335938 19.332031 C 79.855469 19.273438 81.179688 19.746094 82.324219 20.757812 C 83.226562 22 83.304688 23.300781 82.550781 24.671875 C 82.058594 25.25 81.464844 25.664062 80.757812 25.925781 C 83.257812 26.550781 84.117188 28.113281 83.363281 30.613281 C 82.734375 31.824219 81.75 32.511719 80.414062 32.699219 C 77.570312 32.859375 74.726562 32.917969 71.878906 32.871094 C 71.878906 32.753906 71.878906 32.628906 71.878906 32.511719 C 72.542969 32.628906 73.101562 32.433594 73.558594 31.914062 C 73.59375 31.765625 73.628906 31.605469 73.660156 31.441406 C 73.742188 27.804688 73.742188 24.15625 73.660156 20.515625 C 73.535156 20 73.203125 19.722656 72.691406 19.6875 C 72.4375 19.605469 72.164062 19.527344 71.878906 19.445312 C 74.027344 19.332031 76.1875 19.285156 78.335938 19.332031 Z M 78.335938 19.332031 "/>
        <path style=" stroke:none;fill-rule:evenodd;fill:rgb(98.039216%,98.039216%,98.039216%);fill-opacity:1;" d="M 76.265625 19.929688 C 77.46875 19.8125 78.609375 19.988281 79.71875 20.457031 C 81.375 21.761719 81.523438 23.222656 80.1875 24.855469 C 79.761719 25.15625 79.304688 25.351562 78.804688 25.445312 C 77.753906 25.546875 76.722656 25.523438 75.683594 25.386719 C 75.558594 23.648438 75.535156 21.910156 75.628906 20.160156 C 75.855469 20.089844 76.0625 20.011719 76.265625 19.929688 Z M 76.265625 19.929688 "/>
        <path style=" stroke:none;fill-rule:evenodd;fill:rgb(2.745098%,2.745098%,2.745098%);fill-opacity:1;" d="M 31.042969 23.371094 C 33.488281 23.292969 35.089844 24.441406 35.832031 26.8125 C 36.207031 28.988281 35.613281 30.832031 34.046875 32.339844 C 30.699219 33.976562 28.496094 32.960938 27.410156 29.3125 C 27.148438 27.296875 27.753906 25.605469 29.203125 24.257812 C 29.785156 23.855469 30.402344 23.554688 31.042969 23.371094 Z M 31.042969 23.371094 "/>
        <path style=" stroke:none;fill-rule:evenodd;fill:rgb(3.137255%,3.137255%,3.137255%);fill-opacity:1;" d="M 104.410156 23.371094 C 106.992188 23.257812 108.375 24.523438 108.554688 27.171875 C 106.523438 27.171875 104.476562 27.171875 102.445312 27.171875 C 102.304688 29.117188 103.070312 30.519531 104.75 31.386719 C 106.523438 31.753906 107.699219 31.0625 108.269531 29.3125 C 108.40625 29.371094 108.5 29.460938 108.554688 29.601562 C 108.007812 32.179688 106.476562 33.332031 103.941406 33.054688 C 101.871094 32.144531 100.914062 30.519531 101.0625 28.171875 C 101.039062 25.707031 102.148438 24.109375 104.410156 23.371094 Z M 104.410156 23.371094 "/>
        <path style=" stroke:none;fill-rule:evenodd;fill:rgb(52.156863%,52.156863%,52.156863%);fill-opacity:1;" d="M 66.339844 24.085938 C 66.339844 23.957031 66.339844 23.84375 66.339844 23.730469 C 65.425781 23.730469 64.5 23.730469 63.574219 23.730469 C 63.574219 23.84375 63.574219 23.957031 63.574219 24.085938 C 63.46875 23.957031 63.425781 23.796875 63.457031 23.601562 C 64.464844 23.601562 65.457031 23.601562 66.464844 23.601562 C 66.488281 23.796875 66.453125 23.957031 66.339844 24.085938 Z M 66.339844 24.085938 "/>
        <path style=" stroke:none;fill-rule:evenodd;fill:rgb(0.784314%,0.784314%,0.784314%);fill-opacity:1;" d="M 36.699219 23.730469 C 37.703125 23.730469 38.699219 23.730469 39.703125 23.730469 C 39.660156 25.925781 39.703125 28.105469 39.820312 30.257812 C 39.796875 31.246094 40.253906 31.800781 41.203125 31.914062 C 42.125 31.8125 42.871094 31.375 43.441406 30.613281 C 43.519531 28.679688 43.519531 26.734375 43.441406 24.800781 C 43.144531 24.199219 42.664062 23.957031 42 24.085938 C 42 23.957031 42 23.84375 42 23.730469 C 43.007812 23.730469 44 23.730469 45.007812 23.730469 C 44.960938 26.042969 45.007812 28.332031 45.121094 30.613281 C 45.027344 31.605469 45.429688 31.960938 46.332031 31.683594 C 46.46875 31.742188 46.558594 31.84375 46.617188 31.984375 C 45.625 32.488281 44.582031 32.871094 43.507812 33.113281 C 43.519531 32.480469 43.507812 31.84375 43.441406 31.199219 C 43.359375 31.269531 43.304688 31.351562 43.28125 31.441406 C 42.882812 31.800781 42.492188 32.167969 42.117188 32.570312 C 40.082031 33.734375 38.800781 33.15625 38.253906 30.84375 C 38.21875 28.828125 38.183594 26.8125 38.140625 24.800781 C 37.84375 24.1875 37.363281 23.957031 36.699219 24.085938 C 36.699219 23.957031 36.699219 23.84375 36.699219 23.730469 Z M 36.699219 23.730469 "/>
        <path style=" stroke:none;fill-rule:evenodd;fill:rgb(2.352941%,2.352941%,2.352941%);fill-opacity:1;" d="M 63.574219 24.085938 C 63.574219 23.957031 63.574219 23.84375 63.574219 23.730469 C 64.5 23.730469 65.425781 23.730469 66.339844 23.730469 C 66.339844 23.84375 66.339844 23.957031 66.339844 24.085938 C 65.699219 24.199219 65.296875 24.605469 65.136719 25.269531 C 63.777344 28.726562 62.394531 32.167969 60.980469 35.597656 C 60.25 36.820312 59.1875 37.359375 57.804688 37.210938 C 57.1875 36.820312 57.015625 36.289062 57.289062 35.597656 C 57.484375 35.367188 57.734375 35.253906 58.042969 35.242188 C 58.511719 35.324219 58.96875 35.449219 59.425781 35.597656 C 59.847656 35.574219 60.167969 35.378906 60.40625 35.011719 C 60.773438 34.183594 61.152344 33.355469 61.492188 32.511719 C 60.328125 30.027344 59.152344 27.527344 57.984375 25.03125 C 57.734375 24.511719 57.324219 24.199219 56.761719 24.085938 C 56.671875 23.980469 56.625 23.867188 56.660156 23.730469 C 58.042969 23.730469 59.425781 23.730469 60.808594 23.730469 C 60.808594 23.84375 60.808594 23.957031 60.808594 24.085938 C 59.960938 24.015625 59.632812 24.417969 59.824219 25.269531 C 60.601562 26.988281 61.414062 28.691406 62.246094 30.371094 C 62.96875 28.609375 63.664062 26.824219 64.328125 25.03125 C 64.519531 24.339844 64.269531 24.015625 63.574219 24.085938 Z M 63.574219 24.085938 "/>
        <path style=" stroke:none;fill-rule:evenodd;fill:rgb(1.176471%,1.176471%,1.176471%);fill-opacity:1;" d="M 90.332031 23.730469 C 91.371094 23.730469 92.410156 23.730469 93.453125 23.730469 C 93.429688 25.984375 93.453125 28.242188 93.507812 30.5 C 93.667969 31.648438 94.296875 32.097656 95.417969 31.855469 C 96.054688 31.613281 96.605469 31.246094 97.085938 30.730469 C 97.164062 28.714844 97.164062 26.6875 97.085938 24.671875 C 96.789062 24.15625 96.355469 23.957031 95.757812 24.085938 C 95.757812 23.957031 95.757812 23.84375 95.757812 23.730469 C 96.753906 23.730469 97.757812 23.730469 98.753906 23.730469 C 98.742188 26.214844 98.753906 28.714844 98.808594 31.199219 C 99.039062 31.800781 99.4375 31.960938 100.019531 31.683594 C 100.136719 31.71875 100.214844 31.800781 100.25 31.914062 C 99.277344 32.488281 98.238281 32.882812 97.140625 33.113281 C 97.164062 32.511719 97.140625 31.914062 97.085938 31.328125 C 96.445312 32.0625 95.691406 32.628906 94.835938 33.054688 C 93.0625 33.355469 92.082031 32.582031 91.898438 30.730469 C 91.851562 28.714844 91.816406 26.6875 91.773438 24.671875 C 91.429688 24.167969 90.949219 23.96875 90.332031 24.085938 C 90.332031 23.957031 90.332031 23.84375 90.332031 23.730469 Z M 90.332031 23.730469 "/>
        <path style=" stroke:none;fill-rule:evenodd;fill:rgb(98.823529%,98.823529%,98.823529%);fill-opacity:1;" d="M 30.816406 24.085938 C 32.0625 23.957031 32.976562 24.476562 33.523438 25.628906 C 34.265625 27.503906 34.347656 29.40625 33.761719 31.328125 C 32.996094 32.421875 32.015625 32.6875 30.816406 32.097656 C 29.636719 30.796875 29.101562 29.253906 29.203125 27.46875 C 29.011719 25.925781 29.546875 24.800781 30.816406 24.085938 Z M 30.816406 24.085938 "/>
        <path style=" stroke:none;fill-rule:evenodd;fill:rgb(98.823529%,98.823529%,98.823529%);fill-opacity:1;" d="M 50.777344 24.085938 C 52.226562 23.890625 53.128906 24.523438 53.484375 25.972656 C 53.5625 27.722656 53.5625 29.460938 53.484375 31.199219 C 51.953125 32.480469 50.640625 32.238281 49.566406 30.5 C 49.027344 29.105469 48.914062 27.675781 49.210938 26.214844 C 49.484375 25.292969 50.011719 24.582031 50.777344 24.085938 Z M 50.777344 24.085938 "/>
        <path style=" stroke:none;fill-rule:evenodd;fill:rgb(96.862745%,96.862745%,96.862745%);fill-opacity:1;" d="M 104.179688 24.085938 C 105.734375 24.144531 106.5 24.972656 106.476562 26.574219 C 105.140625 26.574219 103.792969 26.574219 102.445312 26.574219 C 102.488281 25.339844 103.0625 24.5 104.179688 24.085938 Z M 104.179688 24.085938 "/>
        <path style=" stroke:none;fill-rule:evenodd;fill:rgb(98.039216%,98.039216%,98.039216%);fill-opacity:1;" d="M 75.683594 26.214844 C 76.804688 26.191406 77.921875 26.25 79.03125 26.398438 C 81.214844 27.125 81.886719 28.5625 81.054688 30.730469 C 80.621094 31.328125 80.070312 31.742188 79.375 31.984375 C 78.105469 32.226562 76.839844 32.214844 75.570312 31.914062 C 75.535156 30.015625 75.570312 28.113281 75.683594 26.214844 Z M 75.683594 26.214844 "/>
        <path style=" stroke:none;fill-rule:evenodd;fill:rgb(30.196078%,30.196078%,30.196078%);fill-opacity:1;" d="M 42 23.730469 C 43.03125 23.601562 44.058594 23.566406 45.121094 23.601562 C 45.121094 25.9375 45.121094 28.277344 45.121094 30.613281 C 45.007812 28.332031 44.960938 26.042969 45.007812 23.730469 C 44 23.730469 43.007812 23.730469 42 23.730469 Z M 42 23.730469 "/>
        <path style=" stroke:none;fill-rule:evenodd;fill:rgb(29.803922%,29.803922%,29.803922%);fill-opacity:1;" d="M 36.699219 23.730469 C 37.714844 23.601562 38.757812 23.566406 39.820312 23.601562 C 39.820312 25.824219 39.820312 28.035156 39.820312 30.257812 C 39.703125 28.105469 39.660156 25.925781 39.703125 23.730469 C 38.699219 23.730469 37.703125 23.730469 36.699219 23.730469 Z M 36.699219 23.730469 "/>
        <path style=" stroke:none;fill-rule:evenodd;fill:rgb(62.352941%,62.352941%,62.352941%);fill-opacity:1;" d="M 43.507812 33.113281 C 43.429688 32.546875 43.347656 31.996094 43.28125 31.441406 C 43.304688 31.351562 43.359375 31.269531 43.441406 31.199219 C 43.507812 31.84375 43.519531 32.480469 43.507812 33.113281 Z M 43.507812 33.113281 "/>
    </g>
</svg>
