<?xml version="1.0" encoding="UTF-8"?>
<svg xmlns="http://www.w3.org/2000/svg"
    xmlns:xlink="http://www.w3.org/1999/xlink" width="120px" height="56px" viewBox="0 0 117 56" version="1.1">
    <g id="surface1">
        <path style=" stroke:none;fill-rule:nonzero;fill:rgb(0%,0%,0%);fill-opacity:1;" d="M 25.480469 7.105469 C 21.195312 8 17.34375 11.132812 15.332031 15.394531 C 14.03125 18.238281 13.664062 19.871094 13.6875 23.292969 C 13.722656 25.789062 13.824219 26.480469 14.488281 28.472656 C 16.648438 34.851562 21.402344 38.257812 28.0625 38.234375 C 31.730469 38.234375 34.402344 37.234375 36.871094 34.886719 C 38.023438 33.8125 40 31.050781 40 30.554688 C 40 29.84375 39.203125 30.394531 38.023438 31.949219 C 35.476562 35.183594 32.507812 36.554688 28.621094 36.242188 C 26.050781 36.046875 24.097656 35.242188 22.429688 33.664062 C 19.710938 31.109375 18.679688 28.125 18.679688 22.785156 C 18.679688 19.101562 19.117188 16.660156 20.199219 14.34375 C 22.40625 9.453125 27.078125 7.367188 32.105469 8.945312 C 34.917969 9.84375 37.351562 12.605469 38.460938 16.105469 C 38.640625 16.683594 38.917969 17.109375 39.15625 17.109375 C 39.488281 17.109375 39.523438 16.867188 39.40625 15.714844 C 39.304688 14.980469 39.179688 13.160156 39.097656 11.707031 C 38.894531 7.898438 38.746094 6.851562 38.355469 6.851562 C 38.183594 6.851562 37.84375 7.242188 37.613281 7.738281 C 37.019531 9.027344 36.449219 9.105469 34.425781 8.207031 C 31.523438 6.917969 28.335938 6.527344 25.480469 7.105469 Z M 25.480469 7.105469 "/>
        <path style=" stroke:none;fill-rule:nonzero;fill:rgb(0%,0%,0%);fill-opacity:1;" d="M 71.398438 16.867188 C 68.257812 17.417969 66.210938 19.398438 66.210938 21.839844 C 66.210938 23.785156 67.878906 24.605469 69.160156 23.292969 C 69.695312 22.761719 69.800781 22.394531 69.800781 21.183594 C 69.800781 19.894531 69.902344 19.605469 70.554688 18.917969 C 71.011719 18.480469 71.605469 18.15625 72.039062 18.132812 C 75.066406 18.007812 76.015625 18.949219 76.382812 22.417969 L 76.542969 24.109375 L 74.917969 24.707031 C 70.1875 26.445312 66.542969 28.839844 65.800781 30.707031 C 65.285156 31.972656 65.367188 34.136719 65.949219 35.390625 C 66.589844 36.738281 67.617188 37.519531 69.160156 37.902344 C 70.839844 38.292969 72.085938 37.867188 74.507812 36.164062 C 76.425781 34.757812 76.484375 34.734375 76.484375 35.390625 C 76.484375 36.265625 77.101562 37.519531 77.636719 37.738281 C 77.878906 37.820312 78.519531 37.902344 79.019531 37.902344 C 80.644531 37.902344 83.417969 35.449219 83.417969 34.019531 C 83.417969 33.363281 83.417969 33.363281 82.472656 34.320312 C 81.421875 35.34375 80.757812 35.507812 80.359375 34.792969 C 80.230469 34.550781 80.082031 31.210938 80.027344 27.367188 C 79.921875 19.710938 79.878906 19.445312 78.289062 18.050781 C 76.953125 16.914062 73.949219 16.394531 71.398438 16.867188 Z M 76.484375 29.417969 L 76.484375 33.320312 L 75.066406 34.261719 C 72.53125 35.980469 70.601562 35.792969 69.527344 33.6875 C 68.1875 31.132812 69.527344 28.65625 73.171875 26.929688 C 75.742188 25.707031 76.105469 25.546875 76.300781 25.546875 C 76.402344 25.523438 76.484375 27.285156 76.484375 29.417969 Z M 76.484375 29.417969 "/>
        <path style=" stroke:none;fill-rule:nonzero;fill:rgb(0%,0%,0%);fill-opacity:1;" d="M 87.28125 17.648438 C 83.648438 19.179688 83.671875 19.15625 83.84375 19.550781 C 83.910156 19.757812 84.367188 19.894531 85.144531 19.894531 C 86.996094 19.871094 87.019531 20 87.019531 27.917969 C 87.019531 31.949219 86.914062 34.976562 86.757812 35.449219 C 86.457031 36.289062 85.601562 36.84375 84.574219 36.84375 C 84.164062 36.84375 83.933594 36.992188 83.933594 37.234375 C 83.933594 37.578125 84.652344 37.636719 88.9375 37.636719 C 93.007812 37.636719 93.953125 37.554688 93.953125 37.257812 C 93.953125 37.050781 93.542969 36.863281 92.902344 36.761719 C 92.308594 36.679688 91.589844 36.371094 91.292969 36.046875 C 90.765625 35.53125 90.742188 35.207031 90.664062 28.839844 L 90.59375 22.164062 L 91.726562 21.207031 C 94.367188 19.007812 97.199219 18.871094 98.273438 20.886719 C 98.628906 21.585938 98.742188 22.738281 98.789062 28.265625 C 98.867188 32.765625 98.789062 35.023438 98.582031 35.53125 C 98.273438 36.3125 97.371094 36.84375 96.398438 36.84375 C 95.988281 36.84375 95.75 36.992188 95.75 37.234375 C 95.75 37.578125 96.480469 37.636719 100.636719 37.636719 C 104.796875 37.636719 105.515625 37.578125 105.515625 37.234375 C 105.515625 36.980469 105.265625 36.84375 104.773438 36.84375 C 104.339844 36.84375 103.6875 36.578125 103.277344 36.207031 L 102.558594 35.585938 L 102.433594 28.242188 C 102.304688 22.023438 102.226562 20.757812 101.839844 19.871094 C 100.925781 17.742188 99.472656 16.761719 97.289062 16.761719 C 95.496094 16.761719 94.089844 17.476562 92.101562 19.421875 L 90.617188 20.875 L 90.617188 18.742188 C 90.617188 16.164062 90.742188 16.1875 87.28125 17.648438 Z M 87.28125 17.648438 "/>
        <path style=" stroke:none;fill-rule:nonzero;fill:rgb(0%,0%,0%);fill-opacity:1;" d="M 41.796875 17.707031 C 41.796875 17.890625 42.183594 18.214844 42.675781 18.363281 C 43.167969 18.546875 43.851562 19.136719 44.261719 19.664062 C 44.652344 20.183594 46.6875 24.257812 48.753906 28.714844 L 52.570312 36.84375 L 51.425781 39.546875 C 50.273438 42.265625 49.199219 43.679688 48.273438 43.679688 C 48.023438 43.679688 47.246094 43.507812 46.570312 43.265625 C 43.953125 42.34375 42.148438 43.738281 43.132812 45.914062 C 44.113281 48.136719 48.046875 47.664062 50.332031 45.050781 C 51.667969 43.519531 52.03125 42.738281 56.957031 30.335938 C 61.402344 19.179688 61.917969 18.15625 63.148438 18.15625 C 63.414062 18.15625 63.640625 17.972656 63.640625 17.765625 C 63.640625 17.417969 63.09375 17.375 60.304688 17.375 C 57.507812 17.375 56.957031 17.417969 56.957031 17.765625 C 56.957031 17.972656 57.1875 18.15625 57.507812 18.15625 C 58.441406 18.15625 59.015625 18.664062 59.015625 19.492188 C 59.015625 19.953125 57.941406 22.980469 56.648438 26.261719 L 54.261719 32.179688 L 51.609375 26.574219 C 50.148438 23.476562 48.890625 20.550781 48.8125 20.078125 C 48.640625 18.972656 49.28125 18.15625 50.332031 18.15625 C 50.789062 18.15625 51.050781 18.03125 51.050781 17.765625 C 51.050781 17.417969 50.351562 17.375 46.421875 17.375 C 42.800781 17.375 41.796875 17.441406 41.796875 17.707031 Z M 41.796875 17.707031 "/>
    </g>
</svg>
