<?xml version="1.0" encoding="UTF-8"?>
<svg xmlns="http://www.w3.org/2000/svg" xmlns:xlink="http://www.w3.org/1999/xlink" width="40px" height="19px" viewBox="0 0 39 19" version="1.1">
<g id="surface1">
<path style=" stroke:none;fill-rule:nonzero;fill:rgb(0%,0%,0%);fill-opacity:1;" d="M 8.210938 2.410156 C 6.746094 2.714844 5.429688 3.777344 4.742188 5.222656 C 4.296875 6.1875 4.171875 6.742188 4.179688 7.902344 C 4.191406 8.75 4.226562 8.984375 4.453125 9.660156 C 5.191406 11.824219 6.816406 12.980469 9.09375 12.972656 C 10.347656 12.972656 11.261719 12.632812 12.105469 11.835938 C 12.5 11.472656 13.175781 10.535156 13.175781 10.367188 C 13.175781 10.125 12.902344 10.3125 12.5 10.839844 C 11.628906 11.9375 10.613281 12.402344 9.285156 12.296875 C 8.40625 12.230469 7.738281 11.957031 7.167969 11.421875 C 6.238281 10.554688 5.886719 9.542969 5.886719 7.730469 C 5.886719 6.480469 6.035156 5.652344 6.40625 4.867188 C 7.160156 3.207031 8.757812 2.5 10.476562 3.035156 C 11.4375 3.339844 12.269531 4.277344 12.648438 5.464844 C 12.710938 5.660156 12.804688 5.804688 12.886719 5.804688 C 13 5.804688 13.011719 5.722656 12.972656 5.332031 C 12.9375 5.082031 12.894531 4.464844 12.867188 3.972656 C 12.796875 2.679688 12.746094 2.324219 12.613281 2.324219 C 12.554688 2.324219 12.4375 2.457031 12.359375 2.625 C 12.15625 3.0625 11.960938 3.089844 11.269531 2.785156 C 10.277344 2.347656 9.1875 2.214844 8.210938 2.410156 Z M 8.210938 2.410156 "/>
<path style=" stroke:none;fill-rule:nonzero;fill:rgb(0%,0%,0%);fill-opacity:1;" d="M 23.910156 5.722656 C 22.835938 5.910156 22.136719 6.582031 22.136719 7.410156 C 22.136719 8.070312 22.707031 8.347656 23.144531 7.902344 C 23.328125 7.722656 23.363281 7.597656 23.363281 7.1875 C 23.363281 6.75 23.398438 6.652344 23.621094 6.417969 C 23.777344 6.269531 23.980469 6.160156 24.128906 6.152344 C 25.164062 6.109375 25.488281 6.429688 25.613281 7.605469 L 25.667969 8.179688 L 25.113281 8.382812 C 23.496094 8.972656 22.25 9.785156 21.996094 10.417969 C 21.820312 10.847656 21.847656 11.582031 22.046875 12.007812 C 22.265625 12.464844 22.617188 12.730469 23.144531 12.859375 C 23.71875 12.992188 24.144531 12.847656 24.972656 12.269531 C 25.628906 11.792969 25.648438 11.785156 25.648438 12.007812 C 25.648438 12.304688 25.859375 12.730469 26.042969 12.804688 C 26.125 12.832031 26.34375 12.859375 26.515625 12.859375 C 27.070312 12.859375 28.019531 12.027344 28.019531 11.542969 C 28.019531 11.320312 28.019531 11.320312 27.695312 11.644531 C 27.335938 11.992188 27.109375 12.046875 26.972656 11.804688 C 26.929688 11.722656 26.878906 10.589844 26.859375 9.285156 C 26.824219 6.6875 26.808594 6.597656 26.265625 6.125 C 25.808594 5.738281 24.78125 5.5625 23.910156 5.722656 Z M 25.648438 9.980469 L 25.648438 11.304688 L 25.164062 11.625 C 24.296875 12.207031 23.636719 12.144531 23.269531 11.429688 C 22.8125 10.5625 23.269531 9.722656 24.515625 9.136719 C 25.394531 8.722656 25.519531 8.667969 25.585938 8.667969 C 25.621094 8.660156 25.648438 9.257812 25.648438 9.980469 Z M 25.648438 9.980469 "/>
<path style=" stroke:none;fill-rule:nonzero;fill:rgb(0%,0%,0%);fill-opacity:1;" d="M 29.339844 5.988281 C 28.097656 6.507812 28.105469 6.5 28.164062 6.632812 C 28.1875 6.703125 28.34375 6.75 28.609375 6.75 C 29.242188 6.742188 29.25 6.785156 29.25 9.472656 C 29.25 10.839844 29.214844 11.867188 29.160156 12.027344 C 29.058594 12.3125 28.765625 12.5 28.414062 12.5 C 28.273438 12.5 28.195312 12.550781 28.195312 12.632812 C 28.195312 12.75 28.441406 12.769531 29.90625 12.769531 C 31.296875 12.769531 31.621094 12.742188 31.621094 12.640625 C 31.621094 12.570312 31.480469 12.507812 31.261719 12.472656 C 31.058594 12.445312 30.8125 12.339844 30.710938 12.230469 C 30.53125 12.054688 30.523438 11.945312 30.496094 9.785156 L 30.472656 7.519531 L 30.859375 7.195312 C 31.761719 6.449219 32.730469 6.402344 33.097656 7.085938 C 33.21875 7.324219 33.257812 7.714844 33.273438 9.589844 C 33.300781 11.117188 33.273438 11.882812 33.203125 12.054688 C 33.097656 12.320312 32.789062 12.5 32.457031 12.5 C 32.316406 12.5 32.234375 12.550781 32.234375 12.632812 C 32.234375 12.75 32.484375 12.769531 33.90625 12.769531 C 35.328125 12.769531 35.574219 12.75 35.574219 12.632812 C 35.574219 12.546875 35.488281 12.5 35.320312 12.5 C 35.171875 12.5 34.949219 12.410156 34.808594 12.285156 L 34.5625 12.074219 L 34.519531 9.582031 C 34.476562 7.472656 34.449219 7.042969 34.316406 6.742188 C 34.003906 6.019531 33.507812 5.6875 32.761719 5.6875 C 32.148438 5.6875 31.667969 5.929688 30.988281 6.589844 L 30.480469 7.082031 L 30.480469 6.359375 C 30.480469 5.484375 30.523438 5.492188 29.339844 5.988281 Z M 29.339844 5.988281 "/>
<path style=" stroke:none;fill-rule:nonzero;fill:rgb(0%,0%,0%);fill-opacity:1;" d="M 13.789062 6.007812 C 13.789062 6.070312 13.921875 6.179688 14.089844 6.230469 C 14.257812 6.292969 14.492188 6.492188 14.632812 6.671875 C 14.765625 6.847656 15.460938 8.230469 16.167969 9.742188 L 17.472656 12.5 L 17.082031 13.417969 C 16.6875 14.339844 16.320312 14.820312 16.003906 14.820312 C 15.917969 14.820312 15.652344 14.761719 15.421875 14.679688 C 14.527344 14.367188 13.910156 14.839844 14.246094 15.578125 C 14.582031 16.332031 15.925781 16.171875 16.707031 15.285156 C 17.164062 14.765625 17.289062 14.5 18.972656 10.292969 C 20.492188 6.507812 20.667969 6.160156 21.089844 6.160156 C 21.179688 6.160156 21.257812 6.097656 21.257812 6.027344 C 21.257812 5.910156 21.070312 5.894531 20.117188 5.894531 C 19.160156 5.894531 18.972656 5.910156 18.972656 6.027344 C 18.972656 6.097656 19.050781 6.160156 19.160156 6.160156 C 19.480469 6.160156 19.675781 6.332031 19.675781 6.613281 C 19.675781 6.769531 19.308594 7.796875 18.867188 8.910156 L 18.050781 10.917969 L 17.144531 9.015625 C 16.644531 7.964844 16.214844 6.972656 16.1875 6.8125 C 16.128906 6.4375 16.347656 6.160156 16.707031 6.160156 C 16.863281 6.160156 16.953125 6.117188 16.953125 6.027344 C 16.953125 5.910156 16.714844 5.894531 15.371094 5.894531 C 14.132812 5.894531 13.789062 5.917969 13.789062 6.007812 Z M 13.789062 6.007812 "/>
</g>
</svg>
