<?xml version="1.0" encoding="UTF-8"?>
<svg xmlns="http://www.w3.org/2000/svg"
    xmlns:xlink="http://www.w3.org/1999/xlink" width="120px" height="56px" viewBox="0 0 117 56" version="1.1">
    <g id="surface1">
        <path style=" stroke:none;fill-rule:evenodd;fill:rgb(99.215686%,99.215686%,99.215686%);fill-opacity:1;" d="M 1.417969 18.546875 C 39.429688 18.546875 77.457031 18.546875 115.492188 18.546875 C 115.492188 24.8125 115.492188 31.085938 115.492188 37.347656 C 77.457031 37.347656 39.429688 37.347656 1.417969 37.347656 C 1.417969 31.085938 1.417969 24.8125 1.417969 18.546875 Z M 1.417969 18.546875 "/>
        <path style=" stroke:none;fill-rule:evenodd;fill:rgb(3.529412%,3.529412%,3.529412%);fill-opacity:1;" d="M 54.582031 20.449219 C 54.785156 20.449219 54.992188 20.449219 55.199219 20.449219 C 55.1875 24.394531 55.199219 28.332031 55.253906 32.269531 C 55.519531 32.742188 55.90625 32.917969 56.445312 32.800781 C 56.445312 32.90625 56.445312 33.019531 56.445312 33.125 C 55.128906 33.125 53.828125 33.125 52.523438 33.125 C 52.523438 33.019531 52.523438 32.90625 52.523438 32.800781 C 53.175781 32.90625 53.574219 32.617188 53.710938 31.960938 C 53.78125 28.726562 53.78125 25.480469 53.710938 22.242188 C 53.550781 21.644531 53.199219 21.460938 52.628906 21.714844 C 52.523438 21.679688 52.457031 21.609375 52.421875 21.507812 C 53.152344 21.148438 53.871094 20.804688 54.582031 20.449219 Z M 54.582031 20.449219 "/>
        <path style=" stroke:none;fill-rule:evenodd;fill:rgb(3.921569%,3.921569%,3.921569%);fill-opacity:1;" d="M 63.035156 33.332031 C 63.070312 32.972656 63.035156 32.617188 62.933594 32.269531 C 62.863281 32.28125 62.832031 32.328125 62.832031 32.375 C 61.367188 33.640625 59.90625 33.640625 58.453125 32.375 C 56.796875 29.832031 57.058594 27.492188 59.21875 25.363281 C 60.398438 24.535156 61.597656 24.476562 62.832031 25.203125 C 62.832031 25.261719 62.863281 25.292969 62.933594 25.304688 C 63.070312 24.269531 63.070312 23.246094 62.933594 22.242188 C 62.945312 21.988281 62.839844 21.804688 62.625 21.667969 C 62.304688 21.609375 61.996094 21.632812 61.699219 21.714844 C 61.699219 21.449219 61.835938 21.289062 62.109375 21.242188 C 62.863281 20.851562 63.652344 20.597656 64.476562 20.449219 C 64.464844 24.257812 64.476562 28.058594 64.53125 31.855469 C 64.863281 32.203125 65.265625 32.269531 65.710938 32.0625 C 65.734375 32.203125 65.699219 32.328125 65.605469 32.433594 C 64.773438 32.8125 63.914062 33.113281 63.035156 33.332031 Z M 63.035156 33.332031 "/>
        <path style=" stroke:none;fill-rule:evenodd;fill:rgb(2.745098%,2.745098%,2.745098%);fill-opacity:1;" d="M 78.1875 26.574219 C 79.695312 26.539062 81.203125 26.574219 82.710938 26.6875 C 82.597656 26.757812 82.503906 26.824219 82.402344 26.894531 C 81.992188 26.90625 81.707031 27.125 81.535156 27.527344 C 81.511719 29.140625 81.464844 30.761719 81.375 32.375 C 79.066406 33.574219 76.703125 33.734375 74.265625 32.859375 C 71.375 31.210938 70.304688 28.738281 71.023438 25.410156 C 72.289062 21.875 74.746094 20.378906 78.390625 20.929688 C 79.007812 21.105469 79.625 21.300781 80.242188 21.507812 C 80.632812 21.4375 80.816406 21.195312 80.757812 20.769531 C 80.859375 20.769531 80.964844 20.769531 81.066406 20.769531 C 81.191406 22.035156 81.292969 23.300781 81.375 24.570312 C 81.261719 24.59375 81.15625 24.558594 81.066406 24.464844 C 80.253906 22.035156 78.609375 21.035156 76.117188 21.449219 C 74.300781 22.117188 73.226562 23.441406 72.875 25.410156 C 72.566406 27.515625 72.976562 29.449219 74.109375 31.222656 C 75.71875 32.949219 77.546875 33.261719 79.625 32.167969 C 79.742188 30.625 79.761719 29.070312 79.671875 27.527344 C 79.304688 27.019531 78.816406 26.800781 78.1875 26.894531 C 78.1875 26.792969 78.1875 26.6875 78.1875 26.574219 Z M 78.1875 26.574219 "/>
        <path style=" stroke:none;fill-rule:evenodd;fill:rgb(36.862745%,36.862745%,36.862745%);fill-opacity:1;" d="M 14.910156 21.082031 C 11.882812 21.046875 8.867188 21.082031 5.839844 21.195312 C 6.089844 21.265625 6.339844 21.332031 6.570312 21.402344 C 6.285156 21.402344 6.011719 21.402344 5.734375 21.402344 C 5.734375 21.265625 5.734375 21.125 5.734375 20.976562 C 8.808594 20.941406 11.871094 20.976562 14.910156 21.082031 Z M 14.910156 21.082031 "/>
        <path style=" stroke:none;fill-rule:evenodd;fill:rgb(1.176471%,1.176471%,1.176471%);fill-opacity:1;" d="M 14.910156 21.082031 C 14.980469 21.96875 15.011719 22.84375 15.011719 23.730469 C 14.875 23.738281 14.75 23.707031 14.660156 23.625 C 14.648438 22.875 14.351562 22.300781 13.78125 21.875 C 12.238281 21.726562 10.695312 21.667969 9.140625 21.714844 C 9.140625 23.300781 9.140625 24.890625 9.140625 26.46875 C 10.203125 26.480469 11.265625 26.46875 12.328125 26.410156 C 13.242188 26.285156 13.652344 25.730469 13.574219 24.777344 C 13.675781 24.777344 13.78125 24.777344 13.882812 24.777344 C 13.882812 26.15625 13.882812 27.527344 13.882812 28.898438 C 13.78125 28.898438 13.675781 28.898438 13.574219 28.898438 C 13.597656 28.390625 13.472656 27.941406 13.207031 27.527344 C 12.980469 27.34375 12.71875 27.238281 12.441406 27.207031 C 11.355469 27.101562 10.261719 27.066406 9.140625 27.101562 C 9.105469 28.738281 9.140625 30.359375 9.242188 31.960938 C 9.277344 32.15625 9.378906 32.316406 9.550781 32.433594 C 10.71875 32.5 11.882812 32.5 13.058594 32.433594 C 13.800781 32.328125 14.40625 31.949219 14.851562 31.328125 C 15.082031 30.84375 15.367188 30.417969 15.734375 30.0625 C 15.800781 30.074219 15.871094 30.09375 15.9375 30.105469 C 15.5625 31.0625 15.230469 32.03125 14.910156 33.019531 C 11.882812 33.125 8.867188 33.15625 5.839844 33.125 C 5.839844 33.019531 5.839844 32.90625 5.839844 32.800781 C 6.535156 32.917969 7.074219 32.664062 7.4375 32.0625 C 7.507812 28.761719 7.507812 25.445312 7.4375 22.140625 C 7.3125 21.679688 7.027344 21.4375 6.570312 21.402344 C 6.339844 21.332031 6.089844 21.265625 5.839844 21.195312 C 8.867188 21.082031 11.882812 21.046875 14.910156 21.082031 Z M 14.910156 21.082031 "/>
        <path style=" stroke:none;fill-rule:evenodd;fill:rgb(54.901961%,54.901961%,54.901961%);fill-opacity:1;" d="M 62.933594 22.242188 C 63.070312 23.246094 63.070312 24.269531 62.933594 25.304688 C 62.863281 25.292969 62.832031 25.261719 62.832031 25.203125 C 62.933594 24.234375 62.96875 23.246094 62.933594 22.242188 Z M 62.933594 22.242188 "/>
        <path style=" stroke:none;fill-rule:evenodd;fill:rgb(42.352941%,42.352941%,42.352941%);fill-opacity:1;" d="M 13.574219 24.777344 C 13.675781 24.683594 13.8125 24.648438 13.984375 24.671875 C 14.019531 26.101562 13.984375 27.503906 13.882812 28.898438 C 13.882812 27.527344 13.882812 26.15625 13.882812 24.777344 C 13.78125 24.777344 13.675781 24.777344 13.574219 24.777344 Z M 13.574219 24.777344 "/>
        <path style=" stroke:none;fill-rule:evenodd;fill:rgb(2.352941%,2.352941%,2.352941%);fill-opacity:1;" d="M 18.726562 24.671875 C 18.898438 24.671875 19.070312 24.671875 19.242188 24.671875 C 19.21875 25.238281 19.242188 25.800781 19.285156 26.363281 C 19.8125 25.6875 20.441406 25.179688 21.195312 24.832031 C 22.601562 24.464844 23.546875 24.984375 24.027344 26.363281 C 24.542969 25.6875 25.183594 25.179688 25.9375 24.832031 C 27.570312 24.464844 28.554688 25.121094 28.871094 26.792969 C 28.90625 28.574219 28.941406 30.371094 28.976562 32.167969 C 29.171875 32.664062 29.523438 32.871094 30.0625 32.800781 C 30.0625 32.90625 30.0625 33.019531 30.0625 33.125 C 28.746094 33.125 27.445312 33.125 26.140625 33.125 C 26.140625 33.019531 26.140625 32.90625 26.140625 32.800781 C 26.726562 32.917969 27.160156 32.707031 27.433594 32.167969 C 27.445312 31.304688 27.46875 30.453125 27.480469 29.589844 C 27.492188 28.574219 27.445312 27.574219 27.332031 26.574219 C 27.066406 26.007812 26.644531 25.765625 26.039062 25.835938 C 25.832031 25.859375 25.628906 25.871094 25.421875 25.894531 C 24.941406 26.125 24.519531 26.421875 24.132812 26.792969 C 24.0625 28.574219 24.0625 30.371094 24.132812 32.167969 C 24.347656 32.707031 24.738281 32.925781 25.320312 32.800781 C 25.320312 32.90625 25.320312 33.019531 25.320312 33.125 C 23.984375 33.125 22.632812 33.125 21.296875 33.125 C 21.296875 33.019531 21.296875 32.90625 21.296875 32.800781 C 21.890625 32.917969 22.316406 32.707031 22.589844 32.167969 C 22.601562 31.292969 22.621094 30.40625 22.632812 29.53125 C 22.644531 28.542969 22.601562 27.550781 22.484375 26.574219 C 22.234375 26.03125 21.824219 25.753906 21.25 25.730469 C 20.476562 25.859375 19.824219 26.214844 19.285156 26.792969 C 19.21875 28.609375 19.21875 30.453125 19.285156 32.269531 C 19.5625 32.742188 19.949219 32.917969 20.476562 32.800781 C 20.476562 32.90625 20.476562 33.019531 20.476562 33.125 C 19.171875 33.125 17.859375 33.125 16.554688 33.125 C 16.554688 33.019531 16.554688 32.90625 16.554688 32.800781 C 17.105469 32.882812 17.503906 32.675781 17.746094 32.167969 C 17.765625 31.234375 17.777344 30.300781 17.789062 29.371094 C 17.800781 28.300781 17.753906 27.21875 17.640625 26.15625 C 17.320312 25.917969 16.980469 25.882812 16.613281 26.042969 C 16.488281 25.9375 16.441406 25.789062 16.453125 25.628906 C 17.253906 25.386719 18.007812 25.074219 18.726562 24.671875 Z M 18.726562 24.671875 "/>
        <path style=" stroke:none;fill-rule:evenodd;fill:rgb(3.137255%,3.137255%,3.137255%);fill-opacity:1;" d="M 33.96875 24.671875 C 36.230469 24.625 37.429688 25.753906 37.578125 28.058594 C 35.726562 28.058594 33.878906 28.058594 32.015625 28.058594 C 31.945312 29.75 32.632812 31.003906 34.082031 31.800781 C 35.695312 32.15625 36.78125 31.546875 37.328125 29.957031 C 37.417969 30.050781 37.476562 30.175781 37.476562 30.324219 C 36.984375 32.523438 35.648438 33.515625 33.453125 33.285156 C 32.277344 32.882812 31.476562 32.085938 31.03125 30.902344 C 30.425781 28.898438 30.78125 27.125 32.117188 25.570312 C 32.675781 25.121094 33.304688 24.824219 33.96875 24.671875 Z M 33.96875 24.671875 "/>
        <path style=" stroke:none;fill-rule:evenodd;fill:rgb(3.921569%,3.921569%,3.921569%);fill-opacity:1;" d="M 40.46875 24.777344 C 40.605469 24.777344 40.746094 24.777344 40.882812 24.777344 C 40.847656 25.386719 40.882812 25.917969 40.984375 26.363281 C 41.382812 25.664062 41.933594 25.121094 42.628906 24.730469 C 43.601562 24.636719 44.070312 25.074219 44.023438 26.042969 C 43.761719 26.445312 43.40625 26.5625 42.9375 26.410156 C 42.730469 26.273438 42.527344 26.136719 42.320312 25.996094 C 42.011719 25.917969 41.75 26.007812 41.542969 26.261719 C 41.316406 26.5625 41.109375 26.871094 40.925781 27.207031 C 40.835938 28.828125 40.871094 30.453125 41.03125 32.0625 C 41.28125 32.628906 41.714844 32.871094 42.320312 32.800781 C 42.320312 32.90625 42.320312 33.019531 42.320312 33.125 C 40.949219 33.125 39.566406 33.125 38.195312 33.125 C 38.195312 33.019531 38.195312 32.90625 38.195312 32.800781 C 38.699219 32.835938 39.085938 32.664062 39.382812 32.269531 C 39.453125 30.269531 39.453125 28.265625 39.382812 26.261719 C 39.351562 26.15625 39.292969 26.078125 39.234375 25.996094 C 38.894531 25.917969 38.5625 25.925781 38.253906 26.042969 C 38.195312 25.917969 38.183594 25.765625 38.195312 25.628906 C 38.960938 25.363281 39.714844 25.085938 40.46875 24.777344 Z M 40.46875 24.777344 "/>
        <path style=" stroke:none;fill-rule:evenodd;fill:rgb(2.352941%,2.352941%,2.352941%);fill-opacity:1;" d="M 46.855469 24.777344 C 47.65625 24.742188 48.445312 24.800781 49.222656 24.9375 C 49.828125 25.132812 50.214844 25.535156 50.410156 26.15625 C 50.445312 28.023438 50.480469 29.886719 50.511719 31.742188 C 50.660156 32.179688 50.914062 32.269531 51.289062 32.019531 C 51.4375 31.855469 51.597656 31.695312 51.746094 31.535156 C 51.769531 31.625 51.78125 31.71875 51.804688 31.800781 C 51.382812 32.835938 50.628906 33.296875 49.53125 33.167969 C 49.222656 32.835938 49.027344 32.433594 48.972656 31.960938 C 48.285156 32.699219 47.460938 33.113281 46.492188 33.226562 C 45.644531 33.261719 45.0625 32.882812 44.742188 32.0625 C 44.457031 31.257812 44.558594 30.519531 45.050781 29.84375 C 46.207031 28.910156 47.496094 28.207031 48.914062 27.734375 C 49.300781 25.824219 48.582031 25.0625 46.753906 25.46875 C 46.617188 25.617188 46.503906 25.777344 46.386719 25.9375 C 46.355469 26.363281 46.320312 26.792969 46.285156 27.207031 C 45.921875 27.722656 45.507812 27.746094 45.050781 27.308594 C 44.8125 26.375 45.109375 25.664062 45.929688 25.144531 C 46.238281 25.007812 46.546875 24.890625 46.855469 24.777344 Z M 46.855469 24.777344 "/>
        <path style=" stroke:none;fill-rule:evenodd;fill:rgb(2.352941%,2.352941%,2.352941%);fill-opacity:1;" d="M 85.394531 24.671875 C 85.566406 24.671875 85.738281 24.671875 85.910156 24.671875 C 85.898438 25.238281 85.910156 25.800781 85.96875 26.363281 C 86.320312 25.753906 86.777344 25.238281 87.351562 24.832031 C 88.023438 24.523438 88.550781 24.683594 88.949219 25.304688 C 89.132812 26.25 88.777344 26.617188 87.863281 26.410156 C 87.636719 26.191406 87.363281 26.03125 87.042969 25.9375 C 86.5625 26.203125 86.207031 26.59375 85.96875 27.101562 C 85.898438 28.761719 85.898438 30.40625 85.96875 32.0625 C 86.21875 32.628906 86.652344 32.871094 87.246094 32.800781 C 87.246094 32.90625 87.246094 33.019531 87.246094 33.125 C 85.910156 33.125 84.574219 33.125 83.238281 33.125 C 83.238281 33.019531 83.238281 32.90625 83.238281 32.800781 C 83.773438 32.859375 84.164062 32.652344 84.414062 32.167969 C 84.480469 30.234375 84.480469 28.300781 84.414062 26.363281 C 84.367188 26.214844 84.289062 26.089844 84.164062 25.996094 C 83.808594 25.9375 83.464844 25.949219 83.121094 26.042969 C 83.121094 25.90625 83.121094 25.765625 83.121094 25.628906 C 83.921875 25.386719 84.675781 25.074219 85.394531 24.671875 Z M 85.394531 24.671875 "/>
        <path style=" stroke:none;fill-rule:evenodd;fill:rgb(3.529412%,3.529412%,3.529412%);fill-opacity:1;" d="M 92.605469 24.671875 C 94.925781 24.582031 96.160156 25.707031 96.320312 28.058594 C 94.503906 28.058594 92.675781 28.058594 90.859375 28.058594 C 90.730469 29.785156 91.417969 31.027344 92.914062 31.800781 C 94.503906 32.121094 95.542969 31.511719 96.066406 29.957031 C 96.195312 30.015625 96.285156 30.117188 96.320312 30.269531 C 95.507812 33.136719 93.792969 33.964844 91.167969 32.753906 C 90.035156 31.777344 89.519531 30.519531 89.625 29 C 89.578125 26.792969 90.570312 25.351562 92.605469 24.671875 Z M 92.605469 24.671875 "/>
        <path style=" stroke:none;fill-rule:evenodd;fill:rgb(3.529412%,3.529412%,3.529412%);fill-opacity:1;" d="M 100.546875 24.671875 C 102.855469 24.570312 104.089844 25.699219 104.25 28.058594 C 102.398438 28.058594 100.546875 28.058594 98.683594 28.058594 C 98.683594 29.300781 99.097656 30.371094 99.929688 31.269531 C 101.78125 32.421875 103.140625 31.984375 103.996094 29.957031 C 104.144531 30.140625 104.179688 30.347656 104.101562 30.589844 C 103.515625 32.628906 102.191406 33.527344 100.136719 33.285156 C 98.273438 32.511719 97.382812 31.085938 97.449219 29 C 97.472656 26.769531 98.5 25.328125 100.546875 24.671875 Z M 100.546875 24.671875 "/>
        <path style=" stroke:none;fill-rule:evenodd;fill:rgb(3.529412%,3.529412%,3.529412%);fill-opacity:1;" d="M 107.140625 24.777344 C 107.277344 24.777344 107.414062 24.777344 107.550781 24.777344 C 107.515625 25.304688 107.550781 25.835938 107.652344 26.363281 C 107.722656 26.355469 107.746094 26.320312 107.757812 26.261719 C 108.488281 25.269531 109.449219 24.753906 110.648438 24.730469 C 111.480469 24.960938 112.019531 25.5 112.234375 26.363281 C 112.269531 28.230469 112.304688 30.09375 112.339844 31.960938 C 112.476562 32.617188 112.875 32.90625 113.527344 32.800781 C 113.527344 32.90625 113.527344 33.019531 113.527344 33.125 C 112.222656 33.125 110.921875 33.125 109.609375 33.125 C 109.609375 33.019531 109.609375 32.90625 109.609375 32.800781 C 110.144531 32.917969 110.53125 32.742188 110.796875 32.269531 C 110.863281 30.40625 110.863281 28.542969 110.796875 26.6875 C 110.601562 26.066406 110.191406 25.777344 109.5625 25.835938 C 108.796875 25.925781 108.15625 26.285156 107.652344 26.894531 C 107.539062 28.609375 107.515625 30.335938 107.609375 32.0625 C 107.824219 32.675781 108.246094 32.925781 108.886719 32.800781 C 108.886719 32.90625 108.886719 33.019531 108.886719 33.125 C 107.585938 33.125 106.28125 33.125 104.980469 33.125 C 104.980469 33.019531 104.980469 32.90625 104.980469 32.800781 C 105.515625 32.871094 105.871094 32.664062 106.054688 32.167969 C 106.121094 30.199219 106.121094 28.230469 106.054688 26.261719 C 106.019531 26.15625 105.960938 26.078125 105.90625 25.996094 C 105.5625 25.9375 105.21875 25.925781 104.878906 25.9375 C 104.878906 25.835938 104.878906 25.730469 104.878906 25.628906 C 105.632812 25.363281 106.386719 25.085938 107.140625 24.777344 Z M 107.140625 24.777344 "/>
        <path style=" stroke:none;fill-rule:evenodd;fill:rgb(33.72549%,33.72549%,33.72549%);fill-opacity:1;" d="M 40.46875 24.777344 C 40.617188 24.671875 40.777344 24.648438 40.984375 24.671875 C 40.984375 25.238281 40.984375 25.800781 40.984375 26.363281 C 40.882812 25.917969 40.847656 25.386719 40.882812 24.777344 C 40.746094 24.777344 40.605469 24.777344 40.46875 24.777344 Z M 40.46875 24.777344 "/>
        <path style=" stroke:none;fill-rule:evenodd;fill:rgb(98.039216%,98.039216%,98.039216%);fill-opacity:1;" d="M 60.554688 25.304688 C 61.90625 25.144531 62.703125 25.742188 62.980469 27.101562 C 63.046875 28.609375 63.046875 30.128906 62.980469 31.636719 C 61.460938 32.824219 60.257812 32.546875 59.378906 30.796875 C 58.945312 29.472656 58.910156 28.125 59.277344 26.792969 C 59.539062 26.136719 59.972656 25.640625 60.554688 25.304688 Z M 60.554688 25.304688 "/>
        <path style=" stroke:none;fill-rule:evenodd;fill:rgb(98.039216%,98.039216%,98.039216%);fill-opacity:1;" d="M 35.625 26.792969 C 35.625 27 35.625 27.207031 35.625 27.425781 C 34.460938 27.425781 33.285156 27.425781 32.117188 27.425781 C 32.117188 27.308594 32.117188 27.207031 32.117188 27.101562 C 32.574219 25.511719 33.535156 25.042969 35.007812 25.675781 C 35.363281 25.972656 35.570312 26.332031 35.625 26.792969 Z M 35.625 26.792969 "/>
        <path style=" stroke:none;fill-rule:evenodd;fill:rgb(97.254902%,97.254902%,97.254902%);fill-opacity:1;" d="M 92.398438 25.304688 C 93.792969 25.363281 94.480469 26.101562 94.46875 27.527344 C 93.269531 27.527344 92.058594 27.527344 90.859375 27.527344 C 90.9375 26.457031 91.453125 25.71875 92.398438 25.304688 Z M 92.398438 25.304688 "/>
        <path style=" stroke:none;fill-rule:evenodd;fill:rgb(97.647059%,97.647059%,97.647059%);fill-opacity:1;" d="M 102.398438 27.425781 C 101.164062 27.480469 99.953125 27.414062 98.789062 27.207031 C 98.96875 26.113281 99.585938 25.480469 100.648438 25.304688 C 101.828125 25.488281 102.410156 26.203125 102.398438 27.425781 Z M 102.398438 27.425781 "/>
        <path style=" stroke:none;fill-rule:evenodd;fill:rgb(34.901961%,34.901961%,34.901961%);fill-opacity:1;" d="M 107.140625 24.777344 C 107.289062 24.671875 107.460938 24.648438 107.652344 24.671875 C 107.621094 25.226562 107.652344 25.753906 107.757812 26.261719 C 107.746094 26.320312 107.722656 26.355469 107.652344 26.363281 C 107.550781 25.835938 107.515625 25.304688 107.550781 24.777344 C 107.414062 24.777344 107.277344 24.777344 107.140625 24.777344 Z M 107.140625 24.777344 "/>
        <path style=" stroke:none;fill-rule:evenodd;fill:rgb(38.039216%,38.039216%,38.039216%);fill-opacity:1;" d="M 78.1875 26.574219 C 79.707031 26.46875 81.261719 26.433594 82.824219 26.46875 C 82.824219 26.605469 82.824219 26.757812 82.824219 26.894531 C 82.675781 26.894531 82.539062 26.894531 82.402344 26.894531 C 82.503906 26.824219 82.597656 26.757812 82.710938 26.6875 C 81.203125 26.574219 79.695312 26.539062 78.1875 26.574219 Z M 78.1875 26.574219 "/>
        <path style=" stroke:none;fill-rule:evenodd;fill:rgb(83.921569%,83.921569%,83.921569%);fill-opacity:1;" d="M 12.441406 27.207031 C 11.367188 27.207031 10.304688 27.207031 9.242188 27.207031 C 9.242188 28.792969 9.242188 30.371094 9.242188 31.960938 C 9.140625 30.359375 9.105469 28.738281 9.140625 27.101562 C 10.261719 27.066406 11.355469 27.101562 12.441406 27.207031 Z M 12.441406 27.207031 "/>
        <path style=" stroke:none;fill-rule:evenodd;fill:rgb(78.039216%,78.039216%,78.039216%);fill-opacity:1;" d="M 35.625 26.792969 C 35.726562 27.011719 35.75 27.25 35.726562 27.527344 C 34.484375 27.527344 33.25 27.527344 32.015625 27.527344 C 31.992188 27.355469 32.027344 27.21875 32.117188 27.101562 C 32.117188 27.207031 32.117188 27.308594 32.117188 27.425781 C 33.285156 27.425781 34.460938 27.425781 35.625 27.425781 C 35.625 27.207031 35.625 27 35.625 26.792969 Z M 35.625 26.792969 "/>
        <path style=" stroke:none;fill-rule:evenodd;fill:rgb(79.215686%,79.215686%,79.215686%);fill-opacity:1;" d="M 98.789062 27.207031 C 99.953125 27.414062 101.164062 27.480469 102.398438 27.425781 C 101.175781 27.527344 99.941406 27.5625 98.683594 27.527344 C 98.660156 27.390625 98.695312 27.285156 98.789062 27.207031 Z M 98.789062 27.207031 "/>
        <path style=" stroke:none;fill-rule:evenodd;fill:rgb(98.039216%,98.039216%,98.039216%);fill-opacity:1;" d="M 48.8125 28.265625 C 48.949219 28.75 49.015625 29.277344 49.015625 29.84375 C 49.003906 30.371094 48.980469 30.902344 48.972656 31.429688 C 48.558594 31.789062 48.089844 32.050781 47.578125 32.226562 C 46.84375 32.28125 46.34375 31.949219 46.082031 31.222656 C 45.941406 30.464844 46.160156 29.84375 46.753906 29.371094 C 47.429688 28.96875 48.113281 28.597656 48.8125 28.265625 Z M 48.8125 28.265625 "/>
        <path style=" stroke:none;fill-rule:evenodd;fill:rgb(48.627451%,48.627451%,48.627451%);fill-opacity:1;" d="M 62.832031 32.375 C 62.832031 32.328125 62.863281 32.28125 62.933594 32.269531 C 63.035156 32.617188 63.070312 32.972656 63.035156 33.332031 C 62.96875 33.019531 62.898438 32.699219 62.832031 32.375 Z M 62.832031 32.375 "/>
    </g>
</svg>
