<?xml version="1.0" encoding="UTF-8"?>
<svg xmlns="http://www.w3.org/2000/svg" xmlns:xlink="http://www.w3.org/1999/xlink" width="40px" height="19px" viewBox="0 0 39 19" version="1.1">
<g id="surface1">
<path style=" stroke:none;fill-rule:evenodd;fill:rgb(99.215686%,99.215686%,99.215686%);fill-opacity:1;" d="M -0.015625 6.292969 C 12.980469 6.292969 25.980469 6.292969 38.984375 6.292969 C 38.984375 8.417969 38.984375 10.546875 38.984375 12.671875 C 25.980469 12.671875 12.980469 12.671875 -0.015625 12.671875 C -0.015625 10.546875 -0.015625 8.417969 -0.015625 6.292969 Z M -0.015625 6.292969 "/>
<path style=" stroke:none;fill-rule:evenodd;fill:rgb(3.529412%,3.529412%,3.529412%);fill-opacity:1;" d="M 18.160156 6.9375 C 18.230469 6.9375 18.300781 6.9375 18.371094 6.9375 C 18.367188 8.277344 18.371094 9.613281 18.390625 10.949219 C 18.480469 11.109375 18.613281 11.167969 18.796875 11.128906 C 18.796875 11.164062 18.796875 11.203125 18.796875 11.238281 C 18.347656 11.238281 17.902344 11.238281 17.457031 11.238281 C 17.457031 11.203125 17.457031 11.164062 17.457031 11.128906 C 17.679688 11.164062 17.816406 11.066406 17.863281 10.84375 C 17.886719 9.746094 17.886719 8.644531 17.863281 7.546875 C 17.808594 7.34375 17.6875 7.28125 17.492188 7.367188 C 17.457031 7.355469 17.433594 7.332031 17.421875 7.296875 C 17.671875 7.175781 17.917969 7.058594 18.160156 6.9375 Z M 18.160156 6.9375 "/>
<path style=" stroke:none;fill-rule:evenodd;fill:rgb(3.921569%,3.921569%,3.921569%);fill-opacity:1;" d="M 21.050781 11.308594 C 21.0625 11.1875 21.050781 11.066406 21.015625 10.949219 C 20.992188 10.953125 20.980469 10.96875 20.980469 10.984375 C 20.480469 11.414062 19.980469 11.414062 19.484375 10.984375 C 18.917969 10.121094 19.007812 9.328125 19.746094 8.605469 C 20.148438 8.324219 20.558594 8.304688 20.980469 8.550781 C 20.980469 8.570312 20.992188 8.582031 21.015625 8.585938 C 21.0625 8.234375 21.0625 7.886719 21.015625 7.546875 C 21.019531 7.460938 20.984375 7.398438 20.910156 7.351562 C 20.800781 7.332031 20.695312 7.339844 20.59375 7.367188 C 20.59375 7.277344 20.640625 7.222656 20.734375 7.207031 C 20.992188 7.074219 21.261719 6.988281 21.542969 6.9375 C 21.539062 8.230469 21.542969 9.519531 21.5625 10.808594 C 21.675781 10.925781 21.8125 10.949219 21.964844 10.878906 C 21.972656 10.925781 21.960938 10.96875 21.929688 11.003906 C 21.644531 11.132812 21.351562 11.234375 21.050781 11.308594 Z M 21.050781 11.308594 "/>
<path style=" stroke:none;fill-rule:evenodd;fill:rgb(2.745098%,2.745098%,2.745098%);fill-opacity:1;" d="M 26.230469 9.015625 C 26.746094 9.003906 27.261719 9.015625 27.777344 9.054688 C 27.738281 9.078125 27.707031 9.101562 27.671875 9.125 C 27.53125 9.128906 27.433594 9.203125 27.375 9.339844 C 27.367188 9.886719 27.351562 10.4375 27.320312 10.984375 C 26.53125 11.390625 25.722656 11.445312 24.890625 11.148438 C 23.902344 10.589844 23.535156 9.75 23.78125 8.621094 C 24.214844 7.421875 25.054688 6.914062 26.300781 7.101562 C 26.511719 7.160156 26.722656 7.226562 26.933594 7.296875 C 27.066406 7.273438 27.128906 7.191406 27.109375 7.046875 C 27.144531 7.046875 27.179688 7.046875 27.214844 7.046875 C 27.257812 7.476562 27.292969 7.90625 27.320312 8.335938 C 27.28125 8.34375 27.246094 8.332031 27.214844 8.300781 C 26.9375 7.476562 26.375 7.136719 25.523438 7.277344 C 24.902344 7.503906 24.535156 7.953125 24.414062 8.621094 C 24.308594 9.335938 24.449219 9.992188 24.835938 10.59375 C 25.386719 11.179688 26.011719 11.285156 26.722656 10.914062 C 26.761719 10.390625 26.769531 9.863281 26.738281 9.339844 C 26.613281 9.167969 26.445312 9.09375 26.230469 9.125 C 26.230469 9.089844 26.230469 9.054688 26.230469 9.015625 Z M 26.230469 9.015625 "/>
<path style=" stroke:none;fill-rule:evenodd;fill:rgb(36.862745%,36.862745%,36.862745%);fill-opacity:1;" d="M 4.597656 7.152344 C 3.5625 7.140625 2.53125 7.152344 1.496094 7.191406 C 1.582031 7.214844 1.667969 7.238281 1.746094 7.261719 C 1.648438 7.261719 1.554688 7.261719 1.460938 7.261719 C 1.460938 7.214844 1.460938 7.167969 1.460938 7.117188 C 2.511719 7.105469 3.558594 7.117188 4.597656 7.152344 Z M 4.597656 7.152344 "/>
<path style=" stroke:none;fill-rule:evenodd;fill:rgb(1.176471%,1.176471%,1.176471%);fill-opacity:1;" d="M 4.597656 7.152344 C 4.621094 7.453125 4.632812 7.75 4.632812 8.050781 C 4.585938 8.054688 4.542969 8.042969 4.511719 8.015625 C 4.507812 7.761719 4.40625 7.566406 4.210938 7.421875 C 3.683594 7.371094 3.15625 7.351562 2.625 7.367188 C 2.625 7.90625 2.625 8.445312 2.625 8.980469 C 2.988281 8.984375 3.351562 8.980469 3.714844 8.960938 C 4.027344 8.917969 4.167969 8.730469 4.140625 8.40625 C 4.175781 8.40625 4.210938 8.40625 4.246094 8.40625 C 4.246094 8.875 4.246094 9.339844 4.246094 9.804688 C 4.210938 9.804688 4.175781 9.804688 4.140625 9.804688 C 4.148438 9.632812 4.105469 9.480469 4.015625 9.339844 C 3.9375 9.277344 3.847656 9.242188 3.753906 9.230469 C 3.382812 9.195312 3.007812 9.183594 2.625 9.195312 C 2.613281 9.75 2.625 10.300781 2.660156 10.84375 C 2.671875 10.910156 2.707031 10.964844 2.765625 11.003906 C 3.164062 11.027344 3.5625 11.027344 3.964844 11.003906 C 4.21875 10.96875 4.425781 10.839844 4.578125 10.628906 C 4.65625 10.464844 4.753906 10.320312 4.878906 10.199219 C 4.902344 10.203125 4.925781 10.210938 4.949219 10.214844 C 4.820312 10.539062 4.707031 10.867188 4.597656 11.203125 C 3.5625 11.238281 2.53125 11.25 1.496094 11.238281 C 1.496094 11.203125 1.496094 11.164062 1.496094 11.128906 C 1.734375 11.167969 1.917969 11.082031 2.042969 10.878906 C 2.066406 9.757812 2.066406 8.632812 2.042969 7.511719 C 2 7.355469 1.902344 7.273438 1.746094 7.261719 C 1.667969 7.238281 1.582031 7.214844 1.496094 7.191406 C 2.53125 7.152344 3.5625 7.140625 4.597656 7.152344 Z M 4.597656 7.152344 "/>
<path style=" stroke:none;fill-rule:evenodd;fill:rgb(54.901961%,54.901961%,54.901961%);fill-opacity:1;" d="M 21.015625 7.546875 C 21.0625 7.886719 21.0625 8.234375 21.015625 8.585938 C 20.992188 8.582031 20.980469 8.570312 20.980469 8.550781 C 21.015625 8.222656 21.027344 7.886719 21.015625 7.546875 Z M 21.015625 7.546875 "/>
<path style=" stroke:none;fill-rule:evenodd;fill:rgb(42.352941%,42.352941%,42.352941%);fill-opacity:1;" d="M 4.140625 8.40625 C 4.175781 8.375 4.222656 8.363281 4.28125 8.371094 C 4.292969 8.855469 4.28125 9.332031 4.246094 9.804688 C 4.246094 9.339844 4.246094 8.875 4.246094 8.40625 C 4.210938 8.40625 4.175781 8.40625 4.140625 8.40625 Z M 4.140625 8.40625 "/>
<path style=" stroke:none;fill-rule:evenodd;fill:rgb(2.352941%,2.352941%,2.352941%);fill-opacity:1;" d="M 5.902344 8.371094 C 5.960938 8.371094 6.019531 8.371094 6.078125 8.371094 C 6.070312 8.5625 6.078125 8.753906 6.09375 8.945312 C 6.273438 8.714844 6.488281 8.542969 6.746094 8.425781 C 7.226562 8.300781 7.550781 8.476562 7.714844 8.945312 C 7.890625 8.714844 8.109375 8.542969 8.367188 8.425781 C 8.925781 8.300781 9.261719 8.523438 9.371094 9.089844 C 9.382812 9.695312 9.394531 10.304688 9.40625 10.914062 C 9.472656 11.082031 9.59375 11.152344 9.777344 11.128906 C 9.777344 11.164062 9.777344 11.203125 9.777344 11.238281 C 9.328125 11.238281 8.882812 11.238281 8.4375 11.238281 C 8.4375 11.203125 8.4375 11.164062 8.4375 11.128906 C 8.636719 11.167969 8.785156 11.097656 8.878906 10.914062 C 8.882812 10.621094 8.890625 10.332031 8.894531 10.039062 C 8.898438 9.695312 8.882812 9.355469 8.84375 9.015625 C 8.753906 8.824219 8.609375 8.742188 8.402344 8.765625 C 8.332031 8.773438 8.261719 8.777344 8.191406 8.785156 C 8.027344 8.863281 7.882812 8.964844 7.75 9.089844 C 7.726562 9.695312 7.726562 10.304688 7.75 10.914062 C 7.824219 11.097656 7.957031 11.171875 8.15625 11.128906 C 8.15625 11.164062 8.15625 11.203125 8.15625 11.238281 C 7.699219 11.238281 7.238281 11.238281 6.78125 11.238281 C 6.78125 11.203125 6.78125 11.164062 6.78125 11.128906 C 6.984375 11.167969 7.128906 11.097656 7.222656 10.914062 C 7.226562 10.617188 7.234375 10.316406 7.238281 10.019531 C 7.242188 9.683594 7.226562 9.347656 7.1875 9.015625 C 7.101562 8.832031 6.960938 8.738281 6.765625 8.730469 C 6.5 8.773438 6.277344 8.894531 6.09375 9.089844 C 6.070312 9.707031 6.070312 10.332031 6.09375 10.949219 C 6.1875 11.109375 6.320312 11.167969 6.5 11.128906 C 6.5 11.164062 6.5 11.203125 6.5 11.238281 C 6.054688 11.238281 5.605469 11.238281 5.160156 11.238281 C 5.160156 11.203125 5.160156 11.164062 5.160156 11.128906 C 5.347656 11.15625 5.484375 11.085938 5.566406 10.914062 C 5.574219 10.597656 5.578125 10.28125 5.582031 9.964844 C 5.585938 9.601562 5.570312 9.234375 5.53125 8.875 C 5.421875 8.792969 5.304688 8.78125 5.179688 8.835938 C 5.136719 8.800781 5.121094 8.75 5.125 8.695312 C 5.398438 8.613281 5.65625 8.507812 5.902344 8.371094 Z M 5.902344 8.371094 "/>
<path style=" stroke:none;fill-rule:evenodd;fill:rgb(3.137255%,3.137255%,3.137255%);fill-opacity:1;" d="M 11.113281 8.371094 C 11.886719 8.355469 12.296875 8.738281 12.347656 9.519531 C 11.714844 9.519531 11.082031 9.519531 10.445312 9.519531 C 10.421875 10.09375 10.65625 10.519531 11.152344 10.789062 C 11.703125 10.910156 12.074219 10.703125 12.261719 10.164062 C 12.292969 10.195312 12.3125 10.238281 12.3125 10.289062 C 12.144531 11.035156 11.6875 11.371094 10.9375 11.292969 C 10.535156 11.15625 10.261719 10.886719 10.109375 10.484375 C 9.902344 9.804688 10.023438 9.203125 10.480469 8.675781 C 10.671875 8.523438 10.886719 8.421875 11.113281 8.371094 Z M 11.113281 8.371094 "/>
<path style=" stroke:none;fill-rule:evenodd;fill:rgb(3.921569%,3.921569%,3.921569%);fill-opacity:1;" d="M 13.335938 8.40625 C 13.382812 8.40625 13.429688 8.40625 13.476562 8.40625 C 13.464844 8.613281 13.476562 8.792969 13.511719 8.945312 C 13.648438 8.707031 13.835938 8.523438 14.074219 8.390625 C 14.40625 8.359375 14.566406 8.507812 14.550781 8.835938 C 14.460938 8.972656 14.339844 9.011719 14.179688 8.960938 C 14.109375 8.914062 14.039062 8.867188 13.96875 8.820312 C 13.863281 8.792969 13.773438 8.824219 13.703125 8.910156 C 13.625 9.011719 13.554688 9.117188 13.492188 9.230469 C 13.460938 9.78125 13.472656 10.332031 13.527344 10.878906 C 13.613281 11.070312 13.761719 11.152344 13.96875 11.128906 C 13.96875 11.164062 13.96875 11.203125 13.96875 11.238281 C 13.5 11.238281 13.027344 11.238281 12.558594 11.238281 C 12.558594 11.203125 12.558594 11.164062 12.558594 11.128906 C 12.730469 11.140625 12.863281 11.082031 12.964844 10.949219 C 12.988281 10.269531 12.988281 9.589844 12.964844 8.910156 C 12.953125 8.875 12.933594 8.847656 12.914062 8.820312 C 12.796875 8.792969 12.683594 8.796875 12.578125 8.835938 C 12.558594 8.792969 12.554688 8.742188 12.558594 8.695312 C 12.820312 8.605469 13.078125 8.511719 13.335938 8.40625 Z M 13.335938 8.40625 "/>
<path style=" stroke:none;fill-rule:evenodd;fill:rgb(2.352941%,2.352941%,2.352941%);fill-opacity:1;" d="M 15.519531 8.40625 C 15.792969 8.394531 16.0625 8.414062 16.328125 8.460938 C 16.535156 8.527344 16.667969 8.664062 16.734375 8.875 C 16.746094 9.507812 16.757812 10.140625 16.769531 10.769531 C 16.820312 10.917969 16.90625 10.949219 17.035156 10.863281 C 17.085938 10.808594 17.140625 10.753906 17.191406 10.699219 C 17.199219 10.730469 17.203125 10.761719 17.210938 10.789062 C 17.066406 11.140625 16.808594 11.296875 16.433594 11.253906 C 16.328125 11.140625 16.261719 11.003906 16.242188 10.84375 C 16.007812 11.09375 15.726562 11.234375 15.394531 11.273438 C 15.105469 11.285156 14.90625 11.15625 14.796875 10.878906 C 14.699219 10.605469 14.734375 10.355469 14.902344 10.125 C 15.296875 9.808594 15.738281 9.570312 16.222656 9.410156 C 16.355469 8.761719 16.109375 8.503906 15.484375 8.640625 C 15.4375 8.691406 15.398438 8.746094 15.359375 8.800781 C 15.347656 8.945312 15.335938 9.089844 15.324219 9.230469 C 15.199219 9.40625 15.058594 9.414062 14.902344 9.265625 C 14.820312 8.949219 14.921875 8.707031 15.203125 8.53125 C 15.308594 8.484375 15.414062 8.445312 15.519531 8.40625 Z M 15.519531 8.40625 "/>
<path style=" stroke:none;fill-rule:evenodd;fill:rgb(2.352941%,2.352941%,2.352941%);fill-opacity:1;" d="M 28.695312 8.371094 C 28.753906 8.371094 28.8125 8.371094 28.871094 8.371094 C 28.867188 8.5625 28.871094 8.753906 28.890625 8.945312 C 29.011719 8.738281 29.167969 8.5625 29.363281 8.425781 C 29.59375 8.320312 29.773438 8.375 29.910156 8.585938 C 29.972656 8.90625 29.851562 9.03125 29.539062 8.960938 C 29.460938 8.886719 29.367188 8.832031 29.257812 8.800781 C 29.09375 8.890625 28.972656 9.023438 28.890625 9.195312 C 28.867188 9.757812 28.867188 10.316406 28.890625 10.878906 C 28.976562 11.070312 29.125 11.152344 29.328125 11.128906 C 29.328125 11.164062 29.328125 11.203125 29.328125 11.238281 C 28.871094 11.238281 28.414062 11.238281 27.957031 11.238281 C 27.957031 11.203125 27.957031 11.164062 27.957031 11.128906 C 28.140625 11.148438 28.273438 11.078125 28.359375 10.914062 C 28.382812 10.257812 28.382812 9.601562 28.359375 8.945312 C 28.34375 8.894531 28.316406 8.851562 28.273438 8.820312 C 28.152344 8.800781 28.035156 8.804688 27.917969 8.835938 C 27.917969 8.789062 27.917969 8.742188 27.917969 8.695312 C 28.191406 8.613281 28.449219 8.507812 28.695312 8.371094 Z M 28.695312 8.371094 "/>
<path style=" stroke:none;fill-rule:evenodd;fill:rgb(3.529412%,3.529412%,3.529412%);fill-opacity:1;" d="M 31.160156 8.371094 C 31.953125 8.339844 32.375 8.722656 32.429688 9.519531 C 31.808594 9.519531 31.183594 9.519531 30.5625 9.519531 C 30.519531 10.105469 30.753906 10.527344 31.265625 10.789062 C 31.808594 10.898438 32.164062 10.691406 32.34375 10.164062 C 32.386719 10.183594 32.417969 10.21875 32.429688 10.269531 C 32.152344 11.242188 31.566406 11.523438 30.667969 11.113281 C 30.28125 10.78125 30.105469 10.355469 30.140625 9.839844 C 30.125 9.089844 30.464844 8.601562 31.160156 8.371094 Z M 31.160156 8.371094 "/>
<path style=" stroke:none;fill-rule:evenodd;fill:rgb(3.529412%,3.529412%,3.529412%);fill-opacity:1;" d="M 33.875 8.371094 C 34.664062 8.335938 35.085938 8.71875 35.140625 9.519531 C 34.507812 9.519531 33.875 9.519531 33.238281 9.519531 C 33.238281 9.941406 33.378906 10.304688 33.664062 10.609375 C 34.296875 11 34.761719 10.851562 35.054688 10.164062 C 35.105469 10.226562 35.117188 10.296875 35.089844 10.378906 C 34.890625 11.070312 34.4375 11.375 33.734375 11.292969 C 33.097656 11.03125 32.792969 10.546875 32.816406 9.839844 C 32.824219 9.082031 33.175781 8.59375 33.875 8.371094 Z M 33.875 8.371094 "/>
<path style=" stroke:none;fill-rule:evenodd;fill:rgb(3.529412%,3.529412%,3.529412%);fill-opacity:1;" d="M 36.128906 8.40625 C 36.175781 8.40625 36.222656 8.40625 36.269531 8.40625 C 36.257812 8.585938 36.269531 8.765625 36.304688 8.945312 C 36.328125 8.941406 36.335938 8.929688 36.339844 8.910156 C 36.589844 8.574219 36.917969 8.398438 37.328125 8.390625 C 37.613281 8.46875 37.796875 8.652344 37.871094 8.945312 C 37.882812 9.578125 37.894531 10.210938 37.90625 10.84375 C 37.953125 11.066406 38.089844 11.164062 38.3125 11.128906 C 38.3125 11.164062 38.3125 11.203125 38.3125 11.238281 C 37.867188 11.238281 37.421875 11.238281 36.972656 11.238281 C 36.972656 11.203125 36.972656 11.164062 36.972656 11.128906 C 37.15625 11.167969 37.289062 11.109375 37.378906 10.949219 C 37.402344 10.316406 37.402344 9.683594 37.378906 9.054688 C 37.3125 8.84375 37.171875 8.746094 36.957031 8.765625 C 36.695312 8.796875 36.476562 8.917969 36.304688 9.125 C 36.265625 9.707031 36.257812 10.292969 36.289062 10.878906 C 36.363281 11.085938 36.507812 11.171875 36.726562 11.128906 C 36.726562 11.164062 36.726562 11.203125 36.726562 11.238281 C 36.28125 11.238281 35.835938 11.238281 35.390625 11.238281 C 35.390625 11.203125 35.390625 11.164062 35.390625 11.128906 C 35.574219 11.152344 35.695312 11.082031 35.757812 10.914062 C 35.78125 10.246094 35.78125 9.578125 35.757812 8.910156 C 35.746094 8.875 35.726562 8.847656 35.707031 8.820312 C 35.589844 8.800781 35.472656 8.796875 35.355469 8.800781 C 35.355469 8.765625 35.355469 8.730469 35.355469 8.695312 C 35.613281 8.605469 35.871094 8.511719 36.128906 8.40625 Z M 36.128906 8.40625 "/>
<path style=" stroke:none;fill-rule:evenodd;fill:rgb(33.72549%,33.72549%,33.72549%);fill-opacity:1;" d="M 13.335938 8.40625 C 13.386719 8.371094 13.441406 8.363281 13.511719 8.371094 C 13.511719 8.5625 13.511719 8.753906 13.511719 8.945312 C 13.476562 8.792969 13.464844 8.613281 13.476562 8.40625 C 13.429688 8.40625 13.382812 8.40625 13.335938 8.40625 Z M 13.335938 8.40625 "/>
<path style=" stroke:none;fill-rule:evenodd;fill:rgb(98.039216%,98.039216%,98.039216%);fill-opacity:1;" d="M 20.203125 8.585938 C 20.664062 8.53125 20.9375 8.734375 21.03125 9.195312 C 21.054688 9.707031 21.054688 10.222656 21.03125 10.734375 C 20.511719 11.136719 20.101562 11.042969 19.800781 10.449219 C 19.652344 10 19.640625 9.542969 19.765625 9.089844 C 19.855469 8.867188 20.003906 8.699219 20.203125 8.585938 Z M 20.203125 8.585938 "/>
<path style=" stroke:none;fill-rule:evenodd;fill:rgb(98.039216%,98.039216%,98.039216%);fill-opacity:1;" d="M 11.679688 9.089844 C 11.679688 9.160156 11.679688 9.230469 11.679688 9.304688 C 11.28125 9.304688 10.878906 9.304688 10.480469 9.304688 C 10.480469 9.265625 10.480469 9.230469 10.480469 9.195312 C 10.636719 8.65625 10.964844 8.496094 11.46875 8.710938 C 11.589844 8.8125 11.660156 8.933594 11.679688 9.089844 Z M 11.679688 9.089844 "/>
<path style=" stroke:none;fill-rule:evenodd;fill:rgb(97.254902%,97.254902%,97.254902%);fill-opacity:1;" d="M 31.089844 8.585938 C 31.566406 8.605469 31.800781 8.855469 31.796875 9.339844 C 31.386719 9.339844 30.972656 9.339844 30.5625 9.339844 C 30.589844 8.976562 30.765625 8.726562 31.089844 8.585938 Z M 31.089844 8.585938 "/>
<path style=" stroke:none;fill-rule:evenodd;fill:rgb(97.647059%,97.647059%,97.647059%);fill-opacity:1;" d="M 34.507812 9.304688 C 34.085938 9.324219 33.671875 9.300781 33.273438 9.230469 C 33.335938 8.859375 33.546875 8.644531 33.910156 8.585938 C 34.3125 8.648438 34.511719 8.890625 34.507812 9.304688 Z M 34.507812 9.304688 "/>
<path style=" stroke:none;fill-rule:evenodd;fill:rgb(34.901961%,34.901961%,34.901961%);fill-opacity:1;" d="M 36.128906 8.40625 C 36.179688 8.371094 36.238281 8.363281 36.304688 8.371094 C 36.292969 8.558594 36.304688 8.738281 36.339844 8.910156 C 36.335938 8.929688 36.328125 8.941406 36.304688 8.945312 C 36.269531 8.765625 36.257812 8.585938 36.269531 8.40625 C 36.222656 8.40625 36.175781 8.40625 36.128906 8.40625 Z M 36.128906 8.40625 "/>
<path style=" stroke:none;fill-rule:evenodd;fill:rgb(38.039216%,38.039216%,38.039216%);fill-opacity:1;" d="M 26.230469 9.015625 C 26.75 8.980469 27.28125 8.96875 27.816406 8.980469 C 27.816406 9.027344 27.816406 9.078125 27.816406 9.125 C 27.765625 9.125 27.71875 9.125 27.671875 9.125 C 27.707031 9.101562 27.738281 9.078125 27.777344 9.054688 C 27.261719 9.015625 26.746094 9.003906 26.230469 9.015625 Z M 26.230469 9.015625 "/>
<path style=" stroke:none;fill-rule:evenodd;fill:rgb(83.921569%,83.921569%,83.921569%);fill-opacity:1;" d="M 3.753906 9.230469 C 3.386719 9.230469 3.023438 9.230469 2.660156 9.230469 C 2.660156 9.769531 2.660156 10.304688 2.660156 10.84375 C 2.625 10.300781 2.613281 9.75 2.625 9.195312 C 3.007812 9.183594 3.382812 9.195312 3.753906 9.230469 Z M 3.753906 9.230469 "/>
<path style=" stroke:none;fill-rule:evenodd;fill:rgb(78.039216%,78.039216%,78.039216%);fill-opacity:1;" d="M 11.679688 9.089844 C 11.714844 9.164062 11.722656 9.246094 11.714844 9.339844 C 11.289062 9.339844 10.867188 9.339844 10.445312 9.339844 C 10.4375 9.28125 10.449219 9.234375 10.480469 9.195312 C 10.480469 9.230469 10.480469 9.265625 10.480469 9.304688 C 10.878906 9.304688 11.28125 9.304688 11.679688 9.304688 C 11.679688 9.230469 11.679688 9.160156 11.679688 9.089844 Z M 11.679688 9.089844 "/>
<path style=" stroke:none;fill-rule:evenodd;fill:rgb(79.215686%,79.215686%,79.215686%);fill-opacity:1;" d="M 33.273438 9.230469 C 33.671875 9.300781 34.085938 9.324219 34.507812 9.304688 C 34.089844 9.339844 33.667969 9.351562 33.238281 9.339844 C 33.230469 9.292969 33.242188 9.257812 33.273438 9.230469 Z M 33.273438 9.230469 "/>
<path style=" stroke:none;fill-rule:evenodd;fill:rgb(98.039216%,98.039216%,98.039216%);fill-opacity:1;" d="M 16.1875 9.589844 C 16.234375 9.753906 16.257812 9.933594 16.257812 10.125 C 16.253906 10.304688 16.246094 10.484375 16.242188 10.664062 C 16.101562 10.785156 15.941406 10.875 15.765625 10.933594 C 15.515625 10.953125 15.34375 10.839844 15.253906 10.59375 C 15.207031 10.335938 15.28125 10.125 15.484375 9.964844 C 15.714844 9.828125 15.949219 9.703125 16.1875 9.589844 Z M 16.1875 9.589844 "/>
<path style=" stroke:none;fill-rule:evenodd;fill:rgb(48.627451%,48.627451%,48.627451%);fill-opacity:1;" d="M 20.980469 10.984375 C 20.980469 10.96875 20.992188 10.953125 21.015625 10.949219 C 21.050781 11.066406 21.0625 11.1875 21.050781 11.308594 C 21.027344 11.203125 21.003906 11.09375 20.980469 10.984375 Z M 20.980469 10.984375 "/>
</g>
</svg>
