<?xml version="1.0" standalone="no"?>
<!DOCTYPE svg PUBLIC "-//W3C//DTD SVG 20010904//EN"
 "http://www.w3.org/TR/2001/REC-SVG-20010904/DTD/svg10.dtd">
<svg version="1.0"
    xmlns="http://www.w3.org/2000/svg" width="10px" height="60px" viewBox="0 0 90.000000 505.000000" preserveAspectRatio="xMidYMid meet">

    <g transform="translate(0.000000,505.000000) scale(0.100000,-0.100000)" fill="#000000" stroke="none">
        <path d="M40 4905 c0 -90 4 -145 10 -145 6 0 10 12 10 28 0 15 7 38 16 50 15
22 16 22 320 22 291 0 305 -1 324 -20 11 -11 20 -33 20 -50 0 -16 5 -30 10
-30 6 0 10 55 10 145 0 90 -4 145 -10 145 -5 0 -10 -9 -10 -19 0 -10 -9 -29
-19 -42 l-19 -24 -300 0 c-281 0 -301 1 -321 19 -12 11 -21 30 -21 43 0 12 -4
23 -10 23 -6 0 -10 -55 -10 -145z"/>
        <path d="M582 4691 c2 -5 26 -24 53 -43 72 -48 85 -80 85 -215 0 -88 -3 -115
-16 -127 -13 -13 -42 -16 -160 -16 l-144 0 0 100 c0 127 13 157 70 166 78 13
38 24 -85 24 -77 0 -125 -4 -125 -10 0 -5 11 -10 25 -10 14 0 37 -11 50 -25
24 -23 25 -31 25 -135 l0 -110 -140 0 -140 0 0 139 0 139 30 25 c16 14 43 28
60 32 52 11 33 25 -34 25 -105 0 -96 26 -96 -286 0 -176 4 -274 10 -274 6 0
10 15 10 34 0 65 7 66 340 66 162 0 300 -4 306 -8 16 -11 34 -48 34 -71 0 -12
5 -21 10 -21 6 0 10 99 10 278 l0 278 -83 27 c-91 30 -100 31 -95 18z"/>
        <path d="M40 3937 l0 -103 270 -123 c149 -68 272 -127 275 -131 2 -3 -118 -63
-268 -133 l-272 -126 -3 -106 c-2 -67 1 -105 8 -105 5 0 10 14 10 30 0 17 9
39 20 50 19 19 33 20 324 20 304 0 305 0 320 -22 9 -12 16 -35 16 -50 0 -16 5
-28 10 -28 6 0 10 48 10 125 0 123 -11 163 -24 85 -5 -31 -12 -43 -32 -50 -16
-6 -131 -9 -282 -8 l-256 3 294 136 c162 74 295 140 297 145 2 6 -127 71 -288
145 l-291 134 219 7 c120 4 239 5 266 2 53 -7 77 -30 77 -76 0 -16 5 -28 10
-28 6 0 10 58 10 155 0 97 -4 155 -10 155 -5 0 -10 -13 -10 -28 0 -16 -9 -38
-20 -50 -20 -22 -25 -22 -318 -22 -335 0 -342 1 -342 66 0 19 -4 34 -10 34 -6
0 -10 -41 -10 -103z"/>
        <path d="M40 2915 c0 -97 4 -155 10 -155 6 0 10 14 10 30 0 17 9 39 20 50 19
19 33 20 309 20 163 0 301 -4 315 -10 20 -7 27 -19 32 -50 14 -84 24 -34 24
115 0 97 -4 155 -10 155 -5 0 -10 -13 -10 -29 0 -16 -9 -39 -19 -52 l-19 -24
-307 0 c-292 0 -307 1 -321 19 -8 11 -14 35 -14 53 0 18 -4 33 -10 33 -6 0
-10 -58 -10 -155z"/>
        <path d="M620 2404 c0 -4 12 -21 28 -37 26 -28 27 -31 30 -168 2 -76 1 -139
-3 -139 -4 0 -53 43 -108 96 -228 215 -361 260 -473 162 -50 -44 -67 -83 -67
-153 0 -91 36 -148 118 -186 44 -20 85 -25 85 -9 0 6 -6 10 -13 10 -7 0 -32
16 -54 35 -94 80 -66 222 50 255 53 14 119 1 197 -41 57 -30 205 -158 280
-241 70 -79 71 -77 68 163 l-3 211 -45 18 c-68 26 -90 32 -90 24z"/>
        <path d="M42 1785 l3 -106 278 -127 277 -127 -82 -38 c-46 -21 -172 -79 -280
-130 l-198 -91 0 -103 c0 -62 4 -103 10 -103 6 0 10 13 10 28 0 17 10 37 23
50 23 22 29 22 316 22 182 0 300 -4 312 -10 11 -7 21 -26 25 -50 13 -78 24
-38 24 85 0 77 -4 125 -10 125 -5 0 -10 -13 -10 -30 0 -17 -9 -39 -20 -50 -19
-19 -33 -20 -288 -20 l-267 1 80 37 c44 21 178 82 297 137 120 55 218 105 218
110 0 6 -39 28 -87 50 -49 22 -182 83 -298 137 l-210 98 268 0 c254 0 268 -1
287 -20 11 -11 20 -33 20 -50 0 -16 5 -30 10 -30 6 0 10 58 10 155 0 97 -4
155 -10 155 -5 0 -10 -13 -10 -29 0 -16 -9 -39 -19 -52 l-19 -24 -300 0 c-281
0 -301 1 -321 19 -13 12 -21 31 -21 53 0 18 -5 33 -10 33 -7 0 -10 -38 -8
-105z"/>
        <path d="M40 755 c0 -97 4 -155 10 -155 6 0 10 15 10 33 0 18 6 42 14 53 14
18 29 19 321 19 l307 0 19 -24 c10 -13 19 -36 19 -52 0 -16 5 -29 10 -29 6 0
10 58 10 155 0 97 -4 155 -10 155 -5 0 -10 -9 -10 -21 0 -23 -18 -60 -34 -71
-6 -4 -145 -8 -308 -8 -285 0 -299 1 -318 20 -11 11 -20 33 -20 50 0 17 -4 30
-10 30 -6 0 -10 -58 -10 -155z"/>
        <path d="M516 505 c-58 -20 -97 -64 -167 -188 -100 -176 -142 -213 -213 -183
-49 20 -70 58 -70 122 2 87 55 153 145 180 33 10 59 21 59 26 0 4 -56 8 -125
8 -69 0 -125 -3 -125 -6 0 -3 10 -14 22 -24 l22 -17 -23 -78 c-17 -57 -22 -91
-18 -127 21 -174 221 -239 331 -107 15 17 58 85 97 151 75 127 108 158 167
158 69 0 112 -55 112 -142 0 -64 -26 -125 -69 -161 -29 -24 -86 -47 -118 -47
-7 0 -13 -7 -13 -15 0 -12 20 -15 119 -15 118 0 151 9 111 30 -24 13 -25 39
-4 111 44 146 2 268 -111 320 -47 22 -76 23 -129 4z"/>
    </g>
</svg>
