<?xml version="1.0" encoding="UTF-8"?>
<svg xmlns="http://www.w3.org/2000/svg"
    xmlns:xlink="http://www.w3.org/1999/xlink" width="10px" height="60px" viewBox="0 0 3 17" version="1.1">
    <g id="surface1">
        <path style=" stroke:none;fill-rule:nonzero;fill:rgb(0%,0%,0%);fill-opacity:1;" d="M 0.261719 0.726562 C 0.261719 1.039062 0.277344 1.226562 0.296875 1.226562 C 0.316406 1.226562 0.328125 1.1875 0.328125 1.136719 C 0.328125 1.089844 0.351562 1.015625 0.382812 0.976562 C 0.429688 0.902344 0.433594 0.902344 1.433594 0.902344 C 2.390625 0.902344 2.4375 0.90625 2.5 0.96875 C 2.535156 1.003906 2.566406 1.074219 2.566406 1.128906 C 2.566406 1.183594 2.582031 1.226562 2.597656 1.226562 C 2.617188 1.226562 2.632812 1.039062 2.632812 0.726562 C 2.632812 0.25 2.597656 0.0820312 2.550781 0.351562 C 2.519531 0.570312 2.53125 0.566406 1.441406 0.566406 L 0.453125 0.566406 L 0.390625 0.488281 C 0.359375 0.445312 0.328125 0.371094 0.328125 0.320312 C 0.328125 0.269531 0.316406 0.226562 0.296875 0.226562 C 0.277344 0.226562 0.261719 0.414062 0.261719 0.726562 Z M 0.261719 0.726562 "/>
        <path style=" stroke:none;fill-rule:nonzero;fill:rgb(0%,0%,0%);fill-opacity:1;" d="M 2.039062 1.433594 C 2.042969 1.453125 2.117188 1.519531 2.214844 1.582031 C 2.460938 1.742188 2.5 1.84375 2.5 2.277344 C 2.5 2.46875 2.484375 2.65625 2.46875 2.679688 C 2.445312 2.71875 2.339844 2.730469 1.941406 2.738281 L 1.449219 2.75 L 1.449219 2.421875 C 1.449219 2.046875 1.492188 1.917969 1.636719 1.886719 C 1.785156 1.855469 1.808594 1.84375 1.808594 1.808594 C 1.808594 1.789062 1.65625 1.777344 1.398438 1.777344 C 1.054688 1.777344 0.988281 1.78125 0.988281 1.824219 C 0.988281 1.855469 1.015625 1.875 1.070312 1.875 C 1.113281 1.875 1.191406 1.910156 1.234375 1.953125 C 1.3125 2.027344 1.316406 2.054688 1.316406 2.390625 L 1.316406 2.746094 L 0.394531 2.746094 L 0.394531 2.296875 C 0.394531 1.859375 0.398438 1.847656 0.476562 1.765625 C 0.523438 1.722656 0.613281 1.675781 0.675781 1.667969 C 0.878906 1.628906 0.796875 1.582031 0.527344 1.582031 L 0.261719 1.582031 L 0.261719 2.488281 C 0.261719 3.066406 0.277344 3.390625 0.296875 3.390625 C 0.316406 3.390625 0.328125 3.34375 0.328125 3.285156 C 0.328125 3.066406 0.335938 3.066406 1.433594 3.066406 C 1.972656 3.066406 2.433594 3.082031 2.453125 3.09375 C 2.507812 3.128906 2.566406 3.25 2.566406 3.324219 C 2.566406 3.363281 2.582031 3.390625 2.597656 3.390625 C 2.617188 3.390625 2.632812 3.070312 2.632812 2.492188 L 2.632812 1.597656 L 2.335938 1.5 C 2.15625 1.433594 2.039062 1.410156 2.039062 1.433594 Z M 2.039062 1.433594 "/>
        <path style=" stroke:none;fill-rule:nonzero;fill:rgb(0%,0%,0%);fill-opacity:1;" d="M 0.261719 3.882812 L 0.261719 4.214844 L 1.167969 4.617188 C 1.664062 4.839844 2.074219 5.027344 2.074219 5.039062 C 2.074219 5.046875 1.667969 5.238281 1.175781 5.464844 L 0.28125 5.871094 L 0.269531 6.214844 C 0.261719 6.433594 0.273438 6.554688 0.296875 6.554688 C 0.3125 6.554688 0.328125 6.515625 0.328125 6.460938 C 0.328125 6.410156 0.359375 6.335938 0.390625 6.292969 L 0.453125 6.214844 L 2.441406 6.214844 L 2.503906 6.292969 C 2.535156 6.335938 2.566406 6.410156 2.566406 6.460938 C 2.566406 6.515625 2.582031 6.554688 2.597656 6.554688 C 2.617188 6.554688 2.632812 6.394531 2.632812 6.136719 C 2.632812 5.878906 2.617188 5.714844 2.597656 5.714844 C 2.582031 5.714844 2.566406 5.757812 2.566406 5.808594 C 2.566406 5.863281 2.535156 5.9375 2.503906 5.976562 C 2.441406 6.054688 2.441406 6.054688 1.558594 6.066406 C 1.074219 6.070312 0.6875 6.066406 0.699219 6.054688 C 0.707031 6.042969 1.144531 5.839844 1.667969 5.601562 C 2.1875 5.367188 2.613281 5.15625 2.613281 5.136719 C 2.613281 5.117188 2.191406 4.910156 1.671875 4.671875 L 0.726562 4.246094 L 1.242188 4.222656 C 1.527344 4.207031 1.914062 4.203125 2.101562 4.203125 C 2.410156 4.214844 2.449219 4.222656 2.503906 4.292969 C 2.539062 4.332031 2.566406 4.410156 2.566406 4.460938 C 2.566406 4.511719 2.582031 4.554688 2.597656 4.554688 C 2.617188 4.554688 2.632812 4.367188 2.632812 4.054688 C 2.632812 3.738281 2.617188 3.550781 2.597656 3.550781 C 2.582031 3.550781 2.566406 3.59375 2.566406 3.648438 C 2.566406 3.703125 2.535156 3.773438 2.5 3.8125 C 2.4375 3.871094 2.390625 3.875 1.453125 3.875 C 0.351562 3.875 0.328125 3.871094 0.328125 3.664062 C 0.328125 3.601562 0.316406 3.550781 0.296875 3.550781 C 0.277344 3.550781 0.261719 3.683594 0.261719 3.882812 Z M 0.261719 3.882812 "/>
        <path style=" stroke:none;fill-rule:nonzero;fill:rgb(0%,0%,0%);fill-opacity:1;" d="M 0.261719 7.1875 C 0.261719 7.5 0.277344 7.6875 0.296875 7.6875 C 0.316406 7.6875 0.328125 7.640625 0.328125 7.589844 C 0.328125 7.535156 0.359375 7.464844 0.394531 7.429688 C 0.457031 7.367188 0.503906 7.363281 1.449219 7.363281 C 2.390625 7.363281 2.4375 7.367188 2.5 7.429688 C 2.535156 7.464844 2.566406 7.535156 2.566406 7.589844 C 2.566406 7.640625 2.582031 7.6875 2.597656 7.6875 C 2.617188 7.6875 2.632812 7.5 2.632812 7.1875 C 2.632812 6.871094 2.617188 6.683594 2.597656 6.683594 C 2.582031 6.683594 2.566406 6.726562 2.566406 6.777344 C 2.566406 6.832031 2.535156 6.90625 2.503906 6.945312 L 2.441406 7.023438 L 1.453125 7.023438 C 0.53125 7.023438 0.464844 7.019531 0.398438 6.960938 C 0.355469 6.925781 0.328125 6.863281 0.328125 6.792969 C 0.328125 6.734375 0.316406 6.683594 0.296875 6.683594 C 0.277344 6.683594 0.261719 6.871094 0.261719 7.1875 Z M 0.261719 7.1875 "/>
        <path style=" stroke:none;fill-rule:nonzero;fill:rgb(0%,0%,0%);fill-opacity:1;" d="M 2.550781 9.203125 C 2.535156 9.304688 2.511719 9.34375 2.449219 9.367188 C 2.402344 9.386719 1.898438 9.398438 1.28125 9.398438 C 0.660156 9.398438 0.199219 9.410156 0.203125 9.425781 C 0.261719 9.570312 0.484375 10.007812 0.503906 10.011719 C 0.515625 10.011719 0.519531 9.957031 0.507812 9.890625 C 0.472656 9.679688 0.488281 9.671875 1.425781 9.664062 C 1.882812 9.65625 2.3125 9.664062 2.386719 9.679688 C 2.507812 9.703125 2.519531 9.71875 2.546875 9.84375 C 2.605469 10.089844 2.632812 9.984375 2.632812 9.527344 C 2.632812 9.085938 2.59375 8.941406 2.550781 9.203125 Z M 2.550781 9.203125 "/>
        <path style=" stroke:none;fill-rule:nonzero;fill:rgb(0%,0%,0%);fill-opacity:1;" d="M 0.269531 10.835938 L 0.28125 11.175781 L 1.195312 11.585938 L 2.105469 11.996094 L 1.835938 12.121094 C 1.683594 12.1875 1.269531 12.375 0.914062 12.539062 L 0.261719 12.832031 L 0.261719 13.167969 C 0.261719 13.367188 0.277344 13.5 0.296875 13.5 C 0.316406 13.5 0.328125 13.457031 0.328125 13.410156 C 0.328125 13.355469 0.363281 13.289062 0.40625 13.246094 C 0.480469 13.175781 0.5 13.175781 1.445312 13.175781 C 2.042969 13.175781 2.429688 13.1875 2.46875 13.207031 C 2.507812 13.230469 2.539062 13.292969 2.550781 13.371094 C 2.59375 13.621094 2.632812 13.492188 2.632812 13.09375 C 2.632812 12.847656 2.617188 12.691406 2.597656 12.691406 C 2.582031 12.691406 2.566406 12.734375 2.566406 12.789062 C 2.566406 12.84375 2.535156 12.914062 2.5 12.949219 C 2.4375 13.011719 2.390625 13.015625 1.550781 13.015625 L 0.675781 13.011719 L 0.9375 12.890625 C 1.082031 12.824219 1.523438 12.628906 1.914062 12.449219 C 2.308594 12.273438 2.632812 12.109375 2.632812 12.09375 C 2.632812 12.074219 2.503906 12.003906 2.34375 11.933594 C 2.183594 11.863281 1.746094 11.664062 1.363281 11.492188 L 0.675781 11.175781 L 1.554688 11.175781 C 2.390625 11.175781 2.4375 11.175781 2.5 11.238281 C 2.535156 11.273438 2.566406 11.34375 2.566406 11.398438 C 2.566406 11.453125 2.582031 11.496094 2.597656 11.496094 C 2.617188 11.496094 2.632812 11.308594 2.632812 10.996094 C 2.632812 10.683594 2.617188 10.496094 2.597656 10.496094 C 2.582031 10.496094 2.566406 10.539062 2.566406 10.589844 C 2.566406 10.640625 2.535156 10.714844 2.503906 10.757812 L 2.441406 10.835938 L 1.453125 10.835938 C 0.53125 10.835938 0.464844 10.832031 0.398438 10.773438 C 0.355469 10.734375 0.328125 10.671875 0.328125 10.601562 C 0.328125 10.542969 0.3125 10.496094 0.296875 10.496094 C 0.273438 10.496094 0.261719 10.617188 0.269531 10.835938 Z M 0.269531 10.835938 "/>
        <path style=" stroke:none;fill-rule:nonzero;fill:rgb(0%,0%,0%);fill-opacity:1;" d="M 0.261719 14.160156 C 0.261719 14.472656 0.277344 14.660156 0.296875 14.660156 C 0.316406 14.660156 0.328125 14.613281 0.328125 14.554688 C 0.328125 14.496094 0.347656 14.417969 0.375 14.382812 C 0.421875 14.324219 0.46875 14.324219 1.429688 14.324219 L 2.441406 14.324219 L 2.503906 14.398438 C 2.535156 14.441406 2.566406 14.515625 2.566406 14.566406 C 2.566406 14.621094 2.582031 14.660156 2.597656 14.660156 C 2.617188 14.660156 2.632812 14.472656 2.632812 14.160156 C 2.632812 13.847656 2.617188 13.660156 2.597656 13.660156 C 2.582031 13.660156 2.566406 13.691406 2.566406 13.730469 C 2.566406 13.804688 2.507812 13.921875 2.453125 13.957031 C 2.433594 13.972656 1.976562 13.984375 1.441406 13.984375 C 0.503906 13.984375 0.457031 13.980469 0.394531 13.917969 C 0.359375 13.882812 0.328125 13.8125 0.328125 13.757812 C 0.328125 13.703125 0.316406 13.660156 0.296875 13.660156 C 0.277344 13.660156 0.261719 13.847656 0.261719 14.160156 Z M 0.261719 14.160156 "/>
        <path style=" stroke:none;fill-rule:nonzero;fill:rgb(0%,0%,0%);fill-opacity:1;" d="M 1.828125 14.96875 C 1.636719 15.035156 1.511719 15.175781 1.28125 15.574219 C 0.949219 16.144531 0.8125 16.265625 0.578125 16.167969 C 0.417969 16.101562 0.347656 15.980469 0.347656 15.773438 C 0.355469 15.492188 0.53125 15.277344 0.824219 15.191406 C 0.933594 15.160156 1.019531 15.125 1.019531 15.109375 C 1.019531 15.09375 0.835938 15.082031 0.609375 15.082031 C 0.382812 15.082031 0.199219 15.089844 0.199219 15.101562 C 0.199219 15.109375 0.230469 15.144531 0.269531 15.179688 L 0.34375 15.234375 L 0.265625 15.484375 C 0.210938 15.667969 0.195312 15.777344 0.207031 15.894531 C 0.277344 16.457031 0.933594 16.667969 1.296875 16.242188 C 1.34375 16.1875 1.488281 15.964844 1.613281 15.753906 C 1.863281 15.34375 1.96875 15.242188 2.164062 15.242188 C 2.390625 15.242188 2.53125 15.421875 2.53125 15.703125 C 2.53125 15.910156 2.449219 16.105469 2.304688 16.222656 C 2.210938 16.300781 2.023438 16.375 1.917969 16.375 C 1.894531 16.375 1.875 16.394531 1.875 16.421875 C 1.875 16.460938 1.941406 16.46875 2.265625 16.46875 C 2.65625 16.46875 2.761719 16.441406 2.632812 16.375 C 2.550781 16.332031 2.550781 16.246094 2.617188 16.015625 C 2.761719 15.542969 2.625 15.148438 2.253906 14.980469 C 2.097656 14.910156 2.003906 14.90625 1.828125 14.96875 Z M 1.828125 14.96875 "/>
    </g>
</svg>
