<?xml version="1.0" standalone="no"?>
<!DOCTYPE svg PUBLIC "-//W3C//DTD SVG 20010904//EN"
 "http://www.w3.org/TR/2001/REC-SVG-20010904/DTD/svg10.dtd">
<svg version="1.0"
    xmlns="http://www.w3.org/2000/svg" width="180px" height="105px" viewBox="0 0 512.000000 512.000000" preserveAspectRatio="xMidYMid meet">

    <g transform="translate(0.000000,512.000000) scale(0.100000,-0.100000)" fill="#000000" stroke="none">
        <path d="M1467 2980 c-113 -18 -177 -70 -196 -160 -14 -67 -14 -454 0 -522 15
-68 73 -128 145 -149 69 -20 708 -20 774 0 57 17 124 82 139 136 14 52 15 497
0 548 -15 54 -71 112 -127 133 -40 15 -93 17 -362 20 -173 1 -341 -1 -373 -6z
m629 -224 c20 -29 20 -363 0 -392 -14 -18 -29 -19 -290 -19 -251 0 -277 2
-293 18 -15 15 -18 40 -21 170 -2 84 0 168 5 187 15 58 28 61 321 58 248 -3
264 -4 278 -22z"/>
        <path d="M0 2555 l0 -415 125 0 125 0 2 312 3 312 224 -284 c123 -157 236
-297 249 -312 l26 -28 203 0 203 0 0 415 0 415 -120 0 -120 0 -2 -307 -3 -308
-240 305 -241 305 -217 3 -217 2 0 -415z"/>
        <path d="M2442 2558 l3 -413 127 -3 128 -3 2 216 3 216 234 -215 234 -216 181
0 181 1 -25 22 c-14 12 -130 111 -258 221 -127 109 -232 200 -232 201 0 2 99
87 220 189 121 103 220 189 220 191 0 3 -74 5 -164 5 l-164 0 -213 -195 -214
-195 -3 195 -2 195 -130 0 -130 0 2 -412z"/>
        <path d="M3580 2555 l0 -415 130 0 130 0 0 415 0 415 -130 0 -130 0 0 -415z"/>
        <path d="M4316 2928 c-57 -101 -426 -777 -426 -782 0 -3 63 -6 140 -6 l140 0
37 75 38 75 250 -2 250 -3 38 -72 38 -73 145 0 c119 0 145 3 142 14 -2 8 -102
194 -223 415 l-220 401 -162 0 -162 0 -25 -42z m263 -316 c39 -73 71 -135 71
-138 0 -2 -70 -4 -155 -4 -85 0 -155 3 -155 6 0 4 8 21 19 38 10 17 44 80 76
139 31 60 61 105 65 100 4 -4 40 -68 79 -141z"/>
    </g>
</svg>
