<?xml version="1.0" encoding="UTF-8"?>
<svg xmlns="http://www.w3.org/2000/svg" xmlns:xlink="http://www.w3.org/1999/xlink" width="200px" height="49px" viewBox="0 0 250 61" version="1.1">
<g id="surface1">
<path style=" stroke:none;fill-rule:nonzero;fill:rgb(0%,0%,0%);fill-opacity:1;" d="M 68.457031 9.238281 C 65.234375 10.363281 63.71875 11.730469 62.648438 14.613281 C 61.867188 16.570312 61.765625 18.523438 61.765625 29.082031 C 61.765625 41.15625 61.765625 41.351562 62.988281 43.746094 C 64.304688 46.386719 66.359375 48.046875 69.53125 48.976562 C 70.945312 49.414062 76.414062 49.613281 87.648438 49.613281 C 105.761719 49.613281 107.570312 49.367188 110.789062 46.628906 C 113.867188 43.941406 114.257812 41.988281 114.257812 28.839844 C 114.257812 16.570312 113.820312 13.832031 111.476562 11.632812 C 108.15625 8.554688 108.398438 8.554688 88.867188 8.457031 C 72.609375 8.308594 70.800781 8.40625 68.457031 9.238281 Z M 102.34375 19.257812 C 102.882812 19.992188 103.027344 22.191406 103.027344 28.9375 C 103.027344 37.050781 102.976562 37.683594 102.050781 38.613281 C 101.074219 39.589844 100.585938 39.640625 87.648438 39.492188 C 77.492188 39.394531 74.121094 39.199219 73.632812 38.710938 C 73.195312 38.273438 72.949219 35.828125 72.851562 30.15625 C 72.65625 20.96875 72.851562 19.40625 74.367188 18.671875 C 75.097656 18.328125 79.785156 18.183594 88.523438 18.230469 C 100.878906 18.328125 101.660156 18.378906 102.34375 19.257812 Z M 102.34375 19.257812 "/>
<path style=" stroke:none;fill-rule:nonzero;fill:rgb(0%,0%,0%);fill-opacity:1;" d="M 0 28.839844 L 0 48.878906 L 12.207031 48.878906 L 12.304688 33.773438 L 12.453125 18.671875 L 24.367188 33.773438 L 36.28125 48.878906 L 56.640625 48.878906 L 56.640625 8.796875 L 44.921875 8.796875 L 44.921875 23.753906 C 44.921875 33.238281 44.726562 38.566406 44.433594 38.371094 C 44.1875 38.222656 38.769531 31.476562 32.421875 23.460938 L 20.898438 8.796875 L 0 8.796875 Z M 0 28.839844 "/>
<path style=" stroke:none;fill-rule:nonzero;fill:rgb(0%,0%,0%);fill-opacity:1;" d="M 119.140625 28.839844 L 119.140625 48.878906 L 131.835938 48.878906 L 131.933594 38.515625 L 132.078125 28.152344 L 143.3125 38.515625 L 154.492188 48.878906 L 172.117188 48.878906 L 170.75 47.753906 C 162.648438 41.15625 147.558594 28.007812 147.65625 27.617188 C 147.703125 27.324219 152.296875 23.265625 157.859375 18.574219 C 163.378906 13.882812 168.210938 9.726562 168.554688 9.382812 C 169.042969 8.945312 167.53125 8.796875 161.132812 8.796875 L 153.078125 8.796875 L 142.578125 18.378906 L 132.078125 27.957031 L 131.933594 18.378906 L 131.835938 8.796875 L 119.140625 8.796875 Z M 119.140625 28.839844 "/>
<path style=" stroke:none;fill-rule:nonzero;fill:rgb(0%,0%,0%);fill-opacity:1;" d="M 174.804688 28.839844 L 174.804688 48.878906 L 187.5 48.878906 L 187.5 8.796875 L 174.804688 8.796875 Z M 174.804688 28.839844 "/>
<path style=" stroke:none;fill-rule:nonzero;fill:rgb(0%,0%,0%);fill-opacity:1;" d="M 207.375 17.253906 C 204.835938 21.898438 199.851562 30.890625 196.386719 37.292969 L 189.992188 48.878906 L 203.613281 48.878906 L 205.421875 45.457031 L 207.273438 42.035156 L 231.6875 42.035156 L 233.351562 45.261719 C 234.277344 47.019531 235.253906 48.585938 235.59375 48.683594 C 235.890625 48.828125 239.160156 48.828125 242.820312 48.78125 L 249.511719 48.632812 L 238.625 28.839844 L 227.734375 9.042969 L 219.875 8.894531 L 212.011719 8.796875 Z M 224.023438 26.980469 C 225.683594 30.109375 227.050781 32.796875 227.050781 32.945312 C 227.050781 33.089844 223.632812 33.238281 219.484375 33.238281 C 215.332031 33.238281 211.914062 33.089844 211.914062 32.945312 C 211.914062 32.796875 213.625 29.472656 215.671875 25.613281 L 219.433594 18.621094 L 220.214844 19.941406 C 220.65625 20.675781 222.363281 23.851562 224.023438 26.980469 Z M 224.023438 26.980469 "/>
</g>
</svg>
