<?xml version="1.0" encoding="UTF-8"?>
<svg xmlns="http://www.w3.org/2000/svg"
    xmlns:xlink="http://www.w3.org/1999/xlink" width="185px" height="32px" viewBox="0 0 182 32" version="1.1">
    <g id="surface1">
        <path style=" stroke:none;fill-rule:nonzero;fill:rgb(0%,0%,0%);fill-opacity:1;" d="M 18.5625 10.082031 C 17.492188 10.292969 16.160156 11.0625 15.429688 11.890625 C 14.210938 13.257812 13.78125 14.589844 13.886719 16.644531 C 13.992188 18.691406 14.789062 20.269531 16.253906 21.34375 C 17.335938 22.144531 18.105469 22.382812 19.679688 22.382812 C 20.890625 22.382812 21.046875 22.347656 21.925781 21.933594 C 23.53125 21.175781 24.832031 19.597656 25.234375 17.859375 C 25.425781 16.988281 25.425781 15.171875 25.234375 14.402344 C 24.433594 11.414062 21.503906 9.507812 18.5625 10.082031 Z M 20.644531 10.816406 C 22.453125 11.351562 23.390625 13.257812 23.398438 16.351562 C 23.398438 19.148438 22.714844 20.699219 21.117188 21.46875 C 20.292969 21.847656 19.125 21.917969 18.398438 21.601562 C 17.027344 21.019531 16.210938 19.632812 15.921875 17.359375 C 15.519531 14.183594 16.554688 11.511719 18.433594 10.867188 C 19.328125 10.550781 19.757812 10.550781 20.644531 10.816406 Z M 20.644531 10.816406 "/>
        <path style=" stroke:none;fill-rule:nonzero;fill:rgb(0%,0%,0%);fill-opacity:1;" d="M 49.230469 14.84375 C 46.429688 21.476562 46.386719 21.546875 45.550781 21.785156 C 45.359375 21.835938 45.175781 21.933594 45.132812 22.03125 C 45.097656 22.144531 45.5625 22.191406 46.992188 22.191406 C 48.597656 22.191406 48.898438 22.164062 48.898438 21.988281 C 48.898438 21.863281 48.765625 21.792969 48.535156 21.792969 C 48.335938 21.792969 48.035156 21.707031 47.871094 21.582031 C 47.476562 21.289062 47.535156 20.769531 48.140625 19.34375 L 48.589844 18.300781 L 53.269531 18.300781 L 53.714844 19.332031 C 54.285156 20.691406 54.363281 21.183594 54.066406 21.527344 C 53.933594 21.679688 53.664062 21.792969 53.453125 21.792969 C 53.214844 21.792969 53.082031 21.863281 53.082031 21.988281 C 53.082031 22.164062 53.433594 22.191406 55.4375 22.191406 C 57.4375 22.191406 57.789062 22.164062 57.789062 21.988281 C 57.789062 21.890625 57.671875 21.792969 57.523438 21.792969 C 57.375 21.792969 57.085938 21.707031 56.867188 21.601562 C 56.347656 21.316406 55.917969 20.425781 53.539062 14.640625 C 52.476562 12.058594 51.53125 9.941406 51.449219 9.941406 C 51.355469 9.941406 50.363281 12.15625 49.230469 14.84375 Z M 51.96875 15.144531 C 52.453125 16.300781 52.871094 17.332031 52.917969 17.410156 C 52.96875 17.542969 52.53125 17.578125 51.003906 17.578125 C 49.722656 17.578125 49.027344 17.527344 49.027344 17.445312 C 49.027344 17.15625 50.925781 12.851562 51.003906 12.949219 C 51.054688 13 51.484375 13.988281 51.96875 15.144531 Z M 51.96875 15.144531 "/>
        <path style=" stroke:none;fill-rule:nonzero;fill:rgb(0%,0%,0%);fill-opacity:1;" d="M 66.039062 10.664062 C 65.238281 11.0625 64.589844 11.441406 64.589844 11.519531 C 64.589844 11.695312 64.746094 11.695312 65.1875 11.519531 C 65.390625 11.441406 65.652344 11.414062 65.773438 11.457031 C 66.238281 11.617188 66.300781 12.324219 66.265625 16.960938 C 66.222656 21.203125 66.214844 21.421875 65.976562 21.609375 C 65.828125 21.714844 65.492188 21.792969 65.214844 21.792969 C 64.863281 21.792969 64.722656 21.847656 64.722656 21.988281 C 64.722656 22.164062 65.0625 22.191406 66.941406 22.191406 C 68.828125 22.191406 69.164062 22.164062 69.164062 21.988281 C 69.164062 21.863281 69.023438 21.792969 68.707031 21.792969 C 68.417969 21.792969 68.144531 21.6875 67.988281 21.527344 C 67.742188 21.28125 67.722656 21.097656 67.722656 15.601562 C 67.722656 12.480469 67.671875 9.941406 67.609375 9.941406 C 67.554688 9.941406 66.855469 10.269531 66.039062 10.664062 Z M 66.039062 10.664062 "/>
        <path style=" stroke:none;fill-rule:nonzero;fill:rgb(0%,0%,0%);fill-opacity:1;" d="M 75.167969 10.152344 C 74.289062 10.417969 73.4375 11.230469 72.894531 12.347656 C 71.515625 15.152344 71.925781 19.5 73.753906 21.386719 C 74.4375 22.09375 74.980469 22.359375 75.78125 22.359375 C 77.457031 22.359375 78.816406 20.964844 79.441406 18.617188 C 79.738281 17.492188 79.738281 14.925781 79.457031 13.804688 C 78.746094 11.097656 77 9.617188 75.167969 10.152344 Z M 76.589844 10.789062 C 77 11 77.441406 11.730469 77.648438 12.535156 C 78.125 14.316406 78.054688 18.40625 77.535156 20.117188 C 77.203125 21.203125 76.605469 21.792969 75.84375 21.792969 C 74.515625 21.792969 73.804688 19.925781 73.824219 16.457031 C 73.824219 15.363281 73.902344 14.050781 73.988281 13.511719 C 74.359375 11.195312 75.359375 10.136719 76.589844 10.789062 Z M 76.589844 10.789062 "/>
        <path style=" stroke:none;fill-rule:nonzero;fill:rgb(0%,0%,0%);fill-opacity:1;" d="M 87.207031 10.074219 C 85.601562 10.320312 84.460938 10.972656 83.179688 12.375 C 81.808594 13.882812 81.195312 15.460938 81.195312 17.492188 C 81.195312 20.621094 83.128906 22.773438 85.558594 22.304688 C 86.707031 22.09375 87.628906 21.289062 88.226562 19.949219 C 88.5 19.359375 88.570312 19.023438 88.570312 18.167969 C 88.550781 16.953125 88.359375 16.398438 87.664062 15.628906 C 86.75 14.605469 85.25 14.402344 83.820312 15.128906 L 83.152344 15.460938 L 83.230469 15.101562 C 83.277344 14.90625 83.53125 14.273438 83.8125 13.699219 C 84.644531 11.945312 86.015625 10.769531 87.636719 10.445312 C 88.085938 10.347656 88.382812 10.214844 88.382812 10.109375 C 88.382812 9.933594 88.148438 9.914062 87.207031 10.074219 Z M 85.769531 15.761719 C 87.101562 16.671875 87.496094 19.949219 86.410156 21.183594 C 84.699219 23.160156 82.53125 20.71875 82.835938 17.15625 L 82.933594 16.140625 L 83.582031 15.804688 C 84.433594 15.382812 85.199219 15.363281 85.769531 15.761719 Z M 85.769531 15.761719 "/>
        <path style=" stroke:none;fill-rule:nonzero;fill:rgb(0%,0%,0%);fill-opacity:1;" d="M 106.457031 10.164062 C 106.378906 10.292969 105.394531 12.585938 104.269531 15.277344 C 103.128906 17.949219 102.113281 20.355469 101.980469 20.613281 C 101.648438 21.265625 101.234375 21.660156 100.796875 21.757812 C 100.585938 21.792969 100.417969 21.917969 100.417969 22.003906 C 100.417969 22.144531 100.777344 22.191406 102.242188 22.191406 C 103.789062 22.191406 104.078125 22.164062 104.078125 21.988281 C 104.078125 21.863281 103.945312 21.792969 103.710938 21.792969 C 103.515625 21.792969 103.207031 21.707031 103.042969 21.582031 C 102.648438 21.308594 102.71875 20.902344 103.359375 19.367188 L 103.839844 18.238281 L 108.484375 18.238281 L 108.816406 19.050781 C 109.210938 20.003906 109.5625 20.972656 109.5625 21.148438 C 109.5625 21.414062 109.019531 21.792969 108.652344 21.792969 C 108.386719 21.792969 108.253906 21.863281 108.253906 21.988281 C 108.253906 22.164062 108.617188 22.191406 110.609375 22.191406 C 112.609375 22.191406 112.96875 22.164062 112.96875 21.988281 C 112.96875 21.871094 112.847656 21.792969 112.636719 21.792969 C 112.46875 21.792969 112.117188 21.609375 111.863281 21.398438 C 111.398438 20.972656 111.265625 20.691406 108.203125 13.300781 C 107.457031 11.492188 106.796875 9.996094 106.71875 9.96875 C 106.640625 9.941406 106.519531 10.039062 106.457031 10.164062 Z M 108.125 17.472656 C 108.125 17.542969 107.253906 17.578125 106.167969 17.578125 C 105.097656 17.578125 104.210938 17.527344 104.210938 17.464844 C 104.210938 17.410156 104.558594 16.527344 105 15.523438 C 105.4375 14.527344 105.878906 13.488281 106 13.230469 L 106.175781 12.773438 L 107.160156 15.074219 C 107.695312 16.34375 108.125 17.417969 108.125 17.472656 Z M 108.125 17.472656 "/>
        <path style=" stroke:none;fill-rule:nonzero;fill:rgb(0%,0%,0%);fill-opacity:1;" d="M 122.746094 10.683594 C 121.964844 11.070312 121.332031 11.457031 121.332031 11.539062 C 121.332031 11.625 121.449219 11.652344 121.632812 11.589844 C 122.613281 11.28125 122.835938 11.433594 122.964844 12.472656 C 123.019531 12.851562 123.035156 15.019531 123.007812 17.289062 C 122.964844 21.203125 122.957031 21.421875 122.71875 21.609375 C 122.578125 21.714844 122.238281 21.792969 121.964844 21.792969 C 121.605469 21.792969 121.464844 21.847656 121.464844 21.988281 C 121.464844 22.164062 121.808594 22.191406 123.6875 22.191406 C 125.574219 22.191406 125.90625 22.164062 125.90625 21.988281 C 125.90625 21.847656 125.765625 21.792969 125.414062 21.792969 C 124.429688 21.792969 124.476562 22.015625 124.476562 15.628906 C 124.476562 11.167969 124.429688 9.941406 124.316406 9.960938 C 124.222656 9.960938 123.519531 10.285156 122.746094 10.683594 Z M 122.746094 10.683594 "/>
        <path style=" stroke:none;fill-rule:nonzero;fill:rgb(0%,0%,0%);fill-opacity:1;" d="M 143.792969 10.082031 C 140.238281 10.613281 137.28125 14.855469 137.9375 18.503906 C 138.210938 20.109375 139.117188 21.519531 140.203125 22.085938 C 141.039062 22.507812 142.292969 22.453125 143.195312 21.960938 C 145.347656 20.804688 145.988281 17.515625 144.425781 15.648438 C 143.558594 14.617188 141.976562 14.394531 140.5625 15.101562 L 139.871094 15.445312 L 139.949219 15.117188 C 140.328125 13.644531 141.414062 11.996094 142.539062 11.203125 C 142.984375 10.902344 143.582031 10.65625 144.1875 10.496094 C 144.722656 10.363281 145.128906 10.207031 145.128906 10.101562 C 145.128906 9.933594 144.910156 9.914062 143.792969 10.082031 Z M 142.460938 15.726562 C 143.277344 16.21875 143.917969 18.238281 143.730469 19.6875 C 143.523438 21.316406 142.355469 22.253906 141.167969 21.742188 C 140.019531 21.265625 139.28125 18.953125 139.589844 16.742188 C 139.660156 16.167969 139.710938 16.089844 140.28125 15.804688 C 141.019531 15.410156 141.898438 15.382812 142.460938 15.726562 Z M 142.460938 15.726562 "/>
        <path style=" stroke:none;fill-rule:nonzero;fill:rgb(0%,0%,0%);fill-opacity:1;" d="M 149.078125 13.917969 C 146.515625 17.605469 146.304688 17.941406 146.304688 18.460938 L 146.304688 19.023438 L 151.273438 19.023438 L 151.273438 22.191406 L 152.84375 22.191406 L 152.84375 19.023438 L 154.421875 19.023438 L 154.386719 18.398438 L 154.34375 17.78125 L 153.597656 17.738281 L 152.84375 17.703125 L 152.816406 13.855469 L 152.78125 10.011719 L 152.316406 9.96875 L 151.859375 9.933594 Z M 151.273438 14.878906 L 151.273438 17.710938 L 147.234375 17.710938 L 149.21875 14.878906 C 150.324219 13.328125 151.21875 12.050781 151.246094 12.050781 C 151.261719 12.050781 151.273438 13.328125 151.273438 14.878906 Z M 151.273438 14.878906 "/>
        <path style=" stroke:none;fill-rule:nonzero;fill:rgb(0%,0%,0%);fill-opacity:1;" d="M 176.074219 10.074219 C 175.382812 10.257812 174.925781 10.523438 174.425781 11.027344 C 173.582031 11.890625 173.347656 12.773438 173.6875 13.917969 C 174.011719 15.066406 174.636719 15.601562 177.9375 17.527344 C 179.304688 18.328125 179.78125 18.925781 179.78125 19.835938 C 179.78125 20.382812 179.710938 20.558594 179.324219 20.972656 C 178.628906 21.757812 177.65625 21.960938 176.453125 21.609375 C 175.171875 21.210938 174.285156 20.214844 174.074219 18.925781 C 174.023438 18.582031 173.917969 18.371094 173.8125 18.371094 C 173.671875 18.371094 173.636719 18.769531 173.636719 20.410156 C 173.636719 22.058594 173.671875 22.453125 173.8125 22.453125 C 173.90625 22.453125 174.023438 22.332031 174.066406 22.191406 C 174.179688 21.757812 174.496094 21.742188 175.785156 22.121094 C 176.769531 22.429688 177.171875 22.480469 177.910156 22.429688 C 179.964844 22.277344 181.351562 20.964844 181.351562 19.15625 C 181.351562 17.703125 180.613281 16.820312 178.339844 15.542969 C 175.375 13.867188 174.875 13.40625 174.976562 12.402344 C 175.109375 10.921875 176.820312 10.257812 178.445312 11.070312 C 179.277344 11.492188 179.816406 12.207031 180.113281 13.308594 C 180.234375 13.777344 180.394531 14.15625 180.445312 14.15625 C 180.507812 14.15625 180.5625 13.203125 180.5625 12.050781 C 180.5625 10.894531 180.507812 9.941406 180.457031 9.941406 C 180.394531 9.941406 180.269531 10.082031 180.191406 10.269531 C 180.015625 10.683594 179.628906 10.691406 178.71875 10.339844 C 177.917969 10.019531 176.769531 9.90625 176.074219 10.074219 Z M 176.074219 10.074219 "/>
        <path style=" stroke:none;fill-rule:nonzero;fill:rgb(0%,0%,0%);fill-opacity:1;" d="M 0 10.398438 C 0 10.53125 0.132812 10.601562 0.367188 10.601562 C 0.886719 10.613281 1.738281 11.035156 2.082031 11.46875 C 2.371094 11.828125 2.371094 11.855469 2.324219 16.554688 C 2.289062 21.078125 2.273438 21.265625 2.027344 21.527344 C 1.859375 21.707031 1.554688 21.8125 1.203125 21.835938 C 0.878906 21.847656 0.648438 21.925781 0.648438 22.015625 C 0.648438 22.144531 1.167969 22.191406 2.746094 22.191406 C 4.433594 22.191406 4.835938 22.144531 4.835938 22.003906 C 4.835938 21.890625 4.667969 21.820312 4.292969 21.820312 C 3.921875 21.8125 3.660156 21.730469 3.476562 21.527344 C 3.210938 21.265625 3.203125 21.125 3.160156 17.023438 L 3.125 12.800781 L 7.003906 17.570312 C 9.136719 20.171875 10.972656 22.324219 11.078125 22.324219 C 11.21875 22.324219 11.242188 21.371094 11.242188 16.996094 C 11.242188 13.46875 11.296875 11.546875 11.382812 11.273438 C 11.558594 10.789062 11.847656 10.601562 12.472656 10.601562 C 12.796875 10.601562 12.945312 10.550781 12.945312 10.398438 C 12.945312 10.234375 12.628906 10.207031 10.847656 10.207031 C 9.074219 10.207031 8.757812 10.234375 8.757812 10.398438 C 8.757812 10.550781 8.898438 10.601562 9.285156 10.601562 C 9.671875 10.601562 9.902344 10.691406 10.128906 10.929688 L 10.460938 11.246094 L 10.460938 15.171875 C 10.445312 18.902344 10.4375 19.078125 10.226562 18.832031 C 10.109375 18.671875 8.488281 16.6875 6.617188 14.378906 L 3.230469 10.207031 L 1.625 10.207031 C 0.261719 10.207031 0 10.234375 0 10.398438 Z M 0 10.398438 "/>
        <path style=" stroke:none;fill-rule:nonzero;fill:rgb(0%,0%,0%);fill-opacity:1;" d="M 26.410156 10.390625 C 26.410156 10.507812 26.621094 10.585938 27.023438 10.636719 C 28.148438 10.761719 28.113281 10.578125 28.113281 16.210938 C 28.113281 21.105469 28.113281 21.125 27.824219 21.46875 C 27.605469 21.714844 27.375 21.8125 26.972656 21.835938 C 26.628906 21.847656 26.410156 21.925781 26.410156 22.015625 C 26.410156 22.144531 27.015625 22.191406 28.964844 22.191406 C 31.210938 22.191406 31.507812 22.164062 31.507812 21.980469 C 31.507812 21.847656 31.429688 21.792969 31.324219 21.835938 C 31.007812 21.953125 30.226562 21.679688 30.007812 21.363281 C 29.851562 21.132812 29.808594 20.613281 29.808594 18.636719 L 29.808594 16.195312 L 32.097656 18.503906 C 33.371094 19.765625 34.421875 20.9375 34.46875 21.105469 C 34.574219 21.476562 34.308594 21.792969 33.914062 21.792969 C 33.722656 21.792969 33.597656 21.871094 33.597656 21.988281 C 33.597656 22.164062 34.011719 22.191406 36.414062 22.191406 C 38.820312 22.191406 39.222656 22.164062 39.222656 21.988281 C 39.222656 21.871094 39.09375 21.792969 38.882812 21.792969 C 38.699219 21.792969 38.214844 21.636719 37.8125 21.441406 C 37.214844 21.160156 36.503906 20.542969 34.28125 18.320312 L 31.507812 15.550781 L 33.300781 13.726562 C 35.40625 11.589844 36.425781 10.761719 37.144531 10.65625 C 37.441406 10.601562 37.652344 10.496094 37.652344 10.390625 C 37.652344 10.242188 37.242188 10.207031 35.496094 10.207031 C 33.667969 10.207031 33.34375 10.234375 33.34375 10.398438 C 33.34375 10.53125 33.476562 10.601562 33.722656 10.601562 C 33.933594 10.601562 34.160156 10.691406 34.257812 10.796875 C 34.652344 11.273438 34.132812 11.945312 31.457031 14.472656 L 29.808594 16.027344 L 29.808594 13.65625 C 29.808594 10.894531 29.859375 10.761719 30.894531 10.636719 C 31.296875 10.585938 31.507812 10.507812 31.507812 10.390625 C 31.507812 10.242188 31.027344 10.207031 28.964844 10.207031 C 26.894531 10.207031 26.410156 10.242188 26.410156 10.390625 Z M 26.410156 10.390625 "/>
        <path style=" stroke:none;fill-rule:nonzero;fill:rgb(0%,0%,0%);fill-opacity:1;" d="M 39.488281 10.398438 C 39.488281 10.53125 39.621094 10.601562 39.875 10.601562 C 40.367188 10.601562 40.988281 10.902344 41.101562 11.195312 C 41.148438 11.308594 41.183594 13.601562 41.183594 16.265625 C 41.183594 21.105469 41.183594 21.125 40.902344 21.46875 C 40.671875 21.714844 40.453125 21.8125 40.050781 21.835938 C 39.707031 21.847656 39.488281 21.925781 39.488281 22.015625 C 39.488281 22.144531 40.085938 22.191406 42.03125 22.191406 C 44.246094 22.191406 44.585938 22.164062 44.585938 21.988281 C 44.585938 21.871094 44.507812 21.792969 44.429688 21.8125 C 43.902344 21.871094 43.488281 21.757812 43.199219 21.46875 L 42.875 21.132812 L 42.910156 16.113281 L 42.953125 11.097656 L 43.261719 10.851562 C 43.445312 10.710938 43.769531 10.601562 44.078125 10.601562 C 44.4375 10.601562 44.585938 10.550781 44.585938 10.398438 C 44.585938 10.234375 44.21875 10.207031 42.03125 10.207031 C 39.847656 10.207031 39.488281 10.234375 39.488281 10.398438 Z M 39.488281 10.398438 "/>
        <path style=" stroke:none;fill-rule:nonzero;fill:rgb(0%,0%,0%);fill-opacity:1;" d="M 89.957031 10.957031 C 89.957031 11.378906 89.910156 12.039062 89.875 12.402344 C 89.796875 12.976562 89.824219 13.097656 89.980469 13.097656 C 90.097656 13.097656 90.226562 12.851562 90.332031 12.453125 C 90.621094 11.328125 91.183594 11 92.835938 11 L 94.019531 11 L 93.984375 16.027344 C 93.957031 19.816406 93.90625 21.148438 93.773438 21.363281 C 93.597656 21.660156 93.265625 21.8125 92.632812 21.847656 C 92.449219 21.847656 92.308594 21.933594 92.308594 22.015625 C 92.308594 22.144531 92.894531 22.191406 94.792969 22.191406 C 96.792969 22.191406 97.277344 22.144531 97.277344 22.015625 C 97.277344 21.898438 97.117188 21.835938 96.878906 21.820312 C 96.292969 21.8125 95.984375 21.679688 95.808594 21.363281 C 95.617188 21.019531 95.492188 14.792969 95.644531 12.472656 L 95.730469 11 L 96.765625 11 C 98.441406 11 99.171875 11.457031 99.433594 12.667969 C 99.617188 13.566406 99.777344 13.074219 99.734375 11.679688 L 99.699219 10.269531 L 94.828125 10.234375 L 89.957031 10.207031 Z M 89.957031 10.957031 "/>
        <path style=" stroke:none;fill-rule:nonzero;fill:rgb(0%,0%,0%);fill-opacity:1;" d="M 130.496094 12.5625 L 129.320312 14.90625 L 130.304688 14.984375 C 131.507812 15.074219 132.796875 15.648438 133.488281 16.378906 C 134.816406 17.78125 134.867188 19.660156 133.621094 20.796875 C 132.71875 21.609375 131.671875 21.6875 130.601562 21 C 129.898438 20.542969 129.398438 20.507812 129.128906 20.886719 C 128.75 21.441406 129.292969 22.109375 130.304688 22.324219 C 131.585938 22.597656 133.183594 22.066406 134.339844 20.992188 C 135.570312 19.84375 136 17.816406 135.332031 16.300781 C 134.769531 15.019531 133.183594 13.839844 131.539062 13.488281 L 130.875 13.335938 L 131.664062 11.785156 L 135.210938 11.785156 L 135.535156 11.0625 C 135.703125 10.65625 135.851562 10.292969 135.851562 10.269531 C 135.851562 10.234375 134.902344 10.207031 133.753906 10.207031 L 131.664062 10.207031 Z M 130.496094 12.5625 "/>
        <path style=" stroke:none;fill-rule:nonzero;fill:rgb(0%,0%,0%);fill-opacity:1;" d="M 159.777344 10.398438 C 159.777344 10.550781 159.917969 10.601562 160.285156 10.601562 C 160.585938 10.601562 160.910156 10.710938 161.09375 10.851562 L 161.410156 11.097656 L 161.445312 15.832031 C 161.46875 18.425781 161.445312 20.746094 161.410156 20.972656 C 161.3125 21.492188 160.882812 21.8125 160.242188 21.835938 C 159.96875 21.847656 159.777344 21.925781 159.777344 22.015625 C 159.777344 22.277344 165.816406 22.253906 167 21.988281 C 169.378906 21.492188 170.835938 20.164062 171.476562 17.921875 C 171.792969 16.855469 171.695312 14.792969 171.292969 13.761719 C 170.730469 12.289062 169.484375 11.089844 168.097656 10.664062 C 167.097656 10.363281 165.234375 10.214844 162.367188 10.207031 C 160.136719 10.207031 159.777344 10.234375 159.777344 10.398438 Z M 166.78125 11.28125 C 168.570312 11.945312 169.722656 13.917969 169.710938 16.300781 C 169.695312 17.871094 169.1875 19.28125 168.324219 20.144531 C 167.148438 21.34375 165.796875 21.730469 163.769531 21.449219 L 163.171875 21.363281 L 163.171875 11.140625 L 163.734375 11.070312 C 164.035156 11.035156 164.429688 10.980469 164.613281 10.957031 C 165.183594 10.894531 166.105469 11.027344 166.78125 11.28125 Z M 166.78125 11.28125 "/>
        <path style=" stroke:none;fill-rule:nonzero;fill:rgb(0%,0%,0%);fill-opacity:1;" d="M 113.882812 18.109375 L 113.882812 18.769531 L 118.453125 18.769531 L 118.453125 17.445312 L 113.882812 17.445312 Z M 113.882812 18.109375 "/>
    </g>
</svg>
