<?xml version="1.0" encoding="UTF-8"?>
<svg xmlns="http://www.w3.org/2000/svg"
    xmlns:xlink="http://www.w3.org/1999/xlink" width="185px" height="32px" viewBox="0 0 182 32" version="1.1">
    <g id="surface1">
        <path style=" stroke:none;fill-rule:nonzero;fill:rgb(0%,0%,0%);fill-opacity:1;" d="M 18.292969 9.925781 C 17.207031 10.140625 15.871094 10.90625 15.128906 11.738281 C 13.90625 13.113281 13.476562 14.449219 13.578125 16.515625 C 13.683594 18.566406 14.484375 20.15625 15.960938 21.238281 C 17.054688 22.042969 17.828125 22.28125 19.410156 22.28125 C 20.632812 22.28125 20.792969 22.246094 21.671875 21.835938 C 23.292969 21.070312 24.59375 19.480469 24.996094 17.734375 C 25.195312 16.859375 25.195312 15.03125 24.996094 14.265625 C 24.195312 11.261719 21.25 9.339844 18.292969 9.925781 Z M 20.378906 10.65625 C 22.199219 11.199219 23.148438 13.113281 23.15625 16.222656 C 23.15625 19.035156 22.460938 20.59375 20.855469 21.359375 C 20.027344 21.746094 18.859375 21.804688 18.117188 21.492188 C 16.734375 20.90625 15.921875 19.519531 15.632812 17.230469 C 15.21875 14.042969 16.261719 11.351562 18.15625 10.707031 C 19.050781 10.386719 19.484375 10.386719 20.378906 10.65625 Z M 20.378906 10.65625 "/>
        <path style=" stroke:none;fill-rule:nonzero;fill:rgb(0%,0%,0%);fill-opacity:1;" d="M 49.144531 14.703125 C 46.324219 21.375 46.289062 21.4375 45.445312 21.675781 C 45.246094 21.730469 45.0625 21.835938 45.027344 21.929688 C 44.988281 22.042969 45.460938 22.089844 46.890625 22.089844 C 48.511719 22.089844 48.816406 22.058594 48.816406 21.890625 C 48.816406 21.761719 48.6875 21.691406 48.449219 21.691406 C 48.253906 21.691406 47.945312 21.597656 47.777344 21.476562 C 47.378906 21.183594 47.449219 20.660156 48.054688 19.226562 L 48.496094 18.179688 L 53.214844 18.179688 L 53.65625 19.21875 C 54.238281 20.578125 54.3125 21.085938 54.015625 21.421875 C 53.878906 21.566406 53.601562 21.691406 53.398438 21.691406 C 53.160156 21.691406 53.03125 21.761719 53.03125 21.890625 C 53.03125 22.058594 53.382812 22.089844 55.390625 22.089844 C 57.410156 22.089844 57.761719 22.058594 57.761719 21.890625 C 57.761719 21.785156 57.648438 21.691406 57.5 21.691406 C 57.339844 21.691406 57.050781 21.597656 56.828125 21.492188 C 56.316406 21.214844 55.882812 20.316406 53.488281 14.503906 C 52.417969 11.914062 51.460938 9.777344 51.378906 9.777344 C 51.285156 9.777344 50.292969 12.007812 49.144531 14.703125 Z M 51.90625 15.007812 C 52.394531 16.167969 52.816406 17.207031 52.855469 17.28125 C 52.90625 17.414062 52.472656 17.460938 50.933594 17.460938 C 49.644531 17.460938 48.949219 17.40625 48.949219 17.320312 C 48.949219 17.027344 50.859375 12.703125 50.933594 12.796875 C 50.988281 12.851562 51.425781 13.839844 51.90625 15.007812 Z M 51.90625 15.007812 "/>
        <path style=" stroke:none;fill-rule:nonzero;fill:rgb(0%,0%,0%);fill-opacity:1;" d="M 66.0625 10.507812 C 65.261719 10.90625 64.605469 11.292969 64.605469 11.367188 C 64.605469 11.539062 64.765625 11.539062 65.207031 11.367188 C 65.40625 11.292969 65.671875 11.261719 65.804688 11.300781 C 66.261719 11.460938 66.332031 12.175781 66.292969 16.835938 C 66.246094 21.09375 66.238281 21.324219 66.003906 21.507812 C 65.855469 21.613281 65.511719 21.691406 65.238281 21.691406 C 64.878906 21.691406 64.734375 21.746094 64.734375 21.890625 C 64.734375 22.058594 65.078125 22.089844 66.972656 22.089844 C 68.871094 22.089844 69.214844 22.058594 69.214844 21.890625 C 69.214844 21.761719 69.066406 21.691406 68.746094 21.691406 C 68.464844 21.691406 68.179688 21.582031 68.027344 21.421875 C 67.777344 21.175781 67.761719 20.992188 67.761719 15.46875 C 67.761719 12.335938 67.707031 9.777344 67.644531 9.777344 C 67.59375 9.777344 66.882812 10.109375 66.0625 10.507812 Z M 66.0625 10.507812 "/>
        <path style=" stroke:none;fill-rule:nonzero;fill:rgb(0%,0%,0%);fill-opacity:1;" d="M 75.023438 10.53125 C 73.59375 11.238281 73.179688 11.675781 74.265625 11.339844 C 74.726562 11.199219 74.785156 11.207031 75.015625 11.484375 C 75.253906 11.777344 75.261719 12.097656 75.261719 16.53125 C 75.261719 21.835938 75.289062 21.691406 74.304688 21.691406 C 73.960938 21.691406 73.816406 21.746094 73.816406 21.890625 C 73.816406 22.058594 74.160156 22.089844 76.054688 22.089844 C 77.949219 22.089844 78.289062 22.058594 78.289062 21.890625 C 78.289062 21.746094 78.140625 21.691406 77.789062 21.691406 C 77.429688 21.691406 77.195312 21.597656 77.027344 21.414062 C 76.789062 21.144531 76.773438 20.855469 76.773438 15.5 C 76.773438 11.859375 76.71875 9.855469 76.644531 9.832031 C 76.582031 9.816406 75.839844 10.140625 75.023438 10.53125 Z M 75.023438 10.53125 "/>
        <path style=" stroke:none;fill-rule:nonzero;fill:rgb(0%,0%,0%);fill-opacity:1;" d="M 84.539062 9.902344 C 83.433594 10.179688 82.554688 11 81.910156 12.359375 C 81.367188 13.496094 81.183594 14.464844 81.183594 16.183594 C 81.183594 18.328125 81.765625 20.085938 82.84375 21.285156 C 84.394531 23.027344 86.910156 22.367188 88.042969 19.902344 C 88.957031 17.921875 89.082031 14.972656 88.316406 12.820312 C 88.027344 11.992188 87.171875 10.785156 86.605469 10.386719 C 86.167969 10.101562 85.910156 10 85.128906 9.847656 C 85.03125 9.832031 84.761719 9.855469 84.539062 9.902344 Z M 85.910156 10.769531 C 86.773438 11.515625 87.183594 13.640625 87.0625 16.714844 C 86.949219 19.640625 86.542969 21.039062 85.65625 21.492188 C 83.84375 22.429688 82.765625 20.085938 82.933594 15.5625 C 83.011719 13.273438 83.171875 12.359375 83.660156 11.460938 C 84.210938 10.417969 85.144531 10.140625 85.910156 10.769531 Z M 85.910156 10.769531 "/>
        <path style=" stroke:none;fill-rule:nonzero;fill:rgb(0%,0%,0%);fill-opacity:1;" d="M 106.738281 10 C 106.65625 10.140625 105.667969 12.4375 104.539062 15.140625 C 103.390625 17.828125 102.367188 20.246094 102.238281 20.5 C 101.894531 21.160156 101.488281 21.5625 101.039062 21.652344 C 100.832031 21.691406 100.65625 21.804688 100.65625 21.898438 C 100.65625 22.042969 101.03125 22.089844 102.496094 22.089844 C 104.050781 22.089844 104.339844 22.058594 104.339844 21.890625 C 104.339844 21.761719 104.210938 21.691406 103.972656 21.691406 C 103.773438 21.691406 103.476562 21.597656 103.300781 21.476562 C 102.910156 21.199219 102.972656 20.792969 103.621094 19.257812 L 104.101562 18.121094 L 108.773438 18.121094 L 109.117188 18.941406 C 109.515625 19.894531 109.867188 20.871094 109.867188 21.039062 C 109.867188 21.308594 109.316406 21.691406 108.949219 21.691406 C 108.683594 21.691406 108.550781 21.761719 108.550781 21.890625 C 108.550781 22.058594 108.910156 22.089844 110.921875 22.089844 C 112.933594 22.089844 113.292969 22.058594 113.292969 21.890625 C 113.292969 21.769531 113.167969 21.691406 112.960938 21.691406 C 112.785156 21.691406 112.433594 21.507812 112.183594 21.292969 C 111.707031 20.871094 111.578125 20.578125 108.5 13.160156 C 107.75 11.339844 107.078125 9.832031 107 9.808594 C 106.921875 9.777344 106.800781 9.871094 106.738281 10 Z M 108.421875 17.351562 C 108.421875 17.414062 107.542969 17.460938 106.449219 17.460938 C 105.371094 17.460938 104.476562 17.40625 104.476562 17.335938 C 104.476562 17.28125 104.828125 16.398438 105.28125 15.394531 C 105.707031 14.386719 106.160156 13.34375 106.273438 13.089844 L 106.457031 12.628906 L 107.449219 14.941406 C 107.984375 16.214844 108.421875 17.296875 108.421875 17.351562 Z M 108.421875 17.351562 "/>
        <path style=" stroke:none;fill-rule:nonzero;fill:rgb(0%,0%,0%);fill-opacity:1;" d="M 123.128906 10.523438 C 122.34375 10.914062 121.707031 11.300781 121.707031 11.382812 C 121.707031 11.476562 121.832031 11.5 122.015625 11.4375 C 123 11.128906 123.222656 11.277344 123.351562 12.320312 C 123.40625 12.703125 123.421875 14.886719 123.398438 17.167969 C 123.351562 21.09375 123.34375 21.324219 123.105469 21.507812 C 122.960938 21.613281 122.617188 21.691406 122.34375 21.691406 C 121.984375 21.691406 121.84375 21.746094 121.84375 21.890625 C 121.84375 22.058594 122.183594 22.089844 124.078125 22.089844 C 125.972656 22.089844 126.316406 22.058594 126.316406 21.890625 C 126.316406 21.746094 126.171875 21.691406 125.8125 21.691406 C 124.828125 21.691406 124.863281 21.914062 124.863281 15.5 C 124.863281 11.007812 124.828125 9.777344 124.710938 9.792969 C 124.621094 9.792969 123.910156 10.125 123.128906 10.523438 Z M 123.128906 10.523438 "/>
        <path style=" stroke:none;fill-rule:nonzero;fill:rgb(0%,0%,0%);fill-opacity:1;" d="M 144.3125 9.925781 C 140.734375 10.453125 137.761719 14.71875 138.417969 18.382812 C 138.695312 19.992188 139.605469 21.414062 140.695312 21.984375 C 141.539062 22.40625 142.800781 22.351562 143.707031 21.859375 C 145.878906 20.699219 146.53125 17.390625 144.945312 15.507812 C 144.074219 14.480469 142.484375 14.257812 141.0625 14.972656 L 140.367188 15.308594 L 140.445312 14.976562 C 140.828125 13.496094 141.921875 11.84375 143.050781 11.054688 C 143.503906 10.746094 144.105469 10.492188 144.710938 10.339844 C 145.253906 10.203125 145.65625 10.046875 145.65625 9.941406 C 145.65625 9.761719 145.4375 9.753906 144.3125 9.925781 Z M 142.976562 15.59375 C 143.792969 16.09375 144.433594 18.121094 144.25 19.570312 C 144.039062 21.214844 142.867188 22.152344 141.667969 21.636719 C 140.511719 21.160156 139.78125 18.835938 140.078125 16.605469 C 140.160156 16.039062 140.207031 15.960938 140.773438 15.667969 C 141.53125 15.269531 142.410156 15.246094 142.976562 15.59375 Z M 142.976562 15.59375 "/>
        <path style=" stroke:none;fill-rule:nonzero;fill:rgb(0%,0%,0%);fill-opacity:1;" d="M 176.800781 9.910156 C 176.105469 10.101562 175.648438 10.363281 175.144531 10.863281 C 174.285156 11.738281 174.050781 12.628906 174.394531 13.78125 C 174.722656 14.925781 175.355469 15.46875 178.675781 17.40625 C 180.050781 18.210938 180.523438 18.804688 180.523438 19.71875 C 180.523438 20.277344 180.464844 20.445312 180.066406 20.871094 C 179.371094 21.652344 178.390625 21.859375 177.183594 21.507812 C 175.890625 21.109375 174.996094 20.101562 174.792969 18.804688 C 174.738281 18.457031 174.628906 18.25 174.523438 18.25 C 174.378906 18.25 174.339844 18.648438 174.339844 20.300781 C 174.339844 21.953125 174.378906 22.351562 174.523438 22.351562 C 174.617188 22.351562 174.738281 22.238281 174.777344 22.089844 C 174.898438 21.652344 175.210938 21.636719 176.511719 22.023438 C 178.882812 22.71875 180.707031 22.222656 181.726562 20.5625 C 182.039062 20.0625 182.078125 18.171875 181.785156 17.597656 C 181.472656 16.992188 180.515625 16.214844 179.078125 15.402344 C 176.089844 13.726562 175.59375 13.257812 175.699219 12.25 C 175.832031 10.761719 177.550781 10.101562 179.1875 10.914062 C 180.027344 11.339844 180.5625 12.058594 180.867188 13.164062 C 180.984375 13.632812 181.144531 14.019531 181.199219 14.019531 C 181.265625 14.019531 181.3125 13.058594 181.3125 11.898438 C 181.3125 10.730469 181.265625 9.777344 181.210938 9.777344 C 181.144531 9.777344 181.027344 9.925781 180.945312 10.109375 C 180.761719 10.523438 180.378906 10.53125 179.460938 10.179688 C 178.660156 9.855469 177.496094 9.742188 176.800781 9.910156 Z M 176.800781 9.910156 "/>
        <path style=" stroke:none;fill-rule:nonzero;fill:rgb(0%,0%,0%);fill-opacity:1;" d="M 0 10.214844 C 0 10.308594 0.289062 10.476562 0.640625 10.617188 C 1.015625 10.746094 1.445312 11.023438 1.644531 11.246094 L 1.988281 11.660156 L 1.949219 16.40625 C 1.910156 20.976562 1.894531 21.160156 1.644531 21.421875 C 1.476562 21.597656 1.167969 21.707031 0.816406 21.730469 C 0.488281 21.746094 0.261719 21.820312 0.261719 21.914062 C 0.261719 22.042969 0.78125 22.089844 2.371094 22.089844 C 4.066406 22.089844 4.472656 22.042969 4.472656 21.898438 C 4.472656 21.785156 4.304688 21.714844 3.921875 21.714844 C 3.554688 21.707031 3.289062 21.621094 3.105469 21.421875 C 2.84375 21.160156 2.828125 21.015625 2.789062 16.898438 L 2.753906 12.652344 L 6.660156 17.445312 C 8.804688 20.0625 10.640625 22.222656 10.75 22.222656 C 10.894531 22.222656 10.925781 21.269531 10.925781 16.875 C 10.925781 13.328125 10.976562 11.390625 11.070312 11.113281 C 11.238281 10.625 11.527344 10.4375 12.15625 10.4375 C 12.484375 10.4375 12.628906 10.386719 12.628906 10.238281 C 12.628906 10.070312 12.316406 10.046875 10.527344 10.046875 C 8.738281 10.046875 8.425781 10.070312 8.425781 10.238281 C 8.425781 10.386719 8.570312 10.4375 8.945312 10.4375 C 9.339844 10.4375 9.5625 10.53125 9.800781 10.769531 L 10.128906 11.09375 L 10.128906 15.03125 C 10.121094 18.78125 10.105469 18.964844 9.890625 18.710938 C 9.777344 18.558594 8.140625 16.554688 6.261719 14.242188 L 2.859375 10.046875 L 1.4375 10.046875 C 0.367188 10.046875 0 10.085938 0 10.214844 Z M 0 10.214844 "/>
        <path style=" stroke:none;fill-rule:nonzero;fill:rgb(0%,0%,0%);fill-opacity:1;" d="M 26.183594 10.230469 C 26.183594 10.347656 26.394531 10.433594 26.800781 10.476562 C 27.933594 10.601562 27.894531 10.417969 27.894531 16.078125 C 27.894531 21 27.894531 21.015625 27.605469 21.359375 C 27.382812 21.613281 27.160156 21.707031 26.75 21.730469 C 26.410156 21.746094 26.183594 21.820312 26.183594 21.914062 C 26.183594 22.042969 26.785156 22.089844 28.75 22.089844 C 31.015625 22.089844 31.320312 22.058594 31.320312 21.875 C 31.320312 21.746094 31.234375 21.691406 31.128906 21.730469 C 30.816406 21.851562 30.027344 21.566406 29.804688 21.253906 C 29.644531 21.03125 29.605469 20.5 29.605469 18.511719 L 29.605469 16.070312 L 31.90625 18.382812 C 33.183594 19.65625 34.246094 20.832031 34.292969 21 C 34.390625 21.375 34.132812 21.691406 33.734375 21.691406 C 33.535156 21.691406 33.421875 21.769531 33.421875 21.890625 C 33.421875 22.058594 33.828125 22.089844 36.25 22.089844 C 38.671875 22.089844 39.078125 22.058594 39.078125 21.890625 C 39.078125 21.769531 38.949219 21.691406 38.734375 21.691406 C 38.550781 21.691406 38.070312 21.53125 37.65625 21.332031 C 37.054688 21.054688 36.34375 20.433594 34.101562 18.195312 L 31.320312 15.417969 L 33.117188 13.582031 C 35.234375 11.4375 36.265625 10.601562 36.984375 10.492188 C 37.289062 10.4375 37.496094 10.339844 37.496094 10.230469 C 37.496094 10.085938 37.074219 10.046875 35.324219 10.046875 C 33.492188 10.046875 33.152344 10.070312 33.152344 10.238281 C 33.152344 10.378906 33.292969 10.4375 33.535156 10.4375 C 33.75 10.4375 33.988281 10.53125 34.078125 10.640625 C 34.476562 11.113281 33.957031 11.792969 31.265625 14.332031 L 29.605469 15.890625 L 29.605469 13.511719 C 29.605469 10.730469 29.660156 10.601562 30.699219 10.476562 C 31.105469 10.433594 31.320312 10.347656 31.320312 10.230469 C 31.320312 10.085938 30.832031 10.046875 28.75 10.046875 C 26.671875 10.046875 26.183594 10.085938 26.183594 10.230469 Z M 26.183594 10.230469 "/>
        <path style=" stroke:none;fill-rule:nonzero;fill:rgb(0%,0%,0%);fill-opacity:1;" d="M 39.339844 10.238281 C 39.339844 10.378906 39.476562 10.4375 39.734375 10.4375 C 40.226562 10.4375 40.851562 10.746094 40.972656 11.039062 C 41.011719 11.152344 41.050781 13.457031 41.050781 16.128906 C 41.050781 21 41.050781 21.015625 40.761719 21.359375 C 40.539062 21.613281 40.316406 21.707031 39.902344 21.730469 C 39.566406 21.746094 39.339844 21.820312 39.339844 21.914062 C 39.339844 22.042969 39.949219 22.089844 41.90625 22.089844 C 44.132812 22.089844 44.476562 22.058594 44.476562 21.890625 C 44.476562 21.769531 44.390625 21.691406 44.316406 21.707031 C 43.789062 21.769531 43.367188 21.652344 43.078125 21.359375 L 42.746094 21.03125 L 42.785156 15.984375 L 42.832031 10.945312 L 43.144531 10.691406 C 43.328125 10.546875 43.65625 10.4375 43.964844 10.4375 C 44.332031 10.4375 44.476562 10.386719 44.476562 10.238281 C 44.476562 10.070312 44.109375 10.046875 41.90625 10.046875 C 39.714844 10.046875 39.339844 10.070312 39.339844 10.238281 Z M 39.339844 10.238281 "/>
        <path style=" stroke:none;fill-rule:nonzero;fill:rgb(0%,0%,0%);fill-opacity:1;" d="M 90.128906 10.800781 C 90.128906 11.222656 90.089844 11.882812 90.050781 12.25 C 89.976562 12.820312 90 12.957031 90.160156 12.957031 C 90.273438 12.957031 90.410156 12.703125 90.511719 12.304688 C 90.800781 11.167969 91.367188 10.839844 93.027344 10.839844 L 94.226562 10.839844 L 94.1875 15.890625 C 94.15625 19.703125 94.105469 21.039062 93.972656 21.253906 C 93.804688 21.5625 93.460938 21.707031 92.828125 21.746094 C 92.644531 21.746094 92.5 21.835938 92.5 21.914062 C 92.5 22.042969 93.09375 22.089844 95 22.089844 C 97.015625 22.089844 97.496094 22.042969 97.496094 21.914062 C 97.496094 21.796875 97.34375 21.730469 97.109375 21.714844 C 96.511719 21.707031 96.199219 21.566406 96.03125 21.253906 C 95.832031 20.90625 95.710938 14.648438 95.855469 12.320312 L 95.945312 10.839844 L 96.984375 10.839844 C 98.667969 10.839844 99.410156 11.300781 99.667969 12.519531 C 99.851562 13.417969 100.011719 12.929688 99.976562 11.53125 L 99.9375 10.109375 L 95.035156 10.070312 L 90.128906 10.046875 Z M 90.128906 10.800781 "/>
        <path style=" stroke:none;fill-rule:nonzero;fill:rgb(0%,0%,0%);fill-opacity:1;" d="M 130.933594 12.414062 L 129.75 14.769531 L 130.734375 14.847656 C 131.945312 14.941406 133.25 15.507812 133.945312 16.253906 C 135.277344 17.652344 135.332031 19.546875 134.078125 20.683594 C 133.175781 21.507812 132.121094 21.582031 131.042969 20.898438 C 130.332031 20.433594 129.828125 20.394531 129.550781 20.777344 C 129.167969 21.332031 129.726562 22.007812 130.734375 22.222656 C 132.027344 22.496094 133.632812 21.96875 134.804688 20.886719 C 136.042969 19.734375 136.476562 17.699219 135.804688 16.167969 C 135.238281 14.886719 133.632812 13.695312 131.988281 13.34375 L 131.316406 13.195312 L 131.707031 12.414062 L 132.105469 11.628906 L 135.675781 11.628906 L 136.003906 10.90625 C 136.171875 10.492188 136.316406 10.140625 136.316406 10.109375 C 136.316406 10.070312 135.367188 10.046875 134.214844 10.046875 L 132.105469 10.046875 Z M 130.933594 12.414062 "/>
        <path style=" stroke:none;fill-rule:nonzero;fill:rgb(0%,0%,0%);fill-opacity:1;" d="M 147.828125 11.382812 C 147.539062 12.121094 147.285156 12.78125 147.261719 12.835938 C 147.140625 13.144531 147.609375 12.90625 147.804688 12.574219 C 147.921875 12.359375 148.25 12.042969 148.523438 11.867188 C 148.976562 11.589844 149.183594 11.566406 151.15625 11.53125 C 152.332031 11.5 153.289062 11.53125 153.289062 11.589844 C 153.289062 11.660156 152.523438 14.066406 151.582031 16.953125 C 150.640625 19.839844 149.871094 22.238281 149.871094 22.28125 C 149.871094 22.328125 150.09375 22.351562 150.351562 22.328125 L 150.824219 22.28125 L 152.789062 16.398438 C 153.851562 13.160156 154.738281 10.402344 154.738281 10.285156 C 154.738281 10.054688 154.503906 10.046875 151.535156 10.046875 L 148.355469 10.046875 Z M 147.828125 11.382812 "/>
        <path style=" stroke:none;fill-rule:nonzero;fill:rgb(0%,0%,0%);fill-opacity:1;" d="M 160.398438 10.238281 C 160.398438 10.386719 160.542969 10.4375 160.910156 10.4375 C 161.207031 10.4375 161.535156 10.546875 161.726562 10.691406 L 162.039062 10.945312 L 162.078125 15.691406 C 162.109375 18.304688 162.078125 20.632812 162.039062 20.871094 C 161.949219 21.382812 161.511719 21.707031 160.871094 21.730469 C 160.59375 21.746094 160.398438 21.820312 160.398438 21.914062 C 160.398438 22.183594 166.472656 22.152344 167.675781 21.890625 C 170.066406 21.382812 171.527344 20.046875 172.167969 17.796875 C 172.492188 16.730469 172.398438 14.648438 171.984375 13.617188 C 171.421875 12.136719 170.175781 10.929688 168.773438 10.507812 C 167.765625 10.203125 165.894531 10.054688 163.003906 10.046875 C 160.761719 10.046875 160.398438 10.070312 160.398438 10.238281 Z M 167.445312 11.128906 C 169.25 11.792969 170.410156 13.78125 170.394531 16.167969 C 170.378906 17.742188 169.867188 19.164062 168.996094 20.039062 C 167.820312 21.238281 166.457031 21.621094 164.417969 21.34375 L 163.8125 21.253906 L 163.8125 10.984375 L 164.378906 10.914062 C 164.683594 10.878906 165.082031 10.824219 165.265625 10.800781 C 165.839844 10.730469 166.765625 10.863281 167.445312 11.128906 Z M 167.445312 11.128906 "/>
        <path style=" stroke:none;fill-rule:nonzero;fill:rgb(0%,0%,0%);fill-opacity:1;" d="M 114.207031 17.980469 L 114.207031 18.648438 L 118.816406 18.648438 L 118.816406 17.320312 L 114.207031 17.320312 Z M 114.207031 17.980469 "/>
    </g>
</svg>
