<?xml version="1.0" encoding="UTF-8"?>
<svg xmlns="http://www.w3.org/2000/svg" xmlns:xlink="http://www.w3.org/1999/xlink" width="185px" height="32px" viewBox="0 0 182 32" version="1.1">
<g id="surface1">
<path style=" stroke:none;fill-rule:nonzero;fill:rgb(0%,0%,0%);fill-opacity:1;" d="M 25.25 13.300781 C 22.855469 14.125 21.597656 16 21.558594 18.730469 C 21.558594 22.175781 24.03125 24.660156 27.105469 24.269531 C 29.5 23.980469 31.261719 22.019531 31.53125 19.324219 C 31.855469 16.105469 29.824219 13.410156 26.960938 13.214844 C 26.300781 13.160156 25.542969 13.214844 25.25 13.300781 Z M 28.53125 14.5 C 29.355469 15.300781 29.824219 16.875 29.824219 18.824219 C 29.847656 20.769531 29.515625 21.875 28.671875 22.824219 C 27.785156 23.769531 26.683594 24.035156 25.542969 23.589844 C 24.460938 23.175781 23.976562 22.519531 23.519531 20.839844 C 22.804688 18.355469 23.464844 15.160156 24.917969 14.175781 C 25.894531 13.519531 27.695312 13.675781 28.53125 14.5 Z M 28.53125 14.5 "/>
<path style=" stroke:none;fill-rule:nonzero;fill:rgb(0%,0%,0%);fill-opacity:1;" d="M 53.714844 14.089844 C 53.480469 14.660156 52.597656 16.824219 51.742188 18.875 C 50.191406 22.699219 49.628906 23.699219 49.089844 23.699219 C 48.929688 23.699219 48.804688 23.785156 48.804688 23.910156 C 48.804688 24.035156 49.503906 24.125 50.488281 24.125 C 51.492188 24.125 52.097656 24.035156 51.992188 23.925781 C 51.867188 23.839844 51.59375 23.699219 51.382812 23.660156 C 50.78125 23.550781 50.746094 23 51.292969 21.699219 L 51.761719 20.535156 L 55.796875 20.535156 L 56.199219 21.519531 C 56.78125 22.894531 56.78125 23.339844 56.234375 23.589844 C 55.382812 23.980469 55.769531 24.125 57.722656 24.125 C 58.792969 24.125 59.664062 24.089844 59.664062 24.019531 C 59.664062 23.964844 59.433594 23.800781 59.15625 23.699219 C 58.546875 23.464844 58.296875 22.964844 56.1875 17.675781 C 55.257812 15.339844 54.417969 13.355469 54.316406 13.25 C 54.210938 13.144531 53.964844 13.480469 53.714844 14.089844 Z M 54.738281 17.785156 L 55.519531 19.785156 L 53.902344 19.855469 C 52.988281 19.894531 52.21875 19.875 52.148438 19.839844 C 52.113281 19.785156 52.460938 18.824219 52.933594 17.699219 C 53.40625 16.574219 53.804688 15.675781 53.839844 15.730469 C 53.902344 15.75 54.28125 16.675781 54.738281 17.785156 Z M 54.738281 17.785156 "/>
<path style=" stroke:none;fill-rule:nonzero;fill:rgb(0%,0%,0%);fill-opacity:1;" d="M 66.898438 13.75 C 66.175781 14.089844 65.601562 14.410156 65.601562 14.480469 C 65.601562 14.519531 65.882812 14.535156 66.253906 14.519531 C 66.792969 14.5 66.933594 14.605469 67.058594 15.019531 C 67.269531 15.800781 67.269531 22.925781 67.058594 23.269531 C 66.953125 23.425781 66.597656 23.675781 66.28125 23.839844 C 65.765625 24.074219 65.9375 24.089844 67.757812 24.089844 C 69.695312 24.089844 69.765625 24.089844 69.15625 23.785156 L 68.476562 23.5 L 68.476562 18.300781 C 68.476562 15.449219 68.398438 13.125 68.335938 13.125 C 68.226562 13.125 67.597656 13.394531 66.898438 13.75 Z M 66.898438 13.75 "/>
<path style=" stroke:none;fill-rule:nonzero;fill:rgb(0%,0%,0%);fill-opacity:1;" d="M 74.1875 13.605469 C 73.773438 13.875 73.246094 14.605469 72.871094 15.339844 C 72.316406 16.480469 72.265625 16.769531 72.265625 18.714844 C 72.265625 20.660156 72.316406 20.949219 72.871094 22.125 C 73.523438 23.464844 74.519531 24.339844 75.390625 24.339844 C 76.300781 24.339844 77.421875 23.5 78.011719 22.355469 C 78.523438 21.394531 78.609375 21 78.679688 18.980469 C 78.75 16.769531 78.730469 16.660156 78.117188 15.339844 C 77.082031 13.230469 75.65625 12.574219 74.1875 13.605469 Z M 76.769531 14.730469 C 77.105469 15.449219 77.171875 15.980469 77.171875 18.730469 C 77.171875 21.480469 77.105469 22.019531 76.769531 22.75 C 76.210938 23.875 75.429688 24.199219 74.769531 23.535156 C 73.800781 22.605469 73.367188 19.519531 73.773438 16.769531 C 74.046875 14.949219 74.453125 14.019531 75.074219 13.785156 C 75.773438 13.5 76.320312 13.824219 76.769531 14.730469 Z M 76.769531 14.730469 "/>
<path style=" stroke:none;fill-rule:nonzero;fill:rgb(0%,0%,0%);fill-opacity:1;" d="M 104.113281 17.925781 C 102.140625 22.75 101.640625 23.699219 101.117188 23.699219 C 100.957031 23.699219 100.824219 23.785156 100.824219 23.910156 C 100.824219 24.035156 101.484375 24.125 102.355469 24.125 C 103.195312 24.125 103.898438 24.035156 103.898438 23.925781 C 103.898438 23.839844 103.707031 23.699219 103.441406 23.660156 C 102.796875 23.574219 102.761719 22.894531 103.304688 21.605469 L 103.738281 20.535156 L 107.796875 20.535156 L 108.121094 21.300781 C 108.289062 21.75 108.492188 22.425781 108.546875 22.785156 C 108.648438 23.410156 108.601562 23.519531 108.074219 23.75 C 107.480469 24 107.5 24.019531 108.566406 24.089844 C 109.140625 24.125 110.125 24.125 110.714844 24.089844 C 111.710938 24.019531 111.742188 24 111.273438 23.769531 C 110.996094 23.644531 110.640625 23.410156 110.511719 23.230469 C 110.386719 23.074219 109.578125 21.175781 108.722656 19.019531 C 106.535156 13.605469 106.335938 13.125 106.164062 13.125 C 106.121094 13.125 105.167969 15.285156 104.113281 17.925781 Z M 105.890625 19.855469 C 104.984375 19.894531 104.210938 19.875 104.140625 19.800781 C 104.078125 19.699219 104.261719 19.105469 105.347656 16.644531 L 105.789062 15.589844 L 106.640625 17.699219 L 107.5 19.785156 Z M 105.890625 19.855469 "/>
<path style=" stroke:none;fill-rule:nonzero;fill:rgb(0%,0%,0%);fill-opacity:1;" d="M 120.148438 13.75 C 119.433594 14.089844 118.855469 14.410156 118.855469 14.480469 C 118.855469 14.519531 119.136719 14.535156 119.507812 14.519531 C 120.046875 14.5 120.1875 14.605469 120.3125 15.019531 C 120.515625 15.800781 120.515625 22.925781 120.3125 23.269531 C 120.207031 23.425781 119.851562 23.675781 119.523438 23.839844 C 119.011719 24.074219 119.175781 24.089844 121.015625 24.089844 C 122.941406 24.089844 123.015625 24.089844 122.386719 23.785156 L 121.726562 23.5 L 121.726562 18.300781 C 121.726562 15.449219 121.65625 13.125 121.589844 13.125 C 121.480469 13.125 120.828125 13.394531 120.148438 13.75 Z M 120.148438 13.75 "/>
<path style=" stroke:none;fill-rule:nonzero;fill:rgb(0%,0%,0%);fill-opacity:1;" d="M 166.054688 13.410156 C 164.636719 14.050781 163.980469 15.730469 164.667969 17.074219 C 164.976562 17.699219 165.542969 18.199219 167.109375 19.199219 C 169.402344 20.675781 169.855469 21.160156 169.855469 22.050781 C 169.855469 23.050781 169.046875 23.699219 167.851562 23.699219 C 166.328125 23.699219 165.523438 23.074219 164.851562 21.375 C 164.558594 20.660156 164.558594 20.675781 164.546875 22.519531 C 164.527344 24.199219 164.558594 24.375 164.808594 24.019531 C 165.085938 23.625 165.136719 23.625 166.203125 23.980469 C 167.671875 24.464844 168.492188 24.425781 169.59375 23.894531 C 170.328125 23.535156 170.605469 23.214844 170.910156 22.480469 C 171.285156 21.644531 171.304688 21.410156 171.082031 20.675781 C 170.765625 19.589844 170.273438 19.105469 168.367188 18.035156 C 166.519531 16.949219 165.542969 16.089844 165.542969 15.449219 C 165.542969 15.199219 165.820312 14.714844 166.132812 14.375 C 166.816406 13.675781 167.671875 13.574219 168.597656 14.050781 C 169.34375 14.480469 169.683594 14.894531 170.105469 16.074219 L 170.417969 17.035156 L 170.445312 15.050781 C 170.464844 13.300781 170.417969 13.105469 170.183594 13.449219 C 169.925781 13.800781 169.875 13.800781 168.933594 13.464844 C 167.746094 13.050781 166.90625 13.035156 166.054688 13.410156 Z M 166.054688 13.410156 "/>
<path style=" stroke:none;fill-rule:nonzero;fill:rgb(0%,0%,0%);fill-opacity:1;" d="M 10.203125 13.730469 C 11.582031 14.375 11.554688 14.300781 11.496094 19.074219 L 11.429688 23.394531 L 10.714844 23.75 L 9.992188 24.125 L 11.851562 24.125 C 13.613281 24.105469 13.664062 24.105469 13.03125 23.800781 C 12.65625 23.644531 12.316406 23.324219 12.25 23.019531 C 12.191406 22.75 12.175781 21 12.191406 19.105469 L 12.25 15.675781 L 15.605469 20.019531 C 17.472656 22.394531 19.039062 24.339844 19.144531 24.339844 C 19.246094 24.339844 19.351562 21.980469 19.359375 19.105469 L 19.414062 13.910156 L 20.132812 13.625 C 20.8125 13.375 20.707031 13.375 18.90625 13.375 C 17.113281 13.375 17.023438 13.375 17.683594 13.625 C 18.625 13.980469 18.734375 14.519531 18.664062 18.355469 L 18.609375 21.449219 L 15.449219 17.394531 L 12.261719 13.339844 L 10.835938 13.355469 L 9.378906 13.355469 Z M 10.203125 13.730469 "/>
<path style=" stroke:none;fill-rule:nonzero;fill:rgb(0%,0%,0%);fill-opacity:1;" d="M 33.046875 13.625 C 33.484375 13.800781 33.800781 14.074219 33.890625 14.410156 C 33.953125 14.699219 34.019531 16.644531 34.019531 18.730469 C 34.019531 20.824219 33.953125 22.769531 33.890625 23.050781 C 33.800781 23.394531 33.484375 23.660156 33.046875 23.839844 C 32.382812 24.074219 32.554688 24.089844 34.671875 24.089844 C 36.804688 24.089844 36.980469 24.074219 36.316406 23.839844 C 35.792969 23.625 35.566406 23.410156 35.476562 22.949219 C 35.261719 22.035156 35.261719 18.839844 35.457031 18.839844 C 35.703125 18.839844 39.597656 22.964844 39.597656 23.214844 C 39.597656 23.339844 39.390625 23.589844 39.140625 23.769531 C 38.691406 24.089844 38.832031 24.105469 41.085938 24.105469 C 43.355469 24.125 44.199219 23.894531 42.886719 23.644531 C 42.207031 23.5 40.511719 22.050781 38.359375 19.800781 L 36.839844 18.175781 L 39.015625 15.980469 C 40.332031 14.644531 41.34375 13.75 41.625 13.75 C 41.851562 13.75 42.101562 13.644531 42.152344 13.550781 C 42.234375 13.410156 41.613281 13.339844 40.367188 13.355469 C 38.867188 13.355469 38.570312 13.410156 38.9375 13.589844 C 39.175781 13.714844 39.390625 13.964844 39.390625 14.160156 C 39.390625 14.5 35.738281 18.410156 35.441406 18.410156 C 35.261719 18.410156 35.300781 15.394531 35.476562 14.519531 C 35.566406 14.050781 35.792969 13.839844 36.316406 13.625 C 36.980469 13.394531 36.804688 13.375 34.671875 13.375 C 32.554688 13.375 32.382812 13.394531 33.046875 13.625 Z M 33.046875 13.625 "/>
<path style=" stroke:none;fill-rule:nonzero;fill:rgb(0%,0%,0%);fill-opacity:1;" d="M 44.503906 13.714844 L 45.230469 14.074219 L 45.230469 23.394531 L 44.503906 23.75 L 43.792969 24.125 L 46.046875 24.105469 C 48.023438 24.089844 48.234375 24.074219 47.722656 23.839844 C 47.398438 23.675781 47.046875 23.425781 46.941406 23.269531 C 46.726562 22.875 46.726562 14.589844 46.941406 14.199219 C 47.046875 14.035156 47.398438 13.785156 47.722656 13.625 C 48.234375 13.394531 48.023438 13.375 46.046875 13.355469 L 43.792969 13.339844 Z M 44.503906 13.714844 "/>
<path style=" stroke:none;fill-rule:nonzero;fill:rgb(0%,0%,0%);fill-opacity:1;" d="M 81.507812 15.339844 C 80.867188 16.730469 80.636719 17.394531 80.792969 17.449219 C 80.953125 17.5 81.441406 17.589844 81.863281 17.644531 C 83.03125 17.824219 84.117188 18.644531 84.660156 19.785156 C 85.238281 21 85.078125 21.949219 84.222656 22.855469 C 83.515625 23.574219 82.347656 23.730469 81.664062 23.175781 C 80.703125 22.425781 79.601562 23.175781 80.53125 23.964844 C 81.597656 24.824219 83.960938 24.144531 85.148438 22.589844 C 85.984375 21.480469 86.125 19.675781 85.472656 18.480469 C 84.96875 17.550781 83.730469 16.605469 82.542969 16.269531 L 81.769531 16.074219 L 82.144531 15.394531 C 82.503906 14.730469 82.5625 14.714844 84.074219 14.644531 C 85.496094 14.589844 85.636719 14.535156 85.859375 14.050781 C 85.984375 13.75 86.089844 13.480469 86.089844 13.449219 C 86.089844 13.375 85.28125 13.339844 84.285156 13.339844 L 82.503906 13.339844 Z M 81.507812 15.339844 "/>
<path style=" stroke:none;fill-rule:nonzero;fill:rgb(0%,0%,0%);fill-opacity:1;" d="M 91.625 14.644531 C 91.652344 15.980469 91.652344 15.980469 91.945312 15.300781 C 92.332031 14.375 92.953125 13.964844 94.109375 13.964844 L 95.085938 13.964844 L 95.085938 18.550781 C 95.085938 21.105469 95.019531 23.285156 94.933594 23.410156 C 94.851562 23.535156 94.53125 23.75 94.179688 23.875 C 93.652344 24.035156 93.96875 24.089844 95.804688 24.089844 C 97.804688 24.089844 98.007812 24.074219 97.484375 23.839844 C 97.167969 23.675781 96.824219 23.425781 96.71875 23.269531 C 96.613281 23.089844 96.527344 20.925781 96.527344 18.425781 L 96.527344 13.925781 L 97.757812 14.019531 C 99.054688 14.089844 99.8125 14.550781 99.8125 15.269531 C 99.8125 15.464844 99.917969 15.699219 100.015625 15.769531 C 100.230469 15.910156 100.296875 14.589844 100.085938 13.800781 C 99.960938 13.339844 99.945312 13.339844 95.785156 13.339844 L 91.609375 13.339844 Z M 91.625 14.644531 "/>
<path style=" stroke:none;fill-rule:nonzero;fill:rgb(0%,0%,0%);fill-opacity:1;" d="M 126.988281 15.339844 C 126.320312 16.730469 126.105469 17.394531 126.265625 17.449219 C 126.40625 17.5 126.902344 17.589844 127.332031 17.644531 C 128.5 17.824219 129.589844 18.644531 130.113281 19.785156 C 130.691406 21 130.550781 21.949219 129.695312 22.855469 C 129 23.574219 127.820312 23.730469 127.121094 23.175781 C 126.167969 22.425781 125.085938 23.175781 126 23.964844 C 127.074219 24.824219 129.414062 24.144531 130.597656 22.589844 C 131.4375 21.480469 131.59375 19.675781 130.9375 18.480469 C 130.445312 17.550781 129.191406 16.605469 128.003906 16.269531 L 127.226562 16.074219 L 127.601562 15.394531 C 127.964844 14.730469 128.035156 14.714844 129.539062 14.644531 C 130.953125 14.589844 131.097656 14.535156 131.316406 14.050781 C 131.4375 13.75 131.546875 13.480469 131.546875 13.449219 C 131.546875 13.375 130.757812 13.339844 129.746094 13.339844 L 127.964844 13.339844 Z M 126.988281 15.339844 "/>
<path style=" stroke:none;fill-rule:nonzero;fill:rgb(0%,0%,0%);fill-opacity:1;" d="M 134.761719 15.339844 C 134.113281 16.730469 133.890625 17.394531 134.046875 17.449219 C 134.1875 17.5 134.6875 17.589844 135.113281 17.644531 C 136.285156 17.824219 137.371094 18.644531 137.886719 19.785156 C 138.472656 21 138.328125 21.949219 137.472656 22.855469 C 136.769531 23.574219 135.597656 23.730469 134.898438 23.175781 C 133.941406 22.425781 132.855469 23.175781 133.785156 23.964844 C 134.851562 24.824219 137.207031 24.144531 138.398438 22.589844 C 139.238281 21.480469 139.378906 19.675781 138.707031 18.480469 C 138.222656 17.550781 136.984375 16.605469 135.789062 16.269531 L 135.007812 16.074219 L 135.375 15.394531 C 135.738281 14.730469 135.808594 14.714844 137.332031 14.644531 C 138.753906 14.589844 138.882812 14.535156 139.113281 14.050781 C 139.238281 13.75 139.34375 13.480469 139.34375 13.449219 C 139.34375 13.375 138.539062 13.339844 137.527344 13.339844 L 135.738281 13.339844 Z M 134.761719 15.339844 "/>
<path style=" stroke:none;fill-rule:nonzero;fill:rgb(0%,0%,0%);fill-opacity:1;" d="M 141.613281 14.375 C 141.035156 15.75 141.054688 16.035156 141.667969 15.300781 C 142.136719 14.730469 142.261719 14.714844 144.234375 14.644531 C 145.375 14.605469 146.296875 14.605469 146.296875 14.644531 C 146.296875 14.699219 145.617188 16.894531 144.78125 19.535156 C 143.359375 24.089844 143.308594 24.339844 143.710938 24.339844 C 144.113281 24.339844 144.320312 23.75 145.792969 19.125 C 146.679688 16.269531 147.453125 13.800781 147.484375 13.625 C 147.539062 13.375 147.097656 13.339844 144.796875 13.339844 L 142.03125 13.339844 Z M 141.613281 14.375 "/>
<path style=" stroke:none;fill-rule:nonzero;fill:rgb(0%,0%,0%);fill-opacity:1;" d="M 153.066406 13.699219 L 153.777344 14.074219 L 153.777344 23.394531 L 153.066406 23.769531 C 152.347656 24.144531 152.347656 24.144531 155.71875 24.089844 C 159.070312 24.019531 159.089844 24.019531 160.226562 23.355469 C 161.796875 22.425781 162.539062 21.175781 162.640625 19.214844 C 162.746094 17.375 162.414062 16.125 161.542969 15.074219 C 160.441406 13.714844 159.617188 13.480469 155.71875 13.394531 C 152.367188 13.300781 152.347656 13.300781 153.066406 13.699219 Z M 158.792969 14.394531 C 161.867188 16.019531 161.796875 21.550781 158.6875 23.230469 C 158.0625 23.574219 155.980469 23.675781 155.566406 23.410156 C 155.191406 23.175781 155.210938 14.269531 155.574219 14.125 C 156.226562 13.839844 158.023438 13.980469 158.792969 14.394531 Z M 158.792969 14.394531 "/>
<path style=" stroke:none;fill-rule:nonzero;fill:rgb(0%,0%,0%);fill-opacity:1;" d="M 112.5 20.425781 C 112.5 20.949219 112.5 20.949219 114.457031 20.949219 C 116.398438 20.949219 116.398438 20.949219 116.398438 20.425781 C 116.398438 19.894531 116.398438 19.894531 114.457031 19.894531 C 112.5 19.894531 112.5 19.894531 112.5 20.425781 Z M 112.5 20.425781 "/>
</g>
</svg>
