<?xml version="1.0" encoding="UTF-8"?>
<svg xmlns="http://www.w3.org/2000/svg" xmlns:xlink="http://www.w3.org/1999/xlink" width="120px" height="56px" viewBox="0 0 120 56" version="1.1">
<g id="surface1">
<path style=" stroke:none;fill-rule:evenodd;fill:rgb(99.607843%,99.607843%,99.607843%);fill-opacity:1;" d="M 3.105469 16.082031 C 41.003906 16.082031 78.894531 16.082031 116.804688 16.082031 C 116.804688 23.992188 116.804688 31.90625 116.804688 39.8125 C 78.894531 39.8125 41.003906 39.8125 3.105469 39.8125 C 3.105469 31.90625 3.105469 23.992188 3.105469 16.082031 Z M 3.105469 16.082031 "/>
<path style=" stroke:none;fill-rule:evenodd;fill:rgb(3.137255%,3.137255%,3.137255%);fill-opacity:1;" d="M 109.101562 19.511719 C 109.277344 19.511719 109.445312 19.511719 109.617188 19.511719 C 109.597656 23.164062 109.617188 26.800781 109.660156 30.4375 C 109.695312 30.695312 109.808594 30.886719 110.015625 31.019531 C 110.324219 31.074219 110.632812 31.050781 110.925781 30.96875 C 110.859375 31.269531 110.65625 31.46875 110.324219 31.53125 C 109.640625 31.878906 108.933594 32.113281 108.191406 32.214844 C 108.214844 31.867188 108.191406 31.523438 108.148438 31.175781 C 107.167969 32.25 105.996094 32.5 104.664062 31.960938 C 103.511719 31.238281 102.890625 30.175781 102.785156 28.78125 C 102.644531 26.628906 103.46875 25.019531 105.269531 23.9375 C 106.304688 23.511719 107.257812 23.625 108.148438 24.304688 C 108.214844 23.230469 108.214844 22.152344 108.148438 21.082031 C 108.101562 20.929688 108.023438 20.804688 107.898438 20.710938 C 107.589844 20.667969 107.28125 20.675781 106.988281 20.769531 C 106.960938 20.632812 107 20.503906 107.089844 20.402344 C 107.785156 20.136719 108.457031 19.835938 109.101562 19.511719 Z M 109.101562 19.511719 "/>
<path style=" stroke:none;fill-rule:evenodd;fill:rgb(36.862745%,36.862745%,36.862745%);fill-opacity:1;" d="M 16.757812 20.136719 C 13.617188 20.136719 10.484375 20.136719 7.355469 20.136719 C 7.378906 20.273438 7.34375 20.375 7.253906 20.457031 C 7.253906 20.3125 7.253906 20.167969 7.253906 20.042969 C 10.441406 20.011719 13.609375 20.042969 16.757812 20.136719 Z M 16.757812 20.136719 "/>
<path style=" stroke:none;fill-rule:evenodd;fill:rgb(43.921569%,43.921569%,43.921569%);fill-opacity:1;" d="M 88.171875 20.136719 C 86.492188 20.113281 84.804688 20.136719 83.117188 20.238281 C 83.355469 20.3125 83.59375 20.375 83.824219 20.457031 C 83.550781 20.457031 83.285156 20.457031 83.015625 20.457031 C 83.015625 20.3125 83.015625 20.167969 83.015625 20.042969 C 84.746094 20.011719 86.464844 20.042969 88.171875 20.136719 Z M 88.171875 20.136719 "/>
<path style=" stroke:none;fill-rule:evenodd;fill:rgb(1.176471%,1.176471%,1.176471%);fill-opacity:1;" d="M 16.757812 20.136719 C 16.851562 21.042969 16.882812 21.945312 16.863281 22.855469 C 16.757812 22.855469 16.65625 22.855469 16.550781 22.855469 C 16.550781 21.832031 16.085938 21.1875 15.144531 20.917969 C 14.367188 20.875 13.582031 20.851562 12.8125 20.875 C 12.800781 24.132812 12.8125 27.386719 12.863281 30.648438 C 13.039062 31.523438 13.558594 31.867188 14.4375 31.695312 C 14.4375 31.800781 14.4375 31.90625 14.4375 32.007812 C 12.8125 32.007812 11.1875 32.007812 9.574219 32.007812 C 9.574219 31.90625 9.574219 31.800781 9.574219 31.695312 C 10.152344 31.800781 10.648438 31.625 11.042969 31.175781 C 11.074219 31.003906 11.113281 30.832031 11.144531 30.648438 C 11.1875 27.386719 11.214844 24.132812 11.1875 20.875 C 10.265625 20.824219 9.355469 20.875 8.457031 21.03125 C 7.820312 21.449219 7.523438 22.0625 7.546875 22.855469 C 7.410156 22.855469 7.285156 22.855469 7.148438 22.855469 C 7.242188 22.050781 7.273438 21.25 7.253906 20.457031 C 7.34375 20.375 7.378906 20.273438 7.355469 20.136719 C 10.484375 20.136719 13.617188 20.136719 16.757812 20.136719 Z M 16.757812 20.136719 "/>
<path style=" stroke:none;fill-rule:evenodd;fill:rgb(1.568627%,1.568627%,1.568627%);fill-opacity:1;" d="M 88.171875 20.136719 C 90.0625 19.949219 91.359375 20.75 92.070312 22.53125 C 92.226562 23.8125 91.804688 24.832031 90.800781 25.605469 C 90.300781 25.835938 89.804688 26.042969 89.277344 26.226562 C 90.179688 27.59375 91.101562 28.933594 92.070312 30.230469 C 92.683594 31.105469 93.511719 31.59375 94.539062 31.695312 C 94.539062 31.800781 94.539062 31.90625 94.539062 32.007812 C 93.503906 32.042969 92.457031 32.007812 91.410156 31.90625 C 90.179688 30.128906 88.945312 28.367188 87.714844 26.59375 C 87.277344 26.492188 86.820312 26.457031 86.347656 26.492188 C 86.304688 28.058594 86.367188 29.625 86.5 31.175781 C 86.917969 31.636719 87.445312 31.8125 88.070312 31.695312 C 88.070312 31.800781 88.070312 31.90625 88.070312 32.007812 C 86.386719 32.007812 84.699219 32.007812 83.015625 32.007812 C 83.015625 31.90625 83.015625 31.800781 83.015625 31.695312 C 83.632812 31.8125 84.152344 31.636719 84.585938 31.175781 C 84.621094 31.003906 84.640625 30.832031 84.679688 30.648438 C 84.746094 27.492188 84.746094 24.339844 84.679688 21.1875 C 84.542969 20.757812 84.257812 20.519531 83.824219 20.457031 C 83.59375 20.375 83.355469 20.3125 83.117188 20.238281 C 84.804688 20.136719 86.492188 20.113281 88.171875 20.136719 Z M 88.171875 20.136719 "/>
<path style=" stroke:none;fill-rule:evenodd;fill:rgb(98.823529%,98.823529%,98.823529%);fill-opacity:1;" d="M 86.761719 20.769531 C 87.652344 20.667969 88.492188 20.824219 89.277344 21.230469 C 90.53125 22.625 90.496094 23.96875 89.183594 25.292969 C 88.285156 25.753906 87.351562 25.949219 86.347656 25.871094 C 86.347656 24.199219 86.347656 22.53125 86.347656 20.875 C 86.511719 20.894531 86.648438 20.863281 86.761719 20.769531 Z M 86.761719 20.769531 "/>
<path style=" stroke:none;fill-rule:evenodd;fill:rgb(3.137255%,3.137255%,3.137255%);fill-opacity:1;" d="M 63.6875 21.289062 C 63.6875 22.1875 63.6875 23.09375 63.6875 23.992188 C 64.292969 23.992188 64.90625 23.992188 65.507812 23.992188 C 65.507812 24.167969 65.507812 24.339844 65.507812 24.511719 C 64.917969 24.476562 64.347656 24.511719 63.789062 24.613281 C 63.78125 26.628906 63.789062 28.644531 63.839844 30.648438 C 64.191406 31.09375 64.609375 31.175781 65.101562 30.914062 C 65.828125 30.246094 65.953125 30.335938 65.464844 31.175781 C 64.597656 32.261719 63.65625 32.363281 62.628906 31.488281 C 62.425781 31.167969 62.347656 30.820312 62.378906 30.4375 C 62.378906 28.46875 62.378906 26.492188 62.378906 24.511719 C 61.96875 24.511719 61.574219 24.511719 61.160156 24.511719 C 61.160156 24.40625 61.160156 24.304688 61.160156 24.199219 C 62.300781 23.601562 63.054688 22.667969 63.4375 21.394531 C 63.507812 21.3125 63.589844 21.277344 63.6875 21.289062 Z M 63.6875 21.289062 "/>
<path style=" stroke:none;fill-rule:evenodd;fill:rgb(3.137255%,3.137255%,3.137255%);fill-opacity:1;" d="M 68.550781 21.289062 C 68.550781 22.1875 68.550781 23.09375 68.550781 23.992188 C 69.152344 23.992188 69.761719 23.992188 70.375 23.992188 C 70.375 24.167969 70.375 24.339844 70.375 24.511719 C 69.773438 24.476562 69.203125 24.511719 68.65625 24.613281 C 68.601562 26.710938 68.65625 28.78125 68.800781 30.867188 C 69.382812 31.199219 69.875 31.09375 70.269531 30.542969 C 70.394531 30.429688 70.519531 30.417969 70.671875 30.5 C 70.113281 31.855469 69.164062 32.304688 67.835938 31.84375 C 67.414062 31.488281 67.21875 31.019531 67.234375 30.4375 C 67.234375 28.46875 67.234375 26.492188 67.234375 24.511719 C 66.832031 24.511719 66.421875 24.511719 66.015625 24.511719 C 66.015625 24.40625 66.015625 24.304688 66.015625 24.199219 C 67.152344 23.601562 67.917969 22.667969 68.292969 21.394531 C 68.355469 21.3125 68.449219 21.277344 68.550781 21.289062 Z M 68.550781 21.289062 "/>
<path style=" stroke:none;fill-rule:evenodd;fill:rgb(2.745098%,2.745098%,2.745098%);fill-opacity:1;" d="M 20.90625 23.683594 C 23.21875 23.554688 24.4375 24.660156 24.550781 27.011719 C 22.761719 27.011719 20.972656 27.011719 19.1875 27.011719 C 19.117188 28.6875 19.789062 29.925781 21.199219 30.707031 C 22.679688 31.074219 23.695312 30.53125 24.242188 29.09375 C 24.324219 29 24.425781 28.96875 24.550781 28.988281 C 24.140625 31.339844 22.792969 32.386719 20.496094 32.167969 C 18.722656 31.394531 17.875 30.011719 17.96875 28 C 17.957031 25.8125 18.921875 24.375 20.90625 23.683594 Z M 20.90625 23.683594 "/>
<path style=" stroke:none;fill-rule:evenodd;fill:rgb(72.941176%,72.941176%,72.941176%);fill-opacity:1;" d="M 27.472656 23.785156 C 27.625 23.683594 27.792969 23.648438 27.988281 23.683594 C 27.957031 24.222656 27.988281 24.742188 28.09375 25.238281 C 28.058594 25.332031 28.011719 25.398438 27.929688 25.457031 C 27.886719 24.894531 27.863281 24.339844 27.886719 23.785156 C 27.75 23.785156 27.613281 23.785156 27.472656 23.785156 Z M 27.472656 23.785156 "/>
<path style=" stroke:none;fill-rule:evenodd;fill:rgb(2.352941%,2.352941%,2.352941%);fill-opacity:1;" d="M 27.472656 23.785156 C 27.613281 23.785156 27.75 23.785156 27.886719 23.785156 C 27.863281 24.339844 27.886719 24.894531 27.929688 25.457031 C 28.011719 25.398438 28.058594 25.332031 28.09375 25.238281 C 28.535156 24.175781 29.308594 23.71875 30.414062 23.832031 C 30.734375 24.03125 30.984375 24.292969 31.167969 24.613281 C 31.882812 24.304688 32.613281 24.03125 33.339844 23.785156 C 33.445312 23.785156 33.546875 23.785156 33.652344 23.785156 C 33.613281 24.339844 33.652344 24.90625 33.753906 25.457031 C 33.808594 25.433594 33.839844 25.398438 33.851562 25.351562 C 34.160156 24.730469 34.605469 24.222656 35.164062 23.832031 C 35.804688 23.648438 36.324219 23.8125 36.734375 24.304688 C 36.914062 25.226562 36.5625 25.59375 35.671875 25.398438 C 35.390625 25.085938 35.0625 24.949219 34.664062 24.980469 C 34.296875 25.28125 34.015625 25.652344 33.796875 26.074219 C 33.726562 27.710938 33.726562 29.335938 33.796875 30.96875 C 34.046875 31.523438 34.46875 31.761719 35.0625 31.695312 C 35.0625 31.800781 35.0625 31.90625 35.0625 32.007812 C 33.753906 32.007812 32.429688 32.007812 31.117188 32.007812 C 31.117188 31.90625 31.117188 31.800781 31.117188 31.695312 C 31.632812 31.71875 32.019531 31.511719 32.285156 31.074219 C 32.347656 29.199219 32.347656 27.320312 32.285156 25.457031 C 32.214844 25.28125 32.132812 25.132812 32.027344 24.980469 C 31.644531 24.980469 31.292969 24.90625 30.972656 24.71875 C 30.878906 25.375 30.515625 25.59375 29.914062 25.398438 C 29.707031 25.261719 29.503906 25.125 29.296875 24.980469 C 29.140625 24.914062 28.972656 24.914062 28.796875 24.980469 C 28.464844 25.351562 28.183594 25.753906 27.929688 26.179688 C 27.863281 27.710938 27.863281 29.230469 27.929688 30.761719 C 28.101562 31.5 28.558594 31.8125 29.296875 31.695312 C 29.296875 31.800781 29.296875 31.90625 29.296875 32.007812 C 27.957031 32.007812 26.601562 32.007812 25.257812 32.007812 C 25.257812 31.90625 25.257812 31.800781 25.257812 31.695312 C 25.652344 31.742188 26.011719 31.636719 26.3125 31.386719 C 26.425781 30.3125 26.476562 29.242188 26.476562 28.148438 C 26.449219 27.183594 26.4375 26.21875 26.417969 25.238281 C 26.117188 24.914062 25.765625 24.84375 25.359375 25.03125 C 25.222656 24.84375 25.257812 24.6875 25.460938 24.570312 C 26.117188 24.28125 26.789062 24.019531 27.472656 23.785156 Z M 27.472656 23.785156 "/>
<path style=" stroke:none;fill-rule:evenodd;fill:rgb(33.72549%,33.72549%,33.72549%);fill-opacity:1;" d="M 33.339844 23.785156 C 33.457031 23.683594 33.589844 23.648438 33.753906 23.683594 C 33.714844 24.257812 33.753906 24.8125 33.851562 25.351562 C 33.839844 25.398438 33.808594 25.433594 33.753906 25.457031 C 33.652344 24.90625 33.613281 24.339844 33.652344 23.785156 C 33.546875 23.785156 33.445312 23.785156 33.339844 23.785156 Z M 33.339844 23.785156 "/>
<path style=" stroke:none;fill-rule:evenodd;fill:rgb(3.529412%,3.529412%,3.529412%);fill-opacity:1;" d="M 39.511719 23.785156 C 40.300781 23.75 41.074219 23.800781 41.851562 23.9375 C 42.316406 24.085938 42.667969 24.386719 42.90625 24.824219 C 43.03125 26.769531 43.101562 28.699219 43.113281 30.648438 C 43.179688 30.867188 43.320312 31.003906 43.507812 31.074219 C 43.871094 30.914062 44.183594 30.65625 44.421875 30.335938 C 44.316406 31.175781 43.863281 31.75 43.054688 32.0625 C 42.761719 32.132812 42.453125 32.132812 42.144531 32.0625 C 41.859375 31.742188 41.65625 31.386719 41.539062 30.96875 C 41.085938 31.3125 40.617188 31.648438 40.132812 31.960938 C 38.191406 32.433594 37.269531 31.648438 37.339844 29.613281 C 37.578125 28.886719 38.03125 28.34375 38.703125 28 C 39.617188 27.480469 40.558594 27.042969 41.539062 26.699219 C 41.964844 24.960938 41.3125 24.1875 39.617188 24.363281 C 39.328125 24.488281 39.136719 24.71875 39.058594 25.03125 C 39.023438 25.417969 38.992188 25.800781 38.953125 26.179688 C 38.589844 26.675781 38.191406 26.710938 37.75 26.28125 C 37.496094 25.417969 37.75 24.742188 38.5 24.257812 C 38.828125 24.039062 39.171875 23.886719 39.511719 23.785156 Z M 39.511719 23.785156 "/>
<path style=" stroke:none;fill-rule:evenodd;fill:rgb(2.745098%,2.745098%,2.745098%);fill-opacity:1;" d="M 47.90625 23.785156 C 48.984375 23.601562 49.96875 23.832031 50.847656 24.46875 C 51.148438 24.789062 51.355469 25.167969 51.449219 25.605469 C 51.300781 26.273438 50.890625 26.511719 50.238281 26.332031 C 50.011719 26.25 49.863281 26.089844 49.785156 25.871094 C 49.578125 24.257812 48.785156 23.867188 47.402344 24.675781 C 47.089844 24.980469 46.832031 25.351562 46.644531 25.769531 C 46.253906 27.34375 46.492188 28.792969 47.359375 30.128906 C 48.054688 30.867188 48.882812 31.0625 49.832031 30.707031 C 50.546875 30.3125 51.0625 29.726562 51.34375 28.945312 C 51.46875 28.851562 51.574219 28.875 51.65625 28.988281 C 51.378906 30.53125 50.539062 31.59375 49.121094 32.167969 C 46.894531 32.332031 45.558594 31.269531 45.125 28.988281 C 44.71875 26.457031 45.652344 24.730469 47.90625 23.785156 Z M 47.90625 23.785156 "/>
<path style=" stroke:none;fill-rule:evenodd;fill:rgb(3.137255%,3.137255%,3.137255%);fill-opacity:1;" d="M 56.003906 23.683594 C 58.3125 23.59375 59.75 24.707031 60.308594 27.011719 C 60.433594 28.324219 60.15625 29.53125 59.5 30.648438 C 58.375 32.074219 56.9375 32.535156 55.195312 32.0625 C 53.25 30.914062 52.496094 29.199219 52.917969 26.90625 C 53.363281 25.214844 54.398438 24.144531 56.003906 23.683594 Z M 56.003906 23.683594 "/>
<path style=" stroke:none;fill-rule:evenodd;fill:rgb(2.745098%,2.745098%,2.745098%);fill-opacity:1;" d="M 73.707031 23.683594 C 74.691406 23.601562 75.601562 23.8125 76.429688 24.304688 C 76.617188 24.5 76.761719 24.707031 76.886719 24.925781 C 77.027344 26.863281 77.09375 28.804688 77.09375 30.761719 C 77.136719 30.957031 77.253906 31.0625 77.445312 31.074219 C 77.796875 30.957031 78.085938 30.75 78.3125 30.4375 C 78.378906 30.613281 78.378906 30.800781 78.3125 30.96875 C 78.015625 31.257812 77.734375 31.558594 77.445312 31.84375 C 76.328125 32.46875 75.714844 32.132812 75.578125 30.867188 C 75.042969 31.304688 74.496094 31.695312 73.902344 32.0625 C 72.039062 32.316406 71.171875 31.46875 71.332031 29.507812 C 71.648438 28.804688 72.140625 28.261719 72.796875 27.894531 C 73.707031 27.414062 74.65625 27.011719 75.625 26.699219 C 75.660156 26.136719 75.601562 25.582031 75.476562 25.03125 C 75.332031 24.742188 75.101562 24.511719 74.816406 24.363281 C 73.382812 24.074219 72.753906 24.6875 72.949219 26.179688 C 72.195312 26.847656 71.742188 26.675781 71.582031 25.664062 C 71.660156 24.96875 71.988281 24.46875 72.597656 24.15625 C 72.972656 23.96875 73.335938 23.820312 73.707031 23.683594 Z M 73.707031 23.683594 "/>
<path style=" stroke:none;fill-rule:evenodd;fill:rgb(2.745098%,2.745098%,2.745098%);fill-opacity:1;" d="M 98.183594 23.683594 C 100.425781 23.625 101.566406 24.730469 101.625 27.011719 C 99.835938 27.011719 98.046875 27.011719 96.257812 27.011719 C 96.191406 28.6875 96.875 29.925781 98.285156 30.707031 C 99.878906 31.0625 100.925781 30.464844 101.417969 28.886719 C 101.566406 28.945312 101.636719 29.035156 101.625 29.199219 C 101.097656 31.558594 99.683594 32.511719 97.375 32.0625 C 96.453125 31.660156 95.789062 30.980469 95.40625 30.027344 C 94.640625 27.929688 94.992188 26.074219 96.460938 24.46875 C 97 24.085938 97.570312 23.820312 98.183594 23.683594 Z M 98.183594 23.683594 "/>
<path style=" stroke:none;fill-rule:evenodd;fill:rgb(47.843137%,47.843137%,47.843137%);fill-opacity:1;" d="M 63.6875 21.289062 C 63.789062 22.136719 63.828125 23 63.789062 23.886719 C 64.417969 23.855469 65.023438 23.886719 65.613281 23.992188 C 65.578125 23.992188 65.546875 23.992188 65.507812 23.992188 C 64.90625 23.992188 64.292969 23.992188 63.6875 23.992188 C 63.6875 23.09375 63.6875 22.1875 63.6875 21.289062 Z M 63.6875 21.289062 "/>
<path style=" stroke:none;fill-rule:evenodd;fill:rgb(45.098039%,45.098039%,45.098039%);fill-opacity:1;" d="M 68.550781 21.289062 C 68.65625 22.136719 68.675781 23 68.65625 23.886719 C 69.257812 23.886719 69.863281 23.886719 70.464844 23.886719 C 70.464844 24.132812 70.464844 24.375 70.464844 24.613281 C 69.863281 24.613281 69.257812 24.613281 68.65625 24.613281 C 69.203125 24.511719 69.773438 24.476562 70.375 24.511719 C 70.375 24.339844 70.375 24.167969 70.375 23.992188 C 69.761719 23.992188 69.152344 23.992188 68.550781 23.992188 C 68.550781 23.09375 68.550781 22.1875 68.550781 21.289062 Z M 68.550781 21.289062 "/>
<path style=" stroke:none;fill-rule:evenodd;fill:rgb(98.823529%,98.823529%,98.823529%);fill-opacity:1;" d="M 55.796875 24.304688 C 56.820312 24.144531 57.585938 24.523438 58.074219 25.457031 C 58.300781 25.835938 58.476562 26.261719 58.589844 26.699219 C 58.738281 27.699219 58.769531 28.699219 58.6875 29.71875 C 58.28125 31.5 57.289062 31.996094 55.707031 31.222656 C 55.113281 30.59375 54.730469 29.84375 54.535156 28.988281 C 54.347656 27.941406 54.347656 26.90625 54.535156 25.871094 C 54.730469 25.132812 55.148438 24.605469 55.796875 24.304688 Z M 55.796875 24.304688 "/>
<path style=" stroke:none;fill-rule:evenodd;fill:rgb(98.823529%,98.823529%,98.823529%);fill-opacity:1;" d="M 105.871094 24.304688 C 107.042969 24.121094 107.808594 24.605469 108.148438 25.769531 C 108.214844 27.355469 108.214844 28.957031 108.148438 30.542969 C 106.863281 31.648438 105.746094 31.476562 104.8125 30.027344 C 104.652344 29.65625 104.527344 29.28125 104.402344 28.886719 C 104.332031 28.023438 104.332031 27.148438 104.402344 26.28125 C 104.617188 25.398438 105.097656 24.742188 105.871094 24.304688 Z M 105.871094 24.304688 "/>
<path style=" stroke:none;fill-rule:evenodd;fill:rgb(98.039216%,98.039216%,98.039216%);fill-opacity:1;" d="M 22.730469 25.871094 C 22.730469 26.042969 22.730469 26.21875 22.730469 26.386719 C 21.578125 26.386719 20.425781 26.386719 19.285156 26.386719 C 19.285156 26.25 19.285156 26.113281 19.285156 25.972656 C 19.539062 25.03125 20.132812 24.476562 21.054688 24.304688 C 22.007812 24.386719 22.566406 24.90625 22.730469 25.871094 Z M 22.730469 25.871094 "/>
<path style=" stroke:none;fill-rule:evenodd;fill:rgb(98.039216%,98.039216%,98.039216%);fill-opacity:1;" d="M 99.804688 25.769531 C 99.804688 25.972656 99.804688 26.179688 99.804688 26.386719 C 98.664062 26.386719 97.507812 26.386719 96.359375 26.386719 C 96.359375 26.25 96.359375 26.113281 96.359375 25.972656 C 96.851562 24.457031 97.785156 24.019531 99.195312 24.675781 C 99.515625 24.96875 99.710938 25.34375 99.804688 25.769531 Z M 99.804688 25.769531 "/>
<path style=" stroke:none;fill-rule:evenodd;fill:rgb(46.666667%,46.666667%,46.666667%);fill-opacity:1;" d="M 61.160156 24.199219 C 61.160156 24.304688 61.160156 24.40625 61.160156 24.511719 C 61.574219 24.511719 61.96875 24.511719 62.378906 24.511719 C 62.378906 26.492188 62.378906 28.46875 62.378906 30.4375 C 62.277344 28.519531 62.246094 26.582031 62.277344 24.613281 C 61.867188 24.613281 61.46875 24.613281 61.058594 24.613281 C 61.035156 24.457031 61.066406 24.3125 61.160156 24.199219 Z M 61.160156 24.199219 "/>
<path style=" stroke:none;fill-rule:evenodd;fill:rgb(32.941176%,32.941176%,32.941176%);fill-opacity:1;" d="M 65.507812 23.992188 C 65.546875 23.992188 65.578125 23.992188 65.613281 23.992188 C 65.613281 24.199219 65.613281 24.40625 65.613281 24.613281 C 65.011719 24.613281 64.398438 24.613281 63.789062 24.613281 C 64.347656 24.511719 64.917969 24.476562 65.507812 24.511719 C 65.507812 24.339844 65.507812 24.167969 65.507812 23.992188 Z M 65.507812 23.992188 "/>
<path style=" stroke:none;fill-rule:evenodd;fill:rgb(54.117647%,54.117647%,54.117647%);fill-opacity:1;" d="M 66.015625 24.199219 C 66.015625 24.304688 66.015625 24.40625 66.015625 24.511719 C 66.421875 24.511719 66.832031 24.511719 67.234375 24.511719 C 67.234375 26.492188 67.234375 28.46875 67.234375 30.4375 C 67.132812 28.519531 67.09375 26.582031 67.132812 24.613281 C 66.730469 24.613281 66.324219 24.613281 65.921875 24.613281 C 65.890625 24.457031 65.921875 24.3125 66.015625 24.199219 Z M 66.015625 24.199219 "/>
<path style=" stroke:none;fill-rule:evenodd;fill:rgb(76.862745%,76.862745%,76.862745%);fill-opacity:1;" d="M 22.730469 25.871094 C 22.820312 26.054688 22.855469 26.261719 22.832031 26.492188 C 21.613281 26.492188 20.390625 26.492188 19.1875 26.492188 C 19.148438 26.292969 19.1875 26.125 19.285156 25.972656 C 19.285156 26.113281 19.285156 26.25 19.285156 26.386719 C 20.425781 26.386719 21.578125 26.386719 22.730469 26.386719 C 22.730469 26.21875 22.730469 26.042969 22.730469 25.871094 Z M 22.730469 25.871094 "/>
<path style=" stroke:none;fill-rule:evenodd;fill:rgb(76.078431%,76.078431%,76.078431%);fill-opacity:1;" d="M 99.804688 25.769531 C 99.902344 25.988281 99.9375 26.226562 99.902344 26.492188 C 98.695312 26.492188 97.476562 26.492188 96.257812 26.492188 C 96.234375 26.292969 96.269531 26.125 96.359375 25.972656 C 96.359375 26.113281 96.359375 26.25 96.359375 26.386719 C 97.507812 26.386719 98.664062 26.386719 99.804688 26.386719 C 99.804688 26.179688 99.804688 25.972656 99.804688 25.769531 Z M 99.804688 25.769531 "/>
<path style=" stroke:none;fill-rule:evenodd;fill:rgb(98.431373%,98.431373%,98.431373%);fill-opacity:1;" d="M 41.4375 27.21875 C 41.574219 27.699219 41.644531 28.21875 41.644531 28.78125 C 41.621094 29.300781 41.605469 29.820312 41.585938 30.335938 C 40.972656 30.980469 40.238281 31.210938 39.410156 31.019531 C 38.796875 30.429688 38.632812 29.71875 38.953125 28.886719 C 39.148438 28.550781 39.398438 28.289062 39.71875 28.105469 C 40.300781 27.804688 40.878906 27.503906 41.4375 27.21875 Z M 41.4375 27.21875 "/>
<path style=" stroke:none;fill-rule:evenodd;fill:rgb(97.647059%,97.647059%,97.647059%);fill-opacity:1;" d="M 75.433594 27.21875 C 75.558594 27.699219 75.625 28.21875 75.625 28.78125 C 75.828125 30.347656 75.15625 31.132812 73.609375 31.121094 C 72.992188 30.820312 72.683594 30.3125 72.699219 29.613281 C 72.683594 29.3125 72.777344 29.035156 72.949219 28.78125 C 73.65625 28.058594 74.484375 27.539062 75.433594 27.21875 Z M 75.433594 27.21875 "/>
</g>
</svg>
