<?xml version="1.0" encoding="UTF-8"?>
<svg xmlns="http://www.w3.org/2000/svg" xmlns:xlink="http://www.w3.org/1999/xlink" width="40px" height="19px" viewBox="0 0 39 19" version="1.1">
<g id="surface1">
<path style=" stroke:none;fill-rule:evenodd;fill:rgb(99.607843%,99.607843%,99.607843%);fill-opacity:1;" d="M -0.015625 5.457031 C 12.984375 5.457031 25.980469 5.457031 38.984375 5.457031 C 38.984375 8.140625 38.984375 10.824219 38.984375 13.507812 C 25.980469 13.507812 12.984375 13.507812 -0.015625 13.507812 C -0.015625 10.824219 -0.015625 8.140625 -0.015625 5.457031 Z M -0.015625 5.457031 "/>
<path style=" stroke:none;fill-rule:evenodd;fill:rgb(3.137255%,3.137255%,3.137255%);fill-opacity:1;" d="M 36.34375 6.621094 C 36.402344 6.621094 36.460938 6.621094 36.519531 6.621094 C 36.511719 7.859375 36.519531 9.09375 36.535156 10.328125 C 36.546875 10.414062 36.585938 10.480469 36.65625 10.523438 C 36.761719 10.542969 36.867188 10.535156 36.96875 10.507812 C 36.945312 10.609375 36.875 10.675781 36.761719 10.699219 C 36.527344 10.816406 36.285156 10.894531 36.03125 10.929688 C 36.039062 10.8125 36.03125 10.695312 36.015625 10.578125 C 35.679688 10.941406 35.277344 11.027344 34.820312 10.84375 C 34.425781 10.597656 34.210938 10.238281 34.175781 9.765625 C 34.128906 9.035156 34.410156 8.488281 35.027344 8.121094 C 35.382812 7.976562 35.710938 8.015625 36.015625 8.246094 C 36.039062 7.882812 36.039062 7.515625 36.015625 7.152344 C 36 7.101562 35.972656 7.058594 35.929688 7.027344 C 35.824219 7.011719 35.71875 7.015625 35.617188 7.046875 C 35.609375 7 35.621094 6.957031 35.652344 6.921875 C 35.890625 6.832031 36.121094 6.730469 36.34375 6.621094 Z M 36.34375 6.621094 "/>
<path style=" stroke:none;fill-rule:evenodd;fill:rgb(36.862745%,36.862745%,36.862745%);fill-opacity:1;" d="M 4.667969 6.832031 C 3.589844 6.832031 2.515625 6.832031 1.441406 6.832031 C 1.449219 6.878906 1.4375 6.914062 1.40625 6.941406 C 1.40625 6.890625 1.40625 6.84375 1.40625 6.800781 C 2.5 6.789062 3.585938 6.800781 4.667969 6.832031 Z M 4.667969 6.832031 "/>
<path style=" stroke:none;fill-rule:evenodd;fill:rgb(43.921569%,43.921569%,43.921569%);fill-opacity:1;" d="M 29.164062 6.832031 C 28.585938 6.824219 28.007812 6.832031 27.429688 6.867188 C 27.511719 6.890625 27.59375 6.914062 27.671875 6.941406 C 27.578125 6.941406 27.488281 6.941406 27.394531 6.941406 C 27.394531 6.890625 27.394531 6.84375 27.394531 6.800781 C 27.988281 6.789062 28.578125 6.800781 29.164062 6.832031 Z M 29.164062 6.832031 "/>
<path style=" stroke:none;fill-rule:evenodd;fill:rgb(1.176471%,1.176471%,1.176471%);fill-opacity:1;" d="M 4.667969 6.832031 C 4.699219 7.140625 4.710938 7.445312 4.703125 7.753906 C 4.667969 7.753906 4.632812 7.753906 4.597656 7.753906 C 4.597656 7.40625 4.4375 7.1875 4.113281 7.097656 C 3.847656 7.082031 3.578125 7.074219 3.3125 7.082031 C 3.308594 8.1875 3.3125 9.292969 3.332031 10.398438 C 3.390625 10.695312 3.570312 10.8125 3.871094 10.753906 C 3.871094 10.789062 3.871094 10.824219 3.871094 10.859375 C 3.3125 10.859375 2.757812 10.859375 2.203125 10.859375 C 2.203125 10.824219 2.203125 10.789062 2.203125 10.753906 C 2.402344 10.789062 2.570312 10.730469 2.707031 10.578125 C 2.71875 10.519531 2.730469 10.460938 2.742188 10.398438 C 2.757812 9.292969 2.765625 8.1875 2.757812 7.082031 C 2.441406 7.066406 2.128906 7.082031 1.820312 7.136719 C 1.601562 7.277344 1.5 7.484375 1.507812 7.753906 C 1.460938 7.753906 1.417969 7.753906 1.371094 7.753906 C 1.402344 7.480469 1.414062 7.210938 1.40625 6.941406 C 1.4375 6.914062 1.449219 6.878906 1.441406 6.832031 C 2.515625 6.832031 3.589844 6.832031 4.667969 6.832031 Z M 4.667969 6.832031 "/>
<path style=" stroke:none;fill-rule:evenodd;fill:rgb(1.568627%,1.568627%,1.568627%);fill-opacity:1;" d="M 29.164062 6.832031 C 29.8125 6.769531 30.257812 7.039062 30.5 7.644531 C 30.554688 8.078125 30.410156 8.425781 30.066406 8.6875 C 29.894531 8.765625 29.722656 8.835938 29.542969 8.898438 C 29.851562 9.363281 30.167969 9.816406 30.5 10.257812 C 30.710938 10.554688 30.996094 10.71875 31.347656 10.753906 C 31.347656 10.789062 31.347656 10.824219 31.347656 10.859375 C 30.992188 10.871094 30.632812 10.859375 30.273438 10.824219 C 29.851562 10.222656 29.429688 9.625 29.007812 9.023438 C 28.855469 8.988281 28.699219 8.976562 28.539062 8.988281 C 28.523438 9.519531 28.542969 10.050781 28.589844 10.578125 C 28.734375 10.734375 28.914062 10.792969 29.128906 10.753906 C 29.128906 10.789062 29.128906 10.824219 29.128906 10.859375 C 28.550781 10.859375 27.972656 10.859375 27.394531 10.859375 C 27.394531 10.824219 27.394531 10.789062 27.394531 10.753906 C 27.605469 10.792969 27.785156 10.734375 27.933594 10.578125 C 27.945312 10.519531 27.953125 10.460938 27.964844 10.398438 C 27.988281 9.328125 27.988281 8.257812 27.964844 7.1875 C 27.917969 7.042969 27.820312 6.960938 27.671875 6.941406 C 27.59375 6.914062 27.511719 6.890625 27.429688 6.867188 C 28.007812 6.832031 28.585938 6.824219 29.164062 6.832031 Z M 29.164062 6.832031 "/>
<path style=" stroke:none;fill-rule:evenodd;fill:rgb(98.823529%,98.823529%,98.823529%);fill-opacity:1;" d="M 28.679688 7.046875 C 28.984375 7.011719 29.273438 7.066406 29.542969 7.203125 C 29.972656 7.675781 29.960938 8.132812 29.511719 8.582031 C 29.203125 8.738281 28.882812 8.804688 28.539062 8.777344 C 28.539062 8.210938 28.539062 7.644531 28.539062 7.082031 C 28.59375 7.089844 28.640625 7.078125 28.679688 7.046875 Z M 28.679688 7.046875 "/>
<path style=" stroke:none;fill-rule:evenodd;fill:rgb(3.137255%,3.137255%,3.137255%);fill-opacity:1;" d="M 20.765625 7.222656 C 20.765625 7.527344 20.765625 7.835938 20.765625 8.140625 C 20.972656 8.140625 21.183594 8.140625 21.390625 8.140625 C 21.390625 8.199219 21.390625 8.257812 21.390625 8.316406 C 21.1875 8.304688 20.992188 8.316406 20.800781 8.351562 C 20.796875 9.035156 20.800781 9.71875 20.816406 10.398438 C 20.9375 10.550781 21.082031 10.578125 21.25 10.488281 C 21.5 10.261719 21.542969 10.292969 21.375 10.578125 C 21.078125 10.945312 20.753906 10.980469 20.402344 10.683594 C 20.332031 10.574219 20.304688 10.457031 20.316406 10.328125 C 20.316406 9.660156 20.316406 8.988281 20.316406 8.316406 C 20.175781 8.316406 20.039062 8.316406 19.898438 8.316406 C 19.898438 8.28125 19.898438 8.246094 19.898438 8.210938 C 20.289062 8.007812 20.546875 7.691406 20.679688 7.257812 C 20.703125 7.230469 20.730469 7.21875 20.765625 7.222656 Z M 20.765625 7.222656 "/>
<path style=" stroke:none;fill-rule:evenodd;fill:rgb(3.137255%,3.137255%,3.137255%);fill-opacity:1;" d="M 22.433594 7.222656 C 22.433594 7.527344 22.433594 7.835938 22.433594 8.140625 C 22.640625 8.140625 22.847656 8.140625 23.058594 8.140625 C 23.058594 8.199219 23.058594 8.257812 23.058594 8.316406 C 22.851562 8.304688 22.65625 8.316406 22.46875 8.351562 C 22.449219 9.0625 22.46875 9.765625 22.519531 10.472656 C 22.71875 10.585938 22.886719 10.550781 23.023438 10.363281 C 23.066406 10.324219 23.109375 10.320312 23.160156 10.347656 C 22.96875 10.808594 22.644531 10.960938 22.1875 10.804688 C 22.042969 10.683594 21.976562 10.523438 21.980469 10.328125 C 21.980469 9.660156 21.980469 8.988281 21.980469 8.316406 C 21.84375 8.316406 21.703125 8.316406 21.5625 8.316406 C 21.5625 8.28125 21.5625 8.246094 21.5625 8.210938 C 21.953125 8.007812 22.214844 7.691406 22.34375 7.257812 C 22.367188 7.230469 22.398438 7.21875 22.433594 7.222656 Z M 22.433594 7.222656 "/>
<path style=" stroke:none;fill-rule:evenodd;fill:rgb(2.745098%,2.745098%,2.745098%);fill-opacity:1;" d="M 6.089844 8.035156 C 6.882812 7.992188 7.300781 8.367188 7.339844 9.164062 C 6.726562 9.164062 6.113281 9.164062 5.5 9.164062 C 5.476562 9.734375 5.707031 10.152344 6.191406 10.417969 C 6.699219 10.542969 7.046875 10.359375 7.234375 9.871094 C 7.261719 9.839844 7.296875 9.828125 7.339844 9.835938 C 7.199219 10.632812 6.738281 10.988281 5.949219 10.914062 C 5.339844 10.652344 5.050781 10.183594 5.082031 9.5 C 5.078125 8.757812 5.410156 8.269531 6.089844 8.035156 Z M 6.089844 8.035156 "/>
<path style=" stroke:none;fill-rule:evenodd;fill:rgb(72.941176%,72.941176%,72.941176%);fill-opacity:1;" d="M 8.34375 8.070312 C 8.394531 8.035156 8.453125 8.023438 8.519531 8.035156 C 8.507812 8.21875 8.519531 8.394531 8.554688 8.5625 C 8.542969 8.59375 8.527344 8.617188 8.5 8.636719 C 8.484375 8.445312 8.476562 8.257812 8.484375 8.070312 C 8.4375 8.070312 8.390625 8.070312 8.34375 8.070312 Z M 8.34375 8.070312 "/>
<path style=" stroke:none;fill-rule:evenodd;fill:rgb(2.352941%,2.352941%,2.352941%);fill-opacity:1;" d="M 8.34375 8.070312 C 8.390625 8.070312 8.4375 8.070312 8.484375 8.070312 C 8.476562 8.257812 8.484375 8.445312 8.5 8.636719 C 8.527344 8.617188 8.542969 8.59375 8.554688 8.5625 C 8.707031 8.203125 8.972656 8.046875 9.351562 8.085938 C 9.460938 8.152344 9.546875 8.242188 9.609375 8.351562 C 9.855469 8.246094 10.105469 8.152344 10.355469 8.070312 C 10.390625 8.070312 10.425781 8.070312 10.460938 8.070312 C 10.449219 8.257812 10.460938 8.449219 10.496094 8.636719 C 10.515625 8.628906 10.527344 8.617188 10.53125 8.601562 C 10.636719 8.390625 10.789062 8.21875 10.980469 8.085938 C 11.199219 8.023438 11.378906 8.078125 11.519531 8.246094 C 11.582031 8.558594 11.460938 8.683594 11.15625 8.617188 C 11.058594 8.511719 10.945312 8.464844 10.808594 8.476562 C 10.683594 8.578125 10.585938 8.703125 10.511719 8.847656 C 10.488281 9.402344 10.488281 9.953125 10.511719 10.507812 C 10.597656 10.695312 10.742188 10.777344 10.945312 10.753906 C 10.945312 10.789062 10.945312 10.824219 10.945312 10.859375 C 10.496094 10.859375 10.042969 10.859375 9.59375 10.859375 C 9.59375 10.824219 9.59375 10.789062 9.59375 10.753906 C 9.769531 10.761719 9.902344 10.691406 9.992188 10.542969 C 10.015625 9.90625 10.015625 9.269531 9.992188 8.636719 C 9.96875 8.578125 9.941406 8.527344 9.90625 8.476562 C 9.773438 8.476562 9.652344 8.449219 9.542969 8.386719 C 9.511719 8.609375 9.386719 8.683594 9.179688 8.617188 C 9.109375 8.570312 9.039062 8.523438 8.96875 8.476562 C 8.914062 8.453125 8.855469 8.453125 8.796875 8.476562 C 8.683594 8.601562 8.585938 8.738281 8.5 8.882812 C 8.476562 9.402344 8.476562 9.917969 8.5 10.4375 C 8.558594 10.6875 8.714844 10.792969 8.96875 10.753906 C 8.96875 10.789062 8.96875 10.824219 8.96875 10.859375 C 8.507812 10.859375 8.042969 10.859375 7.582031 10.859375 C 7.582031 10.824219 7.582031 10.789062 7.582031 10.753906 C 7.71875 10.769531 7.839844 10.734375 7.945312 10.648438 C 7.984375 10.285156 8 9.921875 8 9.550781 C 7.992188 9.222656 7.988281 8.894531 7.980469 8.5625 C 7.878906 8.453125 7.757812 8.429688 7.617188 8.492188 C 7.570312 8.429688 7.582031 8.375 7.652344 8.335938 C 7.878906 8.238281 8.109375 8.148438 8.34375 8.070312 Z M 8.34375 8.070312 "/>
<path style=" stroke:none;fill-rule:evenodd;fill:rgb(33.72549%,33.72549%,33.72549%);fill-opacity:1;" d="M 10.355469 8.070312 C 10.394531 8.035156 10.441406 8.023438 10.496094 8.035156 C 10.484375 8.230469 10.496094 8.417969 10.53125 8.601562 C 10.527344 8.617188 10.515625 8.628906 10.496094 8.636719 C 10.460938 8.449219 10.449219 8.257812 10.460938 8.070312 C 10.425781 8.070312 10.390625 8.070312 10.355469 8.070312 Z M 10.355469 8.070312 "/>
<path style=" stroke:none;fill-rule:evenodd;fill:rgb(3.529412%,3.529412%,3.529412%);fill-opacity:1;" d="M 12.472656 8.070312 C 12.742188 8.058594 13.007812 8.074219 13.273438 8.121094 C 13.433594 8.171875 13.554688 8.273438 13.636719 8.421875 C 13.679688 9.082031 13.703125 9.738281 13.707031 10.398438 C 13.730469 10.472656 13.777344 10.519531 13.84375 10.542969 C 13.96875 10.488281 14.074219 10.402344 14.15625 10.292969 C 14.121094 10.578125 13.964844 10.773438 13.6875 10.878906 C 13.585938 10.902344 13.480469 10.902344 13.375 10.878906 C 13.277344 10.769531 13.207031 10.648438 13.167969 10.507812 C 13.011719 10.625 12.851562 10.738281 12.683594 10.84375 C 12.019531 11.003906 11.703125 10.738281 11.726562 10.046875 C 11.808594 9.800781 11.964844 9.617188 12.195312 9.5 C 12.507812 9.324219 12.832031 9.175781 13.167969 9.058594 C 13.3125 8.46875 13.089844 8.207031 12.507812 8.265625 C 12.410156 8.308594 12.34375 8.386719 12.316406 8.492188 C 12.304688 8.625 12.292969 8.753906 12.28125 8.882812 C 12.15625 9.050781 12.019531 9.0625 11.867188 8.917969 C 11.78125 8.625 11.867188 8.394531 12.125 8.230469 C 12.238281 8.15625 12.355469 8.105469 12.472656 8.070312 Z M 12.472656 8.070312 "/>
<path style=" stroke:none;fill-rule:evenodd;fill:rgb(2.745098%,2.745098%,2.745098%);fill-opacity:1;" d="M 15.351562 8.070312 C 15.722656 8.007812 16.058594 8.085938 16.359375 8.300781 C 16.464844 8.410156 16.535156 8.539062 16.566406 8.6875 C 16.515625 8.914062 16.375 8.996094 16.152344 8.933594 C 16.074219 8.90625 16.023438 8.851562 15.996094 8.777344 C 15.925781 8.230469 15.652344 8.097656 15.179688 8.371094 C 15.070312 8.476562 14.984375 8.601562 14.917969 8.742188 C 14.785156 9.277344 14.867188 9.769531 15.164062 10.222656 C 15.402344 10.472656 15.6875 10.539062 16.011719 10.417969 C 16.257812 10.285156 16.433594 10.085938 16.53125 9.820312 C 16.574219 9.789062 16.609375 9.796875 16.636719 9.835938 C 16.542969 10.359375 16.253906 10.71875 15.769531 10.914062 C 15.003906 10.96875 14.546875 10.609375 14.398438 9.835938 C 14.257812 8.976562 14.578125 8.390625 15.351562 8.070312 Z M 15.351562 8.070312 "/>
<path style=" stroke:none;fill-rule:evenodd;fill:rgb(3.137255%,3.137255%,3.137255%);fill-opacity:1;" d="M 18.128906 8.035156 C 18.921875 8.003906 19.414062 8.382812 19.605469 9.164062 C 19.648438 9.609375 19.554688 10.019531 19.328125 10.398438 C 18.941406 10.882812 18.449219 11.039062 17.851562 10.878906 C 17.183594 10.488281 16.925781 9.90625 17.070312 9.128906 C 17.222656 8.554688 17.578125 8.191406 18.128906 8.035156 Z M 18.128906 8.035156 "/>
<path style=" stroke:none;fill-rule:evenodd;fill:rgb(2.745098%,2.745098%,2.745098%);fill-opacity:1;" d="M 24.203125 8.035156 C 24.539062 8.007812 24.851562 8.078125 25.136719 8.246094 C 25.199219 8.3125 25.25 8.382812 25.292969 8.457031 C 25.339844 9.113281 25.363281 9.773438 25.363281 10.4375 C 25.378906 10.503906 25.417969 10.539062 25.484375 10.542969 C 25.605469 10.503906 25.703125 10.433594 25.78125 10.328125 C 25.804688 10.386719 25.804688 10.449219 25.78125 10.507812 C 25.679688 10.605469 25.582031 10.707031 25.484375 10.804688 C 25.101562 11.015625 24.890625 10.902344 24.84375 10.472656 C 24.660156 10.621094 24.472656 10.753906 24.269531 10.878906 C 23.628906 10.964844 23.332031 10.675781 23.386719 10.011719 C 23.496094 9.773438 23.664062 9.589844 23.890625 9.464844 C 24.203125 9.300781 24.527344 9.164062 24.859375 9.058594 C 24.871094 8.867188 24.851562 8.679688 24.808594 8.492188 C 24.757812 8.394531 24.679688 8.316406 24.582031 8.265625 C 24.089844 8.167969 23.875 8.375 23.941406 8.882812 C 23.683594 9.109375 23.527344 9.050781 23.472656 8.707031 C 23.5 8.472656 23.613281 8.300781 23.820312 8.195312 C 23.949219 8.132812 24.074219 8.082031 24.203125 8.035156 Z M 24.203125 8.035156 "/>
<path style=" stroke:none;fill-rule:evenodd;fill:rgb(2.745098%,2.745098%,2.745098%);fill-opacity:1;" d="M 32.597656 8.035156 C 33.367188 8.015625 33.757812 8.390625 33.777344 9.164062 C 33.164062 9.164062 32.550781 9.164062 31.9375 9.164062 C 31.914062 9.734375 32.148438 10.152344 32.632812 10.417969 C 33.179688 10.539062 33.539062 10.335938 33.707031 9.800781 C 33.757812 9.820312 33.78125 9.851562 33.777344 9.90625 C 33.597656 10.707031 33.113281 11.03125 32.320312 10.878906 C 32.003906 10.742188 31.777344 10.511719 31.644531 10.1875 C 31.382812 9.476562 31.503906 8.847656 32.007812 8.300781 C 32.191406 8.171875 32.386719 8.082031 32.597656 8.035156 Z M 32.597656 8.035156 "/>
<path style=" stroke:none;fill-rule:evenodd;fill:rgb(47.843137%,47.843137%,47.843137%);fill-opacity:1;" d="M 20.765625 7.222656 C 20.800781 7.511719 20.8125 7.804688 20.800781 8.105469 C 21.015625 8.09375 21.222656 8.105469 21.425781 8.140625 C 21.414062 8.140625 21.402344 8.140625 21.390625 8.140625 C 21.183594 8.140625 20.972656 8.140625 20.765625 8.140625 C 20.765625 7.835938 20.765625 7.527344 20.765625 7.222656 Z M 20.765625 7.222656 "/>
<path style=" stroke:none;fill-rule:evenodd;fill:rgb(45.098039%,45.098039%,45.098039%);fill-opacity:1;" d="M 22.433594 7.222656 C 22.46875 7.511719 22.476562 7.804688 22.46875 8.105469 C 22.675781 8.105469 22.882812 8.105469 23.089844 8.105469 C 23.089844 8.1875 23.089844 8.269531 23.089844 8.351562 C 22.882812 8.351562 22.675781 8.351562 22.46875 8.351562 C 22.65625 8.316406 22.851562 8.304688 23.058594 8.316406 C 23.058594 8.257812 23.058594 8.199219 23.058594 8.140625 C 22.847656 8.140625 22.640625 8.140625 22.433594 8.140625 C 22.433594 7.835938 22.433594 7.527344 22.433594 7.222656 Z M 22.433594 7.222656 "/>
<path style=" stroke:none;fill-rule:evenodd;fill:rgb(98.823529%,98.823529%,98.823529%);fill-opacity:1;" d="M 18.058594 8.246094 C 18.410156 8.191406 18.671875 8.320312 18.839844 8.636719 C 18.917969 8.765625 18.976562 8.910156 19.015625 9.058594 C 19.066406 9.398438 19.078125 9.738281 19.050781 10.082031 C 18.910156 10.6875 18.570312 10.855469 18.027344 10.59375 C 17.824219 10.378906 17.691406 10.125 17.625 9.835938 C 17.5625 9.480469 17.5625 9.128906 17.625 8.777344 C 17.691406 8.527344 17.835938 8.347656 18.058594 8.246094 Z M 18.058594 8.246094 "/>
<path style=" stroke:none;fill-rule:evenodd;fill:rgb(98.823529%,98.823529%,98.823529%);fill-opacity:1;" d="M 35.234375 8.246094 C 35.636719 8.183594 35.898438 8.347656 36.015625 8.742188 C 36.039062 9.28125 36.039062 9.824219 36.015625 10.363281 C 35.574219 10.738281 35.191406 10.679688 34.871094 10.1875 C 34.816406 10.0625 34.773438 9.933594 34.730469 9.800781 C 34.707031 9.507812 34.707031 9.210938 34.730469 8.917969 C 34.804688 8.617188 34.96875 8.394531 35.234375 8.246094 Z M 35.234375 8.246094 "/>
<path style=" stroke:none;fill-rule:evenodd;fill:rgb(98.039216%,98.039216%,98.039216%);fill-opacity:1;" d="M 6.714844 8.777344 C 6.714844 8.835938 6.714844 8.894531 6.714844 8.953125 C 6.320312 8.953125 5.925781 8.953125 5.535156 8.953125 C 5.535156 8.90625 5.535156 8.859375 5.535156 8.8125 C 5.621094 8.492188 5.824219 8.304688 6.140625 8.246094 C 6.46875 8.273438 6.660156 8.449219 6.714844 8.777344 Z M 6.714844 8.777344 "/>
<path style=" stroke:none;fill-rule:evenodd;fill:rgb(98.039216%,98.039216%,98.039216%);fill-opacity:1;" d="M 33.152344 8.742188 C 33.152344 8.8125 33.152344 8.882812 33.152344 8.953125 C 32.761719 8.953125 32.367188 8.953125 31.972656 8.953125 C 31.972656 8.90625 31.972656 8.859375 31.972656 8.8125 C 32.140625 8.296875 32.460938 8.148438 32.945312 8.371094 C 33.054688 8.472656 33.121094 8.597656 33.152344 8.742188 Z M 33.152344 8.742188 "/>
<path style=" stroke:none;fill-rule:evenodd;fill:rgb(46.666667%,46.666667%,46.666667%);fill-opacity:1;" d="M 19.898438 8.210938 C 19.898438 8.246094 19.898438 8.28125 19.898438 8.316406 C 20.039062 8.316406 20.175781 8.316406 20.316406 8.316406 C 20.316406 8.988281 20.316406 9.660156 20.316406 10.328125 C 20.28125 9.675781 20.269531 9.019531 20.28125 8.351562 C 20.140625 8.351562 20.003906 8.351562 19.863281 8.351562 C 19.855469 8.296875 19.867188 8.25 19.898438 8.210938 Z M 19.898438 8.210938 "/>
<path style=" stroke:none;fill-rule:evenodd;fill:rgb(32.941176%,32.941176%,32.941176%);fill-opacity:1;" d="M 21.390625 8.140625 C 21.402344 8.140625 21.414062 8.140625 21.425781 8.140625 C 21.425781 8.210938 21.425781 8.28125 21.425781 8.351562 C 21.21875 8.351562 21.007812 8.351562 20.800781 8.351562 C 20.992188 8.316406 21.1875 8.304688 21.390625 8.316406 C 21.390625 8.257812 21.390625 8.199219 21.390625 8.140625 Z M 21.390625 8.140625 "/>
<path style=" stroke:none;fill-rule:evenodd;fill:rgb(54.117647%,54.117647%,54.117647%);fill-opacity:1;" d="M 21.5625 8.210938 C 21.5625 8.246094 21.5625 8.28125 21.5625 8.316406 C 21.703125 8.316406 21.84375 8.316406 21.980469 8.316406 C 21.980469 8.988281 21.980469 9.660156 21.980469 10.328125 C 21.945312 9.675781 21.933594 9.019531 21.945312 8.351562 C 21.808594 8.351562 21.667969 8.351562 21.53125 8.351562 C 21.519531 8.296875 21.53125 8.25 21.5625 8.210938 Z M 21.5625 8.210938 "/>
<path style=" stroke:none;fill-rule:evenodd;fill:rgb(76.862745%,76.862745%,76.862745%);fill-opacity:1;" d="M 6.714844 8.777344 C 6.746094 8.839844 6.757812 8.910156 6.75 8.988281 C 6.332031 8.988281 5.914062 8.988281 5.5 8.988281 C 5.488281 8.921875 5.5 8.863281 5.535156 8.8125 C 5.535156 8.859375 5.535156 8.90625 5.535156 8.953125 C 5.925781 8.953125 6.320312 8.953125 6.714844 8.953125 C 6.714844 8.894531 6.714844 8.835938 6.714844 8.777344 Z M 6.714844 8.777344 "/>
<path style=" stroke:none;fill-rule:evenodd;fill:rgb(76.078431%,76.078431%,76.078431%);fill-opacity:1;" d="M 33.152344 8.742188 C 33.1875 8.816406 33.199219 8.898438 33.1875 8.988281 C 32.773438 8.988281 32.355469 8.988281 31.9375 8.988281 C 31.929688 8.921875 31.941406 8.863281 31.972656 8.8125 C 31.972656 8.859375 31.972656 8.90625 31.972656 8.953125 C 32.367188 8.953125 32.761719 8.953125 33.152344 8.953125 C 33.152344 8.882812 33.152344 8.8125 33.152344 8.742188 Z M 33.152344 8.742188 "/>
<path style=" stroke:none;fill-rule:evenodd;fill:rgb(98.431373%,98.431373%,98.431373%);fill-opacity:1;" d="M 13.132812 9.234375 C 13.179688 9.398438 13.203125 9.574219 13.203125 9.765625 C 13.195312 9.941406 13.191406 10.117188 13.183594 10.292969 C 12.972656 10.511719 12.722656 10.589844 12.4375 10.523438 C 12.226562 10.324219 12.171875 10.082031 12.28125 9.800781 C 12.347656 9.6875 12.433594 9.597656 12.542969 9.535156 C 12.742188 9.433594 12.941406 9.332031 13.132812 9.234375 Z M 13.132812 9.234375 "/>
<path style=" stroke:none;fill-rule:evenodd;fill:rgb(97.647059%,97.647059%,97.647059%);fill-opacity:1;" d="M 24.792969 9.234375 C 24.835938 9.398438 24.859375 9.574219 24.859375 9.765625 C 24.929688 10.296875 24.699219 10.5625 24.167969 10.558594 C 23.957031 10.457031 23.851562 10.285156 23.855469 10.046875 C 23.851562 9.945312 23.882812 9.851562 23.941406 9.765625 C 24.183594 9.519531 24.46875 9.34375 24.792969 9.234375 Z M 24.792969 9.234375 "/>
</g>
</svg>
