<?xml version="1.0" standalone="no"?>
<!DOCTYPE svg PUBLIC "-//W3C//DTD SVG 20010904//EN"
 "http://www.w3.org/TR/2001/REC-SVG-20010904/DTD/svg10.dtd">
<svg version="1.0" xmlns="http://www.w3.org/2000/svg"
 width="16.000000pt" height="54.000000pt" viewBox="0 0 88.000000 447.000000"
 preserveAspectRatio="xMidYMid meet">

<g transform="translate(0.000000,447.000000) scale(0.100000,-0.100000)"
fill="#000000" stroke="none">
<path d="M122 4328 l3 -33 340 0 340 0 3 33 3 32 -346 0 -346 0 3 -32z"/>
<path d="M757 4124 c-4 -4 -7 -74 -7 -156 l0 -148 -135 0 -134 0 -3 128 -3
127 -27 3 -28 3 0 -130 0 -131 -120 0 -120 0 0 150 0 150 -30 0 -30 0 2 -177
3 -178 337 -3 338 -2 5 22 c3 13 4 95 3 183 -3 152 -4 160 -23 163 -12 2 -24
0 -28 -4z"/>
<path d="M132 3548 c-16 -16 -15 -70 1 -90 6 -9 139 -71 295 -139 155 -67 281
-123 280 -125 -2 -1 -130 -55 -286 -119 -184 -77 -286 -124 -293 -137 -6 -10
-9 -36 -7 -56 l3 -37 343 -3 342 -2 0 30 0 30 -312 2 -313 3 313 130 c297 123
312 131 312 156 0 25 -16 33 -312 162 l-313 137 313 0 313 0 -3 33 -3 32 -330
3 c-249 2 -334 -1 -343 -10z"/>
<path d="M120 2605 l0 -35 346 0 345 0 -3 33 -3 32 -342 3 -343 2 0 -35z"/>
<path d="M756 2145 c-3 -9 -6 -43 -6 -76 l0 -59 -315 0 -315 0 1 -32 c1 -45
105 -202 137 -206 31 -5 28 12 -18 89 -22 37 -40 70 -40 73 0 3 124 6 275 6
l274 0 3 -77 c3 -77 3 -78 31 -81 l27 -3 -2 188 c-3 183 -4 188 -24 191 -13 2
-24 -4 -28 -13z"/>
<path d="M127 1563 c-14 -14 -7 -80 11 -96 14 -13 444 -207 552 -249 22 -8
-10 -24 -260 -128 -157 -66 -290 -127 -297 -136 -14 -19 -17 -62 -7 -88 5 -14
45 -16 345 -16 l339 0 0 30 0 30 -212 1 c-117 1 -254 4 -305 8 l-92 6 242 99
c377 156 369 151 365 182 -3 24 -27 36 -306 157 l-304 132 304 6 c167 3 304 7
306 7 1 1 2 16 2 32 l0 30 -338 0 c-186 0 -342 -3 -345 -7z"/>
<path d="M122 618 l3 -33 340 0 340 0 3 33 3 32 -346 0 -346 0 3 -32z"/>
<path d="M555 425 c-52 -28 -76 -58 -125 -156 -58 -115 -93 -149 -154 -149
-99 0 -136 113 -75 232 25 49 25 50 -13 46 -39 -4 -63 -44 -73 -124 -21 -159
113 -271 245 -204 48 24 76 61 128 166 48 96 88 134 140 134 118 0 167 -139
97 -273 -31 -60 -31 -67 -1 -67 52 0 88 71 90 180 1 93 -27 158 -84 196 -49
33 -133 42 -175 19z"/>
</g>
</svg>
